//Event file generated from Sappy .s format.
	#include "MPlayDef.event"

	#define	AA5KPO_grp  voicegroup000
	#define	AA5KPO_pri  0
	#define	AA5KPO_rev  0
	#define	AA5KPO_mvl  67
	#define	AA5KPO_key  0
	#define	AA5KPO_tbs  1
	#define	AA5KPO_exg  0
	#define	AA5KPO_cmp  1

	// .rodata
	//	AA5KPO
	ALIGN 4

//**************** Track 1 (Midi-Chn.1) ****************//

AA5KPO_1:
	BYTE	KEYSH   AA5KPO_key+0
// 000   ----------------------------------------
	BYTE	TEMPO   152*AA5KPO_tbs/2
	BYTE		VOICE   60
	BYTE		VOL     98*AA5KPO_mvl/mxv
	BYTE		PAN     c_v+0
	BYTE	W48
// 001   ----------------------------------------
	BYTE		N11     Cn3   v127
	BYTE		N11     Gn3 
	BYTE	W96
// 002   ----------------------------------------
	BYTE	W96
// 003   ----------------------------------------
	BYTE	W84
	BYTE		N05     Cn3 
	BYTE		N05     Gn3 
	BYTE	W12
// 004   ----------------------------------------
	BYTE	W96
// 005   ----------------------------------------
	BYTE	W96
// 006   ----------------------------------------
	BYTE	W96
// 007   ----------------------------------------
	BYTE	W72
	BYTE		N44     Ds3   v112
	BYTE	W24
// 008   ----------------------------------------
AA5KPO_1_008:
	BYTE	W24
	BYTE		N23     Gn3   v112
	BYTE	W24
	BYTE		        Fn3 
	BYTE	W24
	BYTE		        Ds3 
	BYTE	W24
	BYTE	PEND
// 009   ----------------------------------------
AA5KPO_1_009:
	BYTE		N32     Dn3   v112
	BYTE	W36
	BYTE		        Cn3 
	BYTE	W36
	BYTE		N68     Gn2 
	BYTE	W24
	BYTE	PEND
// 010   ----------------------------------------
	BYTE	W96
// 011   ----------------------------------------
AA5KPO_1_011:
	BYTE		N23     Cn3   v112
	BYTE		N23     Ds3 
	BYTE	W24
	BYTE		        Dn3 
	BYTE		N23     Fn3 
	BYTE	W24
	BYTE		N15     Ds3 
	BYTE		N15     Gn3 
	BYTE	W16
	BYTE		        Dn3 
	BYTE		N15     Fn3 
	BYTE	W16
	BYTE		TIE     Ds3 
	BYTE		TIE     Gn3 
	BYTE	W16
	BYTE	PEND
// 012   ----------------------------------------
	BYTE	W92
	BYTE	W03
	BYTE		EOT     Ds3 
	BYTE		        Gn3 
	BYTE	W01
// 013   ----------------------------------------
	BYTE	W96
// 014   ----------------------------------------
	BYTE		N92     Cn3   v096
	BYTE		N92     Fn3 
	BYTE	W96
// 015   ----------------------------------------
	BYTE		        Cs3 
	BYTE		N92     Gs3 
	BYTE	W96
// 016   ----------------------------------------
AA5KPO_1_016:
	BYTE		N44     Fn3   v096
	BYTE		N44     As3 
	BYTE	W48
	BYTE		        Cs3 
	BYTE		N44     Fn3 
	BYTE	W48
	BYTE	PEND
// 017   ----------------------------------------
AA5KPO_1_017:
	BYTE		TIE     Ds3   v112
	BYTE		TIE     Gn3 
	BYTE	W96
	BYTE	PEND
// 018   ----------------------------------------
	BYTE	W92
	BYTE	W03
	BYTE		EOT     Ds3 
	BYTE		        Gn3 
	BYTE	W01
// 019   ----------------------------------------
	BYTE	W96
// 020   ----------------------------------------
	BYTE	W96
// 021   ----------------------------------------
	BYTE	W96
// 022   ----------------------------------------
	BYTE	W96
// 023   ----------------------------------------
	BYTE	W96
// 024   ----------------------------------------
	BYTE	W96
// 025   ----------------------------------------
	BYTE	W96
// 026   ----------------------------------------
	BYTE	W96
// 027   ----------------------------------------
	BYTE	W96
// 028   ----------------------------------------
	BYTE	W96
// 029   ----------------------------------------
	BYTE	W96
// 030   ----------------------------------------
	BYTE	W96
// 031   ----------------------------------------
	BYTE	W96
// 032   ----------------------------------------
	BYTE	W96
// 033   ----------------------------------------
	BYTE	W96
// 034   ----------------------------------------
	BYTE	W96
// 035   ----------------------------------------
	BYTE	W96
// 036   ----------------------------------------
	BYTE	W96
// 037   ----------------------------------------
	BYTE		N92     An3   v096
	BYTE	W96
// 038   ----------------------------------------
	BYTE		        Ds3 
	BYTE	W96
// 039   ----------------------------------------
	BYTE		TIE     Gn3 
	BYTE	W96
// 040   ----------------------------------------
	BYTE	W92
	BYTE	W03
	BYTE		EOT   
	BYTE	W01
// 041   ----------------------------------------
	BYTE	W96
// 042   ----------------------------------------
	BYTE	W96
// 043   ----------------------------------------
	BYTE	W96
// 044   ----------------------------------------
	BYTE	W96
// 045   ----------------------------------------
	BYTE	W96
// 046   ----------------------------------------
	BYTE	W96
// 047   ----------------------------------------
	BYTE	W96
AA5KPO_1_B1:
// 048   ----------------------------------------
	BYTE	W96
// 049   ----------------------------------------
	BYTE	W96
// 050   ----------------------------------------
	BYTE	W96
// 051   ----------------------------------------
	BYTE	W72
	BYTE		N44     Ds3   v112
	BYTE	W24
// 052   ----------------------------------------
	BYTE	PATT
	 POIN2	AA5KPO_1_008
// 053   ----------------------------------------
	BYTE	PATT
	 POIN2	AA5KPO_1_009
// 054   ----------------------------------------
	BYTE	W96
// 055   ----------------------------------------
	BYTE	PATT
	 POIN2	AA5KPO_1_011
// 056   ----------------------------------------
	BYTE	W92
	BYTE	W03
	BYTE		EOT     Ds3 
	BYTE		        Gn3 
	BYTE	W01
// 057   ----------------------------------------
	BYTE	W96
// 058   ----------------------------------------
	BYTE		N92     Cn3   v096
	BYTE		N92     Fn3 
	BYTE	W96
// 059   ----------------------------------------
	BYTE		        Cs3 
	BYTE		N92     Gs3 
	BYTE	W96
// 060   ----------------------------------------
	BYTE	PATT
	 POIN2	AA5KPO_1_016
// 061   ----------------------------------------
	BYTE	PATT
	 POIN2	AA5KPO_1_017
// 062   ----------------------------------------
	BYTE	W92
	BYTE	W03
	BYTE		EOT     Ds3 
	BYTE		        Gn3 
	BYTE	W01
// 063   ----------------------------------------
	BYTE	W96
// 064   ----------------------------------------
	BYTE	W96
// 065   ----------------------------------------
	BYTE	W96
// 066   ----------------------------------------
	BYTE	W96
// 067   ----------------------------------------
	BYTE	W96
// 068   ----------------------------------------
	BYTE	W96
// 069   ----------------------------------------
	BYTE	W96
// 070   ----------------------------------------
	BYTE	W96
// 071   ----------------------------------------
	BYTE	W96
// 072   ----------------------------------------
	BYTE	W96
// 073   ----------------------------------------
	BYTE	W96
// 074   ----------------------------------------
	BYTE	W96
// 075   ----------------------------------------
	BYTE	W96
// 076   ----------------------------------------
	BYTE	W96
// 077   ----------------------------------------
	BYTE	W96
// 078   ----------------------------------------
	BYTE	W96
// 079   ----------------------------------------
	BYTE	W96
// 080   ----------------------------------------
	BYTE	W96
// 081   ----------------------------------------
	BYTE		N92     An3   v096
	BYTE	W96
// 082   ----------------------------------------
	BYTE		        Ds3 
	BYTE	W96
// 083   ----------------------------------------
	BYTE		TIE     Gn3 
	BYTE	W96
// 084   ----------------------------------------
	BYTE	W92
	BYTE	W03
	BYTE		EOT   
	BYTE	W01
// 085   ----------------------------------------
	BYTE	W96
// 086   ----------------------------------------
	BYTE	W96
// 087   ----------------------------------------
	BYTE	W96
// 088   ----------------------------------------
	BYTE	W96
// 089   ----------------------------------------
	BYTE	W96
// 090   ----------------------------------------
	BYTE	W96
// 091   ----------------------------------------
	BYTE	W92
	BYTE	W03
	BYTE	GoTo
	 POIN2	AA5KPO_1_B1
AA5KPO_1_B2:
	BYTE	FINE

//**************** Track 2 (Midi-Chn.2) ****************//

AA5KPO_2:
	BYTE	KEYSH   AA5KPO_key+0
// 000   ----------------------------------------
	BYTE		VOICE   93
	BYTE		VOL     101*AA5KPO_mvl/mxv
	BYTE		PAN     c_v+0
	BYTE		VOL     100*AA5KPO_mvl/mxv
	BYTE		PAN     c_v+0
	BYTE	W48
// 001   ----------------------------------------
AA5KPO_2_001:
	BYTE		N05     Cn4   v127
	BYTE		N05     Ds4 
	BYTE	W12
	BYTE		        Cn4   v112
	BYTE		N05     Ds4 
	BYTE	W12
	BYTE		        Dn4 
	BYTE		N05     Fn4 
	BYTE	W24
	BYTE		        As3   v127
	BYTE		N05     Dn4 
	BYTE	W18
	BYTE		        As3 
	BYTE		N05     Dn4 
	BYTE	W18
	BYTE		        Cn4 
	BYTE		N05     Ds4 
	BYTE	W12
	BYTE	PEND
// 002   ----------------------------------------
AA5KPO_2_002:
	BYTE	W12
	BYTE		N05     Cn4   v112
	BYTE		N05     Ds4 
	BYTE	W12
	BYTE		        Dn4 
	BYTE		N05     Fn4 
	BYTE	W24
	BYTE		        As3   v127
	BYTE		N05     Dn4 
	BYTE	W18
	BYTE		        As3 
	BYTE		N05     Dn4 
	BYTE	W18
	BYTE		        Cn4 
	BYTE		N05     Ds4 
	BYTE	W12
	BYTE	PEND
// 003   ----------------------------------------
	BYTE	PATT
	 POIN2	AA5KPO_2_001
// 004   ----------------------------------------
	BYTE	W96
// 005   ----------------------------------------
	BYTE	W96
// 006   ----------------------------------------
	BYTE	W96
// 007   ----------------------------------------
AA5KPO_2_007:
	BYTE		N05     Cn4   v116
	BYTE		N05     Ds4 
	BYTE	W12
	BYTE		        Cn4   v096
	BYTE		N05     Ds4 
	BYTE	W12
	BYTE		        Dn4 
	BYTE		N05     Fn4 
	BYTE	W24
	BYTE		        As3   v116
	BYTE		N05     Dn4 
	BYTE	W18
	BYTE		        As3 
	BYTE		N05     Dn4 
	BYTE	W18
	BYTE		        Cn4 
	BYTE		N05     Ds4 
	BYTE	W12
	BYTE	PEND
// 008   ----------------------------------------
AA5KPO_2_008:
	BYTE	W12
	BYTE		N05     Cn4   v096
	BYTE		N05     Ds4 
	BYTE	W12
	BYTE		        Dn4 
	BYTE		N05     Fn4 
	BYTE	W24
	BYTE		        As3   v116
	BYTE		N05     Dn4 
	BYTE	W18
	BYTE		        Cn4 
	BYTE		N05     Ds4 
	BYTE	W30
	BYTE	PEND
// 009   ----------------------------------------
	BYTE	W96
// 010   ----------------------------------------
	BYTE	W96
// 011   ----------------------------------------
	BYTE	PATT
	 POIN2	AA5KPO_2_007
// 012   ----------------------------------------
	BYTE	PATT
	 POIN2	AA5KPO_2_008
// 013   ----------------------------------------
	BYTE	W96
// 014   ----------------------------------------
AA5KPO_2_014:
	BYTE		N23     Fn3   v096
	BYTE	W24
	BYTE		        Gn3   v100
	BYTE	W24
	BYTE		        Gs3 
	BYTE	W24
	BYTE		        Cn4 
	BYTE	W24
	BYTE	PEND
// 015   ----------------------------------------
AA5KPO_2_015:
	BYTE		N80     As3   v104
	BYTE		N80     Cs4 
	BYTE	W84
	BYTE		N05     As3   v108
	BYTE		N05     Cs4 
	BYTE	W06
	BYTE		        Cn4 
	BYTE		N05     Ds4 
	BYTE	W06
	BYTE	PEND
// 016   ----------------------------------------
AA5KPO_2_016:
	BYTE		N44     Cs4   v108
	BYTE		N44     Fn4 
	BYTE	W48
	BYTE		        Cs4   v112
	BYTE		N44     Fn4 
	BYTE	W48
	BYTE	PEND
// 017   ----------------------------------------
	BYTE	PATT
	 POIN2	AA5KPO_2_001
// 018   ----------------------------------------
	BYTE	PATT
	 POIN2	AA5KPO_2_002
// 019   ----------------------------------------
	BYTE	PATT
	 POIN2	AA5KPO_2_001
// 020   ----------------------------------------
	BYTE	W96
// 021   ----------------------------------------
AA5KPO_2_021:
	BYTE		N05     As3   v127
	BYTE		N05     Cs4 
	BYTE	W12
	BYTE		        As3   v112
	BYTE		N05     Cs4 
	BYTE	W84
	BYTE	PEND
// 022   ----------------------------------------
	BYTE	W96
// 023   ----------------------------------------
	BYTE	PATT
	 POIN2	AA5KPO_2_021
// 024   ----------------------------------------
	BYTE	W96
// 025   ----------------------------------------
AA5KPO_2_025:
	BYTE		N05     Cn4   v127
	BYTE		N05     Ds4 
	BYTE	W12
	BYTE		        Cn4   v112
	BYTE		N05     Ds4 
	BYTE	W84
	BYTE	PEND
// 026   ----------------------------------------
	BYTE	W96
// 027   ----------------------------------------
	BYTE	PATT
	 POIN2	AA5KPO_2_025
// 028   ----------------------------------------
	BYTE	W96
// 029   ----------------------------------------
	BYTE	W96
// 030   ----------------------------------------
	BYTE	W96
// 031   ----------------------------------------
	BYTE	W96
// 032   ----------------------------------------
	BYTE	W96
// 033   ----------------------------------------
	BYTE	W96
// 034   ----------------------------------------
	BYTE	W96
// 035   ----------------------------------------
	BYTE	W96
// 036   ----------------------------------------
	BYTE	W96
// 037   ----------------------------------------
AA5KPO_2_037:
	BYTE		N05     Dn4   v116
	BYTE		N05     Fn4 
	BYTE	W12
	BYTE		        Dn4   v096
	BYTE		N05     Fn4 
	BYTE	W12
	BYTE		        Dn4 
	BYTE		N05     Fn4 
	BYTE	W24
	BYTE		N02     Dn4 
	BYTE		N02     Fn4 
	BYTE	W18
	BYTE		        Dn4 
	BYTE		N02     Fn4 
	BYTE	W30
	BYTE	PEND
// 038   ----------------------------------------
AA5KPO_2_038:
	BYTE		N05     Bn3   v116
	BYTE		N05     Ds4 
	BYTE	W12
	BYTE		        Bn3   v096
	BYTE		N05     Ds4 
	BYTE	W12
	BYTE		        Bn3 
	BYTE		N05     Ds4 
	BYTE	W24
	BYTE		N02     Bn3 
	BYTE		N02     Ds4 
	BYTE	W18
	BYTE		        Bn3 
	BYTE		N02     Ds4 
	BYTE	W30
	BYTE	PEND
// 039   ----------------------------------------
	BYTE	W96
// 040   ----------------------------------------
	BYTE	W96
// 041   ----------------------------------------
	BYTE	PATT
	 POIN2	AA5KPO_2_007
// 042   ----------------------------------------
AA5KPO_2_042:
	BYTE	W12
	BYTE		N05     Cn4   v096
	BYTE		N05     Ds4 
	BYTE	W12
	BYTE		        Dn4 
	BYTE		N05     Fn4 
	BYTE	W24
	BYTE		        As3   v116
	BYTE		N05     Dn4 
	BYTE	W18
	BYTE		        As3 
	BYTE		N05     Dn4 
	BYTE	W18
	BYTE		        Cn4 
	BYTE		N05     Ds4 
	BYTE	W12
	BYTE	PEND
// 043   ----------------------------------------
	BYTE	PATT
	 POIN2	AA5KPO_2_007
// 044   ----------------------------------------
	BYTE	PATT
	 POIN2	AA5KPO_2_042
// 045   ----------------------------------------
	BYTE	PATT
	 POIN2	AA5KPO_2_001
// 046   ----------------------------------------
	BYTE	PATT
	 POIN2	AA5KPO_2_002
// 047   ----------------------------------------
	BYTE	PATT
	 POIN2	AA5KPO_2_001
AA5KPO_2_B1:
// 048   ----------------------------------------
	BYTE	W96
// 049   ----------------------------------------
	BYTE	W96
// 050   ----------------------------------------
	BYTE	W96
// 051   ----------------------------------------
	BYTE	PATT
	 POIN2	AA5KPO_2_007
// 052   ----------------------------------------
	BYTE	PATT
	 POIN2	AA5KPO_2_008
// 053   ----------------------------------------
	BYTE	W96
// 054   ----------------------------------------
	BYTE	W96
// 055   ----------------------------------------
	BYTE	PATT
	 POIN2	AA5KPO_2_007
// 056   ----------------------------------------
	BYTE	PATT
	 POIN2	AA5KPO_2_008
// 057   ----------------------------------------
	BYTE	W96
// 058   ----------------------------------------
	BYTE	PATT
	 POIN2	AA5KPO_2_014
// 059   ----------------------------------------
	BYTE	PATT
	 POIN2	AA5KPO_2_015
// 060   ----------------------------------------
	BYTE	PATT
	 POIN2	AA5KPO_2_016
// 061   ----------------------------------------
	BYTE	PATT
	 POIN2	AA5KPO_2_001
// 062   ----------------------------------------
	BYTE	PATT
	 POIN2	AA5KPO_2_002
// 063   ----------------------------------------
	BYTE	PATT
	 POIN2	AA5KPO_2_001
// 064   ----------------------------------------
	BYTE	W96
// 065   ----------------------------------------
	BYTE	PATT
	 POIN2	AA5KPO_2_021
// 066   ----------------------------------------
	BYTE	W96
// 067   ----------------------------------------
	BYTE	PATT
	 POIN2	AA5KPO_2_021
// 068   ----------------------------------------
	BYTE	W96
// 069   ----------------------------------------
	BYTE	PATT
	 POIN2	AA5KPO_2_025
// 070   ----------------------------------------
	BYTE	W96
// 071   ----------------------------------------
	BYTE	PATT
	 POIN2	AA5KPO_2_025
// 072   ----------------------------------------
	BYTE	W96
// 073   ----------------------------------------
	BYTE	W96
// 074   ----------------------------------------
	BYTE	W96
// 075   ----------------------------------------
	BYTE	W96
// 076   ----------------------------------------
	BYTE	W96
// 077   ----------------------------------------
	BYTE	W96
// 078   ----------------------------------------
	BYTE	W96
// 079   ----------------------------------------
	BYTE	W96
// 080   ----------------------------------------
	BYTE	W96
// 081   ----------------------------------------
	BYTE	PATT
	 POIN2	AA5KPO_2_037
// 082   ----------------------------------------
	BYTE	PATT
	 POIN2	AA5KPO_2_038
// 083   ----------------------------------------
	BYTE	W96
// 084   ----------------------------------------
	BYTE	W96
// 085   ----------------------------------------
	BYTE	PATT
	 POIN2	AA5KPO_2_007
// 086   ----------------------------------------
	BYTE	PATT
	 POIN2	AA5KPO_2_042
// 087   ----------------------------------------
	BYTE	PATT
	 POIN2	AA5KPO_2_007
// 088   ----------------------------------------
	BYTE	PATT
	 POIN2	AA5KPO_2_042
// 089   ----------------------------------------
	BYTE	PATT
	 POIN2	AA5KPO_2_001
// 090   ----------------------------------------
	BYTE	PATT
	 POIN2	AA5KPO_2_002
// 091   ----------------------------------------
	BYTE		N05     Cn4   v127
	BYTE		N05     Ds4 
	BYTE	W12
	BYTE		        Cn4   v112
	BYTE		N05     Ds4 
	BYTE	W12
	BYTE		        Dn4 
	BYTE		N05     Fn4 
	BYTE	W24
	BYTE		        As3   v127
	BYTE		N05     Dn4 
	BYTE	W18
	BYTE		        As3 
	BYTE		N05     Dn4 
	BYTE	W18
	BYTE		        Cn4 
	BYTE		N05     Ds4 
	BYTE	W11
	BYTE	GoTo
	 POIN2	AA5KPO_2_B1
AA5KPO_2_B2:
	BYTE	FINE

//**************** Track 3 (Midi-Chn.4) ****************//

AA5KPO_3:
	BYTE	KEYSH   AA5KPO_key+0
// 000   ----------------------------------------
	BYTE		VOICE   91
	BYTE		VOL     85*AA5KPO_mvl/mxv
	BYTE		PAN     c_v+0
	BYTE	W48
// 001   ----------------------------------------
AA5KPO_3_001:
	BYTE		N05     Gn2   v127
	BYTE	W12
	BYTE		        Gn2   v112
	BYTE	W12
	BYTE		        An2 
	BYTE	W24
	BYTE		        Fn2   v127
	BYTE	W18
	BYTE		N05   
	BYTE	W18
	BYTE		        Gn2 
	BYTE	W12
	BYTE	PEND
// 002   ----------------------------------------
AA5KPO_3_002:
	BYTE	W12
	BYTE		N05     Gn2   v112
	BYTE	W12
	BYTE		        An2 
	BYTE	W24
	BYTE		        Fn2   v127
	BYTE	W18
	BYTE		N05   
	BYTE	W18
	BYTE		        Gn2 
	BYTE	W12
	BYTE	PEND
// 003   ----------------------------------------
	BYTE	PATT
	 POIN2	AA5KPO_3_001
// 004   ----------------------------------------
	BYTE	W96
// 005   ----------------------------------------
AA5KPO_3_005:
	BYTE		N05     Gn2   v116
	BYTE	W12
	BYTE		        Gn2   v096
	BYTE	W12
	BYTE		        An2 
	BYTE	W24
	BYTE		        Fn2   v116
	BYTE	W18
	BYTE		N05   
	BYTE	W18
	BYTE		        Gn2 
	BYTE	W12
	BYTE	PEND
// 006   ----------------------------------------
AA5KPO_3_006:
	BYTE	W12
	BYTE		N05     Gn2   v096
	BYTE	W12
	BYTE		        An2 
	BYTE	W24
	BYTE		        Fn2   v116
	BYTE	W18
	BYTE		N05   
	BYTE	W18
	BYTE		        Gn2 
	BYTE	W12
	BYTE	PEND
// 007   ----------------------------------------
AA5KPO_3_007:
	BYTE		N05     Gn2   v116
	BYTE	W12
	BYTE		        Gn2   v096
	BYTE	W12
	BYTE		        Gs2 
	BYTE	W24
	BYTE		        Fn2   v116
	BYTE	W18
	BYTE		N05   
	BYTE	W18
	BYTE		        Gn2 
	BYTE	W12
	BYTE	PEND
// 008   ----------------------------------------
AA5KPO_3_008:
	BYTE	W12
	BYTE		N05     Gn2   v096
	BYTE	W12
	BYTE		        Gs2 
	BYTE	W24
	BYTE		        Fn2   v116
	BYTE	W18
	BYTE		        Gn2 
	BYTE	W30
	BYTE	PEND
// 009   ----------------------------------------
	BYTE	PATT
	 POIN2	AA5KPO_3_005
// 010   ----------------------------------------
	BYTE	PATT
	 POIN2	AA5KPO_3_006
// 011   ----------------------------------------
	BYTE	PATT
	 POIN2	AA5KPO_3_007
// 012   ----------------------------------------
	BYTE	PATT
	 POIN2	AA5KPO_3_008
// 013   ----------------------------------------
	BYTE	W96
// 014   ----------------------------------------
	BYTE		N92     Fn2   v096
	BYTE	W96
// 015   ----------------------------------------
	BYTE		        Gs2 
	BYTE	W96
// 016   ----------------------------------------
AA5KPO_3_016:
	BYTE		N44     As2   v096
	BYTE	W48
	BYTE		        Gn2 
	BYTE	W48
	BYTE	PEND
// 017   ----------------------------------------
AA5KPO_3_017:
	BYTE		N05     Gn2   v127
	BYTE	W12
	BYTE		        Gn2   v112
	BYTE	W12
	BYTE		        Gs2 
	BYTE	W24
	BYTE		        Fn2   v127
	BYTE	W18
	BYTE		N05   
	BYTE	W18
	BYTE		        Gn2 
	BYTE	W12
	BYTE	PEND
// 018   ----------------------------------------
AA5KPO_3_018:
	BYTE	W12
	BYTE		N05     Gn2   v112
	BYTE	W12
	BYTE		        Gs2 
	BYTE	W24
	BYTE		        Fn2   v127
	BYTE	W18
	BYTE		N05   
	BYTE	W18
	BYTE		        Gn2 
	BYTE	W12
	BYTE	PEND
// 019   ----------------------------------------
	BYTE	PATT
	 POIN2	AA5KPO_3_017
// 020   ----------------------------------------
	BYTE	W96
// 021   ----------------------------------------
AA5KPO_3_021:
	BYTE		N05     Fs2   v127
	BYTE	W12
	BYTE		        Fs2   v112
	BYTE	W84
	BYTE	PEND
// 022   ----------------------------------------
	BYTE	W96
// 023   ----------------------------------------
	BYTE	PATT
	 POIN2	AA5KPO_3_021
// 024   ----------------------------------------
	BYTE	W96
// 025   ----------------------------------------
AA5KPO_3_025:
	BYTE		N05     Ds2   v127
	BYTE	W12
	BYTE		        Ds2   v112
	BYTE	W84
	BYTE	PEND
// 026   ----------------------------------------
	BYTE	W96
// 027   ----------------------------------------
	BYTE	PATT
	 POIN2	AA5KPO_3_025
// 028   ----------------------------------------
	BYTE	W96
// 029   ----------------------------------------
	BYTE	W96
// 030   ----------------------------------------
	BYTE	W96
// 031   ----------------------------------------
	BYTE	W96
// 032   ----------------------------------------
	BYTE	W96
// 033   ----------------------------------------
	BYTE	W96
// 034   ----------------------------------------
	BYTE	W96
// 035   ----------------------------------------
	BYTE	W96
// 036   ----------------------------------------
	BYTE	W96
// 037   ----------------------------------------
AA5KPO_3_037:
	BYTE		N05     An2   v116
	BYTE	W12
	BYTE		        An2   v096
	BYTE	W12
	BYTE		N05   
	BYTE	W24
	BYTE		N02   
	BYTE	W18
	BYTE		N02   
	BYTE	W30
	BYTE	PEND
// 038   ----------------------------------------
AA5KPO_3_038:
	BYTE		N05     Fs2   v116
	BYTE	W12
	BYTE		        Fs2   v096
	BYTE	W12
	BYTE		N05   
	BYTE	W24
	BYTE		N02   
	BYTE	W18
	BYTE		N02   
	BYTE	W30
	BYTE	PEND
// 039   ----------------------------------------
	BYTE	W96
// 040   ----------------------------------------
	BYTE	W96
// 041   ----------------------------------------
	BYTE	PATT
	 POIN2	AA5KPO_3_005
// 042   ----------------------------------------
	BYTE	PATT
	 POIN2	AA5KPO_3_006
// 043   ----------------------------------------
	BYTE	PATT
	 POIN2	AA5KPO_3_005
// 044   ----------------------------------------
	BYTE	PATT
	 POIN2	AA5KPO_3_006
// 045   ----------------------------------------
	BYTE	PATT
	 POIN2	AA5KPO_3_001
// 046   ----------------------------------------
	BYTE	PATT
	 POIN2	AA5KPO_3_002
// 047   ----------------------------------------
	BYTE	PATT
	 POIN2	AA5KPO_3_001
AA5KPO_3_B1:
// 048   ----------------------------------------
	BYTE	W96
// 049   ----------------------------------------
	BYTE	PATT
	 POIN2	AA5KPO_3_005
// 050   ----------------------------------------
	BYTE	PATT
	 POIN2	AA5KPO_3_006
// 051   ----------------------------------------
	BYTE	PATT
	 POIN2	AA5KPO_3_007
// 052   ----------------------------------------
	BYTE	PATT
	 POIN2	AA5KPO_3_008
// 053   ----------------------------------------
	BYTE	PATT
	 POIN2	AA5KPO_3_005
// 054   ----------------------------------------
	BYTE	PATT
	 POIN2	AA5KPO_3_006
// 055   ----------------------------------------
	BYTE	PATT
	 POIN2	AA5KPO_3_007
// 056   ----------------------------------------
	BYTE	PATT
	 POIN2	AA5KPO_3_008
// 057   ----------------------------------------
	BYTE	W96
// 058   ----------------------------------------
	BYTE		N92     Fn2   v096
	BYTE	W96
// 059   ----------------------------------------
	BYTE		        Gs2 
	BYTE	W96
// 060   ----------------------------------------
	BYTE	PATT
	 POIN2	AA5KPO_3_016
// 061   ----------------------------------------
	BYTE	PATT
	 POIN2	AA5KPO_3_017
// 062   ----------------------------------------
	BYTE	PATT
	 POIN2	AA5KPO_3_018
// 063   ----------------------------------------
	BYTE	PATT
	 POIN2	AA5KPO_3_017
// 064   ----------------------------------------
	BYTE	W96
// 065   ----------------------------------------
	BYTE	PATT
	 POIN2	AA5KPO_3_021
// 066   ----------------------------------------
	BYTE	W96
// 067   ----------------------------------------
	BYTE	PATT
	 POIN2	AA5KPO_3_021
// 068   ----------------------------------------
	BYTE	W96
// 069   ----------------------------------------
	BYTE	PATT
	 POIN2	AA5KPO_3_025
// 070   ----------------------------------------
	BYTE	W96
// 071   ----------------------------------------
	BYTE	PATT
	 POIN2	AA5KPO_3_025
// 072   ----------------------------------------
	BYTE	W96
// 073   ----------------------------------------
	BYTE	W96
// 074   ----------------------------------------
	BYTE	W96
// 075   ----------------------------------------
	BYTE	W96
// 076   ----------------------------------------
	BYTE	W96
// 077   ----------------------------------------
	BYTE	W96
// 078   ----------------------------------------
	BYTE	W96
// 079   ----------------------------------------
	BYTE	W96
// 080   ----------------------------------------
	BYTE	W96
// 081   ----------------------------------------
	BYTE	PATT
	 POIN2	AA5KPO_3_037
// 082   ----------------------------------------
	BYTE	PATT
	 POIN2	AA5KPO_3_038
// 083   ----------------------------------------
	BYTE	W96
// 084   ----------------------------------------
	BYTE	W96
// 085   ----------------------------------------
	BYTE	PATT
	 POIN2	AA5KPO_3_005
// 086   ----------------------------------------
	BYTE	PATT
	 POIN2	AA5KPO_3_006
// 087   ----------------------------------------
	BYTE	PATT
	 POIN2	AA5KPO_3_005
// 088   ----------------------------------------
	BYTE	PATT
	 POIN2	AA5KPO_3_006
// 089   ----------------------------------------
	BYTE	PATT
	 POIN2	AA5KPO_3_001
// 090   ----------------------------------------
	BYTE	PATT
	 POIN2	AA5KPO_3_002
// 091   ----------------------------------------
	BYTE		N05     Gn2   v127
	BYTE	W12
	BYTE		        Gn2   v112
	BYTE	W12
	BYTE		        An2 
	BYTE	W24
	BYTE		        Fn2   v127
	BYTE	W18
	BYTE		N05   
	BYTE	W18
	BYTE		        Gn2 
	BYTE	W11
	BYTE	GoTo
	 POIN2	AA5KPO_3_B1
AA5KPO_3_B2:
	BYTE	FINE

//**************** Track 4 (Midi-Chn.5) ****************//

AA5KPO_4:
	BYTE	KEYSH   AA5KPO_key+0
// 000   ----------------------------------------
	BYTE		VOICE   47
	BYTE		VOL     50*AA5KPO_mvl/mxv
	BYTE		PAN     c_v+0
	BYTE	W48
// 001   ----------------------------------------
	BYTE	W96
// 002   ----------------------------------------
	BYTE	W96
// 003   ----------------------------------------
	BYTE	W96
// 004   ----------------------------------------
	BYTE	W96
// 005   ----------------------------------------
	BYTE	W96
// 006   ----------------------------------------
	BYTE	W96
// 007   ----------------------------------------
	BYTE	W96
// 008   ----------------------------------------
	BYTE	W96
// 009   ----------------------------------------
	BYTE	W96
// 010   ----------------------------------------
	BYTE	W96
// 011   ----------------------------------------
	BYTE	W96
// 012   ----------------------------------------
	BYTE	W96
// 013   ----------------------------------------
	BYTE	W96
// 014   ----------------------------------------
	BYTE	W96
// 015   ----------------------------------------
	BYTE	W96
// 016   ----------------------------------------
	BYTE	W96
// 017   ----------------------------------------
AA5KPO_4_017:
	BYTE		N05     Cn2   v112
	BYTE	W06
	BYTE		N05   
	BYTE	W06
	BYTE		N05   
	BYTE	W06
	BYTE		N05   
	BYTE	W06
	BYTE		N05   
	BYTE	W06
	BYTE		N05   
	BYTE	W06
	BYTE		N05   
	BYTE	W06
	BYTE		N05   
	BYTE	W06
	BYTE		N05   
	BYTE	W06
	BYTE		N05   
	BYTE	W06
	BYTE		N05   
	BYTE	W06
	BYTE		N05   
	BYTE	W06
	BYTE		N05   
	BYTE	W06
	BYTE		N05   
	BYTE	W06
	BYTE		N05   
	BYTE	W06
	BYTE		N05   
	BYTE	W06
	BYTE	PEND
// 018   ----------------------------------------
	BYTE	PATT
	 POIN2	AA5KPO_4_017
// 019   ----------------------------------------
AA5KPO_4_019:
	BYTE		N05     Cn2   v112
	BYTE	W06
	BYTE		N05   
	BYTE	W06
	BYTE		N05   
	BYTE	W06
	BYTE		N05   
	BYTE	W06
	BYTE		N05   
	BYTE	W06
	BYTE		N05   
	BYTE	W06
	BYTE		N05   
	BYTE	W06
	BYTE		N05   
	BYTE	W06
	BYTE		N05   
	BYTE	W05
	BYTE		N05   
	BYTE	W06
	BYTE		N05   
	BYTE	W06
	BYTE		N05   
	BYTE	W06
	BYTE		N05   
	BYTE	W06
	BYTE		N05   
	BYTE	W07
	BYTE		N05   
	BYTE	W12
	BYTE	PEND
// 020   ----------------------------------------
	BYTE	W96
// 021   ----------------------------------------
	BYTE	W96
// 022   ----------------------------------------
	BYTE	W96
// 023   ----------------------------------------
	BYTE	W96
// 024   ----------------------------------------
	BYTE	W96
// 025   ----------------------------------------
	BYTE	W96
// 026   ----------------------------------------
	BYTE	W96
// 027   ----------------------------------------
	BYTE	W96
// 028   ----------------------------------------
	BYTE	W96
// 029   ----------------------------------------
	BYTE	W96
// 030   ----------------------------------------
	BYTE	W96
// 031   ----------------------------------------
	BYTE	W96
// 032   ----------------------------------------
	BYTE	W96
// 033   ----------------------------------------
	BYTE	W96
// 034   ----------------------------------------
	BYTE	W96
// 035   ----------------------------------------
	BYTE	W96
// 036   ----------------------------------------
	BYTE	W96
// 037   ----------------------------------------
	BYTE	W96
// 038   ----------------------------------------
	BYTE	W96
// 039   ----------------------------------------
AA5KPO_4_039:
	BYTE		N02     Gn1   v112
	BYTE	W02
	BYTE		N02   
	BYTE	W03
	BYTE		N02   
	BYTE	W03
	BYTE		N02   
	BYTE	W03
	BYTE		N02   
	BYTE	W03
	BYTE		N02   
	BYTE	W03
	BYTE		N02   
	BYTE	W03
	BYTE		N02   
	BYTE	W03
	BYTE		N02   
	BYTE	W03
	BYTE		N02   
	BYTE	W03
	BYTE		N02   
	BYTE	W03
	BYTE		N02   
	BYTE	W03
	BYTE		N02   
	BYTE	W03
	BYTE		N02   
	BYTE	W03
	BYTE		N02   
	BYTE	W03
	BYTE		N02   
	BYTE	W03
	BYTE		N02   
	BYTE	W03
	BYTE		N02   
	BYTE	W03
	BYTE		N02   
	BYTE	W03
	BYTE		N02   
	BYTE	W03
	BYTE		N02   
	BYTE	W03
	BYTE		N02   
	BYTE	W03
	BYTE		N02   
	BYTE	W03
	BYTE		N02   
	BYTE	W03
	BYTE		N02   
	BYTE	W03
	BYTE		N02   
	BYTE	W03
	BYTE		N02   
	BYTE	W03
	BYTE		N02   
	BYTE	W03
	BYTE		N02   
	BYTE	W03
	BYTE		N02   
	BYTE	W03
	BYTE		N02   
	BYTE	W03
	BYTE		N02   
	BYTE	W04
	BYTE	PEND
// 040   ----------------------------------------
AA5KPO_4_040:
	BYTE		N02     Gn1   v112
	BYTE	W02
	BYTE		N02   
	BYTE	W03
	BYTE		N02   
	BYTE	W03
	BYTE		N02   
	BYTE	W03
	BYTE		N02   
	BYTE	W03
	BYTE		N02   
	BYTE	W03
	BYTE		N02   
	BYTE	W03
	BYTE		N02   
	BYTE	W03
	BYTE		N02   
	BYTE	W03
	BYTE		N02   
	BYTE	W03
	BYTE		N02   
	BYTE	W03
	BYTE		N02   
	BYTE	W03
	BYTE		N02   
	BYTE	W03
	BYTE		N02   
	BYTE	W03
	BYTE		N02   
	BYTE	W03
	BYTE		N02   
	BYTE	W03
	BYTE		N02   
	BYTE	W03
	BYTE		N02   
	BYTE	W03
	BYTE		N02   
	BYTE	W03
	BYTE		N02   
	BYTE	W03
	BYTE		N02   
	BYTE	W03
	BYTE		N02   
	BYTE	W03
	BYTE		N02   
	BYTE	W03
	BYTE		N02   
	BYTE	W03
	BYTE		N02   
	BYTE	W03
	BYTE		N02   
	BYTE	W03
	BYTE		N02   
	BYTE	W03
	BYTE		N02   
	BYTE	W03
	BYTE		N02   
	BYTE	W03
	BYTE		N02   
	BYTE	W03
	BYTE		N02   
	BYTE	W03
	BYTE		N24   
	BYTE	W04
	BYTE	PEND
// 041   ----------------------------------------
	BYTE	W96
// 042   ----------------------------------------
	BYTE	W96
// 043   ----------------------------------------
	BYTE	W96
// 044   ----------------------------------------
	BYTE	W96
// 045   ----------------------------------------
	BYTE	W96
// 046   ----------------------------------------
	BYTE	W96
// 047   ----------------------------------------
	BYTE	W96
AA5KPO_4_B1:
// 048   ----------------------------------------
	BYTE	W96
// 049   ----------------------------------------
	BYTE	W96
// 050   ----------------------------------------
	BYTE	W96
// 051   ----------------------------------------
	BYTE	W96
// 052   ----------------------------------------
	BYTE	W96
// 053   ----------------------------------------
	BYTE	W96
// 054   ----------------------------------------
	BYTE	W96
// 055   ----------------------------------------
	BYTE	W96
// 056   ----------------------------------------
	BYTE	W96
// 057   ----------------------------------------
	BYTE	W96
// 058   ----------------------------------------
	BYTE	W96
// 059   ----------------------------------------
	BYTE	W96
// 060   ----------------------------------------
	BYTE	W96
// 061   ----------------------------------------
	BYTE	PATT
	 POIN2	AA5KPO_4_017
// 062   ----------------------------------------
	BYTE	PATT
	 POIN2	AA5KPO_4_017
// 063   ----------------------------------------
	BYTE	PATT
	 POIN2	AA5KPO_4_019
// 064   ----------------------------------------
	BYTE	W96
// 065   ----------------------------------------
	BYTE	W96
// 066   ----------------------------------------
	BYTE	W96
// 067   ----------------------------------------
	BYTE	W96
// 068   ----------------------------------------
	BYTE	W96
// 069   ----------------------------------------
	BYTE	W96
// 070   ----------------------------------------
	BYTE	W96
// 071   ----------------------------------------
	BYTE	W96
// 072   ----------------------------------------
	BYTE	W96
// 073   ----------------------------------------
	BYTE	W96
// 074   ----------------------------------------
	BYTE	W96
// 075   ----------------------------------------
	BYTE	W96
// 076   ----------------------------------------
	BYTE	W96
// 077   ----------------------------------------
	BYTE	W96
// 078   ----------------------------------------
	BYTE	W96
// 079   ----------------------------------------
	BYTE	W96
// 080   ----------------------------------------
	BYTE	W96
// 081   ----------------------------------------
	BYTE	W96
// 082   ----------------------------------------
	BYTE	W96
// 083   ----------------------------------------
	BYTE	PATT
	 POIN2	AA5KPO_4_039
// 084   ----------------------------------------
	BYTE	PATT
	 POIN2	AA5KPO_4_040
// 085   ----------------------------------------
	BYTE	W96
// 086   ----------------------------------------
	BYTE	W96
// 087   ----------------------------------------
	BYTE	W96
// 088   ----------------------------------------
	BYTE	W96
// 089   ----------------------------------------
	BYTE	W96
// 090   ----------------------------------------
	BYTE	W96
// 091   ----------------------------------------
	BYTE	W92
	BYTE	W03
	BYTE	GoTo
	 POIN2	AA5KPO_4_B1
AA5KPO_4_B2:
	BYTE	FINE

//**************** Track 5 (Midi-Chn.6) ****************//

AA5KPO_5:
	BYTE	KEYSH   AA5KPO_key+0
// 000   ----------------------------------------
	BYTE		VOICE   14
	BYTE		VOL     127*AA5KPO_mvl/mxv
	BYTE		PAN     c_v+0
	BYTE	W48
// 001   ----------------------------------------
	BYTE		N11     Cn4   v127
	BYTE	W96
// 002   ----------------------------------------
	BYTE	W96
// 003   ----------------------------------------
	BYTE	W96
// 004   ----------------------------------------
	BYTE	W96
// 005   ----------------------------------------
	BYTE	W96
// 006   ----------------------------------------
	BYTE	W96
// 007   ----------------------------------------
	BYTE	W96
// 008   ----------------------------------------
	BYTE	W96
// 009   ----------------------------------------
	BYTE	W96
// 010   ----------------------------------------
	BYTE	W96
// 011   ----------------------------------------
	BYTE	W96
// 012   ----------------------------------------
	BYTE	W96
// 013   ----------------------------------------
	BYTE	W96
// 014   ----------------------------------------
	BYTE	W96
// 015   ----------------------------------------
	BYTE	W96
// 016   ----------------------------------------
	BYTE	W96
// 017   ----------------------------------------
	BYTE	W96
// 018   ----------------------------------------
	BYTE		N92   
	BYTE	W96
// 019   ----------------------------------------
	BYTE	W84
	BYTE		N05   
	BYTE	W12
// 020   ----------------------------------------
	BYTE	W96
// 021   ----------------------------------------
	BYTE	W96
// 022   ----------------------------------------
	BYTE	W96
// 023   ----------------------------------------
	BYTE	W96
// 024   ----------------------------------------
	BYTE	W96
// 025   ----------------------------------------
	BYTE	W96
// 026   ----------------------------------------
	BYTE	W96
// 027   ----------------------------------------
	BYTE	W96
// 028   ----------------------------------------
	BYTE	W96
// 029   ----------------------------------------
	BYTE	W96
// 030   ----------------------------------------
	BYTE		N92     As3 
	BYTE	W96
// 031   ----------------------------------------
	BYTE	W96
// 032   ----------------------------------------
	BYTE		N92   
	BYTE	W96
// 033   ----------------------------------------
	BYTE	W96
// 034   ----------------------------------------
	BYTE		        En4 
	BYTE	W96
// 035   ----------------------------------------
	BYTE	W96
// 036   ----------------------------------------
	BYTE		N92   
	BYTE	W96
// 037   ----------------------------------------
	BYTE	W96
// 038   ----------------------------------------
	BYTE	W96
// 039   ----------------------------------------
AA5KPO_5_039:
	BYTE		N15     Gn3   v127
	BYTE	W16
	BYTE		        Dn4 
	BYTE	W16
	BYTE		        Gn3 
	BYTE	W16
	BYTE		N15   
	BYTE	W16
	BYTE		        Dn4 
	BYTE	W16
	BYTE		        Gn3 
	BYTE	W16
	BYTE	PEND
// 040   ----------------------------------------
	BYTE		N23     Gn4 
	BYTE	W96
// 041   ----------------------------------------
	BYTE	W96
// 042   ----------------------------------------
	BYTE	W96
// 043   ----------------------------------------
	BYTE	W96
// 044   ----------------------------------------
	BYTE	W96
// 045   ----------------------------------------
AA5KPO_5_045:
	BYTE	W24
	BYTE		N23     Cn4   v112
	BYTE	W48
	BYTE		N23   
	BYTE	W24
	BYTE	PEND
// 046   ----------------------------------------
	BYTE	PATT
	 POIN2	AA5KPO_5_045
// 047   ----------------------------------------
	BYTE	W24
	BYTE		N11     Cn4   v127
	BYTE	W60
	BYTE		N11   
	BYTE	W12
AA5KPO_5_B1:
// 048   ----------------------------------------
	BYTE	W96
// 049   ----------------------------------------
	BYTE	W96
// 050   ----------------------------------------
	BYTE	W96
// 051   ----------------------------------------
	BYTE	W96
// 052   ----------------------------------------
	BYTE	W96
// 053   ----------------------------------------
	BYTE	W96
// 054   ----------------------------------------
	BYTE	W96
// 055   ----------------------------------------
	BYTE	W96
// 056   ----------------------------------------
	BYTE	W96
// 057   ----------------------------------------
	BYTE	W96
// 058   ----------------------------------------
	BYTE	W96
// 059   ----------------------------------------
	BYTE	W96
// 060   ----------------------------------------
	BYTE	W96
// 061   ----------------------------------------
	BYTE	W96
// 062   ----------------------------------------
	BYTE		N92     Cn4   v127
	BYTE	W96
// 063   ----------------------------------------
	BYTE	W84
	BYTE		N05   
	BYTE	W12
// 064   ----------------------------------------
	BYTE	W96
// 065   ----------------------------------------
	BYTE	W96
// 066   ----------------------------------------
	BYTE	W96
// 067   ----------------------------------------
	BYTE	W96
// 068   ----------------------------------------
	BYTE	W96
// 069   ----------------------------------------
	BYTE	W96
// 070   ----------------------------------------
	BYTE	W96
// 071   ----------------------------------------
	BYTE	W96
// 072   ----------------------------------------
	BYTE	W96
// 073   ----------------------------------------
	BYTE	W96
// 074   ----------------------------------------
	BYTE		N92     As3 
	BYTE	W96
// 075   ----------------------------------------
	BYTE	W96
// 076   ----------------------------------------
	BYTE		N92   
	BYTE	W96
// 077   ----------------------------------------
	BYTE	W96
// 078   ----------------------------------------
	BYTE		        En4 
	BYTE	W96
// 079   ----------------------------------------
	BYTE	W96
// 080   ----------------------------------------
	BYTE		N92   
	BYTE	W96
// 081   ----------------------------------------
	BYTE	W96
// 082   ----------------------------------------
	BYTE	W96
// 083   ----------------------------------------
	BYTE	PATT
	 POIN2	AA5KPO_5_039
// 084   ----------------------------------------
	BYTE		N23     Gn4   v127
	BYTE	W96
// 085   ----------------------------------------
	BYTE	W96
// 086   ----------------------------------------
	BYTE	W96
// 087   ----------------------------------------
	BYTE	W96
// 088   ----------------------------------------
	BYTE	W96
// 089   ----------------------------------------
	BYTE	PATT
	 POIN2	AA5KPO_5_045
// 090   ----------------------------------------
	BYTE	PATT
	 POIN2	AA5KPO_5_045
// 091   ----------------------------------------
	BYTE	W24
	BYTE		N11     Cn4   v127
	BYTE	W60
	BYTE		N11   
	BYTE	W11
	BYTE	GoTo
	 POIN2	AA5KPO_5_B1
AA5KPO_5_B2:
	BYTE	FINE

//**************** Track 6 (Midi-Chn.7) ****************//

AA5KPO_6:
	BYTE	KEYSH   AA5KPO_key+0
// 000   ----------------------------------------
	BYTE		VOICE   30
	BYTE		VOL     90*AA5KPO_mvl/mxv
	BYTE		PAN     c_v+0
	BYTE	W36
	BYTE		N01     Cn3   v080
	BYTE		N01     Cs3 
	BYTE	W01
	BYTE		        Dn3 
	BYTE	W02
	BYTE		        Ds3 
	BYTE		N01     En3 
	BYTE	W01
	BYTE		        Fn3 
	BYTE	W02
	BYTE		        Fs3 
	BYTE		N01     Gn3 
	BYTE	W01
	BYTE		        Gs3 
	BYTE	W02
	BYTE		        An3 
	BYTE		N01     As3 
	BYTE	W01
	BYTE		        Bn3 
	BYTE	W02
// 001   ----------------------------------------
	BYTE		        Bn3   v127
	BYTE		N01     Cn4 
	BYTE	W01
	BYTE		        As3 
	BYTE	W02
	BYTE		        Gs3 
	BYTE		N01     An3 
	BYTE	W01
	BYTE		        Gn3 
	BYTE	W02
	BYTE		        Fn3 
	BYTE		N01     Fs3 
	BYTE	W01
	BYTE		        En3 
	BYTE	W02
	BYTE		        Dn3 
	BYTE		N01     Ds3 
	BYTE	W01
	BYTE		        Cs3 
	BYTE	W02
	BYTE		N11     Cn3   v112
	BYTE	W84
// 002   ----------------------------------------
	BYTE	W96
// 003   ----------------------------------------
	BYTE	W84
	BYTE		        Gn2 
	BYTE		N11     Cn3 
	BYTE		N11     Ds3 
	BYTE	W12
// 004   ----------------------------------------
	BYTE	W96
// 005   ----------------------------------------
	BYTE	W96
// 006   ----------------------------------------
	BYTE	W96
// 007   ----------------------------------------
	BYTE	W96
// 008   ----------------------------------------
	BYTE	W96
// 009   ----------------------------------------
	BYTE	W96
// 010   ----------------------------------------
	BYTE	W96
// 011   ----------------------------------------
	BYTE	W96
// 012   ----------------------------------------
	BYTE	W96
// 013   ----------------------------------------
	BYTE	W96
// 014   ----------------------------------------
	BYTE	W96
// 015   ----------------------------------------
	BYTE	W96
// 016   ----------------------------------------
	BYTE	W96
// 017   ----------------------------------------
	BYTE	W96
// 018   ----------------------------------------
	BYTE	W96
// 019   ----------------------------------------
	BYTE	W96
// 020   ----------------------------------------
AA5KPO_6_020:
	BYTE	W24
	BYTE		N01     Gn2   v127
	BYTE	W01
	BYTE		        Gs2 
	BYTE	W02
	BYTE		        An2 
	BYTE	W03
	BYTE		        As2 
	BYTE	W01
	BYTE		        Bn2 
	BYTE	W02
	BYTE		        Cn3 
	BYTE	W03
	BYTE		        Cs3 
	BYTE	W01
	BYTE		        Dn3 
	BYTE	W02
	BYTE		        Ds3 
	BYTE	W03
	BYTE		        En3 
	BYTE	W01
	BYTE		        Fn3 
	BYTE	W02
	BYTE		        Fs3 
	BYTE	W03
	BYTE		N11     Gn3 
	BYTE	W12
	BYTE		        Fn3 
	BYTE	W12
	BYTE		        Gn3 
	BYTE	W12
	BYTE		        Gs3 
	BYTE	W12
	BYTE	PEND
// 021   ----------------------------------------
AA5KPO_6_021:
	BYTE		N68     As3   v127
	BYTE	W72
	BYTE		N11     Cn4 
	BYTE	W12
	BYTE		N80     Cs4 
	BYTE	W12
	BYTE	PEND
// 022   ----------------------------------------
AA5KPO_6_022:
	BYTE	W72
	BYTE		N11     Ds4   v127
	BYTE	W12
	BYTE		N68     Fn4 
	BYTE	W12
	BYTE	PEND
// 023   ----------------------------------------
AA5KPO_6_023:
	BYTE	W60
	BYTE		N11     As3   v127
	BYTE	W12
	BYTE		        Gs4 
	BYTE	W12
	BYTE		N44     As4 
	BYTE	W12
	BYTE	PEND
// 024   ----------------------------------------
AA5KPO_6_024:
	BYTE	W36
	BYTE		N32     Gs4   v127
	BYTE	W36
	BYTE		N56     Fn4 
	BYTE	W24
	BYTE	PEND
// 025   ----------------------------------------
AA5KPO_6_025:
	BYTE	W36
	BYTE		N32     Ds4   v127
	BYTE	W36
	BYTE		N11     Fn4 
	BYTE	W12
	BYTE		TIE     As3 
	BYTE	W12
	BYTE	PEND
// 026   ----------------------------------------
	BYTE	W92
	BYTE	W03
	BYTE		EOT   
	BYTE	W01
// 027   ----------------------------------------
AA5KPO_6_027:
	BYTE	W16
	BYTE		N15     Fn4   v127
	BYTE	W16
	BYTE		N15   
	BYTE	W16
	BYTE		N15   
	BYTE	W16
	BYTE		        Ds4 
	BYTE	W16
	BYTE		        Fn4 
	BYTE	W16
	BYTE	PEND
// 028   ----------------------------------------
AA5KPO_6_028:
	BYTE		N32     As4   v127
	BYTE	W36
	BYTE		N23     Fn4 
	BYTE	W24
	BYTE		N11     Ds4 
	BYTE	W12
	BYTE		N23     Fn4 
	BYTE	W24
	BYTE	PEND
// 029   ----------------------------------------
	BYTE		TIE     As4 
	BYTE	W96
// 030   ----------------------------------------
	BYTE	W92
	BYTE	W03
	BYTE		EOT   
	BYTE	W01
// 031   ----------------------------------------
	BYTE	W96
// 032   ----------------------------------------
	BYTE	W96
// 033   ----------------------------------------
	BYTE	W96
// 034   ----------------------------------------
	BYTE	W96
// 035   ----------------------------------------
	BYTE	W96
// 036   ----------------------------------------
AA5KPO_6_036:
	BYTE	W72
	BYTE		N11     En3   v127
	BYTE	W12
	BYTE		        Gn3 
	BYTE	W12
	BYTE	PEND
// 037   ----------------------------------------
AA5KPO_6_037:
	BYTE		N32     An3   v127
	BYTE	W36
	BYTE		N23     Bn3 
	BYTE	W24
	BYTE		        Cn4 
	BYTE	W24
	BYTE		N11     En3 
	BYTE	W12
	BYTE	PEND
// 038   ----------------------------------------
AA5KPO_6_038:
	BYTE		N32     Fs3   v127
	BYTE	W36
	BYTE		N23     Gs3 
	BYTE	W24
	BYTE		N32     An3 
	BYTE	W36
	BYTE	PEND
// 039   ----------------------------------------
	BYTE		TIE     Gn4 
	BYTE	W96
// 040   ----------------------------------------
	BYTE	W92
	BYTE	W03
	BYTE		EOT   
	BYTE	W01
// 041   ----------------------------------------
	BYTE		TIE     Cn5 
	BYTE	W96
// 042   ----------------------------------------
	BYTE	W92
	BYTE	W03
	BYTE		EOT   
	BYTE	W01
// 043   ----------------------------------------
	BYTE	W96
// 044   ----------------------------------------
	BYTE	W96
// 045   ----------------------------------------
	BYTE	W96
// 046   ----------------------------------------
	BYTE	W96
// 047   ----------------------------------------
	BYTE	W96
AA5KPO_6_B1:
// 048   ----------------------------------------
	BYTE	W96
// 049   ----------------------------------------
	BYTE	W96
// 050   ----------------------------------------
	BYTE	W96
// 051   ----------------------------------------
	BYTE	W96
// 052   ----------------------------------------
	BYTE	W96
// 053   ----------------------------------------
	BYTE	W96
// 054   ----------------------------------------
	BYTE	W96
// 055   ----------------------------------------
	BYTE	W96
// 056   ----------------------------------------
	BYTE	W96
// 057   ----------------------------------------
	BYTE	W96
// 058   ----------------------------------------
	BYTE	W96
// 059   ----------------------------------------
	BYTE	W96
// 060   ----------------------------------------
	BYTE	W96
// 061   ----------------------------------------
	BYTE	W96
// 062   ----------------------------------------
	BYTE	W96
// 063   ----------------------------------------
	BYTE	W96
// 064   ----------------------------------------
	BYTE	PATT
	 POIN2	AA5KPO_6_020
// 065   ----------------------------------------
	BYTE	PATT
	 POIN2	AA5KPO_6_021
// 066   ----------------------------------------
	BYTE	PATT
	 POIN2	AA5KPO_6_022
// 067   ----------------------------------------
	BYTE	PATT
	 POIN2	AA5KPO_6_023
// 068   ----------------------------------------
	BYTE	PATT
	 POIN2	AA5KPO_6_024
// 069   ----------------------------------------
	BYTE	PATT
	 POIN2	AA5KPO_6_025
// 070   ----------------------------------------
	BYTE	W92
	BYTE	W03
	BYTE		EOT     As3 
	BYTE	W01
// 071   ----------------------------------------
	BYTE	PATT
	 POIN2	AA5KPO_6_027
// 072   ----------------------------------------
	BYTE	PATT
	 POIN2	AA5KPO_6_028
// 073   ----------------------------------------
	BYTE		TIE     As4   v127
	BYTE	W96
// 074   ----------------------------------------
	BYTE	W92
	BYTE	W03
	BYTE		EOT   
	BYTE	W01
// 075   ----------------------------------------
	BYTE	W96
// 076   ----------------------------------------
	BYTE	W96
// 077   ----------------------------------------
	BYTE	W96
// 078   ----------------------------------------
	BYTE	W96
// 079   ----------------------------------------
	BYTE	W96
// 080   ----------------------------------------
	BYTE	PATT
	 POIN2	AA5KPO_6_036
// 081   ----------------------------------------
	BYTE	PATT
	 POIN2	AA5KPO_6_037
// 082   ----------------------------------------
	BYTE	PATT
	 POIN2	AA5KPO_6_038
// 083   ----------------------------------------
	BYTE		TIE     Gn4   v127
	BYTE	W96
// 084   ----------------------------------------
	BYTE	W92
	BYTE	W03
	BYTE		EOT   
	BYTE	W01
// 085   ----------------------------------------
	BYTE		TIE     Cn5 
	BYTE	W96
// 086   ----------------------------------------
	BYTE	W92
	BYTE	W03
	BYTE		EOT   
	BYTE	W01
// 087   ----------------------------------------
	BYTE	W96
// 088   ----------------------------------------
	BYTE	W96
// 089   ----------------------------------------
	BYTE	W96
// 090   ----------------------------------------
	BYTE	W96
// 091   ----------------------------------------
	BYTE	W92
	BYTE	W03
	BYTE	GoTo
	 POIN2	AA5KPO_6_B1
AA5KPO_6_B2:
	BYTE	FINE

//**************** Track 7 (Midi-Chn.8) ****************//

AA5KPO_7:
	BYTE	KEYSH   AA5KPO_key+0
// 000   ----------------------------------------
	BYTE		VOICE   30
	BYTE		VOL     90*AA5KPO_mvl/mxv
	BYTE		PAN     c_v+0
	BYTE	W36
	BYTE		N01     Cn3   v080
	BYTE		N01     Cs3 
	BYTE	W01
	BYTE		        Dn3 
	BYTE	W02
	BYTE		        Ds3 
	BYTE		N01     En3 
	BYTE	W01
	BYTE		        Fn3 
	BYTE	W02
	BYTE		        Fs3 
	BYTE		N01     Gn3 
	BYTE	W01
	BYTE		        Gs3 
	BYTE	W02
	BYTE		        An3 
	BYTE		N01     As3 
	BYTE	W01
	BYTE		        Bn3 
	BYTE	W02
// 001   ----------------------------------------
	BYTE		        Bn3   v127
	BYTE		N01     Cn4 
	BYTE	W01
	BYTE		        As3 
	BYTE	W02
	BYTE		        Gs3 
	BYTE		N01     An3 
	BYTE	W01
	BYTE		        Gn3 
	BYTE	W02
	BYTE		        Fn3 
	BYTE		N01     Fs3 
	BYTE	W01
	BYTE		        En3 
	BYTE	W02
	BYTE		        Dn3 
	BYTE		N01     Ds3 
	BYTE	W01
	BYTE		        Cs3 
	BYTE	W02
	BYTE		N11     Cn3   v112
	BYTE	W84
// 002   ----------------------------------------
	BYTE	W96
// 003   ----------------------------------------
	BYTE	W84
	BYTE		        Gn2 
	BYTE		N11     Cn3 
	BYTE		N11     Ds3 
	BYTE	W12
// 004   ----------------------------------------
	BYTE	W96
// 005   ----------------------------------------
	BYTE	W96
// 006   ----------------------------------------
	BYTE	W96
// 007   ----------------------------------------
	BYTE	W96
// 008   ----------------------------------------
	BYTE	W96
// 009   ----------------------------------------
	BYTE	W96
// 010   ----------------------------------------
	BYTE	W96
// 011   ----------------------------------------
	BYTE	W96
// 012   ----------------------------------------
	BYTE	W96
// 013   ----------------------------------------
	BYTE	W96
// 014   ----------------------------------------
	BYTE	W96
// 015   ----------------------------------------
	BYTE	W96
// 016   ----------------------------------------
	BYTE	W96
// 017   ----------------------------------------
	BYTE	W96
// 018   ----------------------------------------
	BYTE	W96
// 019   ----------------------------------------
	BYTE	W96
// 020   ----------------------------------------
AA5KPO_7_020:
	BYTE	W24
	BYTE		N01     Gn2   v127
	BYTE	W01
	BYTE		        Gs2 
	BYTE	W02
	BYTE		        An2 
	BYTE	W03
	BYTE		        As2 
	BYTE	W01
	BYTE		        Bn2 
	BYTE	W02
	BYTE		        Cn3 
	BYTE	W03
	BYTE		        Cs3 
	BYTE	W01
	BYTE		        Dn3 
	BYTE	W02
	BYTE		        Ds3 
	BYTE	W03
	BYTE		        En3 
	BYTE	W01
	BYTE		        Fn3 
	BYTE	W02
	BYTE		        Fs3 
	BYTE	W03
	BYTE		N11     Gn3 
	BYTE	W12
	BYTE		        Fn3 
	BYTE	W12
	BYTE		        Gn3 
	BYTE	W12
	BYTE		        Gs3 
	BYTE	W12
	BYTE	PEND
// 021   ----------------------------------------
AA5KPO_7_021:
	BYTE		N68     As3   v127
	BYTE	W72
	BYTE		N11     Cn4 
	BYTE	W12
	BYTE		N80     Cs4 
	BYTE	W12
	BYTE	PEND
// 022   ----------------------------------------
AA5KPO_7_022:
	BYTE	W72
	BYTE		N11     Ds4   v127
	BYTE	W12
	BYTE		N68     Fn4 
	BYTE	W12
	BYTE	PEND
// 023   ----------------------------------------
AA5KPO_7_023:
	BYTE	W60
	BYTE		N11     As3   v127
	BYTE	W12
	BYTE		        Gs4 
	BYTE	W12
	BYTE		N44     As4 
	BYTE	W12
	BYTE	PEND
// 024   ----------------------------------------
AA5KPO_7_024:
	BYTE	W36
	BYTE		N32     Gs4   v127
	BYTE	W36
	BYTE		N56     Fn4 
	BYTE	W24
	BYTE	PEND
// 025   ----------------------------------------
AA5KPO_7_025:
	BYTE	W36
	BYTE		N32     Ds4   v127
	BYTE	W36
	BYTE		N11     Fn4 
	BYTE	W12
	BYTE		TIE     As3 
	BYTE	W12
	BYTE	PEND
// 026   ----------------------------------------
	BYTE	W92
	BYTE	W03
	BYTE		EOT   
	BYTE	W01
// 027   ----------------------------------------
AA5KPO_7_027:
	BYTE	W16
	BYTE		N15     Fn4   v127
	BYTE	W16
	BYTE		N15   
	BYTE	W16
	BYTE		N15   
	BYTE	W16
	BYTE		        Ds4 
	BYTE	W16
	BYTE		        Fn4 
	BYTE	W16
	BYTE	PEND
// 028   ----------------------------------------
AA5KPO_7_028:
	BYTE		N32     As4   v127
	BYTE	W36
	BYTE		N23     Fn4 
	BYTE	W24
	BYTE		N11     Ds4 
	BYTE	W12
	BYTE		N23     Fn4 
	BYTE	W24
	BYTE	PEND
// 029   ----------------------------------------
	BYTE		TIE     As4 
	BYTE	W96
// 030   ----------------------------------------
	BYTE	W92
	BYTE	W03
	BYTE		EOT   
	BYTE	W01
// 031   ----------------------------------------
	BYTE	W96
// 032   ----------------------------------------
	BYTE	W96
// 033   ----------------------------------------
	BYTE	W96
// 034   ----------------------------------------
	BYTE	W96
// 035   ----------------------------------------
	BYTE	W96
// 036   ----------------------------------------
AA5KPO_7_036:
	BYTE	W72
	BYTE		N11     En3   v127
	BYTE	W12
	BYTE		        Gn3 
	BYTE	W12
	BYTE	PEND
// 037   ----------------------------------------
AA5KPO_7_037:
	BYTE		N32     An3   v127
	BYTE	W36
	BYTE		N23     Bn3 
	BYTE	W24
	BYTE		        Cn4 
	BYTE	W24
	BYTE		N11     En3 
	BYTE	W12
	BYTE	PEND
// 038   ----------------------------------------
AA5KPO_7_038:
	BYTE		N32     Fs3   v127
	BYTE	W36
	BYTE		N23     Gs3 
	BYTE	W24
	BYTE		N32     An3 
	BYTE	W36
	BYTE	PEND
// 039   ----------------------------------------
	BYTE		TIE     Gn4 
	BYTE	W96
// 040   ----------------------------------------
	BYTE	W92
	BYTE	W03
	BYTE		EOT   
	BYTE	W01
// 041   ----------------------------------------
	BYTE		TIE     Cn5 
	BYTE	W96
// 042   ----------------------------------------
	BYTE	W92
	BYTE	W03
	BYTE		EOT   
	BYTE	W01
// 043   ----------------------------------------
	BYTE	W96
// 044   ----------------------------------------
	BYTE	W96
// 045   ----------------------------------------
	BYTE	W96
// 046   ----------------------------------------
	BYTE	W96
// 047   ----------------------------------------
	BYTE	W96
AA5KPO_7_B1:
// 048   ----------------------------------------
	BYTE	W96
// 049   ----------------------------------------
	BYTE	W96
// 050   ----------------------------------------
	BYTE	W96
// 051   ----------------------------------------
	BYTE	W96
// 052   ----------------------------------------
	BYTE	W96
// 053   ----------------------------------------
	BYTE	W96
// 054   ----------------------------------------
	BYTE	W96
// 055   ----------------------------------------
	BYTE	W96
// 056   ----------------------------------------
	BYTE	W96
// 057   ----------------------------------------
	BYTE	W96
// 058   ----------------------------------------
	BYTE	W96
// 059   ----------------------------------------
	BYTE	W96
// 060   ----------------------------------------
	BYTE	W96
// 061   ----------------------------------------
	BYTE	W96
// 062   ----------------------------------------
	BYTE	W96
// 063   ----------------------------------------
	BYTE	W96
// 064   ----------------------------------------
	BYTE	PATT
	 POIN2	AA5KPO_7_020
// 065   ----------------------------------------
	BYTE	PATT
	 POIN2	AA5KPO_7_021
// 066   ----------------------------------------
	BYTE	PATT
	 POIN2	AA5KPO_7_022
// 067   ----------------------------------------
	BYTE	PATT
	 POIN2	AA5KPO_7_023
// 068   ----------------------------------------
	BYTE	PATT
	 POIN2	AA5KPO_7_024
// 069   ----------------------------------------
	BYTE	PATT
	 POIN2	AA5KPO_7_025
// 070   ----------------------------------------
	BYTE	W92
	BYTE	W03
	BYTE		EOT     As3 
	BYTE	W01
// 071   ----------------------------------------
	BYTE	PATT
	 POIN2	AA5KPO_7_027
// 072   ----------------------------------------
	BYTE	PATT
	 POIN2	AA5KPO_7_028
// 073   ----------------------------------------
	BYTE		TIE     As4   v127
	BYTE	W96
// 074   ----------------------------------------
	BYTE	W92
	BYTE	W03
	BYTE		EOT   
	BYTE	W01
// 075   ----------------------------------------
	BYTE	W96
// 076   ----------------------------------------
	BYTE	W96
// 077   ----------------------------------------
	BYTE	W96
// 078   ----------------------------------------
	BYTE	W96
// 079   ----------------------------------------
	BYTE	W96
// 080   ----------------------------------------
	BYTE	PATT
	 POIN2	AA5KPO_7_036
// 081   ----------------------------------------
	BYTE	PATT
	 POIN2	AA5KPO_7_037
// 082   ----------------------------------------
	BYTE	PATT
	 POIN2	AA5KPO_7_038
// 083   ----------------------------------------
	BYTE		TIE     Gn4   v127
	BYTE	W96
// 084   ----------------------------------------
	BYTE	W92
	BYTE	W03
	BYTE		EOT   
	BYTE	W01
// 085   ----------------------------------------
	BYTE		TIE     Cn5 
	BYTE	W96
// 086   ----------------------------------------
	BYTE	W92
	BYTE	W03
	BYTE		EOT   
	BYTE	W01
// 087   ----------------------------------------
	BYTE	W96
// 088   ----------------------------------------
	BYTE	W96
// 089   ----------------------------------------
	BYTE	W96
// 090   ----------------------------------------
	BYTE	W96
// 091   ----------------------------------------
	BYTE	W92
	BYTE	W03
	BYTE	GoTo
	 POIN2	AA5KPO_7_B1
AA5KPO_7_B2:
	BYTE	FINE

//**************** Track 8 (Midi-Chn.9) ****************//

AA5KPO_8:
	BYTE	KEYSH   AA5KPO_key+0
// 000   ----------------------------------------
	BYTE		VOICE   34
	BYTE		VOL     106*AA5KPO_mvl/mxv
	BYTE		PAN     c_v+0
	BYTE	W48
// 001   ----------------------------------------
	BYTE		N01     Bn0   v127
	BYTE		N01     Cn1 
	BYTE	W01
	BYTE		        As0 
	BYTE	W02
	BYTE		        Gs0 
	BYTE		N01     An0 
	BYTE	W01
	BYTE		        Gn0 
	BYTE	W02
	BYTE		        Fn0 
	BYTE		N01     Fs0 
	BYTE	W01
	BYTE		        En0 
	BYTE	W02
	BYTE		        Dn0 
	BYTE		N01     Ds0 
	BYTE	W01
	BYTE		        Cs0 
	BYTE	W02
	BYTE		N11     Cn0   v112
	BYTE	W84
// 002   ----------------------------------------
	BYTE		TIE     Cn1   v080
	BYTE	W96
// 003   ----------------------------------------
	BYTE	W80
	BYTE	W03
	BYTE		EOT   
	BYTE	W01
	BYTE		N05     Cn1   v127
	BYTE	W12
// 004   ----------------------------------------
AA5KPO_8_004:
	BYTE	W60
	BYTE		N01     Cn1   v127
	BYTE		N01     Cs1 
	BYTE	W01
	BYTE		        Dn1 
	BYTE	W02
	BYTE		        Ds1 
	BYTE		N01     En1 
	BYTE	W01
	BYTE		        Fn1 
	BYTE	W02
	BYTE		        Fs1 
	BYTE		N01     Gn1 
	BYTE	W01
	BYTE		        Gs1 
	BYTE	W02
	BYTE		        An1 
	BYTE		N01     As1 
	BYTE	W01
	BYTE		        Bn1 
	BYTE	W02
	BYTE		        Cn2 
	BYTE	W01
	BYTE		        Bn1 
	BYTE	W02
	BYTE		        As1 
	BYTE	W03
	BYTE		        An1 
	BYTE	W01
	BYTE		        Gs1 
	BYTE	W02
	BYTE		        Gn1 
	BYTE	W03
	BYTE		        Fs1 
	BYTE	W01
	BYTE		        Fn1 
	BYTE	W02
	BYTE		        En1 
	BYTE	W03
	BYTE		        Ds1 
	BYTE	W01
	BYTE		        Dn1 
	BYTE	W02
	BYTE		        Cs1 
	BYTE	W03
	BYTE	PEND
// 005   ----------------------------------------
AA5KPO_8_005:
	BYTE		N05     Cn1   v096
	BYTE	W06
	BYTE		N05   
	BYTE	W06
	BYTE		N05   
	BYTE	W06
	BYTE		N05   
	BYTE	W06
	BYTE		N05   
	BYTE	W06
	BYTE		N05   
	BYTE	W06
	BYTE		N05   
	BYTE	W06
	BYTE		N05   
	BYTE	W06
	BYTE		N05   
	BYTE	W06
	BYTE		N05   
	BYTE	W06
	BYTE		N05   
	BYTE	W06
	BYTE		N05   
	BYTE	W06
	BYTE		N05   
	BYTE	W06
	BYTE		N05   
	BYTE	W06
	BYTE		N05   
	BYTE	W06
	BYTE		N05   
	BYTE	W06
	BYTE	PEND
// 006   ----------------------------------------
AA5KPO_8_006:
	BYTE		N05     Cn1   v096
	BYTE	W06
	BYTE		N05   
	BYTE	W06
	BYTE		N05   
	BYTE	W06
	BYTE		N05   
	BYTE	W06
	BYTE		N05   
	BYTE	W06
	BYTE		N05   
	BYTE	W06
	BYTE		N05   
	BYTE	W06
	BYTE		N05   
	BYTE	W06
	BYTE		N05   
	BYTE	W06
	BYTE		N05   
	BYTE	W06
	BYTE		N05   
	BYTE	W06
	BYTE		N05   
	BYTE	W06
	BYTE		N05   
	BYTE	W06
	BYTE		N05   
	BYTE	W06
	BYTE		        As0 
	BYTE	W06
	BYTE		N05   
	BYTE	W06
	BYTE	PEND
// 007   ----------------------------------------
AA5KPO_8_007:
	BYTE		N05     Gs0   v096
	BYTE	W06
	BYTE		N05   
	BYTE	W06
	BYTE		N05   
	BYTE	W06
	BYTE		N05   
	BYTE	W06
	BYTE		N05   
	BYTE	W06
	BYTE		N05   
	BYTE	W06
	BYTE		N05   
	BYTE	W06
	BYTE		N05   
	BYTE	W06
	BYTE		N05   
	BYTE	W06
	BYTE		N05   
	BYTE	W06
	BYTE		N05   
	BYTE	W06
	BYTE		N05   
	BYTE	W06
	BYTE		N05   
	BYTE	W06
	BYTE		N05   
	BYTE	W06
	BYTE		N05   
	BYTE	W06
	BYTE		N05   
	BYTE	W06
	BYTE	PEND
// 008   ----------------------------------------
AA5KPO_8_008:
	BYTE		N05     Gs0   v096
	BYTE	W06
	BYTE		N05   
	BYTE	W06
	BYTE		N05   
	BYTE	W06
	BYTE		N05   
	BYTE	W06
	BYTE		N05   
	BYTE	W06
	BYTE		N05   
	BYTE	W06
	BYTE		N05   
	BYTE	W06
	BYTE		N05   
	BYTE	W06
	BYTE		N05   
	BYTE	W06
	BYTE		N05   
	BYTE	W06
	BYTE		N05   
	BYTE	W06
	BYTE		N05   
	BYTE	W06
	BYTE		N05   
	BYTE	W06
	BYTE		N05   
	BYTE	W06
	BYTE		        Gn0 
	BYTE	W06
	BYTE		N05   
	BYTE	W06
	BYTE	PEND
// 009   ----------------------------------------
	BYTE	PATT
	 POIN2	AA5KPO_8_005
// 010   ----------------------------------------
	BYTE	PATT
	 POIN2	AA5KPO_8_006
// 011   ----------------------------------------
	BYTE	PATT
	 POIN2	AA5KPO_8_007
// 012   ----------------------------------------
	BYTE	PATT
	 POIN2	AA5KPO_8_008
// 013   ----------------------------------------
AA5KPO_8_013:
	BYTE		N05     Fn0   v096
	BYTE	W06
	BYTE		N05   
	BYTE	W06
	BYTE		N05   
	BYTE	W06
	BYTE		N05   
	BYTE	W06
	BYTE		N05   
	BYTE	W06
	BYTE		N05   
	BYTE	W06
	BYTE		N05   
	BYTE	W06
	BYTE		N05   
	BYTE	W06
	BYTE		N05   
	BYTE	W06
	BYTE		N05   
	BYTE	W06
	BYTE		N05   
	BYTE	W06
	BYTE		N05   
	BYTE	W06
	BYTE		N05   
	BYTE	W06
	BYTE		N05   
	BYTE	W06
	BYTE		N05   
	BYTE	W06
	BYTE		N05   
	BYTE	W06
	BYTE	PEND
// 014   ----------------------------------------
	BYTE	PATT
	 POIN2	AA5KPO_8_013
// 015   ----------------------------------------
AA5KPO_8_015:
	BYTE		N05     Cs1   v096
	BYTE	W06
	BYTE		N05   
	BYTE	W06
	BYTE		N05   
	BYTE	W06
	BYTE		N05   
	BYTE	W06
	BYTE		N05   
	BYTE	W06
	BYTE		N05   
	BYTE	W06
	BYTE		N05   
	BYTE	W06
	BYTE		N05   
	BYTE	W06
	BYTE		N05   
	BYTE	W06
	BYTE		N05   
	BYTE	W06
	BYTE		N05   
	BYTE	W06
	BYTE		N05   
	BYTE	W06
	BYTE		N05   
	BYTE	W06
	BYTE		N05   
	BYTE	W06
	BYTE		N05   
	BYTE	W06
	BYTE		N05   
	BYTE	W06
	BYTE	PEND
// 016   ----------------------------------------
	BYTE	PATT
	 POIN2	AA5KPO_8_015
// 017   ----------------------------------------
	BYTE	PATT
	 POIN2	AA5KPO_8_005
// 018   ----------------------------------------
	BYTE	PATT
	 POIN2	AA5KPO_8_005
// 019   ----------------------------------------
AA5KPO_8_019:
	BYTE		N05     Cn1   v096
	BYTE	W06
	BYTE		N05   
	BYTE	W06
	BYTE		N05   
	BYTE	W06
	BYTE		N05   
	BYTE	W06
	BYTE		N05   
	BYTE	W06
	BYTE		N05   
	BYTE	W06
	BYTE		N05   
	BYTE	W06
	BYTE		N05   
	BYTE	W06
	BYTE		N05   
	BYTE	W05
	BYTE		N05   
	BYTE	W06
	BYTE		N05   
	BYTE	W06
	BYTE		N05   
	BYTE	W06
	BYTE		N05   
	BYTE	W06
	BYTE		N05   
	BYTE	W07
	BYTE		N05   
	BYTE	W12
	BYTE	PEND
// 020   ----------------------------------------
	BYTE	W96
// 021   ----------------------------------------
AA5KPO_8_021:
	BYTE		N11     Fs0   v127
	BYTE	W12
	BYTE		        Fs0   v112
	BYTE	W48
	BYTE		N01   
	BYTE		N01     Gn0 
	BYTE	W01
	BYTE		        Gs0 
	BYTE	W02
	BYTE		        An0 
	BYTE		N01     As0 
	BYTE	W01
	BYTE		        Bn0 
	BYTE	W02
	BYTE		        Cn1 
	BYTE		N01     Cs1 
	BYTE	W01
	BYTE		        Dn1 
	BYTE	W02
	BYTE		        Ds1 
	BYTE		N01     En1 
	BYTE	W01
	BYTE		        Fn1 
	BYTE	W02
	BYTE		N11     Fs1 
	BYTE	W12
	BYTE		        Fs0 
	BYTE	W12
	BYTE	PEND
// 022   ----------------------------------------
AA5KPO_8_022:
	BYTE	W36
	BYTE		N11     Fs0   v112
	BYTE	W24
	BYTE		N01   
	BYTE		N01     Gn0 
	BYTE	W01
	BYTE		        Gs0 
	BYTE	W02
	BYTE		        An0 
	BYTE		N01     As0 
	BYTE	W01
	BYTE		        Bn0 
	BYTE	W02
	BYTE		        Cn1 
	BYTE		N01     Cs1 
	BYTE	W01
	BYTE		        Dn1 
	BYTE	W02
	BYTE		        Ds1 
	BYTE		N01     En1 
	BYTE	W01
	BYTE		        Fn1 
	BYTE	W02
	BYTE		N23     Fs1 
	BYTE	W24
	BYTE	PEND
// 023   ----------------------------------------
AA5KPO_8_023:
	BYTE		N11     Fs0   v127
	BYTE	W12
	BYTE		        Fs0   v112
	BYTE	W48
	BYTE		        Cn1 
	BYTE	W12
	BYTE		        Cs1 
	BYTE	W12
	BYTE		N23     As0 
	BYTE	W12
	BYTE	PEND
// 024   ----------------------------------------
AA5KPO_8_024:
	BYTE	W12
	BYTE		N11     Fn0   v112
	BYTE	W12
	BYTE		        Fs0 
	BYTE	W12
	BYTE		N11   
	BYTE	W12
	BYTE		N05     Cs1 
	BYTE	W06
	BYTE		        As0 
	BYTE	W06
	BYTE		        Cn1 
	BYTE	W06
	BYTE		        Cs1 
	BYTE	W06
	BYTE		N23     Fs1 
	BYTE	W24
	BYTE	PEND
// 025   ----------------------------------------
AA5KPO_8_025:
	BYTE		N11     Ds1   v127
	BYTE	W12
	BYTE		        Ds1   v112
	BYTE	W24
	BYTE		N23     Ds0 
	BYTE	W24
	BYTE		N11     Dn1 
	BYTE	W12
	BYTE		        Ds1 
	BYTE	W12
	BYTE		N11   
	BYTE	W12
	BYTE	PEND
// 026   ----------------------------------------
AA5KPO_8_026:
	BYTE	W12
	BYTE		N11     An0   v112
	BYTE	W12
	BYTE		        As0 
	BYTE	W12
	BYTE		N23     Fs1 
	BYTE	W24
	BYTE		N11     Fn1 
	BYTE	W12
	BYTE		        Ds1 
	BYTE	W12
	BYTE		        As0 
	BYTE	W12
	BYTE	PEND
// 027   ----------------------------------------
AA5KPO_8_027:
	BYTE		N11     Ds1   v112
	BYTE	W12
	BYTE		N11   
	BYTE	W24
	BYTE		N23     Ds0 
	BYTE	W24
	BYTE		N11   
	BYTE	W12
	BYTE		        Fn0 
	BYTE	W12
	BYTE		        Gn0 
	BYTE	W12
	BYTE	PEND
// 028   ----------------------------------------
AA5KPO_8_028:
	BYTE		N05     As0   v112
	BYTE	W06
	BYTE		        Gs0 
	BYTE	W06
	BYTE		N11     As0 
	BYTE	W12
	BYTE		N05     Cn1 
	BYTE	W06
	BYTE		        As0 
	BYTE	W06
	BYTE		N11     Cn1 
	BYTE	W12
	BYTE		N05     Cs1 
	BYTE	W06
	BYTE		        Cn1 
	BYTE	W06
	BYTE		N11     Cs1 
	BYTE	W12
	BYTE		N05     Ds1 
	BYTE	W06
	BYTE		        Cs1 
	BYTE	W06
	BYTE		N11     Ds1 
	BYTE	W12
	BYTE	PEND
// 029   ----------------------------------------
AA5KPO_8_029:
	BYTE		N05     Bn0   v096
	BYTE	W06
	BYTE		N05   
	BYTE	W06
	BYTE		N05   
	BYTE	W06
	BYTE		N05   
	BYTE	W06
	BYTE		N05   
	BYTE	W06
	BYTE		N05   
	BYTE	W06
	BYTE		N05   
	BYTE	W06
	BYTE		N05   
	BYTE	W06
	BYTE		N05   
	BYTE	W06
	BYTE		N05   
	BYTE	W06
	BYTE		N05   
	BYTE	W06
	BYTE		N05   
	BYTE	W06
	BYTE		N05   
	BYTE	W06
	BYTE		N05   
	BYTE	W06
	BYTE		N05   
	BYTE	W06
	BYTE		N05   
	BYTE	W06
	BYTE	PEND
// 030   ----------------------------------------
	BYTE	PATT
	 POIN2	AA5KPO_8_029
// 031   ----------------------------------------
	BYTE	PATT
	 POIN2	AA5KPO_8_007
// 032   ----------------------------------------
	BYTE	PATT
	 POIN2	AA5KPO_8_007
// 033   ----------------------------------------
AA5KPO_8_033:
	BYTE		N05     En1   v096
	BYTE	W06
	BYTE		N05   
	BYTE	W06
	BYTE		N05   
	BYTE	W06
	BYTE		N05   
	BYTE	W06
	BYTE		N05   
	BYTE	W06
	BYTE		N05   
	BYTE	W06
	BYTE		N05   
	BYTE	W06
	BYTE		N05   
	BYTE	W06
	BYTE		N05   
	BYTE	W06
	BYTE		N05   
	BYTE	W06
	BYTE		N05   
	BYTE	W06
	BYTE		N05   
	BYTE	W06
	BYTE		N05   
	BYTE	W06
	BYTE		N05   
	BYTE	W06
	BYTE		N05   
	BYTE	W06
	BYTE		N05   
	BYTE	W06
	BYTE	PEND
// 034   ----------------------------------------
	BYTE	PATT
	 POIN2	AA5KPO_8_033
// 035   ----------------------------------------
	BYTE	PATT
	 POIN2	AA5KPO_8_005
// 036   ----------------------------------------
	BYTE	PATT
	 POIN2	AA5KPO_8_005
// 037   ----------------------------------------
AA5KPO_8_037:
	BYTE		N05     Fn1   v096
	BYTE	W06
	BYTE		N05   
	BYTE	W06
	BYTE		N05   
	BYTE	W06
	BYTE		N05   
	BYTE	W06
	BYTE		N05   
	BYTE	W06
	BYTE		N05   
	BYTE	W06
	BYTE		N05   
	BYTE	W06
	BYTE		N05   
	BYTE	W06
	BYTE		N05   
	BYTE	W06
	BYTE		N05   
	BYTE	W06
	BYTE		N05   
	BYTE	W06
	BYTE		N05   
	BYTE	W06
	BYTE		N05   
	BYTE	W06
	BYTE		N05   
	BYTE	W06
	BYTE		N05   
	BYTE	W06
	BYTE		N05   
	BYTE	W06
	BYTE	PEND
// 038   ----------------------------------------
	BYTE	PATT
	 POIN2	AA5KPO_8_029
// 039   ----------------------------------------
	BYTE		TIE     Gn0   v096
	BYTE	W96
// 040   ----------------------------------------
	BYTE	W92
	BYTE	W03
	BYTE		EOT   
	BYTE	W01
// 041   ----------------------------------------
	BYTE		TIE     Cn1 
	BYTE	W96
// 042   ----------------------------------------
	BYTE	W96
// 043   ----------------------------------------
	BYTE	W96
// 044   ----------------------------------------
	BYTE	W92
	BYTE	W03
	BYTE		EOT   
	BYTE	W01
// 045   ----------------------------------------
AA5KPO_8_045:
	BYTE	W24
	BYTE		N11     Cn1   v096
	BYTE	W48
	BYTE		N11   
	BYTE	W24
	BYTE	PEND
// 046   ----------------------------------------
	BYTE	PATT
	 POIN2	AA5KPO_8_045
// 047   ----------------------------------------
	BYTE	W24
	BYTE		N11     Cn1   v096
	BYTE	W60
	BYTE		N11   
	BYTE	W12
AA5KPO_8_B1:
// 048   ----------------------------------------
	BYTE	PATT
	 POIN2	AA5KPO_8_004
// 049   ----------------------------------------
	BYTE	PATT
	 POIN2	AA5KPO_8_005
// 050   ----------------------------------------
	BYTE	PATT
	 POIN2	AA5KPO_8_006
// 051   ----------------------------------------
	BYTE	PATT
	 POIN2	AA5KPO_8_007
// 052   ----------------------------------------
	BYTE	PATT
	 POIN2	AA5KPO_8_008
// 053   ----------------------------------------
	BYTE	PATT
	 POIN2	AA5KPO_8_005
// 054   ----------------------------------------
	BYTE	PATT
	 POIN2	AA5KPO_8_006
// 055   ----------------------------------------
	BYTE	PATT
	 POIN2	AA5KPO_8_007
// 056   ----------------------------------------
	BYTE	PATT
	 POIN2	AA5KPO_8_008
// 057   ----------------------------------------
	BYTE	PATT
	 POIN2	AA5KPO_8_013
// 058   ----------------------------------------
	BYTE	PATT
	 POIN2	AA5KPO_8_013
// 059   ----------------------------------------
	BYTE	PATT
	 POIN2	AA5KPO_8_015
// 060   ----------------------------------------
	BYTE	PATT
	 POIN2	AA5KPO_8_015
// 061   ----------------------------------------
	BYTE	PATT
	 POIN2	AA5KPO_8_005
// 062   ----------------------------------------
	BYTE	PATT
	 POIN2	AA5KPO_8_005
// 063   ----------------------------------------
	BYTE	PATT
	 POIN2	AA5KPO_8_019
// 064   ----------------------------------------
	BYTE	W96
// 065   ----------------------------------------
	BYTE	PATT
	 POIN2	AA5KPO_8_021
// 066   ----------------------------------------
	BYTE	PATT
	 POIN2	AA5KPO_8_022
// 067   ----------------------------------------
	BYTE	PATT
	 POIN2	AA5KPO_8_023
// 068   ----------------------------------------
	BYTE	PATT
	 POIN2	AA5KPO_8_024
// 069   ----------------------------------------
	BYTE	PATT
	 POIN2	AA5KPO_8_025
// 070   ----------------------------------------
	BYTE	PATT
	 POIN2	AA5KPO_8_026
// 071   ----------------------------------------
	BYTE	PATT
	 POIN2	AA5KPO_8_027
// 072   ----------------------------------------
	BYTE	PATT
	 POIN2	AA5KPO_8_028
// 073   ----------------------------------------
	BYTE	PATT
	 POIN2	AA5KPO_8_029
// 074   ----------------------------------------
	BYTE	PATT
	 POIN2	AA5KPO_8_029
// 075   ----------------------------------------
	BYTE	PATT
	 POIN2	AA5KPO_8_007
// 076   ----------------------------------------
	BYTE	PATT
	 POIN2	AA5KPO_8_007
// 077   ----------------------------------------
	BYTE	PATT
	 POIN2	AA5KPO_8_033
// 078   ----------------------------------------
	BYTE	PATT
	 POIN2	AA5KPO_8_033
// 079   ----------------------------------------
	BYTE	PATT
	 POIN2	AA5KPO_8_005
// 080   ----------------------------------------
	BYTE	PATT
	 POIN2	AA5KPO_8_005
// 081   ----------------------------------------
	BYTE	PATT
	 POIN2	AA5KPO_8_037
// 082   ----------------------------------------
	BYTE	PATT
	 POIN2	AA5KPO_8_029
// 083   ----------------------------------------
	BYTE		TIE     Gn0   v096
	BYTE	W96
// 084   ----------------------------------------
	BYTE	W92
	BYTE	W03
	BYTE		EOT   
	BYTE	W01
// 085   ----------------------------------------
	BYTE		TIE     Cn1 
	BYTE	W96
// 086   ----------------------------------------
	BYTE	W96
// 087   ----------------------------------------
	BYTE	W96
// 088   ----------------------------------------
	BYTE	W92
	BYTE	W03
	BYTE		EOT   
	BYTE	W01
// 089   ----------------------------------------
	BYTE	PATT
	 POIN2	AA5KPO_8_045
// 090   ----------------------------------------
	BYTE	PATT
	 POIN2	AA5KPO_8_045
// 091   ----------------------------------------
	BYTE	W24
	BYTE		N11     Cn1   v096
	BYTE	W60
	BYTE		N11   
	BYTE	W11
	BYTE	GoTo
	 POIN2	AA5KPO_8_B1
AA5KPO_8_B2:
	BYTE	FINE

//**************** Track 9 (Midi-Chn.11) ****************//

AA5KPO_9:
	BYTE	KEYSH   AA5KPO_key+0
// 000   ----------------------------------------
	BYTE		VOICE   122
	BYTE		VOL     88*AA5KPO_mvl/mxv
	BYTE		PAN     c_v+0
	BYTE	W48
// 001   ----------------------------------------
	BYTE		N44     Cs2   v080
	BYTE		N44     En2 
	BYTE	W96
// 002   ----------------------------------------
	BYTE	W12
	BYTE		N11     Bn2   v096
	BYTE	W24
	BYTE		N11   
	BYTE	W24
	BYTE		N11   
	BYTE	W24
	BYTE		N11   
	BYTE	W12
// 003   ----------------------------------------
	BYTE	W12
	BYTE		        Bn2   v080
	BYTE	W24
	BYTE		N11   
	BYTE	W24
	BYTE		N11   
	BYTE	W36
// 004   ----------------------------------------
AA5KPO_9_004:
	BYTE		N23     Cn1   v080
	BYTE	W12
	BYTE		N05     Dn1 
	BYTE	W06
	BYTE		        Dn1   v084
	BYTE	W06
	BYTE		N23     Cn1 
	BYTE		N05     Dn1 
	BYTE	W06
	BYTE		N05   
	BYTE	W06
	BYTE		N05   
	BYTE	W06
	BYTE		        Dn1   v088
	BYTE	W06
	BYTE		N23     Cn1 
	BYTE		N05     Dn1 
	BYTE	W06
	BYTE		N05   
	BYTE	W06
	BYTE		        Dn1   v092
	BYTE	W06
	BYTE		N05   
	BYTE	W06
	BYTE		N23     Cn1 
	BYTE		N05     Dn1 
	BYTE	W06
	BYTE		N05   
	BYTE	W06
	BYTE		        Dn1   v096
	BYTE	W06
	BYTE		N05   
	BYTE	W06
	BYTE	PEND
// 005   ----------------------------------------
AA5KPO_9_005:
	BYTE		N23     Cn1   v096
	BYTE	W12
	BYTE		N11     Bn2 
	BYTE	W12
	BYTE		N23     Cn1 
	BYTE		N11     Dn1 
	BYTE	W12
	BYTE		        Bn2 
	BYTE	W12
	BYTE		N23     Cn1 
	BYTE	W12
	BYTE		N11     Bn2 
	BYTE	W12
	BYTE		N23     Cn1 
	BYTE		N11     Dn1 
	BYTE	W12
	BYTE		        Bn2 
	BYTE	W12
	BYTE	PEND
// 006   ----------------------------------------
	BYTE	PATT
	 POIN2	AA5KPO_9_005
// 007   ----------------------------------------
	BYTE	PATT
	 POIN2	AA5KPO_9_005
// 008   ----------------------------------------
	BYTE	PATT
	 POIN2	AA5KPO_9_005
// 009   ----------------------------------------
	BYTE	PATT
	 POIN2	AA5KPO_9_005
// 010   ----------------------------------------
	BYTE	PATT
	 POIN2	AA5KPO_9_005
// 011   ----------------------------------------
	BYTE	PATT
	 POIN2	AA5KPO_9_005
// 012   ----------------------------------------
	BYTE	PATT
	 POIN2	AA5KPO_9_005
// 013   ----------------------------------------
	BYTE	PATT
	 POIN2	AA5KPO_9_005
// 014   ----------------------------------------
	BYTE	PATT
	 POIN2	AA5KPO_9_005
// 015   ----------------------------------------
	BYTE	PATT
	 POIN2	AA5KPO_9_005
// 016   ----------------------------------------
AA5KPO_9_016:
	BYTE		N23     Cn1   v096
	BYTE	W12
	BYTE		N05     Dn1 
	BYTE	W06
	BYTE		        Dn1   v100
	BYTE	W06
	BYTE		N23     Cn1 
	BYTE		N05     Dn1 
	BYTE	W06
	BYTE		N05   
	BYTE	W06
	BYTE		N05   
	BYTE	W06
	BYTE		        Dn1   v104
	BYTE	W06
	BYTE		N23     Cn1 
	BYTE		N05     Dn1 
	BYTE	W06
	BYTE		N05   
	BYTE	W06
	BYTE		        Dn1   v108
	BYTE	W06
	BYTE		N05   
	BYTE	W06
	BYTE		N23     Cn1 
	BYTE		N05     Dn1 
	BYTE	W06
	BYTE		N05   
	BYTE	W06
	BYTE		        Dn1   v112
	BYTE	W06
	BYTE		N05   
	BYTE	W06
	BYTE	PEND
// 017   ----------------------------------------
AA5KPO_9_017:
	BYTE		N23     Cn1   v112
	BYTE		N11     Cs2 
	BYTE		N11     En2 
	BYTE	W12
	BYTE		        Bn2 
	BYTE	W12
	BYTE		N23     Cn1 
	BYTE		N11     Dn1 
	BYTE	W12
	BYTE		        Bn2 
	BYTE	W12
	BYTE		N23     Cn1 
	BYTE	W12
	BYTE		N11     Bn2 
	BYTE	W12
	BYTE		N23     Cn1 
	BYTE		N11     Dn1 
	BYTE	W12
	BYTE		        Bn2 
	BYTE	W12
	BYTE	PEND
// 018   ----------------------------------------
AA5KPO_9_018:
	BYTE		N23     Cn1   v112
	BYTE	W12
	BYTE		N11     Bn2 
	BYTE	W12
	BYTE		N23     Cn1 
	BYTE		N11     Dn1 
	BYTE	W12
	BYTE		        Bn2 
	BYTE	W12
	BYTE		N23     Cn1 
	BYTE	W12
	BYTE		N11     Bn2 
	BYTE	W12
	BYTE		N23     Cn1 
	BYTE		N11     Dn1 
	BYTE	W12
	BYTE		        Bn2 
	BYTE	W12
	BYTE	PEND
// 019   ----------------------------------------
AA5KPO_9_019:
	BYTE		N23     Cn1   v112
	BYTE	W12
	BYTE		N11     Bn2 
	BYTE	W12
	BYTE		N23     Cn1 
	BYTE		N11     Dn1 
	BYTE	W12
	BYTE		        Bn2 
	BYTE	W12
	BYTE		N23     Cn1 
	BYTE	W12
	BYTE		N11     Bn2 
	BYTE	W12
	BYTE		N23     Cn1 
	BYTE		N11     Dn1 
	BYTE	W24
	BYTE	PEND
// 020   ----------------------------------------
AA5KPO_9_020:
	BYTE	W12
	BYTE		N05     Dn1   v112
	BYTE		N05     Fs1 
	BYTE	W06
	BYTE		        Dn1 
	BYTE	W06
	BYTE		N05   
	BYTE		N05     Fs1 
	BYTE	W06
	BYTE		        Dn1 
	BYTE	W06
	BYTE		N05   
	BYTE		N05     Fs1 
	BYTE	W06
	BYTE		        Dn1 
	BYTE	W06
	BYTE		N05   
	BYTE		N05     Fs1 
	BYTE	W06
	BYTE		        Dn1 
	BYTE	W06
	BYTE		N05   
	BYTE		N05     Fs1 
	BYTE	W06
	BYTE		        Dn1 
	BYTE	W06
	BYTE		N05   
	BYTE		N05     Fs1 
	BYTE	W06
	BYTE		        Dn1 
	BYTE	W06
	BYTE		N05   
	BYTE		N05     Fs1 
	BYTE	W06
	BYTE		        Dn1 
	BYTE	W06
	BYTE	PEND
// 021   ----------------------------------------
AA5KPO_9_021:
	BYTE		N11     Cn1   v112
	BYTE		N23     En2 
	BYTE	W36
	BYTE		N11     Cn1 
	BYTE	W12
	BYTE		        Dn1 
	BYTE	W36
	BYTE		        Cn1 
	BYTE	W12
	BYTE	PEND
// 022   ----------------------------------------
AA5KPO_9_022:
	BYTE	W12
	BYTE		N11     Cn1   v112
	BYTE	W24
	BYTE		N11   
	BYTE	W12
	BYTE		        Dn1 
	BYTE	W24
	BYTE		        Cn1 
	BYTE	W24
	BYTE	PEND
// 023   ----------------------------------------
AA5KPO_9_023:
	BYTE		N11     Cn1   v112
	BYTE	W36
	BYTE		N11   
	BYTE	W12
	BYTE		        Dn1 
	BYTE	W36
	BYTE		        Cn1 
	BYTE	W12
	BYTE	PEND
// 024   ----------------------------------------
AA5KPO_9_024:
	BYTE	W12
	BYTE		N11     Cn1   v112
	BYTE	W24
	BYTE		N11   
	BYTE	W12
	BYTE		        Dn1 
	BYTE	W24
	BYTE		        Cn1 
	BYTE	W12
	BYTE		N23     En2 
	BYTE	W12
	BYTE	PEND
// 025   ----------------------------------------
	BYTE	PATT
	 POIN2	AA5KPO_9_023
// 026   ----------------------------------------
	BYTE	PATT
	 POIN2	AA5KPO_9_022
// 027   ----------------------------------------
	BYTE	PATT
	 POIN2	AA5KPO_9_023
// 028   ----------------------------------------
AA5KPO_9_028:
	BYTE	W12
	BYTE		N11     Cn1   v112
	BYTE	W24
	BYTE		N11   
	BYTE	W12
	BYTE		        Dn1 
	BYTE	W12
	BYTE		N05     Dn2 
	BYTE	W06
	BYTE		N05   
	BYTE	W06
	BYTE		        Cn2 
	BYTE	W06
	BYTE		N05   
	BYTE	W06
	BYTE		N11     An1 
	BYTE	W12
	BYTE	PEND
// 029   ----------------------------------------
AA5KPO_9_029:
	BYTE		N23     Cn1   v080
	BYTE		N11     An2 
	BYTE	W12
	BYTE		        Bn2 
	BYTE	W12
	BYTE		N23     Cn1 
	BYTE		N11     Dn1 
	BYTE	W12
	BYTE		        Bn2 
	BYTE	W12
	BYTE		N23     Cn1 
	BYTE	W12
	BYTE		N11     Bn2 
	BYTE	W12
	BYTE		N23     Cn1 
	BYTE		N11     Dn1 
	BYTE	W12
	BYTE		        Bn2 
	BYTE	W12
	BYTE	PEND
// 030   ----------------------------------------
AA5KPO_9_030:
	BYTE		N23     Cn1   v080
	BYTE	W12
	BYTE		N11     Bn2 
	BYTE	W12
	BYTE		N23     Cn1 
	BYTE		N11     Dn1 
	BYTE	W12
	BYTE		        Bn2 
	BYTE	W12
	BYTE		N23     Cn1 
	BYTE	W12
	BYTE		N11     Bn2 
	BYTE	W12
	BYTE		N23     Cn1 
	BYTE		N11     Dn1 
	BYTE	W12
	BYTE		        Bn2 
	BYTE	W12
	BYTE	PEND
// 031   ----------------------------------------
	BYTE	PATT
	 POIN2	AA5KPO_9_030
// 032   ----------------------------------------
	BYTE	PATT
	 POIN2	AA5KPO_9_030
// 033   ----------------------------------------
	BYTE	PATT
	 POIN2	AA5KPO_9_030
// 034   ----------------------------------------
	BYTE	PATT
	 POIN2	AA5KPO_9_030
// 035   ----------------------------------------
	BYTE	PATT
	 POIN2	AA5KPO_9_030
// 036   ----------------------------------------
	BYTE	PATT
	 POIN2	AA5KPO_9_004
// 037   ----------------------------------------
	BYTE	PATT
	 POIN2	AA5KPO_9_005
// 038   ----------------------------------------
AA5KPO_9_038:
	BYTE		N23     Cn1   v096
	BYTE	W12
	BYTE		N11     Bn2 
	BYTE	W12
	BYTE		N23     Cn1 
	BYTE		N11     Dn1 
	BYTE	W12
	BYTE		        Bn2 
	BYTE	W12
	BYTE		N23     Cn1 
	BYTE		N05     Dn1 
	BYTE	W06
	BYTE		        En1 
	BYTE	W06
	BYTE		        Dn1 
	BYTE		N05     Bn2 
	BYTE	W06
	BYTE		        Cn2 
	BYTE	W06
	BYTE		N23     Cn1 
	BYTE		N05     Dn1 
	BYTE	W18
	BYTE		        En1 
	BYTE	W06
	BYTE	PEND
// 039   ----------------------------------------
AA5KPO_9_039:
	BYTE		N23     Bn0   v096
	BYTE		N11     Bn1 
	BYTE	W96
	BYTE	PEND
// 040   ----------------------------------------
AA5KPO_9_040:
	BYTE		N23     Cn1   v096
	BYTE	W24
	BYTE		N23   
	BYTE	W24
	BYTE		N23   
	BYTE	W24
	BYTE		N23   
	BYTE	W24
	BYTE	PEND
// 041   ----------------------------------------
	BYTE	W96
// 042   ----------------------------------------
	BYTE	W96
// 043   ----------------------------------------
AA5KPO_9_043:
	BYTE	W18
	BYTE		N05     Bn0   v112
	BYTE	W06
	BYTE		N11   
	BYTE	W36
	BYTE		        Cn2 
	BYTE	W24
	BYTE		        An1 
	BYTE	W12
	BYTE	PEND
// 044   ----------------------------------------
AA5KPO_9_044:
	BYTE	W18
	BYTE		N05     Bn0   v112
	BYTE	W06
	BYTE		N11   
	BYTE	W12
	BYTE		N05     Dn2 
	BYTE	W06
	BYTE		N05   
	BYTE	W06
	BYTE		        Cn2 
	BYTE	W06
	BYTE		N05   
	BYTE	W06
	BYTE		        Bn1 
	BYTE	W06
	BYTE		N05   
	BYTE	W06
	BYTE		        An1 
	BYTE	W06
	BYTE		N05   
	BYTE	W06
	BYTE		        Cn1 
	BYTE		N11     An1 
	BYTE	W06
	BYTE		N05     Cn1 
	BYTE	W06
	BYTE	PEND
// 045   ----------------------------------------
AA5KPO_9_045:
	BYTE		N23     Cn1   v112
	BYTE	W24
	BYTE		N23   
	BYTE	W24
	BYTE		N23   
	BYTE	W24
	BYTE		N23   
	BYTE	W24
	BYTE	PEND
// 046   ----------------------------------------
	BYTE	PATT
	 POIN2	AA5KPO_9_045
// 047   ----------------------------------------
	BYTE	PATT
	 POIN2	AA5KPO_9_045
AA5KPO_9_B1:
// 048   ----------------------------------------
	BYTE	PATT
	 POIN2	AA5KPO_9_004
// 049   ----------------------------------------
	BYTE	PATT
	 POIN2	AA5KPO_9_005
// 050   ----------------------------------------
	BYTE	PATT
	 POIN2	AA5KPO_9_005
// 051   ----------------------------------------
	BYTE	PATT
	 POIN2	AA5KPO_9_005
// 052   ----------------------------------------
	BYTE	PATT
	 POIN2	AA5KPO_9_005
// 053   ----------------------------------------
	BYTE	PATT
	 POIN2	AA5KPO_9_005
// 054   ----------------------------------------
	BYTE	PATT
	 POIN2	AA5KPO_9_005
// 055   ----------------------------------------
	BYTE	PATT
	 POIN2	AA5KPO_9_005
// 056   ----------------------------------------
	BYTE	PATT
	 POIN2	AA5KPO_9_005
// 057   ----------------------------------------
	BYTE	PATT
	 POIN2	AA5KPO_9_005
// 058   ----------------------------------------
	BYTE	PATT
	 POIN2	AA5KPO_9_005
// 059   ----------------------------------------
	BYTE	PATT
	 POIN2	AA5KPO_9_005
// 060   ----------------------------------------
	BYTE	PATT
	 POIN2	AA5KPO_9_016
// 061   ----------------------------------------
	BYTE	PATT
	 POIN2	AA5KPO_9_017
// 062   ----------------------------------------
	BYTE	PATT
	 POIN2	AA5KPO_9_018
// 063   ----------------------------------------
	BYTE	PATT
	 POIN2	AA5KPO_9_019
// 064   ----------------------------------------
	BYTE	PATT
	 POIN2	AA5KPO_9_020
// 065   ----------------------------------------
	BYTE	PATT
	 POIN2	AA5KPO_9_021
// 066   ----------------------------------------
	BYTE	PATT
	 POIN2	AA5KPO_9_022
// 067   ----------------------------------------
	BYTE	PATT
	 POIN2	AA5KPO_9_023
// 068   ----------------------------------------
	BYTE	PATT
	 POIN2	AA5KPO_9_024
// 069   ----------------------------------------
	BYTE	PATT
	 POIN2	AA5KPO_9_023
// 070   ----------------------------------------
	BYTE	PATT
	 POIN2	AA5KPO_9_022
// 071   ----------------------------------------
	BYTE	PATT
	 POIN2	AA5KPO_9_023
// 072   ----------------------------------------
	BYTE	PATT
	 POIN2	AA5KPO_9_028
// 073   ----------------------------------------
	BYTE	PATT
	 POIN2	AA5KPO_9_029
// 074   ----------------------------------------
	BYTE	PATT
	 POIN2	AA5KPO_9_030
// 075   ----------------------------------------
	BYTE	PATT
	 POIN2	AA5KPO_9_030
// 076   ----------------------------------------
	BYTE	PATT
	 POIN2	AA5KPO_9_030
// 077   ----------------------------------------
	BYTE	PATT
	 POIN2	AA5KPO_9_030
// 078   ----------------------------------------
	BYTE	PATT
	 POIN2	AA5KPO_9_030
// 079   ----------------------------------------
	BYTE	PATT
	 POIN2	AA5KPO_9_030
// 080   ----------------------------------------
	BYTE	PATT
	 POIN2	AA5KPO_9_004
// 081   ----------------------------------------
	BYTE	PATT
	 POIN2	AA5KPO_9_005
// 082   ----------------------------------------
	BYTE	PATT
	 POIN2	AA5KPO_9_038
// 083   ----------------------------------------
	BYTE	PATT
	 POIN2	AA5KPO_9_039
// 084   ----------------------------------------
	BYTE	PATT
	 POIN2	AA5KPO_9_040
// 085   ----------------------------------------
	BYTE	W96
// 086   ----------------------------------------
	BYTE	W96
// 087   ----------------------------------------
	BYTE	PATT
	 POIN2	AA5KPO_9_043
// 088   ----------------------------------------
	BYTE	PATT
	 POIN2	AA5KPO_9_044
// 089   ----------------------------------------
	BYTE	PATT
	 POIN2	AA5KPO_9_045
// 090   ----------------------------------------
	BYTE	PATT
	 POIN2	AA5KPO_9_045
// 091   ----------------------------------------
	BYTE		N23     Cn1   v112
	BYTE	W24
	BYTE		N23   
	BYTE	W24
	BYTE		N23   
	BYTE	W24
	BYTE		N23   
	BYTE	W23
	BYTE	GoTo
	 POIN2	AA5KPO_9_B1
AA5KPO_9_B2:
	BYTE	FINE

//**************** Track 10 (Midi-Chn.12) ****************//

AA5KPO_10:
	BYTE	KEYSH   AA5KPO_key+0
// 000   ----------------------------------------
	BYTE		VOICE   121
	BYTE		VOL     82*AA5KPO_mvl/mxv
	BYTE		PAN     c_v+0
	BYTE	W48
// 001   ----------------------------------------
AA5KPO_10_001:
	BYTE		N11     Gs1   v096
	BYTE	W12
	BYTE		N11   
	BYTE	W12
	BYTE		N11   
	BYTE	W12
	BYTE		N11   
	BYTE	W12
	BYTE		N05   
	BYTE	W12
	BYTE		N05   
	BYTE	W06
	BYTE		N05   
	BYTE	W12
	BYTE		N05   
	BYTE	W06
	BYTE		N05   
	BYTE	W12
	BYTE	PEND
// 002   ----------------------------------------
	BYTE	PATT
	 POIN2	AA5KPO_10_001
// 003   ----------------------------------------
	BYTE	PATT
	 POIN2	AA5KPO_10_001
// 004   ----------------------------------------
	BYTE	W96
// 005   ----------------------------------------
AA5KPO_10_005:
	BYTE		N11     Gs1   v096
	BYTE	W12
	BYTE		N11   
	BYTE	W12
	BYTE		N23     En1 
	BYTE		N11     Gs1 
	BYTE	W12
	BYTE		N11   
	BYTE	W12
	BYTE		N05   
	BYTE	W12
	BYTE		N05   
	BYTE	W06
	BYTE		N05   
	BYTE	W06
	BYTE		N23     En1 
	BYTE	W06
	BYTE		N05     Gs1 
	BYTE	W06
	BYTE		N05   
	BYTE	W12
	BYTE	PEND
// 006   ----------------------------------------
	BYTE	PATT
	 POIN2	AA5KPO_10_005
// 007   ----------------------------------------
	BYTE	PATT
	 POIN2	AA5KPO_10_005
// 008   ----------------------------------------
	BYTE	PATT
	 POIN2	AA5KPO_10_005
// 009   ----------------------------------------
	BYTE	PATT
	 POIN2	AA5KPO_10_005
// 010   ----------------------------------------
	BYTE	PATT
	 POIN2	AA5KPO_10_005
// 011   ----------------------------------------
	BYTE	PATT
	 POIN2	AA5KPO_10_005
// 012   ----------------------------------------
	BYTE	PATT
	 POIN2	AA5KPO_10_005
// 013   ----------------------------------------
AA5KPO_10_013:
	BYTE		N11     Gs1   v096
	BYTE		N23     An2 
	BYTE	W12
	BYTE		N11     Gs1 
	BYTE	W12
	BYTE		N23     En1 
	BYTE		N11     Gs1 
	BYTE	W12
	BYTE		N11   
	BYTE	W12
	BYTE		N05   
	BYTE	W12
	BYTE		N05   
	BYTE	W06
	BYTE		N05   
	BYTE	W06
	BYTE		N23     En1 
	BYTE	W06
	BYTE		N05     Gs1 
	BYTE	W06
	BYTE		N05   
	BYTE	W12
	BYTE	PEND
// 014   ----------------------------------------
	BYTE	PATT
	 POIN2	AA5KPO_10_005
// 015   ----------------------------------------
	BYTE	PATT
	 POIN2	AA5KPO_10_005
// 016   ----------------------------------------
	BYTE	PATT
	 POIN2	AA5KPO_10_005
// 017   ----------------------------------------
AA5KPO_10_017:
	BYTE		N11     Gs1   v096
	BYTE		N11     En2 
	BYTE	W12
	BYTE		        Gs1 
	BYTE	W12
	BYTE		N23     En1 
	BYTE		N11     Gs1 
	BYTE	W12
	BYTE		N11   
	BYTE	W12
	BYTE		N05   
	BYTE	W12
	BYTE		N05   
	BYTE	W06
	BYTE		N05   
	BYTE	W06
	BYTE		N23     En1 
	BYTE	W06
	BYTE		N05     Gs1 
	BYTE	W06
	BYTE		N05   
	BYTE	W12
	BYTE	PEND
// 018   ----------------------------------------
	BYTE	PATT
	 POIN2	AA5KPO_10_005
// 019   ----------------------------------------
AA5KPO_10_019:
	BYTE		N11     Gs1   v096
	BYTE	W12
	BYTE		N11   
	BYTE	W12
	BYTE		N23     En1 
	BYTE		N11     Gs1 
	BYTE	W12
	BYTE		N11   
	BYTE	W12
	BYTE		N05   
	BYTE	W12
	BYTE		N05   
	BYTE	W06
	BYTE		N05   
	BYTE	W06
	BYTE		N11     En1 
	BYTE	W06
	BYTE		N05     Gs1 
	BYTE	W06
	BYTE		N05   
	BYTE		N11     Cs2 
	BYTE	W12
	BYTE	PEND
// 020   ----------------------------------------
	BYTE	W96
// 021   ----------------------------------------
AA5KPO_10_021:
	BYTE		N23     En2   v112
	BYTE		N23     Bn2 
	BYTE	W24
	BYTE		N23   
	BYTE	W24
	BYTE		N23   
	BYTE	W24
	BYTE		N23   
	BYTE	W24
	BYTE	PEND
// 022   ----------------------------------------
AA5KPO_10_022:
	BYTE		N23     Bn2   v112
	BYTE	W24
	BYTE		N23   
	BYTE	W24
	BYTE		N23   
	BYTE	W24
	BYTE		N23   
	BYTE	W24
	BYTE	PEND
// 023   ----------------------------------------
	BYTE	PATT
	 POIN2	AA5KPO_10_022
// 024   ----------------------------------------
AA5KPO_10_024:
	BYTE		N23     Bn2   v112
	BYTE	W24
	BYTE		N23   
	BYTE	W24
	BYTE		N23   
	BYTE	W24
	BYTE		N11   
	BYTE	W12
	BYTE		        En2 
	BYTE	W12
	BYTE	PEND
// 025   ----------------------------------------
	BYTE	PATT
	 POIN2	AA5KPO_10_022
// 026   ----------------------------------------
	BYTE	PATT
	 POIN2	AA5KPO_10_022
// 027   ----------------------------------------
	BYTE	PATT
	 POIN2	AA5KPO_10_022
// 028   ----------------------------------------
	BYTE	PATT
	 POIN2	AA5KPO_10_022
// 029   ----------------------------------------
AA5KPO_10_029:
	BYTE		N11     Gs1   v080
	BYTE		N23     An2 
	BYTE	W12
	BYTE		N11     Gs1 
	BYTE	W12
	BYTE		N23     En1 
	BYTE		N11     Gs1 
	BYTE	W12
	BYTE		N11   
	BYTE	W12
	BYTE		N05   
	BYTE	W12
	BYTE		N05   
	BYTE	W06
	BYTE		N05   
	BYTE	W06
	BYTE		N23     En1 
	BYTE	W06
	BYTE		N05     Gs1 
	BYTE	W06
	BYTE		N05   
	BYTE	W12
	BYTE	PEND
// 030   ----------------------------------------
AA5KPO_10_030:
	BYTE		N11     Gs1   v080
	BYTE	W12
	BYTE		N11   
	BYTE	W12
	BYTE		N23     En1 
	BYTE		N11     Gs1 
	BYTE	W12
	BYTE		N11   
	BYTE	W12
	BYTE		N05   
	BYTE	W12
	BYTE		N05   
	BYTE	W06
	BYTE		N05   
	BYTE	W06
	BYTE		N23     En1 
	BYTE	W06
	BYTE		N05     Gs1 
	BYTE	W06
	BYTE		N05   
	BYTE	W12
	BYTE	PEND
// 031   ----------------------------------------
	BYTE	PATT
	 POIN2	AA5KPO_10_030
// 032   ----------------------------------------
	BYTE	PATT
	 POIN2	AA5KPO_10_030
// 033   ----------------------------------------
	BYTE	PATT
	 POIN2	AA5KPO_10_030
// 034   ----------------------------------------
	BYTE	PATT
	 POIN2	AA5KPO_10_030
// 035   ----------------------------------------
	BYTE	PATT
	 POIN2	AA5KPO_10_030
// 036   ----------------------------------------
	BYTE	PATT
	 POIN2	AA5KPO_10_030
// 037   ----------------------------------------
	BYTE	PATT
	 POIN2	AA5KPO_10_005
// 038   ----------------------------------------
	BYTE	PATT
	 POIN2	AA5KPO_10_005
// 039   ----------------------------------------
	BYTE		N11     En1   v096
	BYTE	W96
// 040   ----------------------------------------
	BYTE	W96
// 041   ----------------------------------------
	BYTE	PATT
	 POIN2	AA5KPO_10_001
// 042   ----------------------------------------
	BYTE	PATT
	 POIN2	AA5KPO_10_001
// 043   ----------------------------------------
	BYTE	PATT
	 POIN2	AA5KPO_10_001
// 044   ----------------------------------------
	BYTE	PATT
	 POIN2	AA5KPO_10_001
// 045   ----------------------------------------
	BYTE	PATT
	 POIN2	AA5KPO_10_001
// 046   ----------------------------------------
	BYTE	PATT
	 POIN2	AA5KPO_10_001
// 047   ----------------------------------------
	BYTE	PATT
	 POIN2	AA5KPO_10_001
AA5KPO_10_B1:
// 048   ----------------------------------------
	BYTE	W96
// 049   ----------------------------------------
	BYTE	PATT
	 POIN2	AA5KPO_10_005
// 050   ----------------------------------------
	BYTE	PATT
	 POIN2	AA5KPO_10_005
// 051   ----------------------------------------
	BYTE	PATT
	 POIN2	AA5KPO_10_005
// 052   ----------------------------------------
	BYTE	PATT
	 POIN2	AA5KPO_10_005
// 053   ----------------------------------------
	BYTE	PATT
	 POIN2	AA5KPO_10_005
// 054   ----------------------------------------
	BYTE	PATT
	 POIN2	AA5KPO_10_005
// 055   ----------------------------------------
	BYTE	PATT
	 POIN2	AA5KPO_10_005
// 056   ----------------------------------------
	BYTE	PATT
	 POIN2	AA5KPO_10_005
// 057   ----------------------------------------
	BYTE	PATT
	 POIN2	AA5KPO_10_013
// 058   ----------------------------------------
	BYTE	PATT
	 POIN2	AA5KPO_10_005
// 059   ----------------------------------------
	BYTE	PATT
	 POIN2	AA5KPO_10_005
// 060   ----------------------------------------
	BYTE	PATT
	 POIN2	AA5KPO_10_005
// 061   ----------------------------------------
	BYTE	PATT
	 POIN2	AA5KPO_10_017
// 062   ----------------------------------------
	BYTE	PATT
	 POIN2	AA5KPO_10_005
// 063   ----------------------------------------
	BYTE	PATT
	 POIN2	AA5KPO_10_019
// 064   ----------------------------------------
	BYTE	W96
// 065   ----------------------------------------
	BYTE	PATT
	 POIN2	AA5KPO_10_021
// 066   ----------------------------------------
	BYTE	PATT
	 POIN2	AA5KPO_10_022
// 067   ----------------------------------------
	BYTE	PATT
	 POIN2	AA5KPO_10_022
// 068   ----------------------------------------
	BYTE	PATT
	 POIN2	AA5KPO_10_024
// 069   ----------------------------------------
	BYTE	PATT
	 POIN2	AA5KPO_10_022
// 070   ----------------------------------------
	BYTE	PATT
	 POIN2	AA5KPO_10_022
// 071   ----------------------------------------
	BYTE	PATT
	 POIN2	AA5KPO_10_022
// 072   ----------------------------------------
	BYTE	PATT
	 POIN2	AA5KPO_10_022
// 073   ----------------------------------------
	BYTE	PATT
	 POIN2	AA5KPO_10_029
// 074   ----------------------------------------
	BYTE	PATT
	 POIN2	AA5KPO_10_030
// 075   ----------------------------------------
	BYTE	PATT
	 POIN2	AA5KPO_10_030
// 076   ----------------------------------------
	BYTE	PATT
	 POIN2	AA5KPO_10_030
// 077   ----------------------------------------
	BYTE	PATT
	 POIN2	AA5KPO_10_030
// 078   ----------------------------------------
	BYTE	PATT
	 POIN2	AA5KPO_10_030
// 079   ----------------------------------------
	BYTE	PATT
	 POIN2	AA5KPO_10_030
// 080   ----------------------------------------
	BYTE	PATT
	 POIN2	AA5KPO_10_030
// 081   ----------------------------------------
	BYTE	PATT
	 POIN2	AA5KPO_10_005
// 082   ----------------------------------------
	BYTE	PATT
	 POIN2	AA5KPO_10_005
// 083   ----------------------------------------
	BYTE		N11     En1   v096
	BYTE	W96
// 084   ----------------------------------------
	BYTE	W96
// 085   ----------------------------------------
	BYTE	PATT
	 POIN2	AA5KPO_10_001
// 086   ----------------------------------------
	BYTE	PATT
	 POIN2	AA5KPO_10_001
// 087   ----------------------------------------
	BYTE	PATT
	 POIN2	AA5KPO_10_001
// 088   ----------------------------------------
	BYTE	PATT
	 POIN2	AA5KPO_10_001
// 089   ----------------------------------------
	BYTE	PATT
	 POIN2	AA5KPO_10_001
// 090   ----------------------------------------
	BYTE	PATT
	 POIN2	AA5KPO_10_001
// 091   ----------------------------------------
	BYTE		N11     Gs1   v096
	BYTE	W12
	BYTE		N11   
	BYTE	W12
	BYTE		N11   
	BYTE	W12
	BYTE		N11   
	BYTE	W12
	BYTE		N05   
	BYTE	W12
	BYTE		N05   
	BYTE	W06
	BYTE		N05   
	BYTE	W12
	BYTE		N05   
	BYTE	W06
	BYTE		N05   
	BYTE	W11
	BYTE	GoTo
	 POIN2	AA5KPO_10_B1
AA5KPO_10_B2:
	BYTE	FINE

//**************** Track 11 (Midi-Chn.13) ****************//

AA5KPO_11:
	BYTE	KEYSH   AA5KPO_key+0
// 000   ----------------------------------------
	BYTE		VOICE   127
	BYTE		VOL     100*AA5KPO_mvl/mxv
	BYTE		PAN     c_v+0
	BYTE	W48
// 001   ----------------------------------------
	BYTE	W96
// 002   ----------------------------------------
	BYTE	W96
// 003   ----------------------------------------
	BYTE	W96
// 004   ----------------------------------------
AA5KPO_11_004:
	BYTE		N23     Bn0   v096
	BYTE	W24
	BYTE		N23   
	BYTE	W24
	BYTE		N23   
	BYTE	W24
	BYTE		N23   
	BYTE	W24
	BYTE	PEND
// 005   ----------------------------------------
	BYTE	PATT
	 POIN2	AA5KPO_11_004
// 006   ----------------------------------------
	BYTE	PATT
	 POIN2	AA5KPO_11_004
// 007   ----------------------------------------
	BYTE	PATT
	 POIN2	AA5KPO_11_004
// 008   ----------------------------------------
	BYTE	PATT
	 POIN2	AA5KPO_11_004
// 009   ----------------------------------------
	BYTE	PATT
	 POIN2	AA5KPO_11_004
// 010   ----------------------------------------
	BYTE	PATT
	 POIN2	AA5KPO_11_004
// 011   ----------------------------------------
	BYTE	PATT
	 POIN2	AA5KPO_11_004
// 012   ----------------------------------------
	BYTE	PATT
	 POIN2	AA5KPO_11_004
// 013   ----------------------------------------
	BYTE	PATT
	 POIN2	AA5KPO_11_004
// 014   ----------------------------------------
	BYTE	PATT
	 POIN2	AA5KPO_11_004
// 015   ----------------------------------------
	BYTE	PATT
	 POIN2	AA5KPO_11_004
// 016   ----------------------------------------
	BYTE	PATT
	 POIN2	AA5KPO_11_004
// 017   ----------------------------------------
	BYTE	PATT
	 POIN2	AA5KPO_11_004
// 018   ----------------------------------------
	BYTE	PATT
	 POIN2	AA5KPO_11_004
// 019   ----------------------------------------
	BYTE	PATT
	 POIN2	AA5KPO_11_004
// 020   ----------------------------------------
	BYTE	W96
// 021   ----------------------------------------
	BYTE	W96
// 022   ----------------------------------------
	BYTE	W96
// 023   ----------------------------------------
	BYTE	W96
// 024   ----------------------------------------
	BYTE	W96
// 025   ----------------------------------------
	BYTE	W96
// 026   ----------------------------------------
	BYTE	W96
// 027   ----------------------------------------
	BYTE	W96
// 028   ----------------------------------------
	BYTE	W96
// 029   ----------------------------------------
	BYTE	PATT
	 POIN2	AA5KPO_11_004
// 030   ----------------------------------------
	BYTE	PATT
	 POIN2	AA5KPO_11_004
// 031   ----------------------------------------
	BYTE	PATT
	 POIN2	AA5KPO_11_004
// 032   ----------------------------------------
	BYTE	PATT
	 POIN2	AA5KPO_11_004
// 033   ----------------------------------------
	BYTE	PATT
	 POIN2	AA5KPO_11_004
// 034   ----------------------------------------
	BYTE	PATT
	 POIN2	AA5KPO_11_004
// 035   ----------------------------------------
	BYTE	PATT
	 POIN2	AA5KPO_11_004
// 036   ----------------------------------------
	BYTE	PATT
	 POIN2	AA5KPO_11_004
// 037   ----------------------------------------
	BYTE	PATT
	 POIN2	AA5KPO_11_004
// 038   ----------------------------------------
	BYTE	PATT
	 POIN2	AA5KPO_11_004
// 039   ----------------------------------------
	BYTE		N23     Bn0   v096
	BYTE	W96
// 040   ----------------------------------------
	BYTE	PATT
	 POIN2	AA5KPO_11_004
// 041   ----------------------------------------
	BYTE	W96
// 042   ----------------------------------------
	BYTE	W96
// 043   ----------------------------------------
	BYTE	W96
// 044   ----------------------------------------
	BYTE	W96
// 045   ----------------------------------------
	BYTE	PATT
	 POIN2	AA5KPO_11_004
// 046   ----------------------------------------
	BYTE	PATT
	 POIN2	AA5KPO_11_004
// 047   ----------------------------------------
	BYTE	PATT
	 POIN2	AA5KPO_11_004
AA5KPO_11_B1:
// 048   ----------------------------------------
	BYTE	PATT
	 POIN2	AA5KPO_11_004
// 049   ----------------------------------------
	BYTE	PATT
	 POIN2	AA5KPO_11_004
// 050   ----------------------------------------
	BYTE	PATT
	 POIN2	AA5KPO_11_004
// 051   ----------------------------------------
	BYTE	PATT
	 POIN2	AA5KPO_11_004
// 052   ----------------------------------------
	BYTE	PATT
	 POIN2	AA5KPO_11_004
// 053   ----------------------------------------
	BYTE	PATT
	 POIN2	AA5KPO_11_004
// 054   ----------------------------------------
	BYTE	PATT
	 POIN2	AA5KPO_11_004
// 055   ----------------------------------------
	BYTE	PATT
	 POIN2	AA5KPO_11_004
// 056   ----------------------------------------
	BYTE	PATT
	 POIN2	AA5KPO_11_004
// 057   ----------------------------------------
	BYTE	PATT
	 POIN2	AA5KPO_11_004
// 058   ----------------------------------------
	BYTE	PATT
	 POIN2	AA5KPO_11_004
// 059   ----------------------------------------
	BYTE	PATT
	 POIN2	AA5KPO_11_004
// 060   ----------------------------------------
	BYTE	PATT
	 POIN2	AA5KPO_11_004
// 061   ----------------------------------------
	BYTE	PATT
	 POIN2	AA5KPO_11_004
// 062   ----------------------------------------
	BYTE	PATT
	 POIN2	AA5KPO_11_004
// 063   ----------------------------------------
	BYTE	PATT
	 POIN2	AA5KPO_11_004
// 064   ----------------------------------------
	BYTE	W96
// 065   ----------------------------------------
	BYTE	W96
// 066   ----------------------------------------
	BYTE	W96
// 067   ----------------------------------------
	BYTE	W96
// 068   ----------------------------------------
	BYTE	W96
// 069   ----------------------------------------
	BYTE	W96
// 070   ----------------------------------------
	BYTE	W96
// 071   ----------------------------------------
	BYTE	W96
// 072   ----------------------------------------
	BYTE	W96
// 073   ----------------------------------------
	BYTE	PATT
	 POIN2	AA5KPO_11_004
// 074   ----------------------------------------
	BYTE	PATT
	 POIN2	AA5KPO_11_004
// 075   ----------------------------------------
	BYTE	PATT
	 POIN2	AA5KPO_11_004
// 076   ----------------------------------------
	BYTE	PATT
	 POIN2	AA5KPO_11_004
// 077   ----------------------------------------
	BYTE	PATT
	 POIN2	AA5KPO_11_004
// 078   ----------------------------------------
	BYTE	PATT
	 POIN2	AA5KPO_11_004
// 079   ----------------------------------------
	BYTE	PATT
	 POIN2	AA5KPO_11_004
// 080   ----------------------------------------
	BYTE	PATT
	 POIN2	AA5KPO_11_004
// 081   ----------------------------------------
	BYTE	PATT
	 POIN2	AA5KPO_11_004
// 082   ----------------------------------------
	BYTE	PATT
	 POIN2	AA5KPO_11_004
// 083   ----------------------------------------
	BYTE		N23     Bn0   v096
	BYTE	W96
// 084   ----------------------------------------
	BYTE	PATT
	 POIN2	AA5KPO_11_004
// 085   ----------------------------------------
	BYTE	W96
// 086   ----------------------------------------
	BYTE	W96
// 087   ----------------------------------------
	BYTE	W96
// 088   ----------------------------------------
	BYTE	W96
// 089   ----------------------------------------
	BYTE	PATT
	 POIN2	AA5KPO_11_004
// 090   ----------------------------------------
	BYTE	PATT
	 POIN2	AA5KPO_11_004
// 091   ----------------------------------------
	BYTE		N23     Bn0   v096
	BYTE	W24
	BYTE		N23   
	BYTE	W24
	BYTE		N23   
	BYTE	W24
	BYTE		N23   
	BYTE	W23
	BYTE	GoTo
	 POIN2	AA5KPO_11_B1
AA5KPO_11_B2:
	BYTE	FINE

//**************** Track 12 (Midi-Chn.14) ****************//

AA5KPO_12:
	BYTE	KEYSH   AA5KPO_key+0
// 000   ----------------------------------------
	BYTE		VOICE   40
	BYTE		VOL     127*AA5KPO_mvl/mxv
	BYTE		PAN     c_v+0
	BYTE		VOL     100*AA5KPO_mvl/mxv
	BYTE		PAN     c_v+0
	BYTE		VOL     100*AA5KPO_mvl/mxv
	BYTE		PAN     c_v+0
	BYTE		VOL     127*AA5KPO_mvl/mxv
	BYTE		PAN     c_v+0
	BYTE		VOL     127*AA5KPO_mvl/mxv
	BYTE		PAN     c_v+0
	BYTE		VOL     127*AA5KPO_mvl/mxv
	BYTE		PAN     c_v+0
	BYTE	W36
	BYTE		N01     Cn4   v080
	BYTE		N01     Cs4 
	BYTE	W01
	BYTE		        Dn4 
	BYTE	W02
	BYTE		        Ds4 
	BYTE		N01     En4 
	BYTE	W01
	BYTE		        Fn4 
	BYTE	W02
	BYTE		        Fs4 
	BYTE		N01     Gn4 
	BYTE	W01
	BYTE		        Gs4 
	BYTE	W02
	BYTE		        An4 
	BYTE		N01     As4 
	BYTE	W01
	BYTE		        Bn4 
	BYTE	W02
// 001   ----------------------------------------
	BYTE		N11     Cn4   v127
	BYTE		N11     Cn5 
	BYTE	W96
// 002   ----------------------------------------
	BYTE	W72
	BYTE		        Cn3   v080
	BYTE	W12
	BYTE		        Gn3 
	BYTE	W12
// 003   ----------------------------------------
	BYTE		N17   
	BYTE		N36     Cn4 
	BYTE	W18
	BYTE		N17     Dn4   v084
	BYTE	W18
	BYTE		N11     Cn4   v088
	BYTE	W12
	BYTE		N17     Gn3   v108
	BYTE		N17     Gn4 
	BYTE	W18
	BYTE		        Cn4   v112
	BYTE		N17     Cn5 
	BYTE	W18
	BYTE		N11     Gn4 
	BYTE		N11     Gn5 
	BYTE	W12
// 004   ----------------------------------------
AA5KPO_12_004:
	BYTE	W48
	BYTE		N11     Gn3   v096
	BYTE		N11     Gn4 
	BYTE	W12
	BYTE		        Fn3 
	BYTE		N11     Fn4 
	BYTE	W12
	BYTE		        Gn3 
	BYTE		N11     Gn4 
	BYTE	W12
	BYTE		        Gs3 
	BYTE		N11     Gs4 
	BYTE	W12
	BYTE	PEND
// 005   ----------------------------------------
AA5KPO_12_005:
	BYTE		N32     Gn3   v096
	BYTE		N32     Gn4 
	BYTE	W36
	BYTE		N23     Cn4 
	BYTE		N23     Cn5 
	BYTE	W24
	BYTE		N11     Gn3 
	BYTE		N11     Gn4 
	BYTE	W12
	BYTE		        Fn3 
	BYTE		N11     Fn4 
	BYTE	W12
	BYTE		N44     Gn3 
	BYTE		N44     Gn4 
	BYTE	W12
	BYTE	PEND
// 006   ----------------------------------------
AA5KPO_12_006:
	BYTE	W36
	BYTE		N23     Cn3   v096
	BYTE		N23     Cn4 
	BYTE	W24
	BYTE		N11     Dn3 
	BYTE		N11     Dn4 
	BYTE	W12
	BYTE		        Ds3 
	BYTE		N11     Ds4 
	BYTE	W12
	BYTE		        Fn3 
	BYTE		N11     Fn4 
	BYTE	W12
	BYTE	PEND
// 007   ----------------------------------------
AA5KPO_12_007:
	BYTE		N56     Gn3   v096
	BYTE		N56     Gn4 
	BYTE	W60
	BYTE		N11     Fn3 
	BYTE		N11     Fn4 
	BYTE	W12
	BYTE		        Gn3 
	BYTE		N11     Gn4 
	BYTE	W12
	BYTE		N56     Cn3 
	BYTE		N56     Cn4 
	BYTE	W12
	BYTE	PEND
// 008   ----------------------------------------
AA5KPO_12_008:
	BYTE	W48
	BYTE		N11     Cn3   v096
	BYTE		N11     Cn4 
	BYTE	W12
	BYTE		        Dn3 
	BYTE		N11     Dn4 
	BYTE	W12
	BYTE		        Ds3 
	BYTE		N11     Ds4 
	BYTE	W12
	BYTE		        Fn3 
	BYTE		N11     Fn4 
	BYTE	W12
	BYTE	PEND
// 009   ----------------------------------------
	BYTE	PATT
	 POIN2	AA5KPO_12_005
// 010   ----------------------------------------
AA5KPO_12_010:
	BYTE	W36
	BYTE		N11     Gn3   v096
	BYTE		N11     Gn4 
	BYTE	W12
	BYTE		        Gn3 
	BYTE		N11     Gn4 
	BYTE	W12
	BYTE		        Fn3 
	BYTE		N11     Fn4 
	BYTE	W12
	BYTE		        Gn3 
	BYTE		N11     Gn4 
	BYTE	W12
	BYTE		        Gs3 
	BYTE		N11     Gs4 
	BYTE	W12
	BYTE	PEND
// 011   ----------------------------------------
AA5KPO_12_011:
	BYTE		N23     Gn3   v096
	BYTE		N23     Gn4 
	BYTE	W24
	BYTE		        Gn3 
	BYTE		N23     Cn5 
	BYTE	W24
	BYTE		N15     Gn3 
	BYTE		N15     Dn5 
	BYTE	W16
	BYTE		        Fn3 
	BYTE		N15     Ds5 
	BYTE	W16
	BYTE		TIE     Gn3 
	BYTE		TIE     Cn5 
	BYTE	W16
	BYTE	PEND
// 012   ----------------------------------------
	BYTE	W92
	BYTE	W03
	BYTE		EOT     Gn3 
	BYTE		        Cn5 
	BYTE	W01
// 013   ----------------------------------------
	BYTE	W96
// 014   ----------------------------------------
AA5KPO_12_014:
	BYTE		N23     Cn3   v096
	BYTE		N23     Cn4 
	BYTE	W24
	BYTE		N11     Dn3   v100
	BYTE		N11     Dn4 
	BYTE	W12
	BYTE		        Ds3 
	BYTE		N11     Ds4 
	BYTE	W12
	BYTE		N15     Fn3 
	BYTE		N15     Fn4 
	BYTE	W16
	BYTE		        Ds3   v104
	BYTE		N15     Ds4 
	BYTE	W16
	BYTE		        Fn3 
	BYTE		N15     Fn4 
	BYTE	W16
	BYTE	PEND
// 015   ----------------------------------------
AA5KPO_12_015:
	BYTE		N80     Gs3   v104
	BYTE		N80     Gs4 
	BYTE	W84
	BYTE		N05     Gn3   v112
	BYTE		N05     Gn4 
	BYTE	W06
	BYTE		        Gs3 
	BYTE		N05     Gs4 
	BYTE	W06
	BYTE	PEND
// 016   ----------------------------------------
AA5KPO_12_016:
	BYTE		N44     As3   v112
	BYTE		N44     As4 
	BYTE	W48
	BYTE		        Gn3 
	BYTE		N44     Gn4 
	BYTE	W48
	BYTE	PEND
// 017   ----------------------------------------
AA5KPO_12_017:
	BYTE		TIE     Gn3   v112
	BYTE		TIE     Gn4 
	BYTE	W96
	BYTE	PEND
// 018   ----------------------------------------
	BYTE	W92
	BYTE	W03
	BYTE		EOT     Gn3 
	BYTE		        Gn4 
	BYTE	W01
// 019   ----------------------------------------
AA5KPO_12_019:
	BYTE	W84
	BYTE		N05     Cn4   v096
	BYTE		N05     Cn5   v116
	BYTE	W12
	BYTE	PEND
// 020   ----------------------------------------
	BYTE	W96
// 021   ----------------------------------------
AA5KPO_12_021:
	BYTE		N05     Fn3   v096
	BYTE		N05     Cs4   v116
	BYTE	W12
	BYTE		        Fn3   v080
	BYTE		N05     Cs4   v096
	BYTE	W12
	BYTE		        Fs3   v080
	BYTE	W24
	BYTE		N02     Ds3   v096
	BYTE	W18
	BYTE		        Fn3 
	BYTE	W18
	BYTE		N02   
	BYTE	W12
	BYTE	PEND
// 022   ----------------------------------------
AA5KPO_12_022:
	BYTE	W12
	BYTE		N05     Fn3   v080
	BYTE	W12
	BYTE		        Fs3 
	BYTE	W24
	BYTE		        Ds3   v096
	BYTE	W18
	BYTE		        Fn3 
	BYTE	W30
	BYTE	PEND
// 023   ----------------------------------------
	BYTE	PATT
	 POIN2	AA5KPO_12_021
// 024   ----------------------------------------
	BYTE	PATT
	 POIN2	AA5KPO_12_022
// 025   ----------------------------------------
AA5KPO_12_025:
	BYTE		N05     Ds3   v096
	BYTE		N05     Ds4   v116
	BYTE	W12
	BYTE		        Ds3   v080
	BYTE		N05     Ds4   v096
	BYTE	W12
	BYTE		        Fn3   v080
	BYTE	W24
	BYTE		N02     Cs3   v096
	BYTE	W18
	BYTE		        Ds3 
	BYTE	W18
	BYTE		N02   
	BYTE	W12
	BYTE	PEND
// 026   ----------------------------------------
AA5KPO_12_026:
	BYTE	W12
	BYTE		N05     Ds3   v080
	BYTE	W12
	BYTE		        Fn3 
	BYTE	W24
	BYTE		        Cs3   v096
	BYTE	W18
	BYTE		        Ds3 
	BYTE	W30
	BYTE	PEND
// 027   ----------------------------------------
	BYTE	PATT
	 POIN2	AA5KPO_12_025
// 028   ----------------------------------------
	BYTE	PATT
	 POIN2	AA5KPO_12_026
// 029   ----------------------------------------
AA5KPO_12_029:
	BYTE		N23     As3   v096
	BYTE	W12
	BYTE		N11     Fn4   v052
	BYTE	W12
	BYTE		N23     As3   v096
	BYTE	W12
	BYTE		N11     Fn4   v052
	BYTE	W12
	BYTE		        As3   v096
	BYTE	W12
	BYTE		        Gs3 
	BYTE		N11     Fn4   v052
	BYTE	W12
	BYTE		        As3   v096
	BYTE	W12
	BYTE		N24     Fn4   v052
	BYTE	W12
	BYTE	PEND
// 030   ----------------------------------------
AA5KPO_12_030:
	BYTE	W12
	BYTE		N23     Fn4   v052
	BYTE	W24
	BYTE		        Ds4   v096
	BYTE		N11     Fn4   v052
	BYTE	W12
	BYTE		N11   
	BYTE	W12
	BYTE		        Cs4   v096
	BYTE		N11     Fn4   v052
	BYTE	W12
	BYTE		N23     Ds4   v096
	BYTE		N11     Fn4   v052
	BYTE	W12
	BYTE		N11   
	BYTE	W12
	BYTE	PEND
// 031   ----------------------------------------
AA5KPO_12_031:
	BYTE		N11     As3   v096
	BYTE	W12
	BYTE		        Gs3 
	BYTE		N11     Ds4   v052
	BYTE	W12
	BYTE		N32     Fn4   v096
	BYTE	W12
	BYTE		N11     Ds4   v052
	BYTE	W24
	BYTE		N11   
	BYTE	W12
	BYTE		        Fn4   v096
	BYTE	W12
	BYTE		        Ds4   v052
	BYTE		N44     As4   v096
	BYTE	W12
	BYTE	PEND
// 032   ----------------------------------------
AA5KPO_12_032:
	BYTE	W12
	BYTE		N11     Ds4   v052
	BYTE	W24
	BYTE		N11   
	BYTE		N23     Fn4   v096
	BYTE	W12
	BYTE		N11     Ds4   v052
	BYTE	W12
	BYTE		N11   
	BYTE	W12
	BYTE		N11   
	BYTE		N23     Fn4   v096
	BYTE	W12
	BYTE		N11     Ds4   v052
	BYTE	W12
	BYTE	PEND
// 033   ----------------------------------------
AA5KPO_12_033:
	BYTE		N23     Gs3   v096
	BYTE		N11     Fs4   v052
	BYTE	W24
	BYTE		N32     Ds4   v096
	BYTE	W12
	BYTE		N11     Fs4   v052
	BYTE	W24
	BYTE		        Cs4   v096
	BYTE		N11     Fs4   v052
	BYTE	W12
	BYTE		        Ds4   v096
	BYTE	W12
	BYTE		        Fs4   v052
	BYTE		N44     Gs4   v096
	BYTE	W12
	BYTE	PEND
// 034   ----------------------------------------
AA5KPO_12_034:
	BYTE		N11     Fs4   v052
	BYTE	W12
	BYTE		N11   
	BYTE	W12
	BYTE		N11   
	BYTE	W12
	BYTE		N23     Ds4   v096
	BYTE		N11     Fs4   v052
	BYTE	W12
	BYTE		N11   
	BYTE	W12
	BYTE		        Cs4   v096
	BYTE		N11     Fs4   v052
	BYTE	W12
	BYTE		N23     Ds4   v096
	BYTE		N11     Fs4   v052
	BYTE	W12
	BYTE		N11   
	BYTE	W12
	BYTE	PEND
// 035   ----------------------------------------
AA5KPO_12_035:
	BYTE		N11     En4   v052
	BYTE	W12
	BYTE		        Dn4   v096
	BYTE	W12
	BYTE		N32     Bn4 
	BYTE	W12
	BYTE		N11     En4   v052
	BYTE	W24
	BYTE		N11   
	BYTE		N11     An4   v096
	BYTE	W12
	BYTE		        Bn4 
	BYTE	W12
	BYTE		        En4   v052
	BYTE		N44     En5   v096
	BYTE	W12
	BYTE	PEND
// 036   ----------------------------------------
AA5KPO_12_036:
	BYTE		N11     En4   v052
	BYTE	W12
	BYTE		N11   
	BYTE	W12
	BYTE		N11   
	BYTE	W12
	BYTE		N11   
	BYTE		N23     Bn4   v096
	BYTE	W12
	BYTE		N11     En4   v060
	BYTE	W12
	BYTE		        En4   v068
	BYTE		N11     An4   v096
	BYTE	W12
	BYTE		        En4   v080
	BYTE		N23     Bn4   v096
	BYTE	W12
	BYTE		N11     En4   v088
	BYTE	W12
	BYTE	PEND
// 037   ----------------------------------------
AA5KPO_12_037:
	BYTE		N32     Fn4   v096
	BYTE		N32     An4 
	BYTE	W36
	BYTE		N23     Gn4 
	BYTE		N23     Bn4 
	BYTE	W24
	BYTE		        An4 
	BYTE		N23     Cn5 
	BYTE	W24
	BYTE		N11     Cn4 
	BYTE		N11     En4 
	BYTE	W12
	BYTE	PEND
// 038   ----------------------------------------
AA5KPO_12_038:
	BYTE		N32     Ds4   v096
	BYTE		N32     Fs4 
	BYTE	W36
	BYTE		N23     En4 
	BYTE		N23     Gs4 
	BYTE	W24
	BYTE		N32     Fs4 
	BYTE		N32     An4 
	BYTE	W36
	BYTE	PEND
// 039   ----------------------------------------
	BYTE		N92     Gn3 
	BYTE		N92     Gn4 
	BYTE	W96
// 040   ----------------------------------------
AA5KPO_12_040:
	BYTE		N05     Gn4   v096
	BYTE		N05     Gn5 
	BYTE	W06
	BYTE		        Gn4 
	BYTE		N05     Gn5 
	BYTE	W06
	BYTE		        Gn4 
	BYTE		N05     Gn5 
	BYTE	W06
	BYTE		        Gn4 
	BYTE		N05     Gn5 
	BYTE	W06
	BYTE		        Gn4 
	BYTE		N05     Gn5 
	BYTE	W06
	BYTE		        Gn4 
	BYTE		N05     Gn5 
	BYTE	W06
	BYTE		        Gn4 
	BYTE		N05     Gn5 
	BYTE	W06
	BYTE		        Gn4 
	BYTE		N05     Gn5 
	BYTE	W06
	BYTE		        Gn4 
	BYTE		N05     Gn5 
	BYTE	W06
	BYTE		        Gn4 
	BYTE		N05     Gn5 
	BYTE	W06
	BYTE		        Gn4 
	BYTE		N05     Gn5 
	BYTE	W06
	BYTE		        Gn4 
	BYTE		N05     Gn5 
	BYTE	W06
	BYTE		        Gn4 
	BYTE		N05     Gn5 
	BYTE	W06
	BYTE		        Gn4 
	BYTE		N05     Gn5 
	BYTE	W06
	BYTE		        Gn4 
	BYTE		N05     Gn5 
	BYTE	W06
	BYTE		        Gn4 
	BYTE		N05     Gn5 
	BYTE	W06
	BYTE	PEND
// 041   ----------------------------------------
	BYTE	W96
// 042   ----------------------------------------
	BYTE	W96
// 043   ----------------------------------------
	BYTE	W96
// 044   ----------------------------------------
AA5KPO_12_044:
	BYTE	W72
	BYTE		N01     Cn3   v096
	BYTE		N01     Cn4 
	BYTE	W01
	BYTE		        Cs3 
	BYTE		N01     Cs4 
	BYTE	W02
	BYTE		        Dn3 
	BYTE		N01     Dn4 
	BYTE	W03
	BYTE		        Ds3 
	BYTE		N01     Ds4 
	BYTE	W01
	BYTE		        En3 
	BYTE		N01     En4 
	BYTE	W02
	BYTE		        Fn3 
	BYTE		N01     Fn4 
	BYTE	W03
	BYTE		        Fs3 
	BYTE		N01     Fs4 
	BYTE	W01
	BYTE		        Gn3 
	BYTE		N01     Gn4 
	BYTE	W02
	BYTE		        Gs3 
	BYTE		N01     Gs4 
	BYTE	W03
	BYTE		        An3 
	BYTE		N01     An4 
	BYTE	W01
	BYTE		        As3 
	BYTE		N01     As4 
	BYTE	W02
	BYTE		        Bn3 
	BYTE		N01     Bn4 
	BYTE	W03
	BYTE	PEND
// 045   ----------------------------------------
AA5KPO_12_045:
	BYTE		N11     Cn4   v112
	BYTE		N11     Cn5 
	BYTE	W24
	BYTE		        Cn4   v127
	BYTE		N11     Cn5 
	BYTE	W48
	BYTE		        Cn4 
	BYTE		N11     Cn5 
	BYTE	W24
	BYTE	PEND
// 046   ----------------------------------------
AA5KPO_12_046:
	BYTE	W24
	BYTE		N11     Cn4   v127
	BYTE		N11     Cn5 
	BYTE	W48
	BYTE		        Cn4 
	BYTE		N11     Cn5 
	BYTE	W24
	BYTE	PEND
// 047   ----------------------------------------
	BYTE	W24
	BYTE		        Cn4 
	BYTE		N11     Cn5 
	BYTE	W60
	BYTE		        Cn4 
	BYTE		N11     Cn5 
	BYTE	W12
AA5KPO_12_B1:
// 048   ----------------------------------------
	BYTE	PATT
	 POIN2	AA5KPO_12_004
// 049   ----------------------------------------
	BYTE	PATT
	 POIN2	AA5KPO_12_005
// 050   ----------------------------------------
	BYTE	PATT
	 POIN2	AA5KPO_12_006
// 051   ----------------------------------------
	BYTE	PATT
	 POIN2	AA5KPO_12_007
// 052   ----------------------------------------
	BYTE	PATT
	 POIN2	AA5KPO_12_008
// 053   ----------------------------------------
	BYTE	PATT
	 POIN2	AA5KPO_12_005
// 054   ----------------------------------------
	BYTE	PATT
	 POIN2	AA5KPO_12_010
// 055   ----------------------------------------
	BYTE	PATT
	 POIN2	AA5KPO_12_011
// 056   ----------------------------------------
	BYTE	W92
	BYTE	W03
	BYTE		EOT     Gn3 
	BYTE		        Cn5 
	BYTE	W01
// 057   ----------------------------------------
	BYTE	W96
// 058   ----------------------------------------
	BYTE	PATT
	 POIN2	AA5KPO_12_014
// 059   ----------------------------------------
	BYTE	PATT
	 POIN2	AA5KPO_12_015
// 060   ----------------------------------------
	BYTE	PATT
	 POIN2	AA5KPO_12_016
// 061   ----------------------------------------
	BYTE	PATT
	 POIN2	AA5KPO_12_017
// 062   ----------------------------------------
	BYTE	W92
	BYTE	W03
	BYTE		EOT     Gn3 
	BYTE		        Gn4 
	BYTE	W01
// 063   ----------------------------------------
	BYTE	PATT
	 POIN2	AA5KPO_12_019
// 064   ----------------------------------------
	BYTE	W96
// 065   ----------------------------------------
	BYTE	PATT
	 POIN2	AA5KPO_12_021
// 066   ----------------------------------------
	BYTE	PATT
	 POIN2	AA5KPO_12_022
// 067   ----------------------------------------
	BYTE	PATT
	 POIN2	AA5KPO_12_021
// 068   ----------------------------------------
	BYTE	PATT
	 POIN2	AA5KPO_12_022
// 069   ----------------------------------------
	BYTE	PATT
	 POIN2	AA5KPO_12_025
// 070   ----------------------------------------
	BYTE	PATT
	 POIN2	AA5KPO_12_026
// 071   ----------------------------------------
	BYTE	PATT
	 POIN2	AA5KPO_12_025
// 072   ----------------------------------------
	BYTE	PATT
	 POIN2	AA5KPO_12_026
// 073   ----------------------------------------
	BYTE	PATT
	 POIN2	AA5KPO_12_029
// 074   ----------------------------------------
	BYTE	PATT
	 POIN2	AA5KPO_12_030
// 075   ----------------------------------------
	BYTE	PATT
	 POIN2	AA5KPO_12_031
// 076   ----------------------------------------
	BYTE	PATT
	 POIN2	AA5KPO_12_032
// 077   ----------------------------------------
	BYTE	PATT
	 POIN2	AA5KPO_12_033
// 078   ----------------------------------------
	BYTE	PATT
	 POIN2	AA5KPO_12_034
// 079   ----------------------------------------
	BYTE	PATT
	 POIN2	AA5KPO_12_035
// 080   ----------------------------------------
	BYTE	PATT
	 POIN2	AA5KPO_12_036
// 081   ----------------------------------------
	BYTE	PATT
	 POIN2	AA5KPO_12_037
// 082   ----------------------------------------
	BYTE	PATT
	 POIN2	AA5KPO_12_038
// 083   ----------------------------------------
	BYTE		N92     Gn3   v096
	BYTE		N92     Gn4 
	BYTE	W96
// 084   ----------------------------------------
	BYTE	PATT
	 POIN2	AA5KPO_12_040
// 085   ----------------------------------------
	BYTE	W96
// 086   ----------------------------------------
	BYTE	W96
// 087   ----------------------------------------
	BYTE	W96
// 088   ----------------------------------------
	BYTE	PATT
	 POIN2	AA5KPO_12_044
// 089   ----------------------------------------
	BYTE	PATT
	 POIN2	AA5KPO_12_045
// 090   ----------------------------------------
	BYTE	PATT
	 POIN2	AA5KPO_12_046
// 091   ----------------------------------------
	BYTE	W24
	BYTE		N11     Cn4   v127
	BYTE		N11     Cn5 
	BYTE	W60
	BYTE		        Cn4 
	BYTE		N11     Cn5 
	BYTE	W11
	BYTE	GoTo
	 POIN2	AA5KPO_12_B1
AA5KPO_12_B2:
	BYTE	FINE

//**************** Track 13 (Midi-Chn.15) ****************//

AA5KPO_13:
	BYTE	KEYSH   AA5KPO_key+0
// 000   ----------------------------------------
	BYTE		VOICE   42
	BYTE		VOL     127*AA5KPO_mvl/mxv
	BYTE		PAN     c_v+0
	BYTE		VOL     127*AA5KPO_mvl/mxv
	BYTE		PAN     c_v+0
	BYTE		VOL     127*AA5KPO_mvl/mxv
	BYTE		PAN     c_v+0
	BYTE		VOL     127*AA5KPO_mvl/mxv
	BYTE		PAN     c_v+0
	BYTE		VOL     127*AA5KPO_mvl/mxv
	BYTE		PAN     c_v+0
	BYTE		VOL     127*AA5KPO_mvl/mxv
	BYTE		PAN     c_v+0
	BYTE		VOL     127*AA5KPO_mvl/mxv
	BYTE		PAN     c_v+0
	BYTE		VOL     127*AA5KPO_mvl/mxv
	BYTE		PAN     c_v+0
	BYTE		VOL     127*AA5KPO_mvl/mxv
	BYTE		PAN     c_v+0
	BYTE	W36
	BYTE		N01     Cn2   v080
	BYTE		N01     Cs2 
	BYTE	W01
	BYTE		        Dn2 
	BYTE	W02
	BYTE		        Ds2 
	BYTE		N01     En2 
	BYTE	W01
	BYTE		        Fn2 
	BYTE	W02
	BYTE		        Fs2 
	BYTE		N01     Gn2 
	BYTE	W01
	BYTE		        Gs2 
	BYTE	W02
	BYTE		        An2 
	BYTE		N01     As2 
	BYTE	W01
	BYTE		        Bn2 
	BYTE	W02
// 001   ----------------------------------------
	BYTE		N11     Cn1   v127
	BYTE		N11     Cn2 
	BYTE		N11     Cn3 
	BYTE	W96
// 002   ----------------------------------------
	BYTE		TIE     Cn1   v080
	BYTE		TIE     Cn2 
	BYTE		TIE     Cn3 
	BYTE	W96
// 003   ----------------------------------------
	BYTE	W80
	BYTE	W03
	BYTE		EOT     Cn1 
	BYTE		        Cn2 
	BYTE		        Cn3 
	BYTE	W01
	BYTE		N05     Cn1   v116
	BYTE		N05     Cn2 
	BYTE		N05     Cn3   v096
	BYTE	W12
// 004   ----------------------------------------
	BYTE	W96
// 005   ----------------------------------------
AA5KPO_13_005:
	BYTE		N11     Cn1   v096
	BYTE		N11     Gn2   v116
	BYTE		N11     Ds3 
	BYTE	W12
	BYTE		N05     Gn2   v096
	BYTE		N05     Ds3 
	BYTE	W12
	BYTE		N11     Cn1 
	BYTE		N05     An2 
	BYTE		N05     Fn3 
	BYTE	W24
	BYTE		N11     Cn1 
	BYTE		N02     Ds2   v116
	BYTE		N02     Dn3 
	BYTE	W18
	BYTE		        Ds2 
	BYTE		N05     Dn3 
	BYTE	W06
	BYTE		N11     Cn1   v096
	BYTE	W12
	BYTE		N02     Fn2   v116
	BYTE		N05     Ds3 
	BYTE	W12
	BYTE	PEND
// 006   ----------------------------------------
AA5KPO_13_006:
	BYTE		N11     Cn1   v096
	BYTE	W12
	BYTE		N05     Gn2 
	BYTE		N05     Ds3 
	BYTE	W12
	BYTE		N11     Cn1 
	BYTE		N05     An2 
	BYTE		N05     Fn3 
	BYTE	W24
	BYTE		N11     Cn1 
	BYTE		N02     Ds2   v116
	BYTE		N05     Dn3 
	BYTE	W18
	BYTE		N02     Fn2 
	BYTE		N05     Ds3 
	BYTE	W06
	BYTE		N11     Cn1   v096
	BYTE	W12
	BYTE		        As0 
	BYTE	W12
	BYTE	PEND
// 007   ----------------------------------------
AA5KPO_13_007:
	BYTE		N11     Gs0   v096
	BYTE		N05     Gn2   v116
	BYTE		N05     Ds3 
	BYTE	W12
	BYTE		        Gn2   v096
	BYTE		N05     Ds3 
	BYTE	W12
	BYTE		N11     Gs0 
	BYTE		N05     Gs2 
	BYTE		N05     Fn3 
	BYTE	W24
	BYTE		N11     Gs0 
	BYTE		N02     Ds2   v116
	BYTE		N02     Dn3 
	BYTE	W18
	BYTE		        Ds2 
	BYTE		N05     Dn3 
	BYTE	W06
	BYTE		N11     Gs0   v096
	BYTE	W12
	BYTE		N02     Fn2   v116
	BYTE		N05     Ds3 
	BYTE	W12
	BYTE	PEND
// 008   ----------------------------------------
AA5KPO_13_008:
	BYTE		N11     Gs0   v096
	BYTE	W12
	BYTE		N05     Gn2 
	BYTE		N05     Ds3 
	BYTE	W12
	BYTE		N11     Gs0 
	BYTE		N05     Gs2 
	BYTE		N05     Fn3 
	BYTE	W24
	BYTE		N11     Gs0 
	BYTE		N02     Ds2   v116
	BYTE		N05     Dn3 
	BYTE	W18
	BYTE		N02     Fn2 
	BYTE		N05     Ds3 
	BYTE	W06
	BYTE		N11     Gs0   v096
	BYTE	W12
	BYTE		        Gn0 
	BYTE	W12
	BYTE	PEND
// 009   ----------------------------------------
AA5KPO_13_009:
	BYTE		N11     Cn1   v096
	BYTE		N05     Gn2   v116
	BYTE		N05     Ds3 
	BYTE	W12
	BYTE		        Gn2   v096
	BYTE		N05     Ds3 
	BYTE	W12
	BYTE		N11     Cn1 
	BYTE		N05     An2 
	BYTE		N05     Fn3 
	BYTE	W24
	BYTE		N11     Cn1 
	BYTE		N02     Ds2   v116
	BYTE		N02     Dn3 
	BYTE	W18
	BYTE		        Ds2 
	BYTE		N05     Dn3 
	BYTE	W06
	BYTE		N11     Cn1   v096
	BYTE	W12
	BYTE		N02     Fn2   v116
	BYTE		N05     Ds3 
	BYTE	W12
	BYTE	PEND
// 010   ----------------------------------------
	BYTE	PATT
	 POIN2	AA5KPO_13_006
// 011   ----------------------------------------
	BYTE	PATT
	 POIN2	AA5KPO_13_007
// 012   ----------------------------------------
	BYTE	PATT
	 POIN2	AA5KPO_13_008
// 013   ----------------------------------------
AA5KPO_13_013:
	BYTE		N92     Fn0   v096
	BYTE		N23     Ds2 
	BYTE		N23     Ds3 
	BYTE	W24
	BYTE		N11     Fn2   v100
	BYTE		N11     Fn3 
	BYTE	W12
	BYTE		        Gn2 
	BYTE		N11     Gn3 
	BYTE	W12
	BYTE		N15     As2 
	BYTE		N15     As3 
	BYTE	W16
	BYTE		        Gs2 
	BYTE		N15     Gs3 
	BYTE	W16
	BYTE		        Gn2 
	BYTE		N15     Gn3 
	BYTE	W16
	BYTE	PEND
// 014   ----------------------------------------
AA5KPO_13_014:
	BYTE		N92     Fn0   v104
	BYTE		N92     Fn2 
	BYTE		N92     Fn3 
	BYTE	W96
	BYTE	PEND
// 015   ----------------------------------------
AA5KPO_13_015:
	BYTE		N92     Cs1   v108
	BYTE		N92     Cs2 
	BYTE		N80     Fn3 
	BYTE	W84
	BYTE		N05     Fn3   v112
	BYTE	W06
	BYTE		        Gn3 
	BYTE	W06
	BYTE	PEND
// 016   ----------------------------------------
AA5KPO_13_016:
	BYTE		N44     Cs1   v112
	BYTE		N44     Cs2 
	BYTE		N44     Fn3 
	BYTE		N44     Gs3 
	BYTE	W48
	BYTE		        Cs1 
	BYTE		N44     Cs2 
	BYTE		N44     Cs3 
	BYTE		N44     Gn3 
	BYTE	W48
	BYTE	PEND
// 017   ----------------------------------------
AA5KPO_13_017:
	BYTE		TIE     Cn1   v112
	BYTE		TIE     Cn2 
	BYTE		TIE     Ds3 
	BYTE		TIE     Gn3 
	BYTE	W96
	BYTE	PEND
// 018   ----------------------------------------
	BYTE	W92
	BYTE	W03
	BYTE		EOT     Ds3 
	BYTE		        Gn3 
	BYTE	W01
// 019   ----------------------------------------
	BYTE	W80
	BYTE	W03
	BYTE		        Cn1 
	BYTE		        Cn2 
	BYTE	W01
	BYTE		N05     Cn1 
	BYTE		N05     Cn2 
	BYTE		N05     Cn3   v096
	BYTE	W12
// 020   ----------------------------------------
	BYTE	W96
// 021   ----------------------------------------
AA5KPO_13_021:
	BYTE		N05     Fs1   v127
	BYTE		N05     Cn3   v096
	BYTE	W12
	BYTE		        Fs1   v112
	BYTE		N05     Cn3   v080
	BYTE	W12
	BYTE		        Cs3 
	BYTE	W24
	BYTE		N02     As2   v096
	BYTE	W18
	BYTE		        Cn3 
	BYTE	W18
	BYTE		N02   
	BYTE	W12
	BYTE	PEND
// 022   ----------------------------------------
AA5KPO_13_022:
	BYTE	W12
	BYTE		N05     Cn3   v080
	BYTE	W12
	BYTE		        Cs3 
	BYTE	W24
	BYTE		        As2   v096
	BYTE	W18
	BYTE		        Cn3 
	BYTE	W30
	BYTE	PEND
// 023   ----------------------------------------
	BYTE	PATT
	 POIN2	AA5KPO_13_021
// 024   ----------------------------------------
	BYTE	PATT
	 POIN2	AA5KPO_13_022
// 025   ----------------------------------------
AA5KPO_13_025:
	BYTE		N05     Ds1   v127
	BYTE		N05     As2   v096
	BYTE	W12
	BYTE		        Ds1   v112
	BYTE		N05     As2   v080
	BYTE	W12
	BYTE		        Cn3 
	BYTE	W24
	BYTE		N02     Gs2   v096
	BYTE	W18
	BYTE		        As2 
	BYTE	W18
	BYTE		N02   
	BYTE	W12
	BYTE	PEND
// 026   ----------------------------------------
AA5KPO_13_026:
	BYTE	W12
	BYTE		N05     As2   v080
	BYTE	W12
	BYTE		        Cn3 
	BYTE	W24
	BYTE		        Gs2   v096
	BYTE	W18
	BYTE		        As2 
	BYTE	W30
	BYTE	PEND
// 027   ----------------------------------------
	BYTE	PATT
	 POIN2	AA5KPO_13_025
// 028   ----------------------------------------
	BYTE	PATT
	 POIN2	AA5KPO_13_026
// 029   ----------------------------------------
AA5KPO_13_029:
	BYTE		N11     Bn0   v096
	BYTE		N23     As2 
	BYTE	W12
	BYTE		N11     Cs4   v052
	BYTE	W12
	BYTE		        Bn0   v096
	BYTE		N23     As2 
	BYTE	W12
	BYTE		N11     Cs4   v052
	BYTE	W12
	BYTE		        Bn0   v096
	BYTE		N11     As2 
	BYTE	W12
	BYTE		        Gs2 
	BYTE		N11     Cs4   v052
	BYTE	W12
	BYTE		        Bn0   v096
	BYTE		N11     As2 
	BYTE	W12
	BYTE		N44     Fn3 
	BYTE		N11     Cs4   v052
	BYTE	W12
	BYTE	PEND
// 030   ----------------------------------------
AA5KPO_13_030:
	BYTE		N11     Bn0   v096
	BYTE	W12
	BYTE		        Cs4   v052
	BYTE	W12
	BYTE		        Bn0   v096
	BYTE	W12
	BYTE		N23     Ds3 
	BYTE		N11     Cs4   v052
	BYTE	W12
	BYTE		        Bn0   v096
	BYTE		N11     Cs4   v052
	BYTE	W12
	BYTE		        Cs3   v096
	BYTE		N11     Cs4   v052
	BYTE	W12
	BYTE		        Bn0   v096
	BYTE		N23     Ds3 
	BYTE		N11     Cs4   v052
	BYTE	W12
	BYTE		N11   
	BYTE	W12
	BYTE	PEND
// 031   ----------------------------------------
AA5KPO_13_031:
	BYTE		N11     Gs0   v096
	BYTE		N11     As2 
	BYTE	W12
	BYTE		        Gs2 
	BYTE		N11     Cn4   v052
	BYTE	W12
	BYTE		        Gs0   v096
	BYTE		N32     Cn3 
	BYTE	W12
	BYTE		N11     Cn4   v052
	BYTE	W12
	BYTE		        Gs0   v096
	BYTE	W12
	BYTE		        As2 
	BYTE		N11     Cn4   v052
	BYTE	W12
	BYTE		        Gs0   v096
	BYTE		N11     Cn3 
	BYTE	W12
	BYTE		N44     Fn3 
	BYTE		N11     Cn4   v052
	BYTE	W12
	BYTE	PEND
// 032   ----------------------------------------
AA5KPO_13_032:
	BYTE		N11     Gs0   v096
	BYTE	W12
	BYTE		        Cn4   v052
	BYTE	W12
	BYTE		        Gs0   v096
	BYTE	W12
	BYTE		N23     Cn3 
	BYTE		N11     Cn4   v052
	BYTE	W12
	BYTE		        Gs0   v096
	BYTE		N11     Cn4   v052
	BYTE	W12
	BYTE		        As2   v096
	BYTE		N11     Cn4   v052
	BYTE	W12
	BYTE		        Gs0   v096
	BYTE		N23     Cn3 
	BYTE		N11     Cn4   v052
	BYTE	W12
	BYTE		N11   
	BYTE	W12
	BYTE	PEND
// 033   ----------------------------------------
AA5KPO_13_033:
	BYTE		N11     En1   v096
	BYTE		N23     Gs2 
	BYTE		N11     Gs3   v052
	BYTE	W24
	BYTE		        En1   v096
	BYTE		N32     Ds3 
	BYTE	W12
	BYTE		N11     Gs3   v052
	BYTE	W12
	BYTE		        En1   v096
	BYTE	W12
	BYTE		        Cs3 
	BYTE		N11     Gs3   v052
	BYTE	W12
	BYTE		        En1   v096
	BYTE		N11     Ds3 
	BYTE	W12
	BYTE		N12     Gs3 
	BYTE	W12
	BYTE	PEND
// 034   ----------------------------------------
AA5KPO_13_034:
	BYTE		N11     En1   v096
	BYTE		N12     Gs3   v052
	BYTE	W12
	BYTE		N12   
	BYTE	W12
	BYTE		N11     En1   v096
	BYTE		N11     Gs3   v052
	BYTE	W12
	BYTE		N23     Ds3   v096
	BYTE		N11     Gs3   v052
	BYTE	W12
	BYTE		        En1   v096
	BYTE		N11     Gs3   v052
	BYTE	W12
	BYTE		        Cs3   v096
	BYTE		N11     Gs3   v052
	BYTE	W12
	BYTE		        En1   v096
	BYTE		N23     Ds3 
	BYTE		N11     Gs3   v052
	BYTE	W12
	BYTE		N11   
	BYTE	W12
	BYTE	PEND
// 035   ----------------------------------------
AA5KPO_13_035:
	BYTE		N11     Cn1   v096
	BYTE		N11     En3 
	BYTE		N11     Bn3   v052
	BYTE	W12
	BYTE		        Dn3   v096
	BYTE	W12
	BYTE		        Cn1 
	BYTE		N32     Gn3 
	BYTE	W12
	BYTE		N11     Bn3   v052
	BYTE	W12
	BYTE		        Cn1   v096
	BYTE	W12
	BYTE		        Fn3 
	BYTE		N11     Bn3   v052
	BYTE	W12
	BYTE		        Cn1   v096
	BYTE		N11     Gn3 
	BYTE	W12
	BYTE		N44     An3 
	BYTE		N11     Bn3   v052
	BYTE	W12
	BYTE	PEND
// 036   ----------------------------------------
AA5KPO_13_036:
	BYTE		N11     Cn1   v096
	BYTE		N11     Bn3   v052
	BYTE	W12
	BYTE		N11   
	BYTE	W12
	BYTE		        Cn1   v096
	BYTE		N11     Bn3   v052
	BYTE	W12
	BYTE		N23     Gn3   v096
	BYTE		N11     Bn3   v052
	BYTE	W12
	BYTE		        Cn1   v096
	BYTE		N11     Bn3   v060
	BYTE	W12
	BYTE		        Fn3   v096
	BYTE		N11     Bn3   v068
	BYTE	W12
	BYTE		        Cn1   v096
	BYTE		N23     Gn3 
	BYTE		N11     Bn3   v080
	BYTE	W12
	BYTE		        Bn3   v088
	BYTE	W12
	BYTE	PEND
// 037   ----------------------------------------
AA5KPO_13_037:
	BYTE		N11     Fn1   v096
	BYTE		N92     An2 
	BYTE		N92     Cn4 
	BYTE	W24
	BYTE		N11     Fn1 
	BYTE	W24
	BYTE		N11   
	BYTE	W24
	BYTE		N11   
	BYTE	W24
	BYTE	PEND
// 038   ----------------------------------------
AA5KPO_13_038:
	BYTE		N11     Bn0   v096
	BYTE		N92     Ds2 
	BYTE		N92     Bn3 
	BYTE	W24
	BYTE		N11     Bn0 
	BYTE	W24
	BYTE		N11   
	BYTE	W24
	BYTE		N11   
	BYTE	W24
	BYTE	PEND
// 039   ----------------------------------------
AA5KPO_13_039:
	BYTE		N92     Gn0   v096
	BYTE		N92     Gn1 
	BYTE		N92     Gn2 
	BYTE		N92     Gn3 
	BYTE	W96
	BYTE	PEND
// 040   ----------------------------------------
	BYTE	PATT
	 POIN2	AA5KPO_13_039
// 041   ----------------------------------------
AA5KPO_13_041:
	BYTE		TIE     Cn1   v096
	BYTE		TIE     Cn2 
	BYTE		TIE     Cn3 
	BYTE	W96
	BYTE	PEND
// 042   ----------------------------------------
	BYTE	W96
// 043   ----------------------------------------
	BYTE	W96
// 044   ----------------------------------------
	BYTE	W92
	BYTE	W03
	BYTE		EOT     Cn1 
	BYTE		        Cn2 
	BYTE		        Cn3 
	BYTE	W01
// 045   ----------------------------------------
AA5KPO_13_045:
	BYTE	W24
	BYTE		N11     Cn1   v127
	BYTE		N11     Cn2 
	BYTE		N11     Cn3 
	BYTE	W48
	BYTE		        Cn1 
	BYTE		N11     Cn2 
	BYTE		N11     Cn3 
	BYTE	W24
	BYTE	PEND
// 046   ----------------------------------------
	BYTE	PATT
	 POIN2	AA5KPO_13_045
// 047   ----------------------------------------
	BYTE	W24
	BYTE		N11     Cn1   v127
	BYTE		N11     Cn2 
	BYTE		N11     Cn3 
	BYTE	W60
	BYTE		        Cn1 
	BYTE		N11     Cn2 
	BYTE		N11     Cn3 
	BYTE	W12
AA5KPO_13_B1:
// 048   ----------------------------------------
	BYTE	W96
// 049   ----------------------------------------
	BYTE	PATT
	 POIN2	AA5KPO_13_005
// 050   ----------------------------------------
	BYTE	PATT
	 POIN2	AA5KPO_13_006
// 051   ----------------------------------------
	BYTE	PATT
	 POIN2	AA5KPO_13_007
// 052   ----------------------------------------
	BYTE	PATT
	 POIN2	AA5KPO_13_008
// 053   ----------------------------------------
	BYTE	PATT
	 POIN2	AA5KPO_13_009
// 054   ----------------------------------------
	BYTE	PATT
	 POIN2	AA5KPO_13_006
// 055   ----------------------------------------
	BYTE	PATT
	 POIN2	AA5KPO_13_007
// 056   ----------------------------------------
	BYTE	PATT
	 POIN2	AA5KPO_13_008
// 057   ----------------------------------------
	BYTE	PATT
	 POIN2	AA5KPO_13_013
// 058   ----------------------------------------
	BYTE	PATT
	 POIN2	AA5KPO_13_014
// 059   ----------------------------------------
	BYTE	PATT
	 POIN2	AA5KPO_13_015
// 060   ----------------------------------------
	BYTE	PATT
	 POIN2	AA5KPO_13_016
// 061   ----------------------------------------
	BYTE	PATT
	 POIN2	AA5KPO_13_017
// 062   ----------------------------------------
	BYTE	W92
	BYTE	W03
	BYTE		EOT     Ds3 
	BYTE		        Gn3 
	BYTE	W01
// 063   ----------------------------------------
	BYTE	W80
	BYTE	W03
	BYTE		        Cn1 
	BYTE		        Cn2 
	BYTE	W01
	BYTE		N05     Cn1   v112
	BYTE		N05     Cn2 
	BYTE		N05     Cn3   v096
	BYTE	W12
// 064   ----------------------------------------
	BYTE	W96
// 065   ----------------------------------------
	BYTE	PATT
	 POIN2	AA5KPO_13_021
// 066   ----------------------------------------
	BYTE	PATT
	 POIN2	AA5KPO_13_022
// 067   ----------------------------------------
	BYTE	PATT
	 POIN2	AA5KPO_13_021
// 068   ----------------------------------------
	BYTE	PATT
	 POIN2	AA5KPO_13_022
// 069   ----------------------------------------
	BYTE	PATT
	 POIN2	AA5KPO_13_025
// 070   ----------------------------------------
	BYTE	PATT
	 POIN2	AA5KPO_13_026
// 071   ----------------------------------------
	BYTE	PATT
	 POIN2	AA5KPO_13_025
// 072   ----------------------------------------
	BYTE	PATT
	 POIN2	AA5KPO_13_026
// 073   ----------------------------------------
	BYTE	PATT
	 POIN2	AA5KPO_13_029
// 074   ----------------------------------------
	BYTE	PATT
	 POIN2	AA5KPO_13_030
// 075   ----------------------------------------
	BYTE	PATT
	 POIN2	AA5KPO_13_031
// 076   ----------------------------------------
	BYTE	PATT
	 POIN2	AA5KPO_13_032
// 077   ----------------------------------------
	BYTE	PATT
	 POIN2	AA5KPO_13_033
// 078   ----------------------------------------
	BYTE	PATT
	 POIN2	AA5KPO_13_034
// 079   ----------------------------------------
	BYTE	PATT
	 POIN2	AA5KPO_13_035
// 080   ----------------------------------------
	BYTE	PATT
	 POIN2	AA5KPO_13_036
// 081   ----------------------------------------
	BYTE	PATT
	 POIN2	AA5KPO_13_037
// 082   ----------------------------------------
	BYTE	PATT
	 POIN2	AA5KPO_13_038
// 083   ----------------------------------------
	BYTE	PATT
	 POIN2	AA5KPO_13_039
// 084   ----------------------------------------
	BYTE	PATT
	 POIN2	AA5KPO_13_039
// 085   ----------------------------------------
	BYTE	PATT
	 POIN2	AA5KPO_13_041
// 086   ----------------------------------------
	BYTE	W96
// 087   ----------------------------------------
	BYTE	W96
// 088   ----------------------------------------
	BYTE	W92
	BYTE	W03
	BYTE		EOT     Cn1 
	BYTE		        Cn2 
	BYTE		        Cn3 
	BYTE	W01
// 089   ----------------------------------------
	BYTE	PATT
	 POIN2	AA5KPO_13_045
// 090   ----------------------------------------
	BYTE	PATT
	 POIN2	AA5KPO_13_045
// 091   ----------------------------------------
	BYTE	W24
	BYTE		N11     Cn1   v127
	BYTE		N11     Cn2 
	BYTE		N11     Cn3 
	BYTE	W60
	BYTE		        Cn1 
	BYTE		N11     Cn2 
	BYTE		N11     Cn3 
	BYTE	W11
	BYTE	GoTo
	 POIN2	AA5KPO_13_B1
AA5KPO_13_B2:
	BYTE	FINE

//******************************************************//
	ALIGN 4

AA5KPO:
	BYTE	13	// NumTrks
	BYTE	0	// NumBlks
	BYTE	AA5KPO_pri	// Priority
	BYTE	AA5KPO_rev	// Reverb.

	POIN2	AA5KPO_grp

	POIN2	AA5KPO_1
	POIN2	AA5KPO_2
	POIN2	AA5KPO_3
	POIN2	AA5KPO_4
	POIN2	AA5KPO_5
	POIN2	AA5KPO_6
	POIN2	AA5KPO_7
	POIN2	AA5KPO_8
	POIN2	AA5KPO_9
	POIN2	AA5KPO_10
	POIN2	AA5KPO_11
	POIN2	AA5KPO_12
	POIN2	AA5KPO_13

	
