	.include "MPlayDef.s"

	.equ	DSTrial_grp, voicegroup000
	.equ	DSTrial_pri, 0
	.equ	DSTrial_rev, 0
	.equ	DSTrial_mvl, 127
	.equ	DSTrial_key, 0
	.equ	DSTrial_tbs, 1
	.equ	DSTrial_exg, 0
	.equ	DSTrial_cmp, 1

	.section .rodata
	.global	DSTrial
	.align	2

@**************** Track 1 (Midi-Chn.1) ****************@

DSTrial_1:
	.byte	KEYSH , DSTrial_key+0
DSTrial_1_B1:
@ 000   ----------------------------------------
	.byte	TEMPO , 100*DSTrial_tbs/2
	.byte		VOICE , 34
	.byte		VOL   , 127*DSTrial_mvl/mxv
	.byte		N36   , Fn1 , v127
	.byte	W36
	.byte		TIE   , Gn1 
	.byte	W60
@ 001   ----------------------------------------
	.byte	W72
	.byte		EOT   
	.byte	W06
	.byte		N06   
	.byte	W06
	.byte		        As1 
	.byte	W06
	.byte		        Cn2 
	.byte	W06
@ 002   ----------------------------------------
DSTrial_1_002:
	.byte		N36   , Fn1 , v127
	.byte	W36
	.byte		TIE   , Gn1 
	.byte	W60
	.byte	PEND
@ 003   ----------------------------------------
	.byte	W72
	.byte		EOT   
	.byte		N06   , Gs2 
	.byte	W06
	.byte		        Gn2 
	.byte	W06
	.byte		        Ds2 
	.byte	W06
	.byte		        As1 
	.byte	W06
@ 004   ----------------------------------------
DSTrial_1_004:
	.byte		N18   , Fn1 , v127
	.byte	W18
	.byte		N06   
	.byte	W18
	.byte		N60   , Gn1 
	.byte	W60
	.byte	PEND
@ 005   ----------------------------------------
DSTrial_1_005:
	.byte		N06   , Fn1 , v127
	.byte	W06
	.byte		        Gn1 
	.byte	W06
	.byte		        Cn2 
	.byte	W18
	.byte		        Fn1 
	.byte	W06
	.byte		        Gn1 
	.byte	W06
	.byte		        As1 
	.byte	W24
	.byte		N03   , Dn2 
	.byte	W03
	.byte		        Ds2 
	.byte	W03
	.byte		N06   , Dn2 
	.byte	W06
	.byte		        As1 
	.byte	W06
	.byte		N12   , Fn1 
	.byte	W12
	.byte	PEND
@ 006   ----------------------------------------
DSTrial_1_006:
	.byte		N12   , Fn1 , v127
	.byte	W12
	.byte		        Cn2 
	.byte	W12
	.byte		        Fn1 
	.byte	W12
	.byte		N60   , Gn1 
	.byte	W60
	.byte	PEND
@ 007   ----------------------------------------
DSTrial_1_007:
	.byte		N06   , Gn1 , v127
	.byte	W06
	.byte		        Fn1 
	.byte	W30
	.byte		        Gn1 
	.byte	W06
	.byte		        As1 
	.byte	W30
	.byte		        Gs2 
	.byte	W06
	.byte		        Gn2 
	.byte	W06
	.byte		        Ds2 
	.byte	W06
	.byte		        As1 
	.byte	W06
	.byte	PEND
@ 008   ----------------------------------------
	.byte	PATT
	 .word	DSTrial_1_004
@ 009   ----------------------------------------
	.byte	PATT
	 .word	DSTrial_1_005
@ 010   ----------------------------------------
	.byte	PATT
	 .word	DSTrial_1_006
@ 011   ----------------------------------------
	.byte	PATT
	 .word	DSTrial_1_007
@ 012   ----------------------------------------
DSTrial_1_012:
	.byte		N06   , Cn2 , v127
	.byte	W06
	.byte		N06   
	.byte	W30
	.byte		        Fn1 
	.byte	W06
	.byte		N06   
	.byte	W42
	.byte		N66   , Gn1 
	.byte	W12
	.byte	PEND
@ 013   ----------------------------------------
DSTrial_1_013:
	.byte	W54
	.byte		N06   , Gn1 , v127
	.byte	W06
	.byte		        As1 
	.byte	W06
	.byte		        Cn2 
	.byte	W06
	.byte		        Ds2 
	.byte	W06
	.byte		        Dn2 
	.byte	W06
	.byte		        As1 
	.byte	W06
	.byte		        Fn1 
	.byte	W06
	.byte	PEND
@ 014   ----------------------------------------
DSTrial_1_014:
	.byte		N06   , Cn2 , v127
	.byte	W06
	.byte		N06   
	.byte	W30
	.byte		        Fn1 
	.byte	W06
	.byte		N06   
	.byte	W42
	.byte		N36   , Gn1 
	.byte	W12
	.byte	PEND
@ 015   ----------------------------------------
DSTrial_1_015:
	.byte	W24
	.byte		N12   , As1 , v127
	.byte	W12
	.byte		        Gn1 
	.byte	W12
	.byte		        As1 
	.byte	W12
	.byte		        Cn2 
	.byte	W12
	.byte		N24   , Dn2 
	.byte	W24
	.byte	PEND
@ 016   ----------------------------------------
	.byte	PATT
	 .word	DSTrial_1_012
@ 017   ----------------------------------------
DSTrial_1_017:
	.byte	W54
	.byte		N06   , Gn1 , v127
	.byte	W06
	.byte		        As1 
	.byte	W06
	.byte		        Cn2 
	.byte	W06
	.byte		        Ds2 
	.byte	W06
	.byte		        Dn2 
	.byte	W06
	.byte		        Ds2 
	.byte	W06
	.byte		        Fn2 
	.byte	W06
	.byte	PEND
@ 018   ----------------------------------------
DSTrial_1_018:
	.byte		N06   , Cn2 , v127
	.byte	W06
	.byte		N06   
	.byte	W30
	.byte		        Fn1 
	.byte	W06
	.byte		N06   
	.byte	W42
	.byte		N84   , Gn1 
	.byte	W12
	.byte	PEND
@ 019   ----------------------------------------
	.byte	W96
@ 020   ----------------------------------------
	.byte		VOL   , 127*DSTrial_mvl/mxv
	.byte		N36   , Fn1 
	.byte	W36
	.byte		TIE   , Gn1 
	.byte	W60
@ 021   ----------------------------------------
	.byte	W72
	.byte		EOT   
	.byte	W06
	.byte		N06   
	.byte	W06
	.byte		        As1 
	.byte	W06
	.byte		        Cn2 
	.byte	W06
@ 022   ----------------------------------------
	.byte	PATT
	 .word	DSTrial_1_002
@ 023   ----------------------------------------
	.byte	W72
	.byte		EOT   , Gn1 
	.byte		N06   , Gs2 , v127
	.byte	W06
	.byte		        Gn2 
	.byte	W06
	.byte		        Ds2 
	.byte	W06
	.byte		        As1 
	.byte	W06
@ 024   ----------------------------------------
	.byte	PATT
	 .word	DSTrial_1_004
@ 025   ----------------------------------------
	.byte	PATT
	 .word	DSTrial_1_005
@ 026   ----------------------------------------
	.byte	PATT
	 .word	DSTrial_1_006
@ 027   ----------------------------------------
	.byte	PATT
	 .word	DSTrial_1_007
@ 028   ----------------------------------------
	.byte	PATT
	 .word	DSTrial_1_004
@ 029   ----------------------------------------
	.byte	PATT
	 .word	DSTrial_1_005
@ 030   ----------------------------------------
	.byte	PATT
	 .word	DSTrial_1_006
@ 031   ----------------------------------------
	.byte	PATT
	 .word	DSTrial_1_007
@ 032   ----------------------------------------
	.byte	PATT
	 .word	DSTrial_1_012
@ 033   ----------------------------------------
	.byte	PATT
	 .word	DSTrial_1_013
@ 034   ----------------------------------------
	.byte	PATT
	 .word	DSTrial_1_014
@ 035   ----------------------------------------
	.byte	PATT
	 .word	DSTrial_1_015
@ 036   ----------------------------------------
	.byte	PATT
	 .word	DSTrial_1_012
@ 037   ----------------------------------------
	.byte	PATT
	 .word	DSTrial_1_017
@ 038   ----------------------------------------
	.byte	PATT
	 .word	DSTrial_1_018
@ 039   ----------------------------------------
	.byte	W96
	.byte	GOTO
	 .word	DSTrial_1_B1
DSTrial_1_B2:
@ 040   ----------------------------------------
	.byte	FINE

@**************** Track 2 (Midi-Chn.2) ****************@

DSTrial_2:
	.byte	KEYSH , DSTrial_key+0
DSTrial_2_B1:
@ 000   ----------------------------------------
	.byte		VOICE , 61
	.byte		VOL   , 85*DSTrial_mvl/mxv
	.byte		PAN   , c_v-64
	.byte	W96
@ 001   ----------------------------------------
	.byte	W96
@ 002   ----------------------------------------
	.byte	W96
@ 003   ----------------------------------------
	.byte	W96
@ 004   ----------------------------------------
	.byte	W96
@ 005   ----------------------------------------
	.byte	W96
@ 006   ----------------------------------------
	.byte	W96
@ 007   ----------------------------------------
	.byte	W96
@ 008   ----------------------------------------
	.byte	W96
@ 009   ----------------------------------------
	.byte	W96
@ 010   ----------------------------------------
	.byte	W96
@ 011   ----------------------------------------
	.byte	W96
@ 012   ----------------------------------------
DSTrial_2_012:
	.byte		N06   , Ds4 , v096
	.byte	W06
	.byte		N06   
	.byte	W30
	.byte		N06   
	.byte	W06
	.byte		N06   
	.byte	W42
	.byte		N84   , Fn4 
	.byte	W12
	.byte	PEND
@ 013   ----------------------------------------
	.byte	W96
@ 014   ----------------------------------------
DSTrial_2_014:
	.byte		N06   , Ds4 , v096
	.byte	W06
	.byte		N06   
	.byte	W30
	.byte		N06   
	.byte	W06
	.byte		N06   
	.byte	W42
	.byte		N84   , Dn4 
	.byte	W12
	.byte	PEND
@ 015   ----------------------------------------
DSTrial_2_015:
	.byte	W84
	.byte		N06   , Dn4 , v096
	.byte	W06
	.byte		N06   
	.byte	W06
	.byte	PEND
@ 016   ----------------------------------------
	.byte	PATT
	 .word	DSTrial_2_012
@ 017   ----------------------------------------
	.byte	W96
@ 018   ----------------------------------------
	.byte	PATT
	 .word	DSTrial_2_014
@ 019   ----------------------------------------
	.byte	W96
@ 020   ----------------------------------------
	.byte	W96
@ 021   ----------------------------------------
	.byte	W96
@ 022   ----------------------------------------
	.byte	W96
@ 023   ----------------------------------------
	.byte	W96
@ 024   ----------------------------------------
	.byte	W96
@ 025   ----------------------------------------
	.byte	W96
@ 026   ----------------------------------------
	.byte	W96
@ 027   ----------------------------------------
	.byte	W96
@ 028   ----------------------------------------
	.byte	W96
@ 029   ----------------------------------------
	.byte	W96
@ 030   ----------------------------------------
	.byte	W96
@ 031   ----------------------------------------
	.byte	W96
@ 032   ----------------------------------------
	.byte	PATT
	 .word	DSTrial_2_012
@ 033   ----------------------------------------
	.byte	W96
@ 034   ----------------------------------------
	.byte	PATT
	 .word	DSTrial_2_014
@ 035   ----------------------------------------
	.byte	PATT
	 .word	DSTrial_2_015
@ 036   ----------------------------------------
	.byte	PATT
	 .word	DSTrial_2_012
@ 037   ----------------------------------------
	.byte	W96
@ 038   ----------------------------------------
	.byte	PATT
	 .word	DSTrial_2_014
@ 039   ----------------------------------------
	.byte	W96
	.byte	GOTO
	 .word	DSTrial_2_B1
DSTrial_2_B2:
@ 040   ----------------------------------------
	.byte	FINE

@**************** Track 3 (Midi-Chn.3) ****************@

DSTrial_3:
	.byte	KEYSH , DSTrial_key+0
DSTrial_3_B1:
@ 000   ----------------------------------------
	.byte		VOICE , 40
	.byte		VOL   , 85*DSTrial_mvl/mxv
	.byte		PAN   , c_v+63
	.byte		N36   , Ds3 , v096
	.byte		N36   , Gs3 , v052
	.byte	W36
	.byte		TIE   , Fn3 , v096
	.byte		TIE   , As3 , v052
	.byte	W60
@ 001   ----------------------------------------
	.byte	W72
	.byte		EOT   , Fn3 
	.byte		        As3 
	.byte	W24
@ 002   ----------------------------------------
DSTrial_3_002:
	.byte		N36   , Ds3 , v096
	.byte		N36   , Gs3 , v052
	.byte	W36
	.byte		TIE   , Fn3 , v096
	.byte		TIE   , As3 , v052
	.byte	W60
	.byte	PEND
@ 003   ----------------------------------------
	.byte	W72
	.byte		EOT   , Fn3 
	.byte		        As3 
	.byte	W24
@ 004   ----------------------------------------
	.byte	PATT
	 .word	DSTrial_3_002
@ 005   ----------------------------------------
	.byte	W72
	.byte		EOT   , Fn3 
	.byte		        As3 
	.byte	W24
@ 006   ----------------------------------------
	.byte	PATT
	 .word	DSTrial_3_002
@ 007   ----------------------------------------
	.byte	W72
	.byte		EOT   , Fn3 
	.byte		        As3 
	.byte	W24
@ 008   ----------------------------------------
	.byte	PATT
	 .word	DSTrial_3_002
@ 009   ----------------------------------------
	.byte	W72
	.byte		EOT   , Fn3 
	.byte		        As3 
	.byte	W24
@ 010   ----------------------------------------
	.byte	PATT
	 .word	DSTrial_3_002
@ 011   ----------------------------------------
	.byte	W72
	.byte		EOT   , Fn3 
	.byte		        As3 
	.byte	W24
@ 012   ----------------------------------------
	.byte	W96
@ 013   ----------------------------------------
	.byte	W96
@ 014   ----------------------------------------
	.byte	W96
@ 015   ----------------------------------------
	.byte	W96
@ 016   ----------------------------------------
	.byte	W96
@ 017   ----------------------------------------
	.byte	W96
@ 018   ----------------------------------------
	.byte	W96
@ 019   ----------------------------------------
DSTrial_3_019:
	.byte	W48
	.byte		N48   , Fn3 , v076
	.byte	W03
	.byte		N44   , As4 
	.byte	W44
	.byte	W01
	.byte	PEND
@ 020   ----------------------------------------
	.byte	PATT
	 .word	DSTrial_3_002
@ 021   ----------------------------------------
	.byte	W72
	.byte		EOT   , Fn3 
	.byte		        As3 
	.byte	W24
@ 022   ----------------------------------------
	.byte	PATT
	 .word	DSTrial_3_002
@ 023   ----------------------------------------
	.byte	W72
	.byte		EOT   , Fn3 
	.byte		        As3 
	.byte	W24
@ 024   ----------------------------------------
	.byte	PATT
	 .word	DSTrial_3_002
@ 025   ----------------------------------------
	.byte	W72
	.byte		EOT   , Fn3 
	.byte		        As3 
	.byte	W24
@ 026   ----------------------------------------
	.byte	PATT
	 .word	DSTrial_3_002
@ 027   ----------------------------------------
	.byte	W72
	.byte		EOT   , Fn3 
	.byte		        As3 
	.byte	W24
@ 028   ----------------------------------------
	.byte	PATT
	 .word	DSTrial_3_002
@ 029   ----------------------------------------
	.byte	W72
	.byte		EOT   , Fn3 
	.byte		        As3 
	.byte	W24
@ 030   ----------------------------------------
	.byte	PATT
	 .word	DSTrial_3_002
@ 031   ----------------------------------------
	.byte	W72
	.byte		EOT   , Fn3 
	.byte		        As3 
	.byte	W24
@ 032   ----------------------------------------
	.byte	W96
@ 033   ----------------------------------------
	.byte	W96
@ 034   ----------------------------------------
	.byte	W96
@ 035   ----------------------------------------
	.byte	W96
@ 036   ----------------------------------------
	.byte	W96
@ 037   ----------------------------------------
	.byte	W96
@ 038   ----------------------------------------
	.byte	W96
@ 039   ----------------------------------------
	.byte	PATT
	 .word	DSTrial_3_019
	.byte	GOTO
	 .word	DSTrial_3_B1
DSTrial_3_B2:
@ 040   ----------------------------------------
	.byte	FINE

@**************** Track 4 (Midi-Chn.4) ****************@

DSTrial_4:
	.byte	KEYSH , DSTrial_key+0
DSTrial_4_B1:
@ 000   ----------------------------------------
	.byte		VOICE , 80
	.byte		VOL   , 95*DSTrial_mvl/mxv
	.byte	W96
@ 001   ----------------------------------------
DSTrial_4_001:
	.byte	W72
	.byte		N06   , Ds4 , v096
	.byte	W06
	.byte		        Dn4 
	.byte	W06
	.byte		        As3 
	.byte	W06
	.byte		        Fn3 
	.byte	W06
	.byte	PEND
@ 002   ----------------------------------------
DSTrial_4_002:
	.byte		N06   , Cn3 , v096
	.byte	W06
	.byte		        Gn3 
	.byte	W06
	.byte		        Cn4 
	.byte	W12
	.byte		        Gn3 
	.byte	W06
	.byte		        Cn3 
	.byte	W06
	.byte		        Dn3 
	.byte	W06
	.byte		        An3 
	.byte	W06
	.byte		        Dn4 
	.byte	W18
	.byte		        An3 , v044
	.byte	W06
	.byte		        Dn4 , v064
	.byte	W18
	.byte		        An3 , v032
	.byte	W06
	.byte	PEND
@ 003   ----------------------------------------
DSTrial_4_003:
	.byte		N06   , Dn4 , v044
	.byte	W24
	.byte		        Dn4 , v032
	.byte	W72
	.byte	PEND
@ 004   ----------------------------------------
DSTrial_4_004:
	.byte		N06   , Cn3 , v096
	.byte	W06
	.byte		        Gn3 
	.byte	W06
	.byte		N12   , Cn4 
	.byte	W12
	.byte		N06   , Cn3 
	.byte	W12
	.byte		        Dn3 
	.byte	W06
	.byte		        Gn3 
	.byte	W06
	.byte		        Dn4 
	.byte	W18
	.byte		        Gn3 , v044
	.byte	W06
	.byte		        Dn4 , v064
	.byte	W18
	.byte		        Gn3 , v032
	.byte	W06
	.byte	PEND
@ 005   ----------------------------------------
	.byte	PATT
	 .word	DSTrial_4_003
@ 006   ----------------------------------------
DSTrial_4_006:
	.byte		N06   , Cn3 , v096
	.byte	W06
	.byte		        Gn3 
	.byte	W06
	.byte		        Cn4 
	.byte	W12
	.byte		        Gn3 
	.byte	W06
	.byte		        Cn3 
	.byte	W06
	.byte		        Dn3 
	.byte	W06
	.byte		        Gn3 
	.byte	W06
	.byte		        Dn4 
	.byte	W18
	.byte		        Gn3 , v044
	.byte	W06
	.byte		        Dn4 , v064
	.byte	W18
	.byte		        Gn3 , v032
	.byte	W06
	.byte	PEND
@ 007   ----------------------------------------
DSTrial_4_007:
	.byte		N06   , Dn4 , v044
	.byte	W06
	.byte		N03   , As3 , v096
	.byte	W03
	.byte		N09   , Cn4 
	.byte	W09
	.byte		N06   , As3 
	.byte	W06
	.byte		        Dn4 , v032
	.byte	W24
	.byte		        As3 , v096
	.byte	W24
	.byte		N12   , Dn4 
	.byte	W12
	.byte		N06   , Ds4 
	.byte	W12
	.byte	PEND
@ 008   ----------------------------------------
DSTrial_4_008:
	.byte		N06   , Ds3 , v096
	.byte	W06
	.byte		        As3 
	.byte	W06
	.byte		        Ds4 
	.byte	W12
	.byte		        Ds3 
	.byte	W12
	.byte		        As3 
	.byte	W06
	.byte		        Fn4 
	.byte	W18
	.byte		        As3 , v044
	.byte	W06
	.byte		        Fn4 , v064
	.byte	W18
	.byte		        As3 , v032
	.byte	W06
	.byte		        Fn4 , v044
	.byte	W06
	.byte	PEND
@ 009   ----------------------------------------
	.byte	W18
	.byte		        Fn4 , v032
	.byte	W78
@ 010   ----------------------------------------
	.byte	PATT
	 .word	DSTrial_4_006
@ 011   ----------------------------------------
DSTrial_4_011:
	.byte		N06   , Fn3 , v096
	.byte		N06   , Dn4 , v044
	.byte	W12
	.byte		        Fn3 
	.byte	W06
	.byte		        Fn3 , v096
	.byte	W06
	.byte		        Gn3 
	.byte		N06   , Dn4 , v032
	.byte	W12
	.byte		        Gn3 , v044
	.byte	W06
	.byte		        Gn3 , v096
	.byte	W06
	.byte		        As3 
	.byte	W12
	.byte		        As3 , v044
	.byte	W06
	.byte		        As3 , v096
	.byte	W06
	.byte		N12   , Dn4 
	.byte	W12
	.byte		N06   , Ds4 
	.byte	W12
	.byte	PEND
@ 012   ----------------------------------------
	.byte	W96
@ 013   ----------------------------------------
	.byte	W96
@ 014   ----------------------------------------
	.byte	W96
@ 015   ----------------------------------------
	.byte	W96
@ 016   ----------------------------------------
	.byte	W96
@ 017   ----------------------------------------
	.byte	W96
@ 018   ----------------------------------------
	.byte	W96
@ 019   ----------------------------------------
	.byte	W96
@ 020   ----------------------------------------
	.byte	W96
@ 021   ----------------------------------------
	.byte	PATT
	 .word	DSTrial_4_001
@ 022   ----------------------------------------
	.byte	PATT
	 .word	DSTrial_4_002
@ 023   ----------------------------------------
	.byte	PATT
	 .word	DSTrial_4_003
@ 024   ----------------------------------------
	.byte	PATT
	 .word	DSTrial_4_004
@ 025   ----------------------------------------
	.byte	PATT
	 .word	DSTrial_4_003
@ 026   ----------------------------------------
	.byte	PATT
	 .word	DSTrial_4_006
@ 027   ----------------------------------------
	.byte	PATT
	 .word	DSTrial_4_007
@ 028   ----------------------------------------
	.byte	PATT
	 .word	DSTrial_4_008
@ 029   ----------------------------------------
	.byte	W18
	.byte		N06   , Fn4 , v032
	.byte	W78
@ 030   ----------------------------------------
	.byte	PATT
	 .word	DSTrial_4_006
@ 031   ----------------------------------------
	.byte	PATT
	 .word	DSTrial_4_011
@ 032   ----------------------------------------
	.byte	W96
@ 033   ----------------------------------------
	.byte	W96
@ 034   ----------------------------------------
	.byte	W96
@ 035   ----------------------------------------
	.byte	W96
@ 036   ----------------------------------------
	.byte	W96
@ 037   ----------------------------------------
	.byte	W96
@ 038   ----------------------------------------
	.byte	W96
@ 039   ----------------------------------------
	.byte	W96
	.byte	GOTO
	 .word	DSTrial_4_B1
DSTrial_4_B2:
@ 040   ----------------------------------------
	.byte	FINE

@**************** Track 5 (Midi-Chn.5) ****************@

DSTrial_5:
	.byte	KEYSH , DSTrial_key+0
DSTrial_5_B1:
@ 000   ----------------------------------------
	.byte		VOICE , 56
	.byte		VOL   , 108*DSTrial_mvl/mxv
	.byte		PAN   , c_v+63
	.byte	W96
@ 001   ----------------------------------------
	.byte	W96
@ 002   ----------------------------------------
	.byte	W96
@ 003   ----------------------------------------
	.byte	W96
@ 004   ----------------------------------------
	.byte	W96
@ 005   ----------------------------------------
DSTrial_5_005:
	.byte	W06
	.byte		N06   , Ds5 , v032
	.byte	W12
	.byte		        Ds5 , v044
	.byte	W12
	.byte		        Ds5 , v064
	.byte	W12
	.byte		        Ds5 , v088
	.byte	W12
	.byte		        Ds5 , v096
	.byte	W12
	.byte		N06   
	.byte	W12
	.byte		        Ds5 , v088
	.byte	W12
	.byte		        Ds5 , v064
	.byte	W06
	.byte	PEND
@ 006   ----------------------------------------
	.byte	W06
	.byte		        Ds5 , v032
	.byte	W90
@ 007   ----------------------------------------
	.byte	PATT
	 .word	DSTrial_5_005
@ 008   ----------------------------------------
	.byte	W06
	.byte		N06   , Ds5 , v032
	.byte	W90
@ 009   ----------------------------------------
DSTrial_5_009:
	.byte		N06   , Cn5 , v032
	.byte	W06
	.byte		        Ds5 
	.byte	W06
	.byte		        Fn5 , v044
	.byte	W06
	.byte		        Cn5 
	.byte	W06
	.byte		        Ds5 , v064
	.byte	W06
	.byte		        Fn5 
	.byte	W06
	.byte		        Cn5 , v088
	.byte	W06
	.byte		        Ds5 
	.byte	W06
	.byte		        Fn5 , v096
	.byte	W06
	.byte		        Gn4 
	.byte	W06
	.byte		        As4 
	.byte	W06
	.byte		        Cn5 
	.byte	W06
	.byte		        Dn5 , v088
	.byte	W06
	.byte		        Ds5 
	.byte	W06
	.byte		        Dn5 , v064
	.byte	W06
	.byte		        Ds5 
	.byte	W06
	.byte	PEND
@ 010   ----------------------------------------
DSTrial_5_010:
	.byte		N06   , Dn5 , v044
	.byte	W06
	.byte		        Ds5 , v032
	.byte	W90
	.byte	PEND
@ 011   ----------------------------------------
DSTrial_5_011:
	.byte		N06   , Cn5 , v032
	.byte	W06
	.byte		        Ds5 
	.byte	W06
	.byte		        Fn5 , v044
	.byte	W06
	.byte		        Cn5 
	.byte	W06
	.byte		        Ds5 , v064
	.byte	W06
	.byte		        Fn5 
	.byte	W06
	.byte		        Cn5 , v088
	.byte	W06
	.byte		        Ds5 
	.byte	W06
	.byte		        Fn5 , v096
	.byte	W06
	.byte		        Cn5 
	.byte	W06
	.byte		        Ds5 
	.byte	W06
	.byte		        Fn5 
	.byte	W06
	.byte		        Ds5 , v108
	.byte	W06
	.byte		        Dn5 
	.byte	W06
	.byte		        As4 , v127
	.byte	W06
	.byte		        Ds4 
	.byte	W06
	.byte	PEND
@ 012   ----------------------------------------
	.byte	W96
@ 013   ----------------------------------------
	.byte	W96
@ 014   ----------------------------------------
	.byte	W96
@ 015   ----------------------------------------
	.byte	W96
@ 016   ----------------------------------------
	.byte	W96
@ 017   ----------------------------------------
	.byte	W96
@ 018   ----------------------------------------
	.byte	W96
@ 019   ----------------------------------------
	.byte	W96
@ 020   ----------------------------------------
	.byte		PAN   , c_v+63
	.byte	W96
@ 021   ----------------------------------------
	.byte	W96
@ 022   ----------------------------------------
	.byte	W96
@ 023   ----------------------------------------
	.byte	W96
@ 024   ----------------------------------------
	.byte	W96
@ 025   ----------------------------------------
	.byte	PATT
	 .word	DSTrial_5_005
@ 026   ----------------------------------------
	.byte	W06
	.byte		N06   , Ds5 , v032
	.byte	W90
@ 027   ----------------------------------------
	.byte	PATT
	 .word	DSTrial_5_005
@ 028   ----------------------------------------
	.byte	W06
	.byte		N06   , Ds5 , v032
	.byte	W90
@ 029   ----------------------------------------
	.byte	PATT
	 .word	DSTrial_5_009
@ 030   ----------------------------------------
	.byte	PATT
	 .word	DSTrial_5_010
@ 031   ----------------------------------------
	.byte	PATT
	 .word	DSTrial_5_011
@ 032   ----------------------------------------
	.byte	W96
@ 033   ----------------------------------------
	.byte	W96
@ 034   ----------------------------------------
	.byte	W96
@ 035   ----------------------------------------
	.byte	W96
@ 036   ----------------------------------------
	.byte	W96
@ 037   ----------------------------------------
	.byte	W96
@ 038   ----------------------------------------
	.byte	W96
@ 039   ----------------------------------------
	.byte	W96
	.byte	GOTO
	 .word	DSTrial_5_B1
DSTrial_5_B2:
@ 040   ----------------------------------------
	.byte	FINE

@**************** Track 6 (Midi-Chn.6) ****************@

DSTrial_6:
	.byte	KEYSH , DSTrial_key+0
DSTrial_6_B1:
@ 000   ----------------------------------------
	.byte		VOICE , 56
	.byte		VOL   , 108*DSTrial_mvl/mxv
	.byte		PAN   , c_v-64
	.byte	W96
@ 001   ----------------------------------------
	.byte	W96
@ 002   ----------------------------------------
	.byte	W96
@ 003   ----------------------------------------
	.byte	W96
@ 004   ----------------------------------------
	.byte	W96
@ 005   ----------------------------------------
DSTrial_6_005:
	.byte		N06   , Dn5 , v044
	.byte	W12
	.byte		N06   
	.byte	W12
	.byte		        Dn5 , v064
	.byte	W12
	.byte		        Dn5 , v088
	.byte	W12
	.byte		        Dn5 , v096
	.byte	W12
	.byte		N06   
	.byte	W12
	.byte		        Dn5 , v088
	.byte	W12
	.byte		        Dn5 , v064
	.byte	W12
	.byte	PEND
@ 006   ----------------------------------------
	.byte		        Dn5 , v044
	.byte	W96
@ 007   ----------------------------------------
	.byte	PATT
	 .word	DSTrial_6_005
@ 008   ----------------------------------------
	.byte		N06   , Dn5 , v044
	.byte	W96
@ 009   ----------------------------------------
DSTrial_6_009:
	.byte		N06   , Cn5 , v032
	.byte	W06
	.byte		        Ds5 
	.byte	W06
	.byte		        Fn5 , v044
	.byte	W06
	.byte		        Cn5 
	.byte	W06
	.byte		        Ds5 , v064
	.byte	W06
	.byte		        Fn5 
	.byte	W06
	.byte		        Cn5 , v088
	.byte	W06
	.byte		        Ds5 
	.byte	W06
	.byte		        Fn5 , v096
	.byte	W06
	.byte		        Gn4 
	.byte	W06
	.byte		        As4 
	.byte	W06
	.byte		        Cn5 
	.byte	W06
	.byte		        Dn5 , v088
	.byte	W06
	.byte		        Ds5 
	.byte	W06
	.byte		        Dn5 , v064
	.byte	W06
	.byte		        Ds5 
	.byte	W06
	.byte	PEND
@ 010   ----------------------------------------
DSTrial_6_010:
	.byte		N06   , Dn5 , v044
	.byte	W06
	.byte		        Ds5 , v032
	.byte	W90
	.byte	PEND
@ 011   ----------------------------------------
DSTrial_6_011:
	.byte		N06   , Cn5 , v032
	.byte	W06
	.byte		        Ds5 
	.byte	W06
	.byte		        Fn5 , v044
	.byte	W06
	.byte		        Cn5 
	.byte	W06
	.byte		        Ds5 , v064
	.byte	W06
	.byte		        Fn5 
	.byte	W06
	.byte		        Cn5 , v088
	.byte	W06
	.byte		        Ds5 
	.byte	W06
	.byte		        Fn5 , v096
	.byte	W06
	.byte		        Cn5 
	.byte	W06
	.byte		        Ds5 
	.byte	W06
	.byte		        Fn5 
	.byte	W06
	.byte		        Ds5 , v108
	.byte	W06
	.byte		        Dn5 
	.byte	W06
	.byte		        As4 , v127
	.byte	W06
	.byte		        Ds4 
	.byte	W06
	.byte	PEND
@ 012   ----------------------------------------
	.byte	W96
@ 013   ----------------------------------------
	.byte	W96
@ 014   ----------------------------------------
	.byte	W96
@ 015   ----------------------------------------
	.byte	W96
@ 016   ----------------------------------------
	.byte	W96
@ 017   ----------------------------------------
	.byte	W96
@ 018   ----------------------------------------
	.byte	W96
@ 019   ----------------------------------------
	.byte	W96
@ 020   ----------------------------------------
	.byte		PAN   , c_v-64
	.byte	W96
@ 021   ----------------------------------------
	.byte	W96
@ 022   ----------------------------------------
	.byte	W96
@ 023   ----------------------------------------
	.byte	W96
@ 024   ----------------------------------------
	.byte	W96
@ 025   ----------------------------------------
	.byte	PATT
	 .word	DSTrial_6_005
@ 026   ----------------------------------------
	.byte		N06   , Dn5 , v044
	.byte	W96
@ 027   ----------------------------------------
	.byte	PATT
	 .word	DSTrial_6_005
@ 028   ----------------------------------------
	.byte		N06   , Dn5 , v044
	.byte	W96
@ 029   ----------------------------------------
	.byte	PATT
	 .word	DSTrial_6_009
@ 030   ----------------------------------------
	.byte	PATT
	 .word	DSTrial_6_010
@ 031   ----------------------------------------
	.byte	PATT
	 .word	DSTrial_6_011
@ 032   ----------------------------------------
	.byte	W96
@ 033   ----------------------------------------
	.byte	W96
@ 034   ----------------------------------------
	.byte	W96
@ 035   ----------------------------------------
	.byte	W96
@ 036   ----------------------------------------
	.byte	W96
@ 037   ----------------------------------------
	.byte	W96
@ 038   ----------------------------------------
	.byte	W96
@ 039   ----------------------------------------
	.byte	W96
	.byte	GOTO
	 .word	DSTrial_6_B1
DSTrial_6_B2:
@ 040   ----------------------------------------
	.byte	FINE

@**************** Track 7 (Midi-Chn.7) ****************@

DSTrial_7:
	.byte	KEYSH , DSTrial_key+0
DSTrial_7_B1:
@ 000   ----------------------------------------
	.byte		VOICE , 81
	.byte		VOL   , 64*DSTrial_mvl/mxv
	.byte	W96
@ 001   ----------------------------------------
	.byte	W96
@ 002   ----------------------------------------
	.byte	W96
@ 003   ----------------------------------------
	.byte	W96
@ 004   ----------------------------------------
	.byte	W96
@ 005   ----------------------------------------
	.byte	W96
@ 006   ----------------------------------------
	.byte	W96
@ 007   ----------------------------------------
	.byte	W96
@ 008   ----------------------------------------
	.byte	W96
@ 009   ----------------------------------------
	.byte	W96
@ 010   ----------------------------------------
	.byte	W96
@ 011   ----------------------------------------
	.byte	W96
@ 012   ----------------------------------------
DSTrial_7_012:
	.byte		N06   , Gn3 , v096
	.byte		N06   , As3 
	.byte	W06
	.byte		        Gn3 
	.byte		N06   , As3 
	.byte	W30
	.byte		        Gs3 
	.byte		N06   , As3 
	.byte	W06
	.byte		        Gs3 
	.byte		N06   , As3 
	.byte	W42
	.byte		N84   
	.byte		N84   , Dn4 
	.byte	W12
	.byte	PEND
@ 013   ----------------------------------------
	.byte	W96
@ 014   ----------------------------------------
DSTrial_7_014:
	.byte		N06   , Gn3 , v096
	.byte		N06   , As3 
	.byte	W06
	.byte		        Gn3 
	.byte		N06   , As3 
	.byte	W30
	.byte		        Gs3 
	.byte		N06   , As3 
	.byte	W06
	.byte		        Gs3 
	.byte		N06   , As3 
	.byte	W42
	.byte		N84   , Fn3 
	.byte		N84   , As3 
	.byte	W12
	.byte	PEND
@ 015   ----------------------------------------
DSTrial_7_015:
	.byte	W84
	.byte		N06   , Fn3 , v096
	.byte		N06   , As3 
	.byte	W06
	.byte		        Fn3 
	.byte		N06   , As3 
	.byte	W06
	.byte	PEND
@ 016   ----------------------------------------
	.byte	PATT
	 .word	DSTrial_7_012
@ 017   ----------------------------------------
	.byte	W96
@ 018   ----------------------------------------
	.byte	PATT
	 .word	DSTrial_7_014
@ 019   ----------------------------------------
	.byte	W96
@ 020   ----------------------------------------
	.byte	W96
@ 021   ----------------------------------------
	.byte	W96
@ 022   ----------------------------------------
	.byte	W96
@ 023   ----------------------------------------
	.byte	W96
@ 024   ----------------------------------------
	.byte	W96
@ 025   ----------------------------------------
	.byte	W96
@ 026   ----------------------------------------
	.byte	W96
@ 027   ----------------------------------------
	.byte	W96
@ 028   ----------------------------------------
	.byte	W96
@ 029   ----------------------------------------
	.byte	W96
@ 030   ----------------------------------------
	.byte	W96
@ 031   ----------------------------------------
	.byte	W96
@ 032   ----------------------------------------
	.byte	PATT
	 .word	DSTrial_7_012
@ 033   ----------------------------------------
	.byte	W96
@ 034   ----------------------------------------
	.byte	PATT
	 .word	DSTrial_7_014
@ 035   ----------------------------------------
	.byte	PATT
	 .word	DSTrial_7_015
@ 036   ----------------------------------------
	.byte	PATT
	 .word	DSTrial_7_012
@ 037   ----------------------------------------
	.byte	W96
@ 038   ----------------------------------------
	.byte	PATT
	 .word	DSTrial_7_014
@ 039   ----------------------------------------
	.byte	W96
	.byte	GOTO
	 .word	DSTrial_7_B1
DSTrial_7_B2:
@ 040   ----------------------------------------
	.byte	FINE

@**************** Track 8 (Midi-Chn.8) ****************@

DSTrial_8:
	.byte	KEYSH , DSTrial_key+0
DSTrial_8_B1:
@ 000   ----------------------------------------
	.byte		VOICE , 61
	.byte		VOL   , 85*DSTrial_mvl/mxv
	.byte		PAN   , c_v+63
	.byte	W96
@ 001   ----------------------------------------
	.byte	W96
@ 002   ----------------------------------------
	.byte	W96
@ 003   ----------------------------------------
	.byte	W96
@ 004   ----------------------------------------
	.byte	W96
@ 005   ----------------------------------------
	.byte	W96
@ 006   ----------------------------------------
	.byte	W96
@ 007   ----------------------------------------
	.byte	W96
@ 008   ----------------------------------------
	.byte	W96
@ 009   ----------------------------------------
	.byte	W96
@ 010   ----------------------------------------
	.byte	W96
@ 011   ----------------------------------------
	.byte	W96
@ 012   ----------------------------------------
DSTrial_8_012:
	.byte		N06   , Ds4 , v096
	.byte	W06
	.byte		N06   
	.byte	W30
	.byte		N06   
	.byte	W06
	.byte		N06   
	.byte	W42
	.byte		N84   , Fn4 
	.byte	W12
	.byte	PEND
@ 013   ----------------------------------------
	.byte	W96
@ 014   ----------------------------------------
DSTrial_8_014:
	.byte		N06   , Ds4 , v096
	.byte	W06
	.byte		N06   
	.byte	W30
	.byte		N06   
	.byte	W06
	.byte		N06   
	.byte	W42
	.byte		N84   , Dn4 
	.byte	W12
	.byte	PEND
@ 015   ----------------------------------------
DSTrial_8_015:
	.byte	W84
	.byte		N06   , Dn4 , v096
	.byte	W06
	.byte		N06   
	.byte	W06
	.byte	PEND
@ 016   ----------------------------------------
	.byte	PATT
	 .word	DSTrial_8_012
@ 017   ----------------------------------------
	.byte	W96
@ 018   ----------------------------------------
	.byte	PATT
	 .word	DSTrial_8_014
@ 019   ----------------------------------------
	.byte	W96
@ 020   ----------------------------------------
	.byte	W96
@ 021   ----------------------------------------
	.byte	W96
@ 022   ----------------------------------------
	.byte	W96
@ 023   ----------------------------------------
	.byte	W96
@ 024   ----------------------------------------
	.byte	W96
@ 025   ----------------------------------------
	.byte	W96
@ 026   ----------------------------------------
	.byte	W96
@ 027   ----------------------------------------
	.byte	W96
@ 028   ----------------------------------------
	.byte	W96
@ 029   ----------------------------------------
	.byte	W96
@ 030   ----------------------------------------
	.byte	W96
@ 031   ----------------------------------------
	.byte	W96
@ 032   ----------------------------------------
	.byte	PATT
	 .word	DSTrial_8_012
@ 033   ----------------------------------------
	.byte	W96
@ 034   ----------------------------------------
	.byte	PATT
	 .word	DSTrial_8_014
@ 035   ----------------------------------------
	.byte	PATT
	 .word	DSTrial_8_015
@ 036   ----------------------------------------
	.byte	PATT
	 .word	DSTrial_8_012
@ 037   ----------------------------------------
	.byte	W96
@ 038   ----------------------------------------
	.byte	PATT
	 .word	DSTrial_8_014
@ 039   ----------------------------------------
	.byte	W96
	.byte	GOTO
	 .word	DSTrial_8_B1
DSTrial_8_B2:
@ 040   ----------------------------------------
	.byte	FINE

@**************** Track 9 (Midi-Chn.9) ****************@

DSTrial_9:
	.byte	KEYSH , DSTrial_key+0
DSTrial_9_B1:
@ 000   ----------------------------------------
	.byte		VOICE , 80
	.byte		VOL   , 64*DSTrial_mvl/mxv
	.byte		PAN   , c_v+63
	.byte	W96
@ 001   ----------------------------------------
	.byte	W96
@ 002   ----------------------------------------
	.byte	W96
@ 003   ----------------------------------------
	.byte	W96
@ 004   ----------------------------------------
	.byte	W96
@ 005   ----------------------------------------
DSTrial_9_005:
	.byte	W06
	.byte		N06   , Dn4 , v032
	.byte	W12
	.byte		        Dn4 , v044
	.byte	W12
	.byte		        Dn4 , v064
	.byte	W12
	.byte		        Dn4 , v088
	.byte	W12
	.byte		N06   
	.byte	W12
	.byte		N06   
	.byte	W12
	.byte		N06   
	.byte	W12
	.byte		        Dn4 , v064
	.byte	W06
	.byte	PEND
@ 006   ----------------------------------------
	.byte	W06
	.byte		        Dn4 , v032
	.byte	W90
@ 007   ----------------------------------------
	.byte	PATT
	 .word	DSTrial_9_005
@ 008   ----------------------------------------
	.byte	W06
	.byte		N06   , Dn4 , v032
	.byte	W90
@ 009   ----------------------------------------
DSTrial_9_009:
	.byte	W72
	.byte		N06   , Fn4 , v096
	.byte	W12
	.byte		N06   
	.byte	W12
	.byte	PEND
@ 010   ----------------------------------------
	.byte	W96
@ 011   ----------------------------------------
	.byte	W96
@ 012   ----------------------------------------
	.byte	W96
@ 013   ----------------------------------------
	.byte	W96
@ 014   ----------------------------------------
	.byte	W96
@ 015   ----------------------------------------
	.byte	W96
@ 016   ----------------------------------------
	.byte	W96
@ 017   ----------------------------------------
	.byte	W96
@ 018   ----------------------------------------
	.byte	W96
@ 019   ----------------------------------------
	.byte	W96
@ 020   ----------------------------------------
	.byte		VOL   , 64*DSTrial_mvl/mxv
	.byte		PAN   , c_v+63
	.byte	W96
@ 021   ----------------------------------------
	.byte	W96
@ 022   ----------------------------------------
	.byte	W96
@ 023   ----------------------------------------
	.byte	W96
@ 024   ----------------------------------------
	.byte	W96
@ 025   ----------------------------------------
	.byte	PATT
	 .word	DSTrial_9_005
@ 026   ----------------------------------------
	.byte	W06
	.byte		N06   , Dn4 , v032
	.byte	W90
@ 027   ----------------------------------------
	.byte	PATT
	 .word	DSTrial_9_005
@ 028   ----------------------------------------
	.byte	W06
	.byte		N06   , Dn4 , v032
	.byte	W90
@ 029   ----------------------------------------
	.byte	PATT
	 .word	DSTrial_9_009
@ 030   ----------------------------------------
	.byte	W96
@ 031   ----------------------------------------
	.byte	W96
@ 032   ----------------------------------------
	.byte	W96
@ 033   ----------------------------------------
	.byte	W96
@ 034   ----------------------------------------
	.byte	W96
@ 035   ----------------------------------------
	.byte	W96
@ 036   ----------------------------------------
	.byte	W96
@ 037   ----------------------------------------
	.byte	W96
@ 038   ----------------------------------------
	.byte	W96
@ 039   ----------------------------------------
	.byte	W96
	.byte	GOTO
	 .word	DSTrial_9_B1
DSTrial_9_B2:
@ 040   ----------------------------------------
	.byte	FINE

@**************** Track 10 (Midi-Chn.10) ****************@

DSTrial_10:
	.byte	KEYSH , DSTrial_key+0
DSTrial_10_B1:
@ 000   ----------------------------------------
	.byte		VOICE , 121
	.byte		VOL   , 127*DSTrial_mvl/mxv
	.byte	W24
	.byte		N06   , Fs1 , v044
	.byte	W48
	.byte		N06   
	.byte	W24
@ 001   ----------------------------------------
DSTrial_10_001:
	.byte	W24
	.byte		N06   , Fs1 , v044
	.byte	W48
	.byte		N06   
	.byte	W24
	.byte	PEND
@ 002   ----------------------------------------
	.byte	PATT
	 .word	DSTrial_10_001
@ 003   ----------------------------------------
DSTrial_10_003:
	.byte	W60
	.byte		N06   , Fs1 , v064
	.byte	W06
	.byte		N06   
	.byte	W06
	.byte		        As1 
	.byte	W12
	.byte		        En0 , v076
	.byte	W06
	.byte		N06   
	.byte	W06
	.byte	PEND
@ 004   ----------------------------------------
DSTrial_10_004:
	.byte		N06   , Cn1 , v127
	.byte	W24
	.byte		        Fs1 , v044
	.byte	W12
	.byte		        Cn1 , v127
	.byte	W36
	.byte		        En0 , v076
	.byte		N06   , Fs1 , v044
	.byte	W24
	.byte	PEND
@ 005   ----------------------------------------
DSTrial_10_005:
	.byte		N06   , Cn1 , v127
	.byte	W24
	.byte		        En0 , v076
	.byte		N06   , Fs1 , v044
	.byte	W12
	.byte		        Cn1 , v127
	.byte	W36
	.byte		        En0 , v076
	.byte		N06   , Fs1 , v044
	.byte	W24
	.byte	PEND
@ 006   ----------------------------------------
	.byte	PATT
	 .word	DSTrial_10_004
@ 007   ----------------------------------------
DSTrial_10_007:
	.byte		N06   , Cn1 , v127
	.byte	W06
	.byte		N06   
	.byte	W18
	.byte		        En0 , v076
	.byte		N06   , Fs1 , v044
	.byte	W12
	.byte		        Cn1 , v127
	.byte	W06
	.byte		N06   
	.byte	W18
	.byte		N06   
	.byte	W06
	.byte		N06   
	.byte	W06
	.byte		        En0 , v076
	.byte		N06   , Fs1 , v044
	.byte	W18
	.byte		        En0 , v076
	.byte	W06
	.byte	PEND
@ 008   ----------------------------------------
DSTrial_10_008:
	.byte		VOL   , 127*DSTrial_mvl/mxv
	.byte		N06   , Cn1 , v127
	.byte	W24
	.byte		        Fs1 , v044
	.byte	W12
	.byte		        Cn1 , v127
	.byte	W36
	.byte		        En0 , v076
	.byte		N06   , Fs1 , v044
	.byte	W24
	.byte	PEND
@ 009   ----------------------------------------
	.byte	PATT
	 .word	DSTrial_10_005
@ 010   ----------------------------------------
	.byte	PATT
	 .word	DSTrial_10_004
@ 011   ----------------------------------------
DSTrial_10_011:
	.byte		N06   , Cn1 , v127
	.byte	W06
	.byte		N06   
	.byte	W18
	.byte		        En0 , v076
	.byte		N06   , Fs1 , v044
	.byte	W12
	.byte		        Cn1 , v127
	.byte	W06
	.byte		N06   
	.byte	W18
	.byte		N06   
	.byte	W06
	.byte		N06   
	.byte	W06
	.byte		        En0 , v076
	.byte		N06   , Fs1 , v044
	.byte	W12
	.byte		        En0 , v076
	.byte	W06
	.byte		N06   
	.byte	W06
	.byte	PEND
@ 012   ----------------------------------------
DSTrial_10_012:
	.byte		N06   , Cn1 , v127
	.byte	W06
	.byte		N06   
	.byte	W18
	.byte		        Dn1 , v052
	.byte		N06   , Fs1 , v044
	.byte	W12
	.byte		        Cn1 , v127
	.byte	W06
	.byte		N06   
	.byte	W18
	.byte		N06   
	.byte	W12
	.byte		        Dn1 , v052
	.byte		N06   , Fs1 , v044
	.byte	W12
	.byte		        Cn1 , v127
	.byte	W12
	.byte	PEND
@ 013   ----------------------------------------
DSTrial_10_013:
	.byte		VOL   , 127*DSTrial_mvl/mxv
	.byte	W24
	.byte		N06   , Dn1 , v052
	.byte		N06   , Fs1 , v044
	.byte	W36
	.byte		        Cn1 , v127
	.byte	W12
	.byte		        Dn1 , v052
	.byte		N06   , Fs1 , v044
	.byte	W24
	.byte	PEND
@ 014   ----------------------------------------
DSTrial_10_014:
	.byte		N06   , Cn1 , v127
	.byte	W06
	.byte		N06   
	.byte	W18
	.byte		        Dn1 , v052
	.byte		N06   , Fs1 , v044
	.byte	W12
	.byte		        Cn1 , v127
	.byte	W06
	.byte		N06   
	.byte	W18
	.byte		N06   
	.byte	W06
	.byte		N06   
	.byte	W06
	.byte		        Dn1 , v052
	.byte		N06   , Fs1 , v044
	.byte	W12
	.byte		        Cn1 , v127
	.byte	W12
	.byte	PEND
@ 015   ----------------------------------------
DSTrial_10_015:
	.byte		VOL   , 127*DSTrial_mvl/mxv
	.byte	W12
	.byte		N06   , Cn1 , v127
	.byte	W12
	.byte		        Dn1 , v052
	.byte		N06   , Fs1 , v044
	.byte	W36
	.byte		        Cn1 , v127
	.byte	W06
	.byte		N06   
	.byte	W06
	.byte		        Dn1 , v052
	.byte		N06   , Fs1 , v044
	.byte	W12
	.byte		        Dn1 , v052
	.byte	W12
	.byte	PEND
@ 016   ----------------------------------------
	.byte	PATT
	 .word	DSTrial_10_012
@ 017   ----------------------------------------
DSTrial_10_017:
	.byte		VOL   , 127*DSTrial_mvl/mxv
	.byte	W12
	.byte		N06   , Cn1 , v127
	.byte	W12
	.byte		        Dn1 , v052
	.byte		N06   , Fs1 , v044
	.byte	W18
	.byte		        Dn1 , v052
	.byte	W18
	.byte		        Cn1 , v127
	.byte	W12
	.byte		        Dn1 , v052
	.byte		N06   , Fs1 , v044
	.byte	W24
	.byte	PEND
@ 018   ----------------------------------------
DSTrial_10_018:
	.byte		VOL   , 127*DSTrial_mvl/mxv
	.byte		N06   , Cn1 , v127
	.byte	W06
	.byte		N06   
	.byte	W18
	.byte		        Dn1 , v052
	.byte		N06   , Fs1 , v044
	.byte	W12
	.byte		        Cn1 , v127
	.byte	W06
	.byte		N06   
	.byte	W18
	.byte		N06   
	.byte	W06
	.byte		N06   
	.byte	W06
	.byte		        Dn1 , v052
	.byte		N06   , Fs1 , v044
	.byte	W12
	.byte		        Cn1 , v127
	.byte	W12
	.byte	PEND
@ 019   ----------------------------------------
DSTrial_10_019:
	.byte		VOL   , 127*DSTrial_mvl/mxv
	.byte	W12
	.byte		N06   , Cn1 , v127
	.byte	W06
	.byte		N06   
	.byte	W06
	.byte		        Dn1 , v052
	.byte		N06   , Fs1 , v044
	.byte	W18
	.byte		        Dn1 , v052
	.byte	W18
	.byte		        Cn1 , v127
	.byte	W12
	.byte		        Dn1 , v052
	.byte		N06   , Fs1 , v044
	.byte	W24
	.byte	PEND
@ 020   ----------------------------------------
	.byte		VOL   , 127*DSTrial_mvl/mxv
	.byte	W24
	.byte		N06   
	.byte	W48
	.byte		N06   
	.byte	W24
@ 021   ----------------------------------------
	.byte	PATT
	 .word	DSTrial_10_001
@ 022   ----------------------------------------
	.byte	PATT
	 .word	DSTrial_10_001
@ 023   ----------------------------------------
	.byte	PATT
	 .word	DSTrial_10_003
@ 024   ----------------------------------------
	.byte	PATT
	 .word	DSTrial_10_004
@ 025   ----------------------------------------
	.byte	PATT
	 .word	DSTrial_10_005
@ 026   ----------------------------------------
	.byte	PATT
	 .word	DSTrial_10_004
@ 027   ----------------------------------------
	.byte	PATT
	 .word	DSTrial_10_007
@ 028   ----------------------------------------
	.byte	PATT
	 .word	DSTrial_10_008
@ 029   ----------------------------------------
	.byte	PATT
	 .word	DSTrial_10_005
@ 030   ----------------------------------------
	.byte	PATT
	 .word	DSTrial_10_004
@ 031   ----------------------------------------
	.byte	PATT
	 .word	DSTrial_10_011
@ 032   ----------------------------------------
	.byte	PATT
	 .word	DSTrial_10_012
@ 033   ----------------------------------------
	.byte	PATT
	 .word	DSTrial_10_013
@ 034   ----------------------------------------
	.byte	PATT
	 .word	DSTrial_10_014
@ 035   ----------------------------------------
	.byte	PATT
	 .word	DSTrial_10_015
@ 036   ----------------------------------------
	.byte	PATT
	 .word	DSTrial_10_012
@ 037   ----------------------------------------
	.byte	PATT
	 .word	DSTrial_10_017
@ 038   ----------------------------------------
	.byte	PATT
	 .word	DSTrial_10_018
@ 039   ----------------------------------------
	.byte	PATT
	 .word	DSTrial_10_019
	.byte	GOTO
	 .word	DSTrial_10_B1
DSTrial_10_B2:
@ 040   ----------------------------------------
	.byte	FINE

@**************** Track 11 (Midi-Chn.11) ****************@

DSTrial_11:
	.byte	KEYSH , DSTrial_key+0
DSTrial_11_B1:
@ 000   ----------------------------------------
	.byte		VOICE , 80
	.byte		VOL   , 64*DSTrial_mvl/mxv
	.byte		PAN   , c_v-64
	.byte	W96
@ 001   ----------------------------------------
	.byte	W96
@ 002   ----------------------------------------
	.byte	W96
@ 003   ----------------------------------------
	.byte	W96
@ 004   ----------------------------------------
	.byte	W96
@ 005   ----------------------------------------
DSTrial_11_005:
	.byte		N06   , Dn3 , v032
	.byte	W12
	.byte		        Dn3 , v044
	.byte	W12
	.byte		        Dn3 , v064
	.byte	W12
	.byte		        Dn3 , v088
	.byte	W12
	.byte		N06   
	.byte	W12
	.byte		N06   
	.byte	W12
	.byte		N06   
	.byte	W12
	.byte		        Dn3 , v064
	.byte	W12
	.byte	PEND
@ 006   ----------------------------------------
	.byte		        Dn3 , v044
	.byte	W96
@ 007   ----------------------------------------
	.byte	PATT
	 .word	DSTrial_11_005
@ 008   ----------------------------------------
	.byte		N06   , Dn3 , v044
	.byte	W96
@ 009   ----------------------------------------
DSTrial_11_009:
	.byte	W78
	.byte		N06   , Fn3 , v096
	.byte	W12
	.byte		N06   
	.byte	W06
	.byte	PEND
@ 010   ----------------------------------------
	.byte	W96
@ 011   ----------------------------------------
	.byte	W96
@ 012   ----------------------------------------
	.byte	W96
@ 013   ----------------------------------------
	.byte	W96
@ 014   ----------------------------------------
	.byte	W96
@ 015   ----------------------------------------
	.byte	W96
@ 016   ----------------------------------------
	.byte	W96
@ 017   ----------------------------------------
	.byte	W96
@ 018   ----------------------------------------
	.byte	W96
@ 019   ----------------------------------------
	.byte	W96
@ 020   ----------------------------------------
	.byte		PAN   , c_v-64
	.byte	W96
@ 021   ----------------------------------------
	.byte	W96
@ 022   ----------------------------------------
	.byte	W96
@ 023   ----------------------------------------
	.byte	W96
@ 024   ----------------------------------------
	.byte	W96
@ 025   ----------------------------------------
	.byte	PATT
	 .word	DSTrial_11_005
@ 026   ----------------------------------------
	.byte		N06   , Dn3 , v044
	.byte	W96
@ 027   ----------------------------------------
	.byte	PATT
	 .word	DSTrial_11_005
@ 028   ----------------------------------------
	.byte		N06   , Dn3 , v044
	.byte	W96
@ 029   ----------------------------------------
	.byte	PATT
	 .word	DSTrial_11_009
@ 030   ----------------------------------------
	.byte	W96
@ 031   ----------------------------------------
	.byte	W96
@ 032   ----------------------------------------
	.byte	W96
@ 033   ----------------------------------------
	.byte	W96
@ 034   ----------------------------------------
	.byte	W96
@ 035   ----------------------------------------
	.byte	W96
@ 036   ----------------------------------------
	.byte	W96
@ 037   ----------------------------------------
	.byte	W96
@ 038   ----------------------------------------
	.byte	W96
@ 039   ----------------------------------------
	.byte	W96
	.byte	GOTO
	 .word	DSTrial_11_B1
DSTrial_11_B2:
@ 040   ----------------------------------------
	.byte	FINE

@**************** Track 12 (Midi-Chn.12) ****************@

DSTrial_12:
	.byte	KEYSH , DSTrial_key+0
DSTrial_12_B1:
@ 000   ----------------------------------------
	.byte		VOICE , 41
	.byte		VOL   , 85*DSTrial_mvl/mxv
	.byte		PAN   , c_v-64
	.byte		N36   , Ds3 , v096
	.byte		N36   , Gs3 , v052
	.byte	W36
	.byte		TIE   , Fn3 , v096
	.byte		TIE   , As3 , v052
	.byte	W60
@ 001   ----------------------------------------
	.byte	W72
	.byte		EOT   , Fn3 
	.byte		        As3 
	.byte	W24
@ 002   ----------------------------------------
DSTrial_12_002:
	.byte		N36   , Ds3 , v096
	.byte		N36   , Gs3 , v052
	.byte	W36
	.byte		TIE   , Fn3 , v096
	.byte		TIE   , As3 , v052
	.byte	W60
	.byte	PEND
@ 003   ----------------------------------------
	.byte	W72
	.byte		EOT   , Fn3 
	.byte		        As3 
	.byte	W24
@ 004   ----------------------------------------
	.byte	PATT
	 .word	DSTrial_12_002
@ 005   ----------------------------------------
	.byte	W72
	.byte		EOT   , Fn3 
	.byte		        As3 
	.byte	W24
@ 006   ----------------------------------------
	.byte	PATT
	 .word	DSTrial_12_002
@ 007   ----------------------------------------
	.byte	W72
	.byte		EOT   , Fn3 
	.byte		        As3 
	.byte	W24
@ 008   ----------------------------------------
	.byte	PATT
	 .word	DSTrial_12_002
@ 009   ----------------------------------------
	.byte	W72
	.byte		EOT   , Fn3 
	.byte		        As3 
	.byte	W24
@ 010   ----------------------------------------
	.byte	PATT
	 .word	DSTrial_12_002
@ 011   ----------------------------------------
	.byte	W72
	.byte		EOT   , Fn3 
	.byte		        As3 
	.byte	W24
@ 012   ----------------------------------------
	.byte	W96
@ 013   ----------------------------------------
	.byte	W96
@ 014   ----------------------------------------
	.byte	W96
@ 015   ----------------------------------------
	.byte	W96
@ 016   ----------------------------------------
	.byte	W96
@ 017   ----------------------------------------
	.byte	W96
@ 018   ----------------------------------------
	.byte	W96
@ 019   ----------------------------------------
DSTrial_12_019:
	.byte	W48
	.byte		N48   , Fn3 , v076
	.byte	W03
	.byte		N44   , As4 
	.byte	W44
	.byte	W01
	.byte	PEND
@ 020   ----------------------------------------
	.byte	PATT
	 .word	DSTrial_12_002
@ 021   ----------------------------------------
	.byte	W72
	.byte		EOT   , Fn3 
	.byte		        As3 
	.byte	W24
@ 022   ----------------------------------------
	.byte	PATT
	 .word	DSTrial_12_002
@ 023   ----------------------------------------
	.byte	W72
	.byte		EOT   , Fn3 
	.byte		        As3 
	.byte	W24
@ 024   ----------------------------------------
	.byte	PATT
	 .word	DSTrial_12_002
@ 025   ----------------------------------------
	.byte	W72
	.byte		EOT   , Fn3 
	.byte		        As3 
	.byte	W24
@ 026   ----------------------------------------
	.byte	PATT
	 .word	DSTrial_12_002
@ 027   ----------------------------------------
	.byte	W72
	.byte		EOT   , Fn3 
	.byte		        As3 
	.byte	W24
@ 028   ----------------------------------------
	.byte	PATT
	 .word	DSTrial_12_002
@ 029   ----------------------------------------
	.byte	W72
	.byte		EOT   , Fn3 
	.byte		        As3 
	.byte	W24
@ 030   ----------------------------------------
	.byte	PATT
	 .word	DSTrial_12_002
@ 031   ----------------------------------------
	.byte	W72
	.byte		EOT   , Fn3 
	.byte		        As3 
	.byte	W24
@ 032   ----------------------------------------
	.byte	W96
@ 033   ----------------------------------------
	.byte	W96
@ 034   ----------------------------------------
	.byte	W96
@ 035   ----------------------------------------
	.byte	W96
@ 036   ----------------------------------------
	.byte	W96
@ 037   ----------------------------------------
	.byte	W96
@ 038   ----------------------------------------
	.byte	W96
@ 039   ----------------------------------------
	.byte	PATT
	 .word	DSTrial_12_019
	.byte	GOTO
	 .word	DSTrial_12_B1
DSTrial_12_B2:
@ 040   ----------------------------------------
	.byte	FINE

@******************************************************@
	.align	2

DSTrial:
	.byte	12	@ NumTrks
	.byte	0	@ NumBlks
	.byte	DSTrial_pri	@ Priority
	.byte	DSTrial_rev	@ Reverb.

	.word	DSTrial_grp

	.word	DSTrial_1
	.word	DSTrial_2
	.word	DSTrial_3
	.word	DSTrial_4
	.word	DSTrial_5
	.word	DSTrial_6
	.word	DSTrial_7
	.word	DSTrial_8
	.word	DSTrial_9
	.word	DSTrial_10
	.word	DSTrial_11
	.word	DSTrial_12

	.end
