	.include "MPlayDef.s"

	.equ	AA5KPO_grp, voicegroup000
	.equ	AA5KPO_pri, 0
	.equ	AA5KPO_rev, 0
	.equ	AA5KPO_mvl, 127
	.equ	AA5KPO_key, 0
	.equ	AA5KPO_tbs, 1
	.equ	AA5KPO_exg, 0
	.equ	AA5KPO_cmp, 1

	.section .rodata
	.global	AA5KPO
	.align	2

@**************** Track 1 (Midi-Chn.1) ****************@

AA5KPO_1:
	.byte	KEYSH , AA5KPO_key+0
@ 000   ----------------------------------------
	.byte	TEMPO , 152*AA5KPO_tbs/2
	.byte		VOICE , 60
	.byte		VOL   , 98*AA5KPO_mvl/mxv
	.byte		PAN   , c_v+0
	.byte	W48
@ 001   ----------------------------------------
	.byte		N11   , Cn3 , v127
	.byte		N11   , Gn3 
	.byte	W96
@ 002   ----------------------------------------
	.byte	W96
@ 003   ----------------------------------------
	.byte	W84
	.byte		N05   , Cn3 
	.byte		N05   , Gn3 
	.byte	W12
@ 004   ----------------------------------------
	.byte	W96
@ 005   ----------------------------------------
	.byte	W96
@ 006   ----------------------------------------
	.byte	W96
@ 007   ----------------------------------------
	.byte	W72
	.byte		N44   , Ds3 , v112
	.byte	W24
@ 008   ----------------------------------------
AA5KPO_1_008:
	.byte	W24
	.byte		N23   , Gn3 , v112
	.byte	W24
	.byte		        Fn3 
	.byte	W24
	.byte		        Ds3 
	.byte	W24
	.byte	PEND
@ 009   ----------------------------------------
AA5KPO_1_009:
	.byte		N32   , Dn3 , v112
	.byte	W36
	.byte		        Cn3 
	.byte	W36
	.byte		N68   , Gn2 
	.byte	W24
	.byte	PEND
@ 010   ----------------------------------------
	.byte	W96
@ 011   ----------------------------------------
AA5KPO_1_011:
	.byte		N23   , Cn3 , v112
	.byte		N23   , Ds3 
	.byte	W24
	.byte		        Dn3 
	.byte		N23   , Fn3 
	.byte	W24
	.byte		N15   , Ds3 
	.byte		N15   , Gn3 
	.byte	W16
	.byte		        Dn3 
	.byte		N15   , Fn3 
	.byte	W16
	.byte		TIE   , Ds3 
	.byte		TIE   , Gn3 
	.byte	W16
	.byte	PEND
@ 012   ----------------------------------------
	.byte	W92
	.byte	W03
	.byte		EOT   , Ds3 
	.byte		        Gn3 
	.byte	W01
@ 013   ----------------------------------------
	.byte	W96
@ 014   ----------------------------------------
	.byte		N92   , Cn3 , v096
	.byte		N92   , Fn3 
	.byte	W96
@ 015   ----------------------------------------
	.byte		        Cs3 
	.byte		N92   , Gs3 
	.byte	W96
@ 016   ----------------------------------------
AA5KPO_1_016:
	.byte		N44   , Fn3 , v096
	.byte		N44   , As3 
	.byte	W48
	.byte		        Cs3 
	.byte		N44   , Fn3 
	.byte	W48
	.byte	PEND
@ 017   ----------------------------------------
AA5KPO_1_017:
	.byte		TIE   , Ds3 , v112
	.byte		TIE   , Gn3 
	.byte	W96
	.byte	PEND
@ 018   ----------------------------------------
	.byte	W92
	.byte	W03
	.byte		EOT   , Ds3 
	.byte		        Gn3 
	.byte	W01
@ 019   ----------------------------------------
	.byte	W96
@ 020   ----------------------------------------
	.byte	W96
@ 021   ----------------------------------------
	.byte	W96
@ 022   ----------------------------------------
	.byte	W96
@ 023   ----------------------------------------
	.byte	W96
@ 024   ----------------------------------------
	.byte	W96
@ 025   ----------------------------------------
	.byte	W96
@ 026   ----------------------------------------
	.byte	W96
@ 027   ----------------------------------------
	.byte	W96
@ 028   ----------------------------------------
	.byte	W96
@ 029   ----------------------------------------
	.byte	W96
@ 030   ----------------------------------------
	.byte	W96
@ 031   ----------------------------------------
	.byte	W96
@ 032   ----------------------------------------
	.byte	W96
@ 033   ----------------------------------------
	.byte	W96
@ 034   ----------------------------------------
	.byte	W96
@ 035   ----------------------------------------
	.byte	W96
@ 036   ----------------------------------------
	.byte	W96
@ 037   ----------------------------------------
	.byte		N92   , An3 , v096
	.byte	W96
@ 038   ----------------------------------------
	.byte		        Ds3 
	.byte	W96
@ 039   ----------------------------------------
	.byte		TIE   , Gn3 
	.byte	W96
@ 040   ----------------------------------------
	.byte	W92
	.byte	W03
	.byte		EOT   
	.byte	W01
@ 041   ----------------------------------------
	.byte	W96
@ 042   ----------------------------------------
	.byte	W96
@ 043   ----------------------------------------
	.byte	W96
@ 044   ----------------------------------------
	.byte	W96
@ 045   ----------------------------------------
	.byte	W96
@ 046   ----------------------------------------
	.byte	W96
@ 047   ----------------------------------------
	.byte	W96
AA5KPO_1_B1:
@ 048   ----------------------------------------
	.byte	W96
@ 049   ----------------------------------------
	.byte	W96
@ 050   ----------------------------------------
	.byte	W96
@ 051   ----------------------------------------
	.byte	W72
	.byte		N44   , Ds3 , v112
	.byte	W24
@ 052   ----------------------------------------
	.byte	PATT
	 .word	AA5KPO_1_008
@ 053   ----------------------------------------
	.byte	PATT
	 .word	AA5KPO_1_009
@ 054   ----------------------------------------
	.byte	W96
@ 055   ----------------------------------------
	.byte	PATT
	 .word	AA5KPO_1_011
@ 056   ----------------------------------------
	.byte	W92
	.byte	W03
	.byte		EOT   , Ds3 
	.byte		        Gn3 
	.byte	W01
@ 057   ----------------------------------------
	.byte	W96
@ 058   ----------------------------------------
	.byte		N92   , Cn3 , v096
	.byte		N92   , Fn3 
	.byte	W96
@ 059   ----------------------------------------
	.byte		        Cs3 
	.byte		N92   , Gs3 
	.byte	W96
@ 060   ----------------------------------------
	.byte	PATT
	 .word	AA5KPO_1_016
@ 061   ----------------------------------------
	.byte	PATT
	 .word	AA5KPO_1_017
@ 062   ----------------------------------------
	.byte	W92
	.byte	W03
	.byte		EOT   , Ds3 
	.byte		        Gn3 
	.byte	W01
@ 063   ----------------------------------------
	.byte	W96
@ 064   ----------------------------------------
	.byte	W96
@ 065   ----------------------------------------
	.byte	W96
@ 066   ----------------------------------------
	.byte	W96
@ 067   ----------------------------------------
	.byte	W96
@ 068   ----------------------------------------
	.byte	W96
@ 069   ----------------------------------------
	.byte	W96
@ 070   ----------------------------------------
	.byte	W96
@ 071   ----------------------------------------
	.byte	W96
@ 072   ----------------------------------------
	.byte	W96
@ 073   ----------------------------------------
	.byte	W96
@ 074   ----------------------------------------
	.byte	W96
@ 075   ----------------------------------------
	.byte	W96
@ 076   ----------------------------------------
	.byte	W96
@ 077   ----------------------------------------
	.byte	W96
@ 078   ----------------------------------------
	.byte	W96
@ 079   ----------------------------------------
	.byte	W96
@ 080   ----------------------------------------
	.byte	W96
@ 081   ----------------------------------------
	.byte		N92   , An3 , v096
	.byte	W96
@ 082   ----------------------------------------
	.byte		        Ds3 
	.byte	W96
@ 083   ----------------------------------------
	.byte		TIE   , Gn3 
	.byte	W96
@ 084   ----------------------------------------
	.byte	W92
	.byte	W03
	.byte		EOT   
	.byte	W01
@ 085   ----------------------------------------
	.byte	W96
@ 086   ----------------------------------------
	.byte	W96
@ 087   ----------------------------------------
	.byte	W96
@ 088   ----------------------------------------
	.byte	W96
@ 089   ----------------------------------------
	.byte	W96
@ 090   ----------------------------------------
	.byte	W96
@ 091   ----------------------------------------
	.byte	W92
	.byte	W03
	.byte	GOTO
	 .word	AA5KPO_1_B1
AA5KPO_1_B2:
	.byte	FINE

@**************** Track 2 (Midi-Chn.2) ****************@

AA5KPO_2:
	.byte	KEYSH , AA5KPO_key+0
@ 000   ----------------------------------------
	.byte		VOICE , 93
	.byte		VOL   , 101*AA5KPO_mvl/mxv
	.byte		PAN   , c_v+0
	.byte		VOL   , 100*AA5KPO_mvl/mxv
	.byte		PAN   , c_v+0
	.byte	W48
@ 001   ----------------------------------------
AA5KPO_2_001:
	.byte		N05   , Cn4 , v127
	.byte		N05   , Ds4 
	.byte	W12
	.byte		        Cn4 , v112
	.byte		N05   , Ds4 
	.byte	W12
	.byte		        Dn4 
	.byte		N05   , Fn4 
	.byte	W24
	.byte		        As3 , v127
	.byte		N05   , Dn4 
	.byte	W18
	.byte		        As3 
	.byte		N05   , Dn4 
	.byte	W18
	.byte		        Cn4 
	.byte		N05   , Ds4 
	.byte	W12
	.byte	PEND
@ 002   ----------------------------------------
AA5KPO_2_002:
	.byte	W12
	.byte		N05   , Cn4 , v112
	.byte		N05   , Ds4 
	.byte	W12
	.byte		        Dn4 
	.byte		N05   , Fn4 
	.byte	W24
	.byte		        As3 , v127
	.byte		N05   , Dn4 
	.byte	W18
	.byte		        As3 
	.byte		N05   , Dn4 
	.byte	W18
	.byte		        Cn4 
	.byte		N05   , Ds4 
	.byte	W12
	.byte	PEND
@ 003   ----------------------------------------
	.byte	PATT
	 .word	AA5KPO_2_001
@ 004   ----------------------------------------
	.byte	W96
@ 005   ----------------------------------------
	.byte	W96
@ 006   ----------------------------------------
	.byte	W96
@ 007   ----------------------------------------
AA5KPO_2_007:
	.byte		N05   , Cn4 , v116
	.byte		N05   , Ds4 
	.byte	W12
	.byte		        Cn4 , v096
	.byte		N05   , Ds4 
	.byte	W12
	.byte		        Dn4 
	.byte		N05   , Fn4 
	.byte	W24
	.byte		        As3 , v116
	.byte		N05   , Dn4 
	.byte	W18
	.byte		        As3 
	.byte		N05   , Dn4 
	.byte	W18
	.byte		        Cn4 
	.byte		N05   , Ds4 
	.byte	W12
	.byte	PEND
@ 008   ----------------------------------------
AA5KPO_2_008:
	.byte	W12
	.byte		N05   , Cn4 , v096
	.byte		N05   , Ds4 
	.byte	W12
	.byte		        Dn4 
	.byte		N05   , Fn4 
	.byte	W24
	.byte		        As3 , v116
	.byte		N05   , Dn4 
	.byte	W18
	.byte		        Cn4 
	.byte		N05   , Ds4 
	.byte	W30
	.byte	PEND
@ 009   ----------------------------------------
	.byte	W96
@ 010   ----------------------------------------
	.byte	W96
@ 011   ----------------------------------------
	.byte	PATT
	 .word	AA5KPO_2_007
@ 012   ----------------------------------------
	.byte	PATT
	 .word	AA5KPO_2_008
@ 013   ----------------------------------------
	.byte	W96
@ 014   ----------------------------------------
AA5KPO_2_014:
	.byte		N23   , Fn3 , v096
	.byte	W24
	.byte		        Gn3 , v100
	.byte	W24
	.byte		        Gs3 
	.byte	W24
	.byte		        Cn4 
	.byte	W24
	.byte	PEND
@ 015   ----------------------------------------
AA5KPO_2_015:
	.byte		N80   , As3 , v104
	.byte		N80   , Cs4 
	.byte	W84
	.byte		N05   , As3 , v108
	.byte		N05   , Cs4 
	.byte	W06
	.byte		        Cn4 
	.byte		N05   , Ds4 
	.byte	W06
	.byte	PEND
@ 016   ----------------------------------------
AA5KPO_2_016:
	.byte		N44   , Cs4 , v108
	.byte		N44   , Fn4 
	.byte	W48
	.byte		        Cs4 , v112
	.byte		N44   , Fn4 
	.byte	W48
	.byte	PEND
@ 017   ----------------------------------------
	.byte	PATT
	 .word	AA5KPO_2_001
@ 018   ----------------------------------------
	.byte	PATT
	 .word	AA5KPO_2_002
@ 019   ----------------------------------------
	.byte	PATT
	 .word	AA5KPO_2_001
@ 020   ----------------------------------------
	.byte	W96
@ 021   ----------------------------------------
AA5KPO_2_021:
	.byte		N05   , As3 , v127
	.byte		N05   , Cs4 
	.byte	W12
	.byte		        As3 , v112
	.byte		N05   , Cs4 
	.byte	W84
	.byte	PEND
@ 022   ----------------------------------------
	.byte	W96
@ 023   ----------------------------------------
	.byte	PATT
	 .word	AA5KPO_2_021
@ 024   ----------------------------------------
	.byte	W96
@ 025   ----------------------------------------
AA5KPO_2_025:
	.byte		N05   , Cn4 , v127
	.byte		N05   , Ds4 
	.byte	W12
	.byte		        Cn4 , v112
	.byte		N05   , Ds4 
	.byte	W84
	.byte	PEND
@ 026   ----------------------------------------
	.byte	W96
@ 027   ----------------------------------------
	.byte	PATT
	 .word	AA5KPO_2_025
@ 028   ----------------------------------------
	.byte	W96
@ 029   ----------------------------------------
	.byte	W96
@ 030   ----------------------------------------
	.byte	W96
@ 031   ----------------------------------------
	.byte	W96
@ 032   ----------------------------------------
	.byte	W96
@ 033   ----------------------------------------
	.byte	W96
@ 034   ----------------------------------------
	.byte	W96
@ 035   ----------------------------------------
	.byte	W96
@ 036   ----------------------------------------
	.byte	W96
@ 037   ----------------------------------------
AA5KPO_2_037:
	.byte		N05   , Dn4 , v116
	.byte		N05   , Fn4 
	.byte	W12
	.byte		        Dn4 , v096
	.byte		N05   , Fn4 
	.byte	W12
	.byte		        Dn4 
	.byte		N05   , Fn4 
	.byte	W24
	.byte		N02   , Dn4 
	.byte		N02   , Fn4 
	.byte	W18
	.byte		        Dn4 
	.byte		N02   , Fn4 
	.byte	W30
	.byte	PEND
@ 038   ----------------------------------------
AA5KPO_2_038:
	.byte		N05   , Bn3 , v116
	.byte		N05   , Ds4 
	.byte	W12
	.byte		        Bn3 , v096
	.byte		N05   , Ds4 
	.byte	W12
	.byte		        Bn3 
	.byte		N05   , Ds4 
	.byte	W24
	.byte		N02   , Bn3 
	.byte		N02   , Ds4 
	.byte	W18
	.byte		        Bn3 
	.byte		N02   , Ds4 
	.byte	W30
	.byte	PEND
@ 039   ----------------------------------------
	.byte	W96
@ 040   ----------------------------------------
	.byte	W96
@ 041   ----------------------------------------
	.byte	PATT
	 .word	AA5KPO_2_007
@ 042   ----------------------------------------
AA5KPO_2_042:
	.byte	W12
	.byte		N05   , Cn4 , v096
	.byte		N05   , Ds4 
	.byte	W12
	.byte		        Dn4 
	.byte		N05   , Fn4 
	.byte	W24
	.byte		        As3 , v116
	.byte		N05   , Dn4 
	.byte	W18
	.byte		        As3 
	.byte		N05   , Dn4 
	.byte	W18
	.byte		        Cn4 
	.byte		N05   , Ds4 
	.byte	W12
	.byte	PEND
@ 043   ----------------------------------------
	.byte	PATT
	 .word	AA5KPO_2_007
@ 044   ----------------------------------------
	.byte	PATT
	 .word	AA5KPO_2_042
@ 045   ----------------------------------------
	.byte	PATT
	 .word	AA5KPO_2_001
@ 046   ----------------------------------------
	.byte	PATT
	 .word	AA5KPO_2_002
@ 047   ----------------------------------------
	.byte	PATT
	 .word	AA5KPO_2_001
AA5KPO_2_B1:
@ 048   ----------------------------------------
	.byte	W96
@ 049   ----------------------------------------
	.byte	W96
@ 050   ----------------------------------------
	.byte	W96
@ 051   ----------------------------------------
	.byte	PATT
	 .word	AA5KPO_2_007
@ 052   ----------------------------------------
	.byte	PATT
	 .word	AA5KPO_2_008
@ 053   ----------------------------------------
	.byte	W96
@ 054   ----------------------------------------
	.byte	W96
@ 055   ----------------------------------------
	.byte	PATT
	 .word	AA5KPO_2_007
@ 056   ----------------------------------------
	.byte	PATT
	 .word	AA5KPO_2_008
@ 057   ----------------------------------------
	.byte	W96
@ 058   ----------------------------------------
	.byte	PATT
	 .word	AA5KPO_2_014
@ 059   ----------------------------------------
	.byte	PATT
	 .word	AA5KPO_2_015
@ 060   ----------------------------------------
	.byte	PATT
	 .word	AA5KPO_2_016
@ 061   ----------------------------------------
	.byte	PATT
	 .word	AA5KPO_2_001
@ 062   ----------------------------------------
	.byte	PATT
	 .word	AA5KPO_2_002
@ 063   ----------------------------------------
	.byte	PATT
	 .word	AA5KPO_2_001
@ 064   ----------------------------------------
	.byte	W96
@ 065   ----------------------------------------
	.byte	PATT
	 .word	AA5KPO_2_021
@ 066   ----------------------------------------
	.byte	W96
@ 067   ----------------------------------------
	.byte	PATT
	 .word	AA5KPO_2_021
@ 068   ----------------------------------------
	.byte	W96
@ 069   ----------------------------------------
	.byte	PATT
	 .word	AA5KPO_2_025
@ 070   ----------------------------------------
	.byte	W96
@ 071   ----------------------------------------
	.byte	PATT
	 .word	AA5KPO_2_025
@ 072   ----------------------------------------
	.byte	W96
@ 073   ----------------------------------------
	.byte	W96
@ 074   ----------------------------------------
	.byte	W96
@ 075   ----------------------------------------
	.byte	W96
@ 076   ----------------------------------------
	.byte	W96
@ 077   ----------------------------------------
	.byte	W96
@ 078   ----------------------------------------
	.byte	W96
@ 079   ----------------------------------------
	.byte	W96
@ 080   ----------------------------------------
	.byte	W96
@ 081   ----------------------------------------
	.byte	PATT
	 .word	AA5KPO_2_037
@ 082   ----------------------------------------
	.byte	PATT
	 .word	AA5KPO_2_038
@ 083   ----------------------------------------
	.byte	W96
@ 084   ----------------------------------------
	.byte	W96
@ 085   ----------------------------------------
	.byte	PATT
	 .word	AA5KPO_2_007
@ 086   ----------------------------------------
	.byte	PATT
	 .word	AA5KPO_2_042
@ 087   ----------------------------------------
	.byte	PATT
	 .word	AA5KPO_2_007
@ 088   ----------------------------------------
	.byte	PATT
	 .word	AA5KPO_2_042
@ 089   ----------------------------------------
	.byte	PATT
	 .word	AA5KPO_2_001
@ 090   ----------------------------------------
	.byte	PATT
	 .word	AA5KPO_2_002
@ 091   ----------------------------------------
	.byte		N05   , Cn4 , v127
	.byte		N05   , Ds4 
	.byte	W12
	.byte		        Cn4 , v112
	.byte		N05   , Ds4 
	.byte	W12
	.byte		        Dn4 
	.byte		N05   , Fn4 
	.byte	W24
	.byte		        As3 , v127
	.byte		N05   , Dn4 
	.byte	W18
	.byte		        As3 
	.byte		N05   , Dn4 
	.byte	W18
	.byte		        Cn4 
	.byte		N05   , Ds4 
	.byte	W11
	.byte	GOTO
	 .word	AA5KPO_2_B1
AA5KPO_2_B2:
	.byte	FINE

@**************** Track 3 (Midi-Chn.4) ****************@

AA5KPO_3:
	.byte	KEYSH , AA5KPO_key+0
@ 000   ----------------------------------------
	.byte		VOICE , 91
	.byte		VOL   , 85*AA5KPO_mvl/mxv
	.byte		PAN   , c_v+0
	.byte	W48
@ 001   ----------------------------------------
AA5KPO_3_001:
	.byte		N05   , Gn2 , v127
	.byte	W12
	.byte		        Gn2 , v112
	.byte	W12
	.byte		        An2 
	.byte	W24
	.byte		        Fn2 , v127
	.byte	W18
	.byte		N05   
	.byte	W18
	.byte		        Gn2 
	.byte	W12
	.byte	PEND
@ 002   ----------------------------------------
AA5KPO_3_002:
	.byte	W12
	.byte		N05   , Gn2 , v112
	.byte	W12
	.byte		        An2 
	.byte	W24
	.byte		        Fn2 , v127
	.byte	W18
	.byte		N05   
	.byte	W18
	.byte		        Gn2 
	.byte	W12
	.byte	PEND
@ 003   ----------------------------------------
	.byte	PATT
	 .word	AA5KPO_3_001
@ 004   ----------------------------------------
	.byte	W96
@ 005   ----------------------------------------
AA5KPO_3_005:
	.byte		N05   , Gn2 , v116
	.byte	W12
	.byte		        Gn2 , v096
	.byte	W12
	.byte		        An2 
	.byte	W24
	.byte		        Fn2 , v116
	.byte	W18
	.byte		N05   
	.byte	W18
	.byte		        Gn2 
	.byte	W12
	.byte	PEND
@ 006   ----------------------------------------
AA5KPO_3_006:
	.byte	W12
	.byte		N05   , Gn2 , v096
	.byte	W12
	.byte		        An2 
	.byte	W24
	.byte		        Fn2 , v116
	.byte	W18
	.byte		N05   
	.byte	W18
	.byte		        Gn2 
	.byte	W12
	.byte	PEND
@ 007   ----------------------------------------
AA5KPO_3_007:
	.byte		N05   , Gn2 , v116
	.byte	W12
	.byte		        Gn2 , v096
	.byte	W12
	.byte		        Gs2 
	.byte	W24
	.byte		        Fn2 , v116
	.byte	W18
	.byte		N05   
	.byte	W18
	.byte		        Gn2 
	.byte	W12
	.byte	PEND
@ 008   ----------------------------------------
AA5KPO_3_008:
	.byte	W12
	.byte		N05   , Gn2 , v096
	.byte	W12
	.byte		        Gs2 
	.byte	W24
	.byte		        Fn2 , v116
	.byte	W18
	.byte		        Gn2 
	.byte	W30
	.byte	PEND
@ 009   ----------------------------------------
	.byte	PATT
	 .word	AA5KPO_3_005
@ 010   ----------------------------------------
	.byte	PATT
	 .word	AA5KPO_3_006
@ 011   ----------------------------------------
	.byte	PATT
	 .word	AA5KPO_3_007
@ 012   ----------------------------------------
	.byte	PATT
	 .word	AA5KPO_3_008
@ 013   ----------------------------------------
	.byte	W96
@ 014   ----------------------------------------
	.byte		N92   , Fn2 , v096
	.byte	W96
@ 015   ----------------------------------------
	.byte		        Gs2 
	.byte	W96
@ 016   ----------------------------------------
AA5KPO_3_016:
	.byte		N44   , As2 , v096
	.byte	W48
	.byte		        Gn2 
	.byte	W48
	.byte	PEND
@ 017   ----------------------------------------
AA5KPO_3_017:
	.byte		N05   , Gn2 , v127
	.byte	W12
	.byte		        Gn2 , v112
	.byte	W12
	.byte		        Gs2 
	.byte	W24
	.byte		        Fn2 , v127
	.byte	W18
	.byte		N05   
	.byte	W18
	.byte		        Gn2 
	.byte	W12
	.byte	PEND
@ 018   ----------------------------------------
AA5KPO_3_018:
	.byte	W12
	.byte		N05   , Gn2 , v112
	.byte	W12
	.byte		        Gs2 
	.byte	W24
	.byte		        Fn2 , v127
	.byte	W18
	.byte		N05   
	.byte	W18
	.byte		        Gn2 
	.byte	W12
	.byte	PEND
@ 019   ----------------------------------------
	.byte	PATT
	 .word	AA5KPO_3_017
@ 020   ----------------------------------------
	.byte	W96
@ 021   ----------------------------------------
AA5KPO_3_021:
	.byte		N05   , Fs2 , v127
	.byte	W12
	.byte		        Fs2 , v112
	.byte	W84
	.byte	PEND
@ 022   ----------------------------------------
	.byte	W96
@ 023   ----------------------------------------
	.byte	PATT
	 .word	AA5KPO_3_021
@ 024   ----------------------------------------
	.byte	W96
@ 025   ----------------------------------------
AA5KPO_3_025:
	.byte		N05   , Ds2 , v127
	.byte	W12
	.byte		        Ds2 , v112
	.byte	W84
	.byte	PEND
@ 026   ----------------------------------------
	.byte	W96
@ 027   ----------------------------------------
	.byte	PATT
	 .word	AA5KPO_3_025
@ 028   ----------------------------------------
	.byte	W96
@ 029   ----------------------------------------
	.byte	W96
@ 030   ----------------------------------------
	.byte	W96
@ 031   ----------------------------------------
	.byte	W96
@ 032   ----------------------------------------
	.byte	W96
@ 033   ----------------------------------------
	.byte	W96
@ 034   ----------------------------------------
	.byte	W96
@ 035   ----------------------------------------
	.byte	W96
@ 036   ----------------------------------------
	.byte	W96
@ 037   ----------------------------------------
AA5KPO_3_037:
	.byte		N05   , An2 , v116
	.byte	W12
	.byte		        An2 , v096
	.byte	W12
	.byte		N05   
	.byte	W24
	.byte		N02   
	.byte	W18
	.byte		N02   
	.byte	W30
	.byte	PEND
@ 038   ----------------------------------------
AA5KPO_3_038:
	.byte		N05   , Fs2 , v116
	.byte	W12
	.byte		        Fs2 , v096
	.byte	W12
	.byte		N05   
	.byte	W24
	.byte		N02   
	.byte	W18
	.byte		N02   
	.byte	W30
	.byte	PEND
@ 039   ----------------------------------------
	.byte	W96
@ 040   ----------------------------------------
	.byte	W96
@ 041   ----------------------------------------
	.byte	PATT
	 .word	AA5KPO_3_005
@ 042   ----------------------------------------
	.byte	PATT
	 .word	AA5KPO_3_006
@ 043   ----------------------------------------
	.byte	PATT
	 .word	AA5KPO_3_005
@ 044   ----------------------------------------
	.byte	PATT
	 .word	AA5KPO_3_006
@ 045   ----------------------------------------
	.byte	PATT
	 .word	AA5KPO_3_001
@ 046   ----------------------------------------
	.byte	PATT
	 .word	AA5KPO_3_002
@ 047   ----------------------------------------
	.byte	PATT
	 .word	AA5KPO_3_001
AA5KPO_3_B1:
@ 048   ----------------------------------------
	.byte	W96
@ 049   ----------------------------------------
	.byte	PATT
	 .word	AA5KPO_3_005
@ 050   ----------------------------------------
	.byte	PATT
	 .word	AA5KPO_3_006
@ 051   ----------------------------------------
	.byte	PATT
	 .word	AA5KPO_3_007
@ 052   ----------------------------------------
	.byte	PATT
	 .word	AA5KPO_3_008
@ 053   ----------------------------------------
	.byte	PATT
	 .word	AA5KPO_3_005
@ 054   ----------------------------------------
	.byte	PATT
	 .word	AA5KPO_3_006
@ 055   ----------------------------------------
	.byte	PATT
	 .word	AA5KPO_3_007
@ 056   ----------------------------------------
	.byte	PATT
	 .word	AA5KPO_3_008
@ 057   ----------------------------------------
	.byte	W96
@ 058   ----------------------------------------
	.byte		N92   , Fn2 , v096
	.byte	W96
@ 059   ----------------------------------------
	.byte		        Gs2 
	.byte	W96
@ 060   ----------------------------------------
	.byte	PATT
	 .word	AA5KPO_3_016
@ 061   ----------------------------------------
	.byte	PATT
	 .word	AA5KPO_3_017
@ 062   ----------------------------------------
	.byte	PATT
	 .word	AA5KPO_3_018
@ 063   ----------------------------------------
	.byte	PATT
	 .word	AA5KPO_3_017
@ 064   ----------------------------------------
	.byte	W96
@ 065   ----------------------------------------
	.byte	PATT
	 .word	AA5KPO_3_021
@ 066   ----------------------------------------
	.byte	W96
@ 067   ----------------------------------------
	.byte	PATT
	 .word	AA5KPO_3_021
@ 068   ----------------------------------------
	.byte	W96
@ 069   ----------------------------------------
	.byte	PATT
	 .word	AA5KPO_3_025
@ 070   ----------------------------------------
	.byte	W96
@ 071   ----------------------------------------
	.byte	PATT
	 .word	AA5KPO_3_025
@ 072   ----------------------------------------
	.byte	W96
@ 073   ----------------------------------------
	.byte	W96
@ 074   ----------------------------------------
	.byte	W96
@ 075   ----------------------------------------
	.byte	W96
@ 076   ----------------------------------------
	.byte	W96
@ 077   ----------------------------------------
	.byte	W96
@ 078   ----------------------------------------
	.byte	W96
@ 079   ----------------------------------------
	.byte	W96
@ 080   ----------------------------------------
	.byte	W96
@ 081   ----------------------------------------
	.byte	PATT
	 .word	AA5KPO_3_037
@ 082   ----------------------------------------
	.byte	PATT
	 .word	AA5KPO_3_038
@ 083   ----------------------------------------
	.byte	W96
@ 084   ----------------------------------------
	.byte	W96
@ 085   ----------------------------------------
	.byte	PATT
	 .word	AA5KPO_3_005
@ 086   ----------------------------------------
	.byte	PATT
	 .word	AA5KPO_3_006
@ 087   ----------------------------------------
	.byte	PATT
	 .word	AA5KPO_3_005
@ 088   ----------------------------------------
	.byte	PATT
	 .word	AA5KPO_3_006
@ 089   ----------------------------------------
	.byte	PATT
	 .word	AA5KPO_3_001
@ 090   ----------------------------------------
	.byte	PATT
	 .word	AA5KPO_3_002
@ 091   ----------------------------------------
	.byte		N05   , Gn2 , v127
	.byte	W12
	.byte		        Gn2 , v112
	.byte	W12
	.byte		        An2 
	.byte	W24
	.byte		        Fn2 , v127
	.byte	W18
	.byte		N05   
	.byte	W18
	.byte		        Gn2 
	.byte	W11
	.byte	GOTO
	 .word	AA5KPO_3_B1
AA5KPO_3_B2:
	.byte	FINE

@**************** Track 4 (Midi-Chn.5) ****************@

AA5KPO_4:
	.byte	KEYSH , AA5KPO_key+0
@ 000   ----------------------------------------
	.byte		VOICE , 47
	.byte		VOL   , 50*AA5KPO_mvl/mxv
	.byte		PAN   , c_v+0
	.byte	W48
@ 001   ----------------------------------------
	.byte	W96
@ 002   ----------------------------------------
	.byte	W96
@ 003   ----------------------------------------
	.byte	W96
@ 004   ----------------------------------------
	.byte	W96
@ 005   ----------------------------------------
	.byte	W96
@ 006   ----------------------------------------
	.byte	W96
@ 007   ----------------------------------------
	.byte	W96
@ 008   ----------------------------------------
	.byte	W96
@ 009   ----------------------------------------
	.byte	W96
@ 010   ----------------------------------------
	.byte	W96
@ 011   ----------------------------------------
	.byte	W96
@ 012   ----------------------------------------
	.byte	W96
@ 013   ----------------------------------------
	.byte	W96
@ 014   ----------------------------------------
	.byte	W96
@ 015   ----------------------------------------
	.byte	W96
@ 016   ----------------------------------------
	.byte	W96
@ 017   ----------------------------------------
AA5KPO_4_017:
	.byte		N05   , Cn2 , v112
	.byte	W06
	.byte		N05   
	.byte	W06
	.byte		N05   
	.byte	W06
	.byte		N05   
	.byte	W06
	.byte		N05   
	.byte	W06
	.byte		N05   
	.byte	W06
	.byte		N05   
	.byte	W06
	.byte		N05   
	.byte	W06
	.byte		N05   
	.byte	W06
	.byte		N05   
	.byte	W06
	.byte		N05   
	.byte	W06
	.byte		N05   
	.byte	W06
	.byte		N05   
	.byte	W06
	.byte		N05   
	.byte	W06
	.byte		N05   
	.byte	W06
	.byte		N05   
	.byte	W06
	.byte	PEND
@ 018   ----------------------------------------
	.byte	PATT
	 .word	AA5KPO_4_017
@ 019   ----------------------------------------
AA5KPO_4_019:
	.byte		N05   , Cn2 , v112
	.byte	W06
	.byte		N05   
	.byte	W06
	.byte		N05   
	.byte	W06
	.byte		N05   
	.byte	W06
	.byte		N05   
	.byte	W06
	.byte		N05   
	.byte	W06
	.byte		N05   
	.byte	W06
	.byte		N05   
	.byte	W06
	.byte		N05   
	.byte	W05
	.byte		N05   
	.byte	W06
	.byte		N05   
	.byte	W06
	.byte		N05   
	.byte	W06
	.byte		N05   
	.byte	W06
	.byte		N05   
	.byte	W07
	.byte		N05   
	.byte	W12
	.byte	PEND
@ 020   ----------------------------------------
	.byte	W96
@ 021   ----------------------------------------
	.byte	W96
@ 022   ----------------------------------------
	.byte	W96
@ 023   ----------------------------------------
	.byte	W96
@ 024   ----------------------------------------
	.byte	W96
@ 025   ----------------------------------------
	.byte	W96
@ 026   ----------------------------------------
	.byte	W96
@ 027   ----------------------------------------
	.byte	W96
@ 028   ----------------------------------------
	.byte	W96
@ 029   ----------------------------------------
	.byte	W96
@ 030   ----------------------------------------
	.byte	W96
@ 031   ----------------------------------------
	.byte	W96
@ 032   ----------------------------------------
	.byte	W96
@ 033   ----------------------------------------
	.byte	W96
@ 034   ----------------------------------------
	.byte	W96
@ 035   ----------------------------------------
	.byte	W96
@ 036   ----------------------------------------
	.byte	W96
@ 037   ----------------------------------------
	.byte	W96
@ 038   ----------------------------------------
	.byte	W96
@ 039   ----------------------------------------
AA5KPO_4_039:
	.byte		N02   , Gn1 , v112
	.byte	W02
	.byte		N02   
	.byte	W03
	.byte		N02   
	.byte	W03
	.byte		N02   
	.byte	W03
	.byte		N02   
	.byte	W03
	.byte		N02   
	.byte	W03
	.byte		N02   
	.byte	W03
	.byte		N02   
	.byte	W03
	.byte		N02   
	.byte	W03
	.byte		N02   
	.byte	W03
	.byte		N02   
	.byte	W03
	.byte		N02   
	.byte	W03
	.byte		N02   
	.byte	W03
	.byte		N02   
	.byte	W03
	.byte		N02   
	.byte	W03
	.byte		N02   
	.byte	W03
	.byte		N02   
	.byte	W03
	.byte		N02   
	.byte	W03
	.byte		N02   
	.byte	W03
	.byte		N02   
	.byte	W03
	.byte		N02   
	.byte	W03
	.byte		N02   
	.byte	W03
	.byte		N02   
	.byte	W03
	.byte		N02   
	.byte	W03
	.byte		N02   
	.byte	W03
	.byte		N02   
	.byte	W03
	.byte		N02   
	.byte	W03
	.byte		N02   
	.byte	W03
	.byte		N02   
	.byte	W03
	.byte		N02   
	.byte	W03
	.byte		N02   
	.byte	W03
	.byte		N02   
	.byte	W04
	.byte	PEND
@ 040   ----------------------------------------
AA5KPO_4_040:
	.byte		N02   , Gn1 , v112
	.byte	W02
	.byte		N02   
	.byte	W03
	.byte		N02   
	.byte	W03
	.byte		N02   
	.byte	W03
	.byte		N02   
	.byte	W03
	.byte		N02   
	.byte	W03
	.byte		N02   
	.byte	W03
	.byte		N02   
	.byte	W03
	.byte		N02   
	.byte	W03
	.byte		N02   
	.byte	W03
	.byte		N02   
	.byte	W03
	.byte		N02   
	.byte	W03
	.byte		N02   
	.byte	W03
	.byte		N02   
	.byte	W03
	.byte		N02   
	.byte	W03
	.byte		N02   
	.byte	W03
	.byte		N02   
	.byte	W03
	.byte		N02   
	.byte	W03
	.byte		N02   
	.byte	W03
	.byte		N02   
	.byte	W03
	.byte		N02   
	.byte	W03
	.byte		N02   
	.byte	W03
	.byte		N02   
	.byte	W03
	.byte		N02   
	.byte	W03
	.byte		N02   
	.byte	W03
	.byte		N02   
	.byte	W03
	.byte		N02   
	.byte	W03
	.byte		N02   
	.byte	W03
	.byte		N02   
	.byte	W03
	.byte		N02   
	.byte	W03
	.byte		N02   
	.byte	W03
	.byte		N24   
	.byte	W04
	.byte	PEND
@ 041   ----------------------------------------
	.byte	W96
@ 042   ----------------------------------------
	.byte	W96
@ 043   ----------------------------------------
	.byte	W96
@ 044   ----------------------------------------
	.byte	W96
@ 045   ----------------------------------------
	.byte	W96
@ 046   ----------------------------------------
	.byte	W96
@ 047   ----------------------------------------
	.byte	W96
AA5KPO_4_B1:
@ 048   ----------------------------------------
	.byte	W96
@ 049   ----------------------------------------
	.byte	W96
@ 050   ----------------------------------------
	.byte	W96
@ 051   ----------------------------------------
	.byte	W96
@ 052   ----------------------------------------
	.byte	W96
@ 053   ----------------------------------------
	.byte	W96
@ 054   ----------------------------------------
	.byte	W96
@ 055   ----------------------------------------
	.byte	W96
@ 056   ----------------------------------------
	.byte	W96
@ 057   ----------------------------------------
	.byte	W96
@ 058   ----------------------------------------
	.byte	W96
@ 059   ----------------------------------------
	.byte	W96
@ 060   ----------------------------------------
	.byte	W96
@ 061   ----------------------------------------
	.byte	PATT
	 .word	AA5KPO_4_017
@ 062   ----------------------------------------
	.byte	PATT
	 .word	AA5KPO_4_017
@ 063   ----------------------------------------
	.byte	PATT
	 .word	AA5KPO_4_019
@ 064   ----------------------------------------
	.byte	W96
@ 065   ----------------------------------------
	.byte	W96
@ 066   ----------------------------------------
	.byte	W96
@ 067   ----------------------------------------
	.byte	W96
@ 068   ----------------------------------------
	.byte	W96
@ 069   ----------------------------------------
	.byte	W96
@ 070   ----------------------------------------
	.byte	W96
@ 071   ----------------------------------------
	.byte	W96
@ 072   ----------------------------------------
	.byte	W96
@ 073   ----------------------------------------
	.byte	W96
@ 074   ----------------------------------------
	.byte	W96
@ 075   ----------------------------------------
	.byte	W96
@ 076   ----------------------------------------
	.byte	W96
@ 077   ----------------------------------------
	.byte	W96
@ 078   ----------------------------------------
	.byte	W96
@ 079   ----------------------------------------
	.byte	W96
@ 080   ----------------------------------------
	.byte	W96
@ 081   ----------------------------------------
	.byte	W96
@ 082   ----------------------------------------
	.byte	W96
@ 083   ----------------------------------------
	.byte	PATT
	 .word	AA5KPO_4_039
@ 084   ----------------------------------------
	.byte	PATT
	 .word	AA5KPO_4_040
@ 085   ----------------------------------------
	.byte	W96
@ 086   ----------------------------------------
	.byte	W96
@ 087   ----------------------------------------
	.byte	W96
@ 088   ----------------------------------------
	.byte	W96
@ 089   ----------------------------------------
	.byte	W96
@ 090   ----------------------------------------
	.byte	W96
@ 091   ----------------------------------------
	.byte	W92
	.byte	W03
	.byte	GOTO
	 .word	AA5KPO_4_B1
AA5KPO_4_B2:
	.byte	FINE

@**************** Track 5 (Midi-Chn.6) ****************@

AA5KPO_5:
	.byte	KEYSH , AA5KPO_key+0
@ 000   ----------------------------------------
	.byte		VOICE , 14
	.byte		VOL   , 127*AA5KPO_mvl/mxv
	.byte		PAN   , c_v+0
	.byte	W48
@ 001   ----------------------------------------
	.byte		N11   , Cn4 , v127
	.byte	W96
@ 002   ----------------------------------------
	.byte	W96
@ 003   ----------------------------------------
	.byte	W96
@ 004   ----------------------------------------
	.byte	W96
@ 005   ----------------------------------------
	.byte	W96
@ 006   ----------------------------------------
	.byte	W96
@ 007   ----------------------------------------
	.byte	W96
@ 008   ----------------------------------------
	.byte	W96
@ 009   ----------------------------------------
	.byte	W96
@ 010   ----------------------------------------
	.byte	W96
@ 011   ----------------------------------------
	.byte	W96
@ 012   ----------------------------------------
	.byte	W96
@ 013   ----------------------------------------
	.byte	W96
@ 014   ----------------------------------------
	.byte	W96
@ 015   ----------------------------------------
	.byte	W96
@ 016   ----------------------------------------
	.byte	W96
@ 017   ----------------------------------------
	.byte	W96
@ 018   ----------------------------------------
	.byte		N92   
	.byte	W96
@ 019   ----------------------------------------
	.byte	W84
	.byte		N05   
	.byte	W12
@ 020   ----------------------------------------
	.byte	W96
@ 021   ----------------------------------------
	.byte	W96
@ 022   ----------------------------------------
	.byte	W96
@ 023   ----------------------------------------
	.byte	W96
@ 024   ----------------------------------------
	.byte	W96
@ 025   ----------------------------------------
	.byte	W96
@ 026   ----------------------------------------
	.byte	W96
@ 027   ----------------------------------------
	.byte	W96
@ 028   ----------------------------------------
	.byte	W96
@ 029   ----------------------------------------
	.byte	W96
@ 030   ----------------------------------------
	.byte		N92   , As3 
	.byte	W96
@ 031   ----------------------------------------
	.byte	W96
@ 032   ----------------------------------------
	.byte		N92   
	.byte	W96
@ 033   ----------------------------------------
	.byte	W96
@ 034   ----------------------------------------
	.byte		        En4 
	.byte	W96
@ 035   ----------------------------------------
	.byte	W96
@ 036   ----------------------------------------
	.byte		N92   
	.byte	W96
@ 037   ----------------------------------------
	.byte	W96
@ 038   ----------------------------------------
	.byte	W96
@ 039   ----------------------------------------
AA5KPO_5_039:
	.byte		N15   , Gn3 , v127
	.byte	W16
	.byte		        Dn4 
	.byte	W16
	.byte		        Gn3 
	.byte	W16
	.byte		N15   
	.byte	W16
	.byte		        Dn4 
	.byte	W16
	.byte		        Gn3 
	.byte	W16
	.byte	PEND
@ 040   ----------------------------------------
	.byte		N23   , Gn4 
	.byte	W96
@ 041   ----------------------------------------
	.byte	W96
@ 042   ----------------------------------------
	.byte	W96
@ 043   ----------------------------------------
	.byte	W96
@ 044   ----------------------------------------
	.byte	W96
@ 045   ----------------------------------------
AA5KPO_5_045:
	.byte	W24
	.byte		N23   , Cn4 , v112
	.byte	W48
	.byte		N23   
	.byte	W24
	.byte	PEND
@ 046   ----------------------------------------
	.byte	PATT
	 .word	AA5KPO_5_045
@ 047   ----------------------------------------
	.byte	W24
	.byte		N11   , Cn4 , v127
	.byte	W60
	.byte		N11   
	.byte	W12
AA5KPO_5_B1:
@ 048   ----------------------------------------
	.byte	W96
@ 049   ----------------------------------------
	.byte	W96
@ 050   ----------------------------------------
	.byte	W96
@ 051   ----------------------------------------
	.byte	W96
@ 052   ----------------------------------------
	.byte	W96
@ 053   ----------------------------------------
	.byte	W96
@ 054   ----------------------------------------
	.byte	W96
@ 055   ----------------------------------------
	.byte	W96
@ 056   ----------------------------------------
	.byte	W96
@ 057   ----------------------------------------
	.byte	W96
@ 058   ----------------------------------------
	.byte	W96
@ 059   ----------------------------------------
	.byte	W96
@ 060   ----------------------------------------
	.byte	W96
@ 061   ----------------------------------------
	.byte	W96
@ 062   ----------------------------------------
	.byte		N92   , Cn4 , v127
	.byte	W96
@ 063   ----------------------------------------
	.byte	W84
	.byte		N05   
	.byte	W12
@ 064   ----------------------------------------
	.byte	W96
@ 065   ----------------------------------------
	.byte	W96
@ 066   ----------------------------------------
	.byte	W96
@ 067   ----------------------------------------
	.byte	W96
@ 068   ----------------------------------------
	.byte	W96
@ 069   ----------------------------------------
	.byte	W96
@ 070   ----------------------------------------
	.byte	W96
@ 071   ----------------------------------------
	.byte	W96
@ 072   ----------------------------------------
	.byte	W96
@ 073   ----------------------------------------
	.byte	W96
@ 074   ----------------------------------------
	.byte		N92   , As3 
	.byte	W96
@ 075   ----------------------------------------
	.byte	W96
@ 076   ----------------------------------------
	.byte		N92   
	.byte	W96
@ 077   ----------------------------------------
	.byte	W96
@ 078   ----------------------------------------
	.byte		        En4 
	.byte	W96
@ 079   ----------------------------------------
	.byte	W96
@ 080   ----------------------------------------
	.byte		N92   
	.byte	W96
@ 081   ----------------------------------------
	.byte	W96
@ 082   ----------------------------------------
	.byte	W96
@ 083   ----------------------------------------
	.byte	PATT
	 .word	AA5KPO_5_039
@ 084   ----------------------------------------
	.byte		N23   , Gn4 , v127
	.byte	W96
@ 085   ----------------------------------------
	.byte	W96
@ 086   ----------------------------------------
	.byte	W96
@ 087   ----------------------------------------
	.byte	W96
@ 088   ----------------------------------------
	.byte	W96
@ 089   ----------------------------------------
	.byte	PATT
	 .word	AA5KPO_5_045
@ 090   ----------------------------------------
	.byte	PATT
	 .word	AA5KPO_5_045
@ 091   ----------------------------------------
	.byte	W24
	.byte		N11   , Cn4 , v127
	.byte	W60
	.byte		N11   
	.byte	W11
	.byte	GOTO
	 .word	AA5KPO_5_B1
AA5KPO_5_B2:
	.byte	FINE

@**************** Track 6 (Midi-Chn.7) ****************@

AA5KPO_6:
	.byte	KEYSH , AA5KPO_key+0
@ 000   ----------------------------------------
	.byte		VOICE , 30
	.byte		VOL   , 90*AA5KPO_mvl/mxv
	.byte		PAN   , c_v+0
	.byte	W36
	.byte		N01   , Cn3 , v080
	.byte		N01   , Cs3 
	.byte	W01
	.byte		        Dn3 
	.byte	W02
	.byte		        Ds3 
	.byte		N01   , En3 
	.byte	W01
	.byte		        Fn3 
	.byte	W02
	.byte		        Fs3 
	.byte		N01   , Gn3 
	.byte	W01
	.byte		        Gs3 
	.byte	W02
	.byte		        An3 
	.byte		N01   , As3 
	.byte	W01
	.byte		        Bn3 
	.byte	W02
@ 001   ----------------------------------------
	.byte		        Bn3 , v127
	.byte		N01   , Cn4 
	.byte	W01
	.byte		        As3 
	.byte	W02
	.byte		        Gs3 
	.byte		N01   , An3 
	.byte	W01
	.byte		        Gn3 
	.byte	W02
	.byte		        Fn3 
	.byte		N01   , Fs3 
	.byte	W01
	.byte		        En3 
	.byte	W02
	.byte		        Dn3 
	.byte		N01   , Ds3 
	.byte	W01
	.byte		        Cs3 
	.byte	W02
	.byte		N11   , Cn3 , v112
	.byte	W84
@ 002   ----------------------------------------
	.byte	W96
@ 003   ----------------------------------------
	.byte	W84
	.byte		        Gn2 
	.byte		N11   , Cn3 
	.byte		N11   , Ds3 
	.byte	W12
@ 004   ----------------------------------------
	.byte	W96
@ 005   ----------------------------------------
	.byte	W96
@ 006   ----------------------------------------
	.byte	W96
@ 007   ----------------------------------------
	.byte	W96
@ 008   ----------------------------------------
	.byte	W96
@ 009   ----------------------------------------
	.byte	W96
@ 010   ----------------------------------------
	.byte	W96
@ 011   ----------------------------------------
	.byte	W96
@ 012   ----------------------------------------
	.byte	W96
@ 013   ----------------------------------------
	.byte	W96
@ 014   ----------------------------------------
	.byte	W96
@ 015   ----------------------------------------
	.byte	W96
@ 016   ----------------------------------------
	.byte	W96
@ 017   ----------------------------------------
	.byte	W96
@ 018   ----------------------------------------
	.byte	W96
@ 019   ----------------------------------------
	.byte	W96
@ 020   ----------------------------------------
AA5KPO_6_020:
	.byte	W24
	.byte		N01   , Gn2 , v127
	.byte	W01
	.byte		        Gs2 
	.byte	W02
	.byte		        An2 
	.byte	W03
	.byte		        As2 
	.byte	W01
	.byte		        Bn2 
	.byte	W02
	.byte		        Cn3 
	.byte	W03
	.byte		        Cs3 
	.byte	W01
	.byte		        Dn3 
	.byte	W02
	.byte		        Ds3 
	.byte	W03
	.byte		        En3 
	.byte	W01
	.byte		        Fn3 
	.byte	W02
	.byte		        Fs3 
	.byte	W03
	.byte		N11   , Gn3 
	.byte	W12
	.byte		        Fn3 
	.byte	W12
	.byte		        Gn3 
	.byte	W12
	.byte		        Gs3 
	.byte	W12
	.byte	PEND
@ 021   ----------------------------------------
AA5KPO_6_021:
	.byte		N68   , As3 , v127
	.byte	W72
	.byte		N11   , Cn4 
	.byte	W12
	.byte		N80   , Cs4 
	.byte	W12
	.byte	PEND
@ 022   ----------------------------------------
AA5KPO_6_022:
	.byte	W72
	.byte		N11   , Ds4 , v127
	.byte	W12
	.byte		N68   , Fn4 
	.byte	W12
	.byte	PEND
@ 023   ----------------------------------------
AA5KPO_6_023:
	.byte	W60
	.byte		N11   , As3 , v127
	.byte	W12
	.byte		        Gs4 
	.byte	W12
	.byte		N44   , As4 
	.byte	W12
	.byte	PEND
@ 024   ----------------------------------------
AA5KPO_6_024:
	.byte	W36
	.byte		N32   , Gs4 , v127
	.byte	W36
	.byte		N56   , Fn4 
	.byte	W24
	.byte	PEND
@ 025   ----------------------------------------
AA5KPO_6_025:
	.byte	W36
	.byte		N32   , Ds4 , v127
	.byte	W36
	.byte		N11   , Fn4 
	.byte	W12
	.byte		TIE   , As3 
	.byte	W12
	.byte	PEND
@ 026   ----------------------------------------
	.byte	W92
	.byte	W03
	.byte		EOT   
	.byte	W01
@ 027   ----------------------------------------
AA5KPO_6_027:
	.byte	W16
	.byte		N15   , Fn4 , v127
	.byte	W16
	.byte		N15   
	.byte	W16
	.byte		N15   
	.byte	W16
	.byte		        Ds4 
	.byte	W16
	.byte		        Fn4 
	.byte	W16
	.byte	PEND
@ 028   ----------------------------------------
AA5KPO_6_028:
	.byte		N32   , As4 , v127
	.byte	W36
	.byte		N23   , Fn4 
	.byte	W24
	.byte		N11   , Ds4 
	.byte	W12
	.byte		N23   , Fn4 
	.byte	W24
	.byte	PEND
@ 029   ----------------------------------------
	.byte		TIE   , As4 
	.byte	W96
@ 030   ----------------------------------------
	.byte	W92
	.byte	W03
	.byte		EOT   
	.byte	W01
@ 031   ----------------------------------------
	.byte	W96
@ 032   ----------------------------------------
	.byte	W96
@ 033   ----------------------------------------
	.byte	W96
@ 034   ----------------------------------------
	.byte	W96
@ 035   ----------------------------------------
	.byte	W96
@ 036   ----------------------------------------
AA5KPO_6_036:
	.byte	W72
	.byte		N11   , En3 , v127
	.byte	W12
	.byte		        Gn3 
	.byte	W12
	.byte	PEND
@ 037   ----------------------------------------
AA5KPO_6_037:
	.byte		N32   , An3 , v127
	.byte	W36
	.byte		N23   , Bn3 
	.byte	W24
	.byte		        Cn4 
	.byte	W24
	.byte		N11   , En3 
	.byte	W12
	.byte	PEND
@ 038   ----------------------------------------
AA5KPO_6_038:
	.byte		N32   , Fs3 , v127
	.byte	W36
	.byte		N23   , Gs3 
	.byte	W24
	.byte		N32   , An3 
	.byte	W36
	.byte	PEND
@ 039   ----------------------------------------
	.byte		TIE   , Gn4 
	.byte	W96
@ 040   ----------------------------------------
	.byte	W92
	.byte	W03
	.byte		EOT   
	.byte	W01
@ 041   ----------------------------------------
	.byte		TIE   , Cn5 
	.byte	W96
@ 042   ----------------------------------------
	.byte	W92
	.byte	W03
	.byte		EOT   
	.byte	W01
@ 043   ----------------------------------------
	.byte	W96
@ 044   ----------------------------------------
	.byte	W96
@ 045   ----------------------------------------
	.byte	W96
@ 046   ----------------------------------------
	.byte	W96
@ 047   ----------------------------------------
	.byte	W96
AA5KPO_6_B1:
@ 048   ----------------------------------------
	.byte	W96
@ 049   ----------------------------------------
	.byte	W96
@ 050   ----------------------------------------
	.byte	W96
@ 051   ----------------------------------------
	.byte	W96
@ 052   ----------------------------------------
	.byte	W96
@ 053   ----------------------------------------
	.byte	W96
@ 054   ----------------------------------------
	.byte	W96
@ 055   ----------------------------------------
	.byte	W96
@ 056   ----------------------------------------
	.byte	W96
@ 057   ----------------------------------------
	.byte	W96
@ 058   ----------------------------------------
	.byte	W96
@ 059   ----------------------------------------
	.byte	W96
@ 060   ----------------------------------------
	.byte	W96
@ 061   ----------------------------------------
	.byte	W96
@ 062   ----------------------------------------
	.byte	W96
@ 063   ----------------------------------------
	.byte	W96
@ 064   ----------------------------------------
	.byte	PATT
	 .word	AA5KPO_6_020
@ 065   ----------------------------------------
	.byte	PATT
	 .word	AA5KPO_6_021
@ 066   ----------------------------------------
	.byte	PATT
	 .word	AA5KPO_6_022
@ 067   ----------------------------------------
	.byte	PATT
	 .word	AA5KPO_6_023
@ 068   ----------------------------------------
	.byte	PATT
	 .word	AA5KPO_6_024
@ 069   ----------------------------------------
	.byte	PATT
	 .word	AA5KPO_6_025
@ 070   ----------------------------------------
	.byte	W92
	.byte	W03
	.byte		EOT   , As3 
	.byte	W01
@ 071   ----------------------------------------
	.byte	PATT
	 .word	AA5KPO_6_027
@ 072   ----------------------------------------
	.byte	PATT
	 .word	AA5KPO_6_028
@ 073   ----------------------------------------
	.byte		TIE   , As4 , v127
	.byte	W96
@ 074   ----------------------------------------
	.byte	W92
	.byte	W03
	.byte		EOT   
	.byte	W01
@ 075   ----------------------------------------
	.byte	W96
@ 076   ----------------------------------------
	.byte	W96
@ 077   ----------------------------------------
	.byte	W96
@ 078   ----------------------------------------
	.byte	W96
@ 079   ----------------------------------------
	.byte	W96
@ 080   ----------------------------------------
	.byte	PATT
	 .word	AA5KPO_6_036
@ 081   ----------------------------------------
	.byte	PATT
	 .word	AA5KPO_6_037
@ 082   ----------------------------------------
	.byte	PATT
	 .word	AA5KPO_6_038
@ 083   ----------------------------------------
	.byte		TIE   , Gn4 , v127
	.byte	W96
@ 084   ----------------------------------------
	.byte	W92
	.byte	W03
	.byte		EOT   
	.byte	W01
@ 085   ----------------------------------------
	.byte		TIE   , Cn5 
	.byte	W96
@ 086   ----------------------------------------
	.byte	W92
	.byte	W03
	.byte		EOT   
	.byte	W01
@ 087   ----------------------------------------
	.byte	W96
@ 088   ----------------------------------------
	.byte	W96
@ 089   ----------------------------------------
	.byte	W96
@ 090   ----------------------------------------
	.byte	W96
@ 091   ----------------------------------------
	.byte	W92
	.byte	W03
	.byte	GOTO
	 .word	AA5KPO_6_B1
AA5KPO_6_B2:
	.byte	FINE

@**************** Track 7 (Midi-Chn.8) ****************@

AA5KPO_7:
	.byte	KEYSH , AA5KPO_key+0
@ 000   ----------------------------------------
	.byte		VOICE , 30
	.byte		VOL   , 90*AA5KPO_mvl/mxv
	.byte		PAN   , c_v+0
	.byte	W36
	.byte		N01   , Cn3 , v080
	.byte		N01   , Cs3 
	.byte	W01
	.byte		        Dn3 
	.byte	W02
	.byte		        Ds3 
	.byte		N01   , En3 
	.byte	W01
	.byte		        Fn3 
	.byte	W02
	.byte		        Fs3 
	.byte		N01   , Gn3 
	.byte	W01
	.byte		        Gs3 
	.byte	W02
	.byte		        An3 
	.byte		N01   , As3 
	.byte	W01
	.byte		        Bn3 
	.byte	W02
@ 001   ----------------------------------------
	.byte		        Bn3 , v127
	.byte		N01   , Cn4 
	.byte	W01
	.byte		        As3 
	.byte	W02
	.byte		        Gs3 
	.byte		N01   , An3 
	.byte	W01
	.byte		        Gn3 
	.byte	W02
	.byte		        Fn3 
	.byte		N01   , Fs3 
	.byte	W01
	.byte		        En3 
	.byte	W02
	.byte		        Dn3 
	.byte		N01   , Ds3 
	.byte	W01
	.byte		        Cs3 
	.byte	W02
	.byte		N11   , Cn3 , v112
	.byte	W84
@ 002   ----------------------------------------
	.byte	W96
@ 003   ----------------------------------------
	.byte	W84
	.byte		        Gn2 
	.byte		N11   , Cn3 
	.byte		N11   , Ds3 
	.byte	W12
@ 004   ----------------------------------------
	.byte	W96
@ 005   ----------------------------------------
	.byte	W96
@ 006   ----------------------------------------
	.byte	W96
@ 007   ----------------------------------------
	.byte	W96
@ 008   ----------------------------------------
	.byte	W96
@ 009   ----------------------------------------
	.byte	W96
@ 010   ----------------------------------------
	.byte	W96
@ 011   ----------------------------------------
	.byte	W96
@ 012   ----------------------------------------
	.byte	W96
@ 013   ----------------------------------------
	.byte	W96
@ 014   ----------------------------------------
	.byte	W96
@ 015   ----------------------------------------
	.byte	W96
@ 016   ----------------------------------------
	.byte	W96
@ 017   ----------------------------------------
	.byte	W96
@ 018   ----------------------------------------
	.byte	W96
@ 019   ----------------------------------------
	.byte	W96
@ 020   ----------------------------------------
AA5KPO_7_020:
	.byte	W24
	.byte		N01   , Gn2 , v127
	.byte	W01
	.byte		        Gs2 
	.byte	W02
	.byte		        An2 
	.byte	W03
	.byte		        As2 
	.byte	W01
	.byte		        Bn2 
	.byte	W02
	.byte		        Cn3 
	.byte	W03
	.byte		        Cs3 
	.byte	W01
	.byte		        Dn3 
	.byte	W02
	.byte		        Ds3 
	.byte	W03
	.byte		        En3 
	.byte	W01
	.byte		        Fn3 
	.byte	W02
	.byte		        Fs3 
	.byte	W03
	.byte		N11   , Gn3 
	.byte	W12
	.byte		        Fn3 
	.byte	W12
	.byte		        Gn3 
	.byte	W12
	.byte		        Gs3 
	.byte	W12
	.byte	PEND
@ 021   ----------------------------------------
AA5KPO_7_021:
	.byte		N68   , As3 , v127
	.byte	W72
	.byte		N11   , Cn4 
	.byte	W12
	.byte		N80   , Cs4 
	.byte	W12
	.byte	PEND
@ 022   ----------------------------------------
AA5KPO_7_022:
	.byte	W72
	.byte		N11   , Ds4 , v127
	.byte	W12
	.byte		N68   , Fn4 
	.byte	W12
	.byte	PEND
@ 023   ----------------------------------------
AA5KPO_7_023:
	.byte	W60
	.byte		N11   , As3 , v127
	.byte	W12
	.byte		        Gs4 
	.byte	W12
	.byte		N44   , As4 
	.byte	W12
	.byte	PEND
@ 024   ----------------------------------------
AA5KPO_7_024:
	.byte	W36
	.byte		N32   , Gs4 , v127
	.byte	W36
	.byte		N56   , Fn4 
	.byte	W24
	.byte	PEND
@ 025   ----------------------------------------
AA5KPO_7_025:
	.byte	W36
	.byte		N32   , Ds4 , v127
	.byte	W36
	.byte		N11   , Fn4 
	.byte	W12
	.byte		TIE   , As3 
	.byte	W12
	.byte	PEND
@ 026   ----------------------------------------
	.byte	W92
	.byte	W03
	.byte		EOT   
	.byte	W01
@ 027   ----------------------------------------
AA5KPO_7_027:
	.byte	W16
	.byte		N15   , Fn4 , v127
	.byte	W16
	.byte		N15   
	.byte	W16
	.byte		N15   
	.byte	W16
	.byte		        Ds4 
	.byte	W16
	.byte		        Fn4 
	.byte	W16
	.byte	PEND
@ 028   ----------------------------------------
AA5KPO_7_028:
	.byte		N32   , As4 , v127
	.byte	W36
	.byte		N23   , Fn4 
	.byte	W24
	.byte		N11   , Ds4 
	.byte	W12
	.byte		N23   , Fn4 
	.byte	W24
	.byte	PEND
@ 029   ----------------------------------------
	.byte		TIE   , As4 
	.byte	W96
@ 030   ----------------------------------------
	.byte	W92
	.byte	W03
	.byte		EOT   
	.byte	W01
@ 031   ----------------------------------------
	.byte	W96
@ 032   ----------------------------------------
	.byte	W96
@ 033   ----------------------------------------
	.byte	W96
@ 034   ----------------------------------------
	.byte	W96
@ 035   ----------------------------------------
	.byte	W96
@ 036   ----------------------------------------
AA5KPO_7_036:
	.byte	W72
	.byte		N11   , En3 , v127
	.byte	W12
	.byte		        Gn3 
	.byte	W12
	.byte	PEND
@ 037   ----------------------------------------
AA5KPO_7_037:
	.byte		N32   , An3 , v127
	.byte	W36
	.byte		N23   , Bn3 
	.byte	W24
	.byte		        Cn4 
	.byte	W24
	.byte		N11   , En3 
	.byte	W12
	.byte	PEND
@ 038   ----------------------------------------
AA5KPO_7_038:
	.byte		N32   , Fs3 , v127
	.byte	W36
	.byte		N23   , Gs3 
	.byte	W24
	.byte		N32   , An3 
	.byte	W36
	.byte	PEND
@ 039   ----------------------------------------
	.byte		TIE   , Gn4 
	.byte	W96
@ 040   ----------------------------------------
	.byte	W92
	.byte	W03
	.byte		EOT   
	.byte	W01
@ 041   ----------------------------------------
	.byte		TIE   , Cn5 
	.byte	W96
@ 042   ----------------------------------------
	.byte	W92
	.byte	W03
	.byte		EOT   
	.byte	W01
@ 043   ----------------------------------------
	.byte	W96
@ 044   ----------------------------------------
	.byte	W96
@ 045   ----------------------------------------
	.byte	W96
@ 046   ----------------------------------------
	.byte	W96
@ 047   ----------------------------------------
	.byte	W96
AA5KPO_7_B1:
@ 048   ----------------------------------------
	.byte	W96
@ 049   ----------------------------------------
	.byte	W96
@ 050   ----------------------------------------
	.byte	W96
@ 051   ----------------------------------------
	.byte	W96
@ 052   ----------------------------------------
	.byte	W96
@ 053   ----------------------------------------
	.byte	W96
@ 054   ----------------------------------------
	.byte	W96
@ 055   ----------------------------------------
	.byte	W96
@ 056   ----------------------------------------
	.byte	W96
@ 057   ----------------------------------------
	.byte	W96
@ 058   ----------------------------------------
	.byte	W96
@ 059   ----------------------------------------
	.byte	W96
@ 060   ----------------------------------------
	.byte	W96
@ 061   ----------------------------------------
	.byte	W96
@ 062   ----------------------------------------
	.byte	W96
@ 063   ----------------------------------------
	.byte	W96
@ 064   ----------------------------------------
	.byte	PATT
	 .word	AA5KPO_7_020
@ 065   ----------------------------------------
	.byte	PATT
	 .word	AA5KPO_7_021
@ 066   ----------------------------------------
	.byte	PATT
	 .word	AA5KPO_7_022
@ 067   ----------------------------------------
	.byte	PATT
	 .word	AA5KPO_7_023
@ 068   ----------------------------------------
	.byte	PATT
	 .word	AA5KPO_7_024
@ 069   ----------------------------------------
	.byte	PATT
	 .word	AA5KPO_7_025
@ 070   ----------------------------------------
	.byte	W92
	.byte	W03
	.byte		EOT   , As3 
	.byte	W01
@ 071   ----------------------------------------
	.byte	PATT
	 .word	AA5KPO_7_027
@ 072   ----------------------------------------
	.byte	PATT
	 .word	AA5KPO_7_028
@ 073   ----------------------------------------
	.byte		TIE   , As4 , v127
	.byte	W96
@ 074   ----------------------------------------
	.byte	W92
	.byte	W03
	.byte		EOT   
	.byte	W01
@ 075   ----------------------------------------
	.byte	W96
@ 076   ----------------------------------------
	.byte	W96
@ 077   ----------------------------------------
	.byte	W96
@ 078   ----------------------------------------
	.byte	W96
@ 079   ----------------------------------------
	.byte	W96
@ 080   ----------------------------------------
	.byte	PATT
	 .word	AA5KPO_7_036
@ 081   ----------------------------------------
	.byte	PATT
	 .word	AA5KPO_7_037
@ 082   ----------------------------------------
	.byte	PATT
	 .word	AA5KPO_7_038
@ 083   ----------------------------------------
	.byte		TIE   , Gn4 , v127
	.byte	W96
@ 084   ----------------------------------------
	.byte	W92
	.byte	W03
	.byte		EOT   
	.byte	W01
@ 085   ----------------------------------------
	.byte		TIE   , Cn5 
	.byte	W96
@ 086   ----------------------------------------
	.byte	W92
	.byte	W03
	.byte		EOT   
	.byte	W01
@ 087   ----------------------------------------
	.byte	W96
@ 088   ----------------------------------------
	.byte	W96
@ 089   ----------------------------------------
	.byte	W96
@ 090   ----------------------------------------
	.byte	W96
@ 091   ----------------------------------------
	.byte	W92
	.byte	W03
	.byte	GOTO
	 .word	AA5KPO_7_B1
AA5KPO_7_B2:
	.byte	FINE

@**************** Track 8 (Midi-Chn.9) ****************@

AA5KPO_8:
	.byte	KEYSH , AA5KPO_key+0
@ 000   ----------------------------------------
	.byte		VOICE , 34
	.byte		VOL   , 106*AA5KPO_mvl/mxv
	.byte		PAN   , c_v+0
	.byte	W48
@ 001   ----------------------------------------
	.byte		N01   , Bn0 , v127
	.byte		N01   , Cn1 
	.byte	W01
	.byte		        As0 
	.byte	W02
	.byte		        Gs0 
	.byte		N01   , An0 
	.byte	W01
	.byte		        Gn0 
	.byte	W02
	.byte		        Fn0 
	.byte		N01   , Fs0 
	.byte	W01
	.byte		        En0 
	.byte	W02
	.byte		        Dn0 
	.byte		N01   , Ds0 
	.byte	W01
	.byte		        Cs0 
	.byte	W02
	.byte		N11   , Cn0 , v112
	.byte	W84
@ 002   ----------------------------------------
	.byte		TIE   , Cn1 , v080
	.byte	W96
@ 003   ----------------------------------------
	.byte	W80
	.byte	W03
	.byte		EOT   
	.byte	W01
	.byte		N05   , Cn1 , v127
	.byte	W12
@ 004   ----------------------------------------
AA5KPO_8_004:
	.byte	W60
	.byte		N01   , Cn1 , v127
	.byte		N01   , Cs1 
	.byte	W01
	.byte		        Dn1 
	.byte	W02
	.byte		        Ds1 
	.byte		N01   , En1 
	.byte	W01
	.byte		        Fn1 
	.byte	W02
	.byte		        Fs1 
	.byte		N01   , Gn1 
	.byte	W01
	.byte		        Gs1 
	.byte	W02
	.byte		        An1 
	.byte		N01   , As1 
	.byte	W01
	.byte		        Bn1 
	.byte	W02
	.byte		        Cn2 
	.byte	W01
	.byte		        Bn1 
	.byte	W02
	.byte		        As1 
	.byte	W03
	.byte		        An1 
	.byte	W01
	.byte		        Gs1 
	.byte	W02
	.byte		        Gn1 
	.byte	W03
	.byte		        Fs1 
	.byte	W01
	.byte		        Fn1 
	.byte	W02
	.byte		        En1 
	.byte	W03
	.byte		        Ds1 
	.byte	W01
	.byte		        Dn1 
	.byte	W02
	.byte		        Cs1 
	.byte	W03
	.byte	PEND
@ 005   ----------------------------------------
AA5KPO_8_005:
	.byte		N05   , Cn1 , v096
	.byte	W06
	.byte		N05   
	.byte	W06
	.byte		N05   
	.byte	W06
	.byte		N05   
	.byte	W06
	.byte		N05   
	.byte	W06
	.byte		N05   
	.byte	W06
	.byte		N05   
	.byte	W06
	.byte		N05   
	.byte	W06
	.byte		N05   
	.byte	W06
	.byte		N05   
	.byte	W06
	.byte		N05   
	.byte	W06
	.byte		N05   
	.byte	W06
	.byte		N05   
	.byte	W06
	.byte		N05   
	.byte	W06
	.byte		N05   
	.byte	W06
	.byte		N05   
	.byte	W06
	.byte	PEND
@ 006   ----------------------------------------
AA5KPO_8_006:
	.byte		N05   , Cn1 , v096
	.byte	W06
	.byte		N05   
	.byte	W06
	.byte		N05   
	.byte	W06
	.byte		N05   
	.byte	W06
	.byte		N05   
	.byte	W06
	.byte		N05   
	.byte	W06
	.byte		N05   
	.byte	W06
	.byte		N05   
	.byte	W06
	.byte		N05   
	.byte	W06
	.byte		N05   
	.byte	W06
	.byte		N05   
	.byte	W06
	.byte		N05   
	.byte	W06
	.byte		N05   
	.byte	W06
	.byte		N05   
	.byte	W06
	.byte		        As0 
	.byte	W06
	.byte		N05   
	.byte	W06
	.byte	PEND
@ 007   ----------------------------------------
AA5KPO_8_007:
	.byte		N05   , Gs0 , v096
	.byte	W06
	.byte		N05   
	.byte	W06
	.byte		N05   
	.byte	W06
	.byte		N05   
	.byte	W06
	.byte		N05   
	.byte	W06
	.byte		N05   
	.byte	W06
	.byte		N05   
	.byte	W06
	.byte		N05   
	.byte	W06
	.byte		N05   
	.byte	W06
	.byte		N05   
	.byte	W06
	.byte		N05   
	.byte	W06
	.byte		N05   
	.byte	W06
	.byte		N05   
	.byte	W06
	.byte		N05   
	.byte	W06
	.byte		N05   
	.byte	W06
	.byte		N05   
	.byte	W06
	.byte	PEND
@ 008   ----------------------------------------
AA5KPO_8_008:
	.byte		N05   , Gs0 , v096
	.byte	W06
	.byte		N05   
	.byte	W06
	.byte		N05   
	.byte	W06
	.byte		N05   
	.byte	W06
	.byte		N05   
	.byte	W06
	.byte		N05   
	.byte	W06
	.byte		N05   
	.byte	W06
	.byte		N05   
	.byte	W06
	.byte		N05   
	.byte	W06
	.byte		N05   
	.byte	W06
	.byte		N05   
	.byte	W06
	.byte		N05   
	.byte	W06
	.byte		N05   
	.byte	W06
	.byte		N05   
	.byte	W06
	.byte		        Gn0 
	.byte	W06
	.byte		N05   
	.byte	W06
	.byte	PEND
@ 009   ----------------------------------------
	.byte	PATT
	 .word	AA5KPO_8_005
@ 010   ----------------------------------------
	.byte	PATT
	 .word	AA5KPO_8_006
@ 011   ----------------------------------------
	.byte	PATT
	 .word	AA5KPO_8_007
@ 012   ----------------------------------------
	.byte	PATT
	 .word	AA5KPO_8_008
@ 013   ----------------------------------------
AA5KPO_8_013:
	.byte		N05   , Fn0 , v096
	.byte	W06
	.byte		N05   
	.byte	W06
	.byte		N05   
	.byte	W06
	.byte		N05   
	.byte	W06
	.byte		N05   
	.byte	W06
	.byte		N05   
	.byte	W06
	.byte		N05   
	.byte	W06
	.byte		N05   
	.byte	W06
	.byte		N05   
	.byte	W06
	.byte		N05   
	.byte	W06
	.byte		N05   
	.byte	W06
	.byte		N05   
	.byte	W06
	.byte		N05   
	.byte	W06
	.byte		N05   
	.byte	W06
	.byte		N05   
	.byte	W06
	.byte		N05   
	.byte	W06
	.byte	PEND
@ 014   ----------------------------------------
	.byte	PATT
	 .word	AA5KPO_8_013
@ 015   ----------------------------------------
AA5KPO_8_015:
	.byte		N05   , Cs1 , v096
	.byte	W06
	.byte		N05   
	.byte	W06
	.byte		N05   
	.byte	W06
	.byte		N05   
	.byte	W06
	.byte		N05   
	.byte	W06
	.byte		N05   
	.byte	W06
	.byte		N05   
	.byte	W06
	.byte		N05   
	.byte	W06
	.byte		N05   
	.byte	W06
	.byte		N05   
	.byte	W06
	.byte		N05   
	.byte	W06
	.byte		N05   
	.byte	W06
	.byte		N05   
	.byte	W06
	.byte		N05   
	.byte	W06
	.byte		N05   
	.byte	W06
	.byte		N05   
	.byte	W06
	.byte	PEND
@ 016   ----------------------------------------
	.byte	PATT
	 .word	AA5KPO_8_015
@ 017   ----------------------------------------
	.byte	PATT
	 .word	AA5KPO_8_005
@ 018   ----------------------------------------
	.byte	PATT
	 .word	AA5KPO_8_005
@ 019   ----------------------------------------
AA5KPO_8_019:
	.byte		N05   , Cn1 , v096
	.byte	W06
	.byte		N05   
	.byte	W06
	.byte		N05   
	.byte	W06
	.byte		N05   
	.byte	W06
	.byte		N05   
	.byte	W06
	.byte		N05   
	.byte	W06
	.byte		N05   
	.byte	W06
	.byte		N05   
	.byte	W06
	.byte		N05   
	.byte	W05
	.byte		N05   
	.byte	W06
	.byte		N05   
	.byte	W06
	.byte		N05   
	.byte	W06
	.byte		N05   
	.byte	W06
	.byte		N05   
	.byte	W07
	.byte		N05   
	.byte	W12
	.byte	PEND
@ 020   ----------------------------------------
	.byte	W96
@ 021   ----------------------------------------
AA5KPO_8_021:
	.byte		N11   , Fs0 , v127
	.byte	W12
	.byte		        Fs0 , v112
	.byte	W48
	.byte		N01   
	.byte		N01   , Gn0 
	.byte	W01
	.byte		        Gs0 
	.byte	W02
	.byte		        An0 
	.byte		N01   , As0 
	.byte	W01
	.byte		        Bn0 
	.byte	W02
	.byte		        Cn1 
	.byte		N01   , Cs1 
	.byte	W01
	.byte		        Dn1 
	.byte	W02
	.byte		        Ds1 
	.byte		N01   , En1 
	.byte	W01
	.byte		        Fn1 
	.byte	W02
	.byte		N11   , Fs1 
	.byte	W12
	.byte		        Fs0 
	.byte	W12
	.byte	PEND
@ 022   ----------------------------------------
AA5KPO_8_022:
	.byte	W36
	.byte		N11   , Fs0 , v112
	.byte	W24
	.byte		N01   
	.byte		N01   , Gn0 
	.byte	W01
	.byte		        Gs0 
	.byte	W02
	.byte		        An0 
	.byte		N01   , As0 
	.byte	W01
	.byte		        Bn0 
	.byte	W02
	.byte		        Cn1 
	.byte		N01   , Cs1 
	.byte	W01
	.byte		        Dn1 
	.byte	W02
	.byte		        Ds1 
	.byte		N01   , En1 
	.byte	W01
	.byte		        Fn1 
	.byte	W02
	.byte		N23   , Fs1 
	.byte	W24
	.byte	PEND
@ 023   ----------------------------------------
AA5KPO_8_023:
	.byte		N11   , Fs0 , v127
	.byte	W12
	.byte		        Fs0 , v112
	.byte	W48
	.byte		        Cn1 
	.byte	W12
	.byte		        Cs1 
	.byte	W12
	.byte		N23   , As0 
	.byte	W12
	.byte	PEND
@ 024   ----------------------------------------
AA5KPO_8_024:
	.byte	W12
	.byte		N11   , Fn0 , v112
	.byte	W12
	.byte		        Fs0 
	.byte	W12
	.byte		N11   
	.byte	W12
	.byte		N05   , Cs1 
	.byte	W06
	.byte		        As0 
	.byte	W06
	.byte		        Cn1 
	.byte	W06
	.byte		        Cs1 
	.byte	W06
	.byte		N23   , Fs1 
	.byte	W24
	.byte	PEND
@ 025   ----------------------------------------
AA5KPO_8_025:
	.byte		N11   , Ds1 , v127
	.byte	W12
	.byte		        Ds1 , v112
	.byte	W24
	.byte		N23   , Ds0 
	.byte	W24
	.byte		N11   , Dn1 
	.byte	W12
	.byte		        Ds1 
	.byte	W12
	.byte		N11   
	.byte	W12
	.byte	PEND
@ 026   ----------------------------------------
AA5KPO_8_026:
	.byte	W12
	.byte		N11   , An0 , v112
	.byte	W12
	.byte		        As0 
	.byte	W12
	.byte		N23   , Fs1 
	.byte	W24
	.byte		N11   , Fn1 
	.byte	W12
	.byte		        Ds1 
	.byte	W12
	.byte		        As0 
	.byte	W12
	.byte	PEND
@ 027   ----------------------------------------
AA5KPO_8_027:
	.byte		N11   , Ds1 , v112
	.byte	W12
	.byte		N11   
	.byte	W24
	.byte		N23   , Ds0 
	.byte	W24
	.byte		N11   
	.byte	W12
	.byte		        Fn0 
	.byte	W12
	.byte		        Gn0 
	.byte	W12
	.byte	PEND
@ 028   ----------------------------------------
AA5KPO_8_028:
	.byte		N05   , As0 , v112
	.byte	W06
	.byte		        Gs0 
	.byte	W06
	.byte		N11   , As0 
	.byte	W12
	.byte		N05   , Cn1 
	.byte	W06
	.byte		        As0 
	.byte	W06
	.byte		N11   , Cn1 
	.byte	W12
	.byte		N05   , Cs1 
	.byte	W06
	.byte		        Cn1 
	.byte	W06
	.byte		N11   , Cs1 
	.byte	W12
	.byte		N05   , Ds1 
	.byte	W06
	.byte		        Cs1 
	.byte	W06
	.byte		N11   , Ds1 
	.byte	W12
	.byte	PEND
@ 029   ----------------------------------------
AA5KPO_8_029:
	.byte		N05   , Bn0 , v096
	.byte	W06
	.byte		N05   
	.byte	W06
	.byte		N05   
	.byte	W06
	.byte		N05   
	.byte	W06
	.byte		N05   
	.byte	W06
	.byte		N05   
	.byte	W06
	.byte		N05   
	.byte	W06
	.byte		N05   
	.byte	W06
	.byte		N05   
	.byte	W06
	.byte		N05   
	.byte	W06
	.byte		N05   
	.byte	W06
	.byte		N05   
	.byte	W06
	.byte		N05   
	.byte	W06
	.byte		N05   
	.byte	W06
	.byte		N05   
	.byte	W06
	.byte		N05   
	.byte	W06
	.byte	PEND
@ 030   ----------------------------------------
	.byte	PATT
	 .word	AA5KPO_8_029
@ 031   ----------------------------------------
	.byte	PATT
	 .word	AA5KPO_8_007
@ 032   ----------------------------------------
	.byte	PATT
	 .word	AA5KPO_8_007
@ 033   ----------------------------------------
AA5KPO_8_033:
	.byte		N05   , En1 , v096
	.byte	W06
	.byte		N05   
	.byte	W06
	.byte		N05   
	.byte	W06
	.byte		N05   
	.byte	W06
	.byte		N05   
	.byte	W06
	.byte		N05   
	.byte	W06
	.byte		N05   
	.byte	W06
	.byte		N05   
	.byte	W06
	.byte		N05   
	.byte	W06
	.byte		N05   
	.byte	W06
	.byte		N05   
	.byte	W06
	.byte		N05   
	.byte	W06
	.byte		N05   
	.byte	W06
	.byte		N05   
	.byte	W06
	.byte		N05   
	.byte	W06
	.byte		N05   
	.byte	W06
	.byte	PEND
@ 034   ----------------------------------------
	.byte	PATT
	 .word	AA5KPO_8_033
@ 035   ----------------------------------------
	.byte	PATT
	 .word	AA5KPO_8_005
@ 036   ----------------------------------------
	.byte	PATT
	 .word	AA5KPO_8_005
@ 037   ----------------------------------------
AA5KPO_8_037:
	.byte		N05   , Fn1 , v096
	.byte	W06
	.byte		N05   
	.byte	W06
	.byte		N05   
	.byte	W06
	.byte		N05   
	.byte	W06
	.byte		N05   
	.byte	W06
	.byte		N05   
	.byte	W06
	.byte		N05   
	.byte	W06
	.byte		N05   
	.byte	W06
	.byte		N05   
	.byte	W06
	.byte		N05   
	.byte	W06
	.byte		N05   
	.byte	W06
	.byte		N05   
	.byte	W06
	.byte		N05   
	.byte	W06
	.byte		N05   
	.byte	W06
	.byte		N05   
	.byte	W06
	.byte		N05   
	.byte	W06
	.byte	PEND
@ 038   ----------------------------------------
	.byte	PATT
	 .word	AA5KPO_8_029
@ 039   ----------------------------------------
	.byte		TIE   , Gn0 , v096
	.byte	W96
@ 040   ----------------------------------------
	.byte	W92
	.byte	W03
	.byte		EOT   
	.byte	W01
@ 041   ----------------------------------------
	.byte		TIE   , Cn1 
	.byte	W96
@ 042   ----------------------------------------
	.byte	W96
@ 043   ----------------------------------------
	.byte	W96
@ 044   ----------------------------------------
	.byte	W92
	.byte	W03
	.byte		EOT   
	.byte	W01
@ 045   ----------------------------------------
AA5KPO_8_045:
	.byte	W24
	.byte		N11   , Cn1 , v096
	.byte	W48
	.byte		N11   
	.byte	W24
	.byte	PEND
@ 046   ----------------------------------------
	.byte	PATT
	 .word	AA5KPO_8_045
@ 047   ----------------------------------------
	.byte	W24
	.byte		N11   , Cn1 , v096
	.byte	W60
	.byte		N11   
	.byte	W12
AA5KPO_8_B1:
@ 048   ----------------------------------------
	.byte	PATT
	 .word	AA5KPO_8_004
@ 049   ----------------------------------------
	.byte	PATT
	 .word	AA5KPO_8_005
@ 050   ----------------------------------------
	.byte	PATT
	 .word	AA5KPO_8_006
@ 051   ----------------------------------------
	.byte	PATT
	 .word	AA5KPO_8_007
@ 052   ----------------------------------------
	.byte	PATT
	 .word	AA5KPO_8_008
@ 053   ----------------------------------------
	.byte	PATT
	 .word	AA5KPO_8_005
@ 054   ----------------------------------------
	.byte	PATT
	 .word	AA5KPO_8_006
@ 055   ----------------------------------------
	.byte	PATT
	 .word	AA5KPO_8_007
@ 056   ----------------------------------------
	.byte	PATT
	 .word	AA5KPO_8_008
@ 057   ----------------------------------------
	.byte	PATT
	 .word	AA5KPO_8_013
@ 058   ----------------------------------------
	.byte	PATT
	 .word	AA5KPO_8_013
@ 059   ----------------------------------------
	.byte	PATT
	 .word	AA5KPO_8_015
@ 060   ----------------------------------------
	.byte	PATT
	 .word	AA5KPO_8_015
@ 061   ----------------------------------------
	.byte	PATT
	 .word	AA5KPO_8_005
@ 062   ----------------------------------------
	.byte	PATT
	 .word	AA5KPO_8_005
@ 063   ----------------------------------------
	.byte	PATT
	 .word	AA5KPO_8_019
@ 064   ----------------------------------------
	.byte	W96
@ 065   ----------------------------------------
	.byte	PATT
	 .word	AA5KPO_8_021
@ 066   ----------------------------------------
	.byte	PATT
	 .word	AA5KPO_8_022
@ 067   ----------------------------------------
	.byte	PATT
	 .word	AA5KPO_8_023
@ 068   ----------------------------------------
	.byte	PATT
	 .word	AA5KPO_8_024
@ 069   ----------------------------------------
	.byte	PATT
	 .word	AA5KPO_8_025
@ 070   ----------------------------------------
	.byte	PATT
	 .word	AA5KPO_8_026
@ 071   ----------------------------------------
	.byte	PATT
	 .word	AA5KPO_8_027
@ 072   ----------------------------------------
	.byte	PATT
	 .word	AA5KPO_8_028
@ 073   ----------------------------------------
	.byte	PATT
	 .word	AA5KPO_8_029
@ 074   ----------------------------------------
	.byte	PATT
	 .word	AA5KPO_8_029
@ 075   ----------------------------------------
	.byte	PATT
	 .word	AA5KPO_8_007
@ 076   ----------------------------------------
	.byte	PATT
	 .word	AA5KPO_8_007
@ 077   ----------------------------------------
	.byte	PATT
	 .word	AA5KPO_8_033
@ 078   ----------------------------------------
	.byte	PATT
	 .word	AA5KPO_8_033
@ 079   ----------------------------------------
	.byte	PATT
	 .word	AA5KPO_8_005
@ 080   ----------------------------------------
	.byte	PATT
	 .word	AA5KPO_8_005
@ 081   ----------------------------------------
	.byte	PATT
	 .word	AA5KPO_8_037
@ 082   ----------------------------------------
	.byte	PATT
	 .word	AA5KPO_8_029
@ 083   ----------------------------------------
	.byte		TIE   , Gn0 , v096
	.byte	W96
@ 084   ----------------------------------------
	.byte	W92
	.byte	W03
	.byte		EOT   
	.byte	W01
@ 085   ----------------------------------------
	.byte		TIE   , Cn1 
	.byte	W96
@ 086   ----------------------------------------
	.byte	W96
@ 087   ----------------------------------------
	.byte	W96
@ 088   ----------------------------------------
	.byte	W92
	.byte	W03
	.byte		EOT   
	.byte	W01
@ 089   ----------------------------------------
	.byte	PATT
	 .word	AA5KPO_8_045
@ 090   ----------------------------------------
	.byte	PATT
	 .word	AA5KPO_8_045
@ 091   ----------------------------------------
	.byte	W24
	.byte		N11   , Cn1 , v096
	.byte	W60
	.byte		N11   
	.byte	W11
	.byte	GOTO
	 .word	AA5KPO_8_B1
AA5KPO_8_B2:
	.byte	FINE

@**************** Track 9 (Midi-Chn.11) ****************@

AA5KPO_9:
	.byte	KEYSH , AA5KPO_key+0
@ 000   ----------------------------------------
	.byte		VOICE , 122
	.byte		VOL   , 88*AA5KPO_mvl/mxv
	.byte		PAN   , c_v+0
	.byte	W48
@ 001   ----------------------------------------
	.byte		N44   , Cs2 , v080
	.byte		N44   , En2 
	.byte	W96
@ 002   ----------------------------------------
	.byte	W12
	.byte		N11   , Bn2 , v096
	.byte	W24
	.byte		N11   
	.byte	W24
	.byte		N11   
	.byte	W24
	.byte		N11   
	.byte	W12
@ 003   ----------------------------------------
	.byte	W12
	.byte		        Bn2 , v080
	.byte	W24
	.byte		N11   
	.byte	W24
	.byte		N11   
	.byte	W36
@ 004   ----------------------------------------
AA5KPO_9_004:
	.byte		N23   , Cn1 , v080
	.byte	W12
	.byte		N05   , Dn1 
	.byte	W06
	.byte		        Dn1 , v084
	.byte	W06
	.byte		N23   , Cn1 
	.byte		N05   , Dn1 
	.byte	W06
	.byte		N05   
	.byte	W06
	.byte		N05   
	.byte	W06
	.byte		        Dn1 , v088
	.byte	W06
	.byte		N23   , Cn1 
	.byte		N05   , Dn1 
	.byte	W06
	.byte		N05   
	.byte	W06
	.byte		        Dn1 , v092
	.byte	W06
	.byte		N05   
	.byte	W06
	.byte		N23   , Cn1 
	.byte		N05   , Dn1 
	.byte	W06
	.byte		N05   
	.byte	W06
	.byte		        Dn1 , v096
	.byte	W06
	.byte		N05   
	.byte	W06
	.byte	PEND
@ 005   ----------------------------------------
AA5KPO_9_005:
	.byte		N23   , Cn1 , v096
	.byte	W12
	.byte		N11   , Bn2 
	.byte	W12
	.byte		N23   , Cn1 
	.byte		N11   , Dn1 
	.byte	W12
	.byte		        Bn2 
	.byte	W12
	.byte		N23   , Cn1 
	.byte	W12
	.byte		N11   , Bn2 
	.byte	W12
	.byte		N23   , Cn1 
	.byte		N11   , Dn1 
	.byte	W12
	.byte		        Bn2 
	.byte	W12
	.byte	PEND
@ 006   ----------------------------------------
	.byte	PATT
	 .word	AA5KPO_9_005
@ 007   ----------------------------------------
	.byte	PATT
	 .word	AA5KPO_9_005
@ 008   ----------------------------------------
	.byte	PATT
	 .word	AA5KPO_9_005
@ 009   ----------------------------------------
	.byte	PATT
	 .word	AA5KPO_9_005
@ 010   ----------------------------------------
	.byte	PATT
	 .word	AA5KPO_9_005
@ 011   ----------------------------------------
	.byte	PATT
	 .word	AA5KPO_9_005
@ 012   ----------------------------------------
	.byte	PATT
	 .word	AA5KPO_9_005
@ 013   ----------------------------------------
	.byte	PATT
	 .word	AA5KPO_9_005
@ 014   ----------------------------------------
	.byte	PATT
	 .word	AA5KPO_9_005
@ 015   ----------------------------------------
	.byte	PATT
	 .word	AA5KPO_9_005
@ 016   ----------------------------------------
AA5KPO_9_016:
	.byte		N23   , Cn1 , v096
	.byte	W12
	.byte		N05   , Dn1 
	.byte	W06
	.byte		        Dn1 , v100
	.byte	W06
	.byte		N23   , Cn1 
	.byte		N05   , Dn1 
	.byte	W06
	.byte		N05   
	.byte	W06
	.byte		N05   
	.byte	W06
	.byte		        Dn1 , v104
	.byte	W06
	.byte		N23   , Cn1 
	.byte		N05   , Dn1 
	.byte	W06
	.byte		N05   
	.byte	W06
	.byte		        Dn1 , v108
	.byte	W06
	.byte		N05   
	.byte	W06
	.byte		N23   , Cn1 
	.byte		N05   , Dn1 
	.byte	W06
	.byte		N05   
	.byte	W06
	.byte		        Dn1 , v112
	.byte	W06
	.byte		N05   
	.byte	W06
	.byte	PEND
@ 017   ----------------------------------------
AA5KPO_9_017:
	.byte		N23   , Cn1 , v112
	.byte		N11   , Cs2 
	.byte		N11   , En2 
	.byte	W12
	.byte		        Bn2 
	.byte	W12
	.byte		N23   , Cn1 
	.byte		N11   , Dn1 
	.byte	W12
	.byte		        Bn2 
	.byte	W12
	.byte		N23   , Cn1 
	.byte	W12
	.byte		N11   , Bn2 
	.byte	W12
	.byte		N23   , Cn1 
	.byte		N11   , Dn1 
	.byte	W12
	.byte		        Bn2 
	.byte	W12
	.byte	PEND
@ 018   ----------------------------------------
AA5KPO_9_018:
	.byte		N23   , Cn1 , v112
	.byte	W12
	.byte		N11   , Bn2 
	.byte	W12
	.byte		N23   , Cn1 
	.byte		N11   , Dn1 
	.byte	W12
	.byte		        Bn2 
	.byte	W12
	.byte		N23   , Cn1 
	.byte	W12
	.byte		N11   , Bn2 
	.byte	W12
	.byte		N23   , Cn1 
	.byte		N11   , Dn1 
	.byte	W12
	.byte		        Bn2 
	.byte	W12
	.byte	PEND
@ 019   ----------------------------------------
AA5KPO_9_019:
	.byte		N23   , Cn1 , v112
	.byte	W12
	.byte		N11   , Bn2 
	.byte	W12
	.byte		N23   , Cn1 
	.byte		N11   , Dn1 
	.byte	W12
	.byte		        Bn2 
	.byte	W12
	.byte		N23   , Cn1 
	.byte	W12
	.byte		N11   , Bn2 
	.byte	W12
	.byte		N23   , Cn1 
	.byte		N11   , Dn1 
	.byte	W24
	.byte	PEND
@ 020   ----------------------------------------
AA5KPO_9_020:
	.byte	W12
	.byte		N05   , Dn1 , v112
	.byte		N05   , Fs1 
	.byte	W06
	.byte		        Dn1 
	.byte	W06
	.byte		N05   
	.byte		N05   , Fs1 
	.byte	W06
	.byte		        Dn1 
	.byte	W06
	.byte		N05   
	.byte		N05   , Fs1 
	.byte	W06
	.byte		        Dn1 
	.byte	W06
	.byte		N05   
	.byte		N05   , Fs1 
	.byte	W06
	.byte		        Dn1 
	.byte	W06
	.byte		N05   
	.byte		N05   , Fs1 
	.byte	W06
	.byte		        Dn1 
	.byte	W06
	.byte		N05   
	.byte		N05   , Fs1 
	.byte	W06
	.byte		        Dn1 
	.byte	W06
	.byte		N05   
	.byte		N05   , Fs1 
	.byte	W06
	.byte		        Dn1 
	.byte	W06
	.byte	PEND
@ 021   ----------------------------------------
AA5KPO_9_021:
	.byte		N11   , Cn1 , v112
	.byte		N23   , En2 
	.byte	W36
	.byte		N11   , Cn1 
	.byte	W12
	.byte		        Dn1 
	.byte	W36
	.byte		        Cn1 
	.byte	W12
	.byte	PEND
@ 022   ----------------------------------------
AA5KPO_9_022:
	.byte	W12
	.byte		N11   , Cn1 , v112
	.byte	W24
	.byte		N11   
	.byte	W12
	.byte		        Dn1 
	.byte	W24
	.byte		        Cn1 
	.byte	W24
	.byte	PEND
@ 023   ----------------------------------------
AA5KPO_9_023:
	.byte		N11   , Cn1 , v112
	.byte	W36
	.byte		N11   
	.byte	W12
	.byte		        Dn1 
	.byte	W36
	.byte		        Cn1 
	.byte	W12
	.byte	PEND
@ 024   ----------------------------------------
AA5KPO_9_024:
	.byte	W12
	.byte		N11   , Cn1 , v112
	.byte	W24
	.byte		N11   
	.byte	W12
	.byte		        Dn1 
	.byte	W24
	.byte		        Cn1 
	.byte	W12
	.byte		N23   , En2 
	.byte	W12
	.byte	PEND
@ 025   ----------------------------------------
	.byte	PATT
	 .word	AA5KPO_9_023
@ 026   ----------------------------------------
	.byte	PATT
	 .word	AA5KPO_9_022
@ 027   ----------------------------------------
	.byte	PATT
	 .word	AA5KPO_9_023
@ 028   ----------------------------------------
AA5KPO_9_028:
	.byte	W12
	.byte		N11   , Cn1 , v112
	.byte	W24
	.byte		N11   
	.byte	W12
	.byte		        Dn1 
	.byte	W12
	.byte		N05   , Dn2 
	.byte	W06
	.byte		N05   
	.byte	W06
	.byte		        Cn2 
	.byte	W06
	.byte		N05   
	.byte	W06
	.byte		N11   , An1 
	.byte	W12
	.byte	PEND
@ 029   ----------------------------------------
AA5KPO_9_029:
	.byte		N23   , Cn1 , v080
	.byte		N11   , An2 
	.byte	W12
	.byte		        Bn2 
	.byte	W12
	.byte		N23   , Cn1 
	.byte		N11   , Dn1 
	.byte	W12
	.byte		        Bn2 
	.byte	W12
	.byte		N23   , Cn1 
	.byte	W12
	.byte		N11   , Bn2 
	.byte	W12
	.byte		N23   , Cn1 
	.byte		N11   , Dn1 
	.byte	W12
	.byte		        Bn2 
	.byte	W12
	.byte	PEND
@ 030   ----------------------------------------
AA5KPO_9_030:
	.byte		N23   , Cn1 , v080
	.byte	W12
	.byte		N11   , Bn2 
	.byte	W12
	.byte		N23   , Cn1 
	.byte		N11   , Dn1 
	.byte	W12
	.byte		        Bn2 
	.byte	W12
	.byte		N23   , Cn1 
	.byte	W12
	.byte		N11   , Bn2 
	.byte	W12
	.byte		N23   , Cn1 
	.byte		N11   , Dn1 
	.byte	W12
	.byte		        Bn2 
	.byte	W12
	.byte	PEND
@ 031   ----------------------------------------
	.byte	PATT
	 .word	AA5KPO_9_030
@ 032   ----------------------------------------
	.byte	PATT
	 .word	AA5KPO_9_030
@ 033   ----------------------------------------
	.byte	PATT
	 .word	AA5KPO_9_030
@ 034   ----------------------------------------
	.byte	PATT
	 .word	AA5KPO_9_030
@ 035   ----------------------------------------
	.byte	PATT
	 .word	AA5KPO_9_030
@ 036   ----------------------------------------
	.byte	PATT
	 .word	AA5KPO_9_004
@ 037   ----------------------------------------
	.byte	PATT
	 .word	AA5KPO_9_005
@ 038   ----------------------------------------
AA5KPO_9_038:
	.byte		N23   , Cn1 , v096
	.byte	W12
	.byte		N11   , Bn2 
	.byte	W12
	.byte		N23   , Cn1 
	.byte		N11   , Dn1 
	.byte	W12
	.byte		        Bn2 
	.byte	W12
	.byte		N23   , Cn1 
	.byte		N05   , Dn1 
	.byte	W06
	.byte		        En1 
	.byte	W06
	.byte		        Dn1 
	.byte		N05   , Bn2 
	.byte	W06
	.byte		        Cn2 
	.byte	W06
	.byte		N23   , Cn1 
	.byte		N05   , Dn1 
	.byte	W18
	.byte		        En1 
	.byte	W06
	.byte	PEND
@ 039   ----------------------------------------
AA5KPO_9_039:
	.byte		N23   , Bn0 , v096
	.byte		N11   , Bn1 
	.byte	W96
	.byte	PEND
@ 040   ----------------------------------------
AA5KPO_9_040:
	.byte		N23   , Cn1 , v096
	.byte	W24
	.byte		N23   
	.byte	W24
	.byte		N23   
	.byte	W24
	.byte		N23   
	.byte	W24
	.byte	PEND
@ 041   ----------------------------------------
	.byte	W96
@ 042   ----------------------------------------
	.byte	W96
@ 043   ----------------------------------------
AA5KPO_9_043:
	.byte	W18
	.byte		N05   , Bn0 , v112
	.byte	W06
	.byte		N11   
	.byte	W36
	.byte		        Cn2 
	.byte	W24
	.byte		        An1 
	.byte	W12
	.byte	PEND
@ 044   ----------------------------------------
AA5KPO_9_044:
	.byte	W18
	.byte		N05   , Bn0 , v112
	.byte	W06
	.byte		N11   
	.byte	W12
	.byte		N05   , Dn2 
	.byte	W06
	.byte		N05   
	.byte	W06
	.byte		        Cn2 
	.byte	W06
	.byte		N05   
	.byte	W06
	.byte		        Bn1 
	.byte	W06
	.byte		N05   
	.byte	W06
	.byte		        An1 
	.byte	W06
	.byte		N05   
	.byte	W06
	.byte		        Cn1 
	.byte		N11   , An1 
	.byte	W06
	.byte		N05   , Cn1 
	.byte	W06
	.byte	PEND
@ 045   ----------------------------------------
AA5KPO_9_045:
	.byte		N23   , Cn1 , v112
	.byte	W24
	.byte		N23   
	.byte	W24
	.byte		N23   
	.byte	W24
	.byte		N23   
	.byte	W24
	.byte	PEND
@ 046   ----------------------------------------
	.byte	PATT
	 .word	AA5KPO_9_045
@ 047   ----------------------------------------
	.byte	PATT
	 .word	AA5KPO_9_045
AA5KPO_9_B1:
@ 048   ----------------------------------------
	.byte	PATT
	 .word	AA5KPO_9_004
@ 049   ----------------------------------------
	.byte	PATT
	 .word	AA5KPO_9_005
@ 050   ----------------------------------------
	.byte	PATT
	 .word	AA5KPO_9_005
@ 051   ----------------------------------------
	.byte	PATT
	 .word	AA5KPO_9_005
@ 052   ----------------------------------------
	.byte	PATT
	 .word	AA5KPO_9_005
@ 053   ----------------------------------------
	.byte	PATT
	 .word	AA5KPO_9_005
@ 054   ----------------------------------------
	.byte	PATT
	 .word	AA5KPO_9_005
@ 055   ----------------------------------------
	.byte	PATT
	 .word	AA5KPO_9_005
@ 056   ----------------------------------------
	.byte	PATT
	 .word	AA5KPO_9_005
@ 057   ----------------------------------------
	.byte	PATT
	 .word	AA5KPO_9_005
@ 058   ----------------------------------------
	.byte	PATT
	 .word	AA5KPO_9_005
@ 059   ----------------------------------------
	.byte	PATT
	 .word	AA5KPO_9_005
@ 060   ----------------------------------------
	.byte	PATT
	 .word	AA5KPO_9_016
@ 061   ----------------------------------------
	.byte	PATT
	 .word	AA5KPO_9_017
@ 062   ----------------------------------------
	.byte	PATT
	 .word	AA5KPO_9_018
@ 063   ----------------------------------------
	.byte	PATT
	 .word	AA5KPO_9_019
@ 064   ----------------------------------------
	.byte	PATT
	 .word	AA5KPO_9_020
@ 065   ----------------------------------------
	.byte	PATT
	 .word	AA5KPO_9_021
@ 066   ----------------------------------------
	.byte	PATT
	 .word	AA5KPO_9_022
@ 067   ----------------------------------------
	.byte	PATT
	 .word	AA5KPO_9_023
@ 068   ----------------------------------------
	.byte	PATT
	 .word	AA5KPO_9_024
@ 069   ----------------------------------------
	.byte	PATT
	 .word	AA5KPO_9_023
@ 070   ----------------------------------------
	.byte	PATT
	 .word	AA5KPO_9_022
@ 071   ----------------------------------------
	.byte	PATT
	 .word	AA5KPO_9_023
@ 072   ----------------------------------------
	.byte	PATT
	 .word	AA5KPO_9_028
@ 073   ----------------------------------------
	.byte	PATT
	 .word	AA5KPO_9_029
@ 074   ----------------------------------------
	.byte	PATT
	 .word	AA5KPO_9_030
@ 075   ----------------------------------------
	.byte	PATT
	 .word	AA5KPO_9_030
@ 076   ----------------------------------------
	.byte	PATT
	 .word	AA5KPO_9_030
@ 077   ----------------------------------------
	.byte	PATT
	 .word	AA5KPO_9_030
@ 078   ----------------------------------------
	.byte	PATT
	 .word	AA5KPO_9_030
@ 079   ----------------------------------------
	.byte	PATT
	 .word	AA5KPO_9_030
@ 080   ----------------------------------------
	.byte	PATT
	 .word	AA5KPO_9_004
@ 081   ----------------------------------------
	.byte	PATT
	 .word	AA5KPO_9_005
@ 082   ----------------------------------------
	.byte	PATT
	 .word	AA5KPO_9_038
@ 083   ----------------------------------------
	.byte	PATT
	 .word	AA5KPO_9_039
@ 084   ----------------------------------------
	.byte	PATT
	 .word	AA5KPO_9_040
@ 085   ----------------------------------------
	.byte	W96
@ 086   ----------------------------------------
	.byte	W96
@ 087   ----------------------------------------
	.byte	PATT
	 .word	AA5KPO_9_043
@ 088   ----------------------------------------
	.byte	PATT
	 .word	AA5KPO_9_044
@ 089   ----------------------------------------
	.byte	PATT
	 .word	AA5KPO_9_045
@ 090   ----------------------------------------
	.byte	PATT
	 .word	AA5KPO_9_045
@ 091   ----------------------------------------
	.byte		N23   , Cn1 , v112
	.byte	W24
	.byte		N23   
	.byte	W24
	.byte		N23   
	.byte	W24
	.byte		N23   
	.byte	W23
	.byte	GOTO
	 .word	AA5KPO_9_B1
AA5KPO_9_B2:
	.byte	FINE

@**************** Track 10 (Midi-Chn.12) ****************@

AA5KPO_10:
	.byte	KEYSH , AA5KPO_key+0
@ 000   ----------------------------------------
	.byte		VOICE , 121
	.byte		VOL   , 82*AA5KPO_mvl/mxv
	.byte		PAN   , c_v+0
	.byte	W48
@ 001   ----------------------------------------
AA5KPO_10_001:
	.byte		N11   , Gs1 , v096
	.byte	W12
	.byte		N11   
	.byte	W12
	.byte		N11   
	.byte	W12
	.byte		N11   
	.byte	W12
	.byte		N05   
	.byte	W12
	.byte		N05   
	.byte	W06
	.byte		N05   
	.byte	W12
	.byte		N05   
	.byte	W06
	.byte		N05   
	.byte	W12
	.byte	PEND
@ 002   ----------------------------------------
	.byte	PATT
	 .word	AA5KPO_10_001
@ 003   ----------------------------------------
	.byte	PATT
	 .word	AA5KPO_10_001
@ 004   ----------------------------------------
	.byte	W96
@ 005   ----------------------------------------
AA5KPO_10_005:
	.byte		N11   , Gs1 , v096
	.byte	W12
	.byte		N11   
	.byte	W12
	.byte		N23   , En1 
	.byte		N11   , Gs1 
	.byte	W12
	.byte		N11   
	.byte	W12
	.byte		N05   
	.byte	W12
	.byte		N05   
	.byte	W06
	.byte		N05   
	.byte	W06
	.byte		N23   , En1 
	.byte	W06
	.byte		N05   , Gs1 
	.byte	W06
	.byte		N05   
	.byte	W12
	.byte	PEND
@ 006   ----------------------------------------
	.byte	PATT
	 .word	AA5KPO_10_005
@ 007   ----------------------------------------
	.byte	PATT
	 .word	AA5KPO_10_005
@ 008   ----------------------------------------
	.byte	PATT
	 .word	AA5KPO_10_005
@ 009   ----------------------------------------
	.byte	PATT
	 .word	AA5KPO_10_005
@ 010   ----------------------------------------
	.byte	PATT
	 .word	AA5KPO_10_005
@ 011   ----------------------------------------
	.byte	PATT
	 .word	AA5KPO_10_005
@ 012   ----------------------------------------
	.byte	PATT
	 .word	AA5KPO_10_005
@ 013   ----------------------------------------
AA5KPO_10_013:
	.byte		N11   , Gs1 , v096
	.byte		N23   , An2 
	.byte	W12
	.byte		N11   , Gs1 
	.byte	W12
	.byte		N23   , En1 
	.byte		N11   , Gs1 
	.byte	W12
	.byte		N11   
	.byte	W12
	.byte		N05   
	.byte	W12
	.byte		N05   
	.byte	W06
	.byte		N05   
	.byte	W06
	.byte		N23   , En1 
	.byte	W06
	.byte		N05   , Gs1 
	.byte	W06
	.byte		N05   
	.byte	W12
	.byte	PEND
@ 014   ----------------------------------------
	.byte	PATT
	 .word	AA5KPO_10_005
@ 015   ----------------------------------------
	.byte	PATT
	 .word	AA5KPO_10_005
@ 016   ----------------------------------------
	.byte	PATT
	 .word	AA5KPO_10_005
@ 017   ----------------------------------------
AA5KPO_10_017:
	.byte		N11   , Gs1 , v096
	.byte		N11   , En2 
	.byte	W12
	.byte		        Gs1 
	.byte	W12
	.byte		N23   , En1 
	.byte		N11   , Gs1 
	.byte	W12
	.byte		N11   
	.byte	W12
	.byte		N05   
	.byte	W12
	.byte		N05   
	.byte	W06
	.byte		N05   
	.byte	W06
	.byte		N23   , En1 
	.byte	W06
	.byte		N05   , Gs1 
	.byte	W06
	.byte		N05   
	.byte	W12
	.byte	PEND
@ 018   ----------------------------------------
	.byte	PATT
	 .word	AA5KPO_10_005
@ 019   ----------------------------------------
AA5KPO_10_019:
	.byte		N11   , Gs1 , v096
	.byte	W12
	.byte		N11   
	.byte	W12
	.byte		N23   , En1 
	.byte		N11   , Gs1 
	.byte	W12
	.byte		N11   
	.byte	W12
	.byte		N05   
	.byte	W12
	.byte		N05   
	.byte	W06
	.byte		N05   
	.byte	W06
	.byte		N11   , En1 
	.byte	W06
	.byte		N05   , Gs1 
	.byte	W06
	.byte		N05   
	.byte		N11   , Cs2 
	.byte	W12
	.byte	PEND
@ 020   ----------------------------------------
	.byte	W96
@ 021   ----------------------------------------
AA5KPO_10_021:
	.byte		N23   , En2 , v112
	.byte		N23   , Bn2 
	.byte	W24
	.byte		N23   
	.byte	W24
	.byte		N23   
	.byte	W24
	.byte		N23   
	.byte	W24
	.byte	PEND
@ 022   ----------------------------------------
AA5KPO_10_022:
	.byte		N23   , Bn2 , v112
	.byte	W24
	.byte		N23   
	.byte	W24
	.byte		N23   
	.byte	W24
	.byte		N23   
	.byte	W24
	.byte	PEND
@ 023   ----------------------------------------
	.byte	PATT
	 .word	AA5KPO_10_022
@ 024   ----------------------------------------
AA5KPO_10_024:
	.byte		N23   , Bn2 , v112
	.byte	W24
	.byte		N23   
	.byte	W24
	.byte		N23   
	.byte	W24
	.byte		N11   
	.byte	W12
	.byte		        En2 
	.byte	W12
	.byte	PEND
@ 025   ----------------------------------------
	.byte	PATT
	 .word	AA5KPO_10_022
@ 026   ----------------------------------------
	.byte	PATT
	 .word	AA5KPO_10_022
@ 027   ----------------------------------------
	.byte	PATT
	 .word	AA5KPO_10_022
@ 028   ----------------------------------------
	.byte	PATT
	 .word	AA5KPO_10_022
@ 029   ----------------------------------------
AA5KPO_10_029:
	.byte		N11   , Gs1 , v080
	.byte		N23   , An2 
	.byte	W12
	.byte		N11   , Gs1 
	.byte	W12
	.byte		N23   , En1 
	.byte		N11   , Gs1 
	.byte	W12
	.byte		N11   
	.byte	W12
	.byte		N05   
	.byte	W12
	.byte		N05   
	.byte	W06
	.byte		N05   
	.byte	W06
	.byte		N23   , En1 
	.byte	W06
	.byte		N05   , Gs1 
	.byte	W06
	.byte		N05   
	.byte	W12
	.byte	PEND
@ 030   ----------------------------------------
AA5KPO_10_030:
	.byte		N11   , Gs1 , v080
	.byte	W12
	.byte		N11   
	.byte	W12
	.byte		N23   , En1 
	.byte		N11   , Gs1 
	.byte	W12
	.byte		N11   
	.byte	W12
	.byte		N05   
	.byte	W12
	.byte		N05   
	.byte	W06
	.byte		N05   
	.byte	W06
	.byte		N23   , En1 
	.byte	W06
	.byte		N05   , Gs1 
	.byte	W06
	.byte		N05   
	.byte	W12
	.byte	PEND
@ 031   ----------------------------------------
	.byte	PATT
	 .word	AA5KPO_10_030
@ 032   ----------------------------------------
	.byte	PATT
	 .word	AA5KPO_10_030
@ 033   ----------------------------------------
	.byte	PATT
	 .word	AA5KPO_10_030
@ 034   ----------------------------------------
	.byte	PATT
	 .word	AA5KPO_10_030
@ 035   ----------------------------------------
	.byte	PATT
	 .word	AA5KPO_10_030
@ 036   ----------------------------------------
	.byte	PATT
	 .word	AA5KPO_10_030
@ 037   ----------------------------------------
	.byte	PATT
	 .word	AA5KPO_10_005
@ 038   ----------------------------------------
	.byte	PATT
	 .word	AA5KPO_10_005
@ 039   ----------------------------------------
	.byte		N11   , En1 , v096
	.byte	W96
@ 040   ----------------------------------------
	.byte	W96
@ 041   ----------------------------------------
	.byte	PATT
	 .word	AA5KPO_10_001
@ 042   ----------------------------------------
	.byte	PATT
	 .word	AA5KPO_10_001
@ 043   ----------------------------------------
	.byte	PATT
	 .word	AA5KPO_10_001
@ 044   ----------------------------------------
	.byte	PATT
	 .word	AA5KPO_10_001
@ 045   ----------------------------------------
	.byte	PATT
	 .word	AA5KPO_10_001
@ 046   ----------------------------------------
	.byte	PATT
	 .word	AA5KPO_10_001
@ 047   ----------------------------------------
	.byte	PATT
	 .word	AA5KPO_10_001
AA5KPO_10_B1:
@ 048   ----------------------------------------
	.byte	W96
@ 049   ----------------------------------------
	.byte	PATT
	 .word	AA5KPO_10_005
@ 050   ----------------------------------------
	.byte	PATT
	 .word	AA5KPO_10_005
@ 051   ----------------------------------------
	.byte	PATT
	 .word	AA5KPO_10_005
@ 052   ----------------------------------------
	.byte	PATT
	 .word	AA5KPO_10_005
@ 053   ----------------------------------------
	.byte	PATT
	 .word	AA5KPO_10_005
@ 054   ----------------------------------------
	.byte	PATT
	 .word	AA5KPO_10_005
@ 055   ----------------------------------------
	.byte	PATT
	 .word	AA5KPO_10_005
@ 056   ----------------------------------------
	.byte	PATT
	 .word	AA5KPO_10_005
@ 057   ----------------------------------------
	.byte	PATT
	 .word	AA5KPO_10_013
@ 058   ----------------------------------------
	.byte	PATT
	 .word	AA5KPO_10_005
@ 059   ----------------------------------------
	.byte	PATT
	 .word	AA5KPO_10_005
@ 060   ----------------------------------------
	.byte	PATT
	 .word	AA5KPO_10_005
@ 061   ----------------------------------------
	.byte	PATT
	 .word	AA5KPO_10_017
@ 062   ----------------------------------------
	.byte	PATT
	 .word	AA5KPO_10_005
@ 063   ----------------------------------------
	.byte	PATT
	 .word	AA5KPO_10_019
@ 064   ----------------------------------------
	.byte	W96
@ 065   ----------------------------------------
	.byte	PATT
	 .word	AA5KPO_10_021
@ 066   ----------------------------------------
	.byte	PATT
	 .word	AA5KPO_10_022
@ 067   ----------------------------------------
	.byte	PATT
	 .word	AA5KPO_10_022
@ 068   ----------------------------------------
	.byte	PATT
	 .word	AA5KPO_10_024
@ 069   ----------------------------------------
	.byte	PATT
	 .word	AA5KPO_10_022
@ 070   ----------------------------------------
	.byte	PATT
	 .word	AA5KPO_10_022
@ 071   ----------------------------------------
	.byte	PATT
	 .word	AA5KPO_10_022
@ 072   ----------------------------------------
	.byte	PATT
	 .word	AA5KPO_10_022
@ 073   ----------------------------------------
	.byte	PATT
	 .word	AA5KPO_10_029
@ 074   ----------------------------------------
	.byte	PATT
	 .word	AA5KPO_10_030
@ 075   ----------------------------------------
	.byte	PATT
	 .word	AA5KPO_10_030
@ 076   ----------------------------------------
	.byte	PATT
	 .word	AA5KPO_10_030
@ 077   ----------------------------------------
	.byte	PATT
	 .word	AA5KPO_10_030
@ 078   ----------------------------------------
	.byte	PATT
	 .word	AA5KPO_10_030
@ 079   ----------------------------------------
	.byte	PATT
	 .word	AA5KPO_10_030
@ 080   ----------------------------------------
	.byte	PATT
	 .word	AA5KPO_10_030
@ 081   ----------------------------------------
	.byte	PATT
	 .word	AA5KPO_10_005
@ 082   ----------------------------------------
	.byte	PATT
	 .word	AA5KPO_10_005
@ 083   ----------------------------------------
	.byte		N11   , En1 , v096
	.byte	W96
@ 084   ----------------------------------------
	.byte	W96
@ 085   ----------------------------------------
	.byte	PATT
	 .word	AA5KPO_10_001
@ 086   ----------------------------------------
	.byte	PATT
	 .word	AA5KPO_10_001
@ 087   ----------------------------------------
	.byte	PATT
	 .word	AA5KPO_10_001
@ 088   ----------------------------------------
	.byte	PATT
	 .word	AA5KPO_10_001
@ 089   ----------------------------------------
	.byte	PATT
	 .word	AA5KPO_10_001
@ 090   ----------------------------------------
	.byte	PATT
	 .word	AA5KPO_10_001
@ 091   ----------------------------------------
	.byte		N11   , Gs1 , v096
	.byte	W12
	.byte		N11   
	.byte	W12
	.byte		N11   
	.byte	W12
	.byte		N11   
	.byte	W12
	.byte		N05   
	.byte	W12
	.byte		N05   
	.byte	W06
	.byte		N05   
	.byte	W12
	.byte		N05   
	.byte	W06
	.byte		N05   
	.byte	W11
	.byte	GOTO
	 .word	AA5KPO_10_B1
AA5KPO_10_B2:
	.byte	FINE

@**************** Track 11 (Midi-Chn.13) ****************@

AA5KPO_11:
	.byte	KEYSH , AA5KPO_key+0
@ 000   ----------------------------------------
	.byte		VOICE , 127
	.byte		VOL   , 100*AA5KPO_mvl/mxv
	.byte		PAN   , c_v+0
	.byte	W48
@ 001   ----------------------------------------
	.byte	W96
@ 002   ----------------------------------------
	.byte	W96
@ 003   ----------------------------------------
	.byte	W96
@ 004   ----------------------------------------
AA5KPO_11_004:
	.byte		N23   , Bn0 , v096
	.byte	W24
	.byte		N23   
	.byte	W24
	.byte		N23   
	.byte	W24
	.byte		N23   
	.byte	W24
	.byte	PEND
@ 005   ----------------------------------------
	.byte	PATT
	 .word	AA5KPO_11_004
@ 006   ----------------------------------------
	.byte	PATT
	 .word	AA5KPO_11_004
@ 007   ----------------------------------------
	.byte	PATT
	 .word	AA5KPO_11_004
@ 008   ----------------------------------------
	.byte	PATT
	 .word	AA5KPO_11_004
@ 009   ----------------------------------------
	.byte	PATT
	 .word	AA5KPO_11_004
@ 010   ----------------------------------------
	.byte	PATT
	 .word	AA5KPO_11_004
@ 011   ----------------------------------------
	.byte	PATT
	 .word	AA5KPO_11_004
@ 012   ----------------------------------------
	.byte	PATT
	 .word	AA5KPO_11_004
@ 013   ----------------------------------------
	.byte	PATT
	 .word	AA5KPO_11_004
@ 014   ----------------------------------------
	.byte	PATT
	 .word	AA5KPO_11_004
@ 015   ----------------------------------------
	.byte	PATT
	 .word	AA5KPO_11_004
@ 016   ----------------------------------------
	.byte	PATT
	 .word	AA5KPO_11_004
@ 017   ----------------------------------------
	.byte	PATT
	 .word	AA5KPO_11_004
@ 018   ----------------------------------------
	.byte	PATT
	 .word	AA5KPO_11_004
@ 019   ----------------------------------------
	.byte	PATT
	 .word	AA5KPO_11_004
@ 020   ----------------------------------------
	.byte	W96
@ 021   ----------------------------------------
	.byte	W96
@ 022   ----------------------------------------
	.byte	W96
@ 023   ----------------------------------------
	.byte	W96
@ 024   ----------------------------------------
	.byte	W96
@ 025   ----------------------------------------
	.byte	W96
@ 026   ----------------------------------------
	.byte	W96
@ 027   ----------------------------------------
	.byte	W96
@ 028   ----------------------------------------
	.byte	W96
@ 029   ----------------------------------------
	.byte	PATT
	 .word	AA5KPO_11_004
@ 030   ----------------------------------------
	.byte	PATT
	 .word	AA5KPO_11_004
@ 031   ----------------------------------------
	.byte	PATT
	 .word	AA5KPO_11_004
@ 032   ----------------------------------------
	.byte	PATT
	 .word	AA5KPO_11_004
@ 033   ----------------------------------------
	.byte	PATT
	 .word	AA5KPO_11_004
@ 034   ----------------------------------------
	.byte	PATT
	 .word	AA5KPO_11_004
@ 035   ----------------------------------------
	.byte	PATT
	 .word	AA5KPO_11_004
@ 036   ----------------------------------------
	.byte	PATT
	 .word	AA5KPO_11_004
@ 037   ----------------------------------------
	.byte	PATT
	 .word	AA5KPO_11_004
@ 038   ----------------------------------------
	.byte	PATT
	 .word	AA5KPO_11_004
@ 039   ----------------------------------------
	.byte		N23   , Bn0 , v096
	.byte	W96
@ 040   ----------------------------------------
	.byte	PATT
	 .word	AA5KPO_11_004
@ 041   ----------------------------------------
	.byte	W96
@ 042   ----------------------------------------
	.byte	W96
@ 043   ----------------------------------------
	.byte	W96
@ 044   ----------------------------------------
	.byte	W96
@ 045   ----------------------------------------
	.byte	PATT
	 .word	AA5KPO_11_004
@ 046   ----------------------------------------
	.byte	PATT
	 .word	AA5KPO_11_004
@ 047   ----------------------------------------
	.byte	PATT
	 .word	AA5KPO_11_004
AA5KPO_11_B1:
@ 048   ----------------------------------------
	.byte	PATT
	 .word	AA5KPO_11_004
@ 049   ----------------------------------------
	.byte	PATT
	 .word	AA5KPO_11_004
@ 050   ----------------------------------------
	.byte	PATT
	 .word	AA5KPO_11_004
@ 051   ----------------------------------------
	.byte	PATT
	 .word	AA5KPO_11_004
@ 052   ----------------------------------------
	.byte	PATT
	 .word	AA5KPO_11_004
@ 053   ----------------------------------------
	.byte	PATT
	 .word	AA5KPO_11_004
@ 054   ----------------------------------------
	.byte	PATT
	 .word	AA5KPO_11_004
@ 055   ----------------------------------------
	.byte	PATT
	 .word	AA5KPO_11_004
@ 056   ----------------------------------------
	.byte	PATT
	 .word	AA5KPO_11_004
@ 057   ----------------------------------------
	.byte	PATT
	 .word	AA5KPO_11_004
@ 058   ----------------------------------------
	.byte	PATT
	 .word	AA5KPO_11_004
@ 059   ----------------------------------------
	.byte	PATT
	 .word	AA5KPO_11_004
@ 060   ----------------------------------------
	.byte	PATT
	 .word	AA5KPO_11_004
@ 061   ----------------------------------------
	.byte	PATT
	 .word	AA5KPO_11_004
@ 062   ----------------------------------------
	.byte	PATT
	 .word	AA5KPO_11_004
@ 063   ----------------------------------------
	.byte	PATT
	 .word	AA5KPO_11_004
@ 064   ----------------------------------------
	.byte	W96
@ 065   ----------------------------------------
	.byte	W96
@ 066   ----------------------------------------
	.byte	W96
@ 067   ----------------------------------------
	.byte	W96
@ 068   ----------------------------------------
	.byte	W96
@ 069   ----------------------------------------
	.byte	W96
@ 070   ----------------------------------------
	.byte	W96
@ 071   ----------------------------------------
	.byte	W96
@ 072   ----------------------------------------
	.byte	W96
@ 073   ----------------------------------------
	.byte	PATT
	 .word	AA5KPO_11_004
@ 074   ----------------------------------------
	.byte	PATT
	 .word	AA5KPO_11_004
@ 075   ----------------------------------------
	.byte	PATT
	 .word	AA5KPO_11_004
@ 076   ----------------------------------------
	.byte	PATT
	 .word	AA5KPO_11_004
@ 077   ----------------------------------------
	.byte	PATT
	 .word	AA5KPO_11_004
@ 078   ----------------------------------------
	.byte	PATT
	 .word	AA5KPO_11_004
@ 079   ----------------------------------------
	.byte	PATT
	 .word	AA5KPO_11_004
@ 080   ----------------------------------------
	.byte	PATT
	 .word	AA5KPO_11_004
@ 081   ----------------------------------------
	.byte	PATT
	 .word	AA5KPO_11_004
@ 082   ----------------------------------------
	.byte	PATT
	 .word	AA5KPO_11_004
@ 083   ----------------------------------------
	.byte		N23   , Bn0 , v096
	.byte	W96
@ 084   ----------------------------------------
	.byte	PATT
	 .word	AA5KPO_11_004
@ 085   ----------------------------------------
	.byte	W96
@ 086   ----------------------------------------
	.byte	W96
@ 087   ----------------------------------------
	.byte	W96
@ 088   ----------------------------------------
	.byte	W96
@ 089   ----------------------------------------
	.byte	PATT
	 .word	AA5KPO_11_004
@ 090   ----------------------------------------
	.byte	PATT
	 .word	AA5KPO_11_004
@ 091   ----------------------------------------
	.byte		N23   , Bn0 , v096
	.byte	W24
	.byte		N23   
	.byte	W24
	.byte		N23   
	.byte	W24
	.byte		N23   
	.byte	W23
	.byte	GOTO
	 .word	AA5KPO_11_B1
AA5KPO_11_B2:
	.byte	FINE

@**************** Track 12 (Midi-Chn.14) ****************@

AA5KPO_12:
	.byte	KEYSH , AA5KPO_key+0
@ 000   ----------------------------------------
	.byte		VOICE , 40
	.byte		VOL   , 127*AA5KPO_mvl/mxv
	.byte		PAN   , c_v+0
	.byte		VOL   , 100*AA5KPO_mvl/mxv
	.byte		PAN   , c_v+0
	.byte		VOL   , 100*AA5KPO_mvl/mxv
	.byte		PAN   , c_v+0
	.byte		VOL   , 127*AA5KPO_mvl/mxv
	.byte		PAN   , c_v+0
	.byte		VOL   , 127*AA5KPO_mvl/mxv
	.byte		PAN   , c_v+0
	.byte		VOL   , 127*AA5KPO_mvl/mxv
	.byte		PAN   , c_v+0
	.byte	W36
	.byte		N01   , Cn4 , v080
	.byte		N01   , Cs4 
	.byte	W01
	.byte		        Dn4 
	.byte	W02
	.byte		        Ds4 
	.byte		N01   , En4 
	.byte	W01
	.byte		        Fn4 
	.byte	W02
	.byte		        Fs4 
	.byte		N01   , Gn4 
	.byte	W01
	.byte		        Gs4 
	.byte	W02
	.byte		        An4 
	.byte		N01   , As4 
	.byte	W01
	.byte		        Bn4 
	.byte	W02
@ 001   ----------------------------------------
	.byte		N11   , Cn4 , v127
	.byte		N11   , Cn5 
	.byte	W96
@ 002   ----------------------------------------
	.byte	W72
	.byte		        Cn3 , v080
	.byte	W12
	.byte		        Gn3 
	.byte	W12
@ 003   ----------------------------------------
	.byte		N17   
	.byte		N36   , Cn4 
	.byte	W18
	.byte		N17   , Dn4 , v084
	.byte	W18
	.byte		N11   , Cn4 , v088
	.byte	W12
	.byte		N17   , Gn3 , v108
	.byte		N17   , Gn4 
	.byte	W18
	.byte		        Cn4 , v112
	.byte		N17   , Cn5 
	.byte	W18
	.byte		N11   , Gn4 
	.byte		N11   , Gn5 
	.byte	W12
@ 004   ----------------------------------------
AA5KPO_12_004:
	.byte	W48
	.byte		N11   , Gn3 , v096
	.byte		N11   , Gn4 
	.byte	W12
	.byte		        Fn3 
	.byte		N11   , Fn4 
	.byte	W12
	.byte		        Gn3 
	.byte		N11   , Gn4 
	.byte	W12
	.byte		        Gs3 
	.byte		N11   , Gs4 
	.byte	W12
	.byte	PEND
@ 005   ----------------------------------------
AA5KPO_12_005:
	.byte		N32   , Gn3 , v096
	.byte		N32   , Gn4 
	.byte	W36
	.byte		N23   , Cn4 
	.byte		N23   , Cn5 
	.byte	W24
	.byte		N11   , Gn3 
	.byte		N11   , Gn4 
	.byte	W12
	.byte		        Fn3 
	.byte		N11   , Fn4 
	.byte	W12
	.byte		N44   , Gn3 
	.byte		N44   , Gn4 
	.byte	W12
	.byte	PEND
@ 006   ----------------------------------------
AA5KPO_12_006:
	.byte	W36
	.byte		N23   , Cn3 , v096
	.byte		N23   , Cn4 
	.byte	W24
	.byte		N11   , Dn3 
	.byte		N11   , Dn4 
	.byte	W12
	.byte		        Ds3 
	.byte		N11   , Ds4 
	.byte	W12
	.byte		        Fn3 
	.byte		N11   , Fn4 
	.byte	W12
	.byte	PEND
@ 007   ----------------------------------------
AA5KPO_12_007:
	.byte		N56   , Gn3 , v096
	.byte		N56   , Gn4 
	.byte	W60
	.byte		N11   , Fn3 
	.byte		N11   , Fn4 
	.byte	W12
	.byte		        Gn3 
	.byte		N11   , Gn4 
	.byte	W12
	.byte		N56   , Cn3 
	.byte		N56   , Cn4 
	.byte	W12
	.byte	PEND
@ 008   ----------------------------------------
AA5KPO_12_008:
	.byte	W48
	.byte		N11   , Cn3 , v096
	.byte		N11   , Cn4 
	.byte	W12
	.byte		        Dn3 
	.byte		N11   , Dn4 
	.byte	W12
	.byte		        Ds3 
	.byte		N11   , Ds4 
	.byte	W12
	.byte		        Fn3 
	.byte		N11   , Fn4 
	.byte	W12
	.byte	PEND
@ 009   ----------------------------------------
	.byte	PATT
	 .word	AA5KPO_12_005
@ 010   ----------------------------------------
AA5KPO_12_010:
	.byte	W36
	.byte		N11   , Gn3 , v096
	.byte		N11   , Gn4 
	.byte	W12
	.byte		        Gn3 
	.byte		N11   , Gn4 
	.byte	W12
	.byte		        Fn3 
	.byte		N11   , Fn4 
	.byte	W12
	.byte		        Gn3 
	.byte		N11   , Gn4 
	.byte	W12
	.byte		        Gs3 
	.byte		N11   , Gs4 
	.byte	W12
	.byte	PEND
@ 011   ----------------------------------------
AA5KPO_12_011:
	.byte		N23   , Gn3 , v096
	.byte		N23   , Gn4 
	.byte	W24
	.byte		        Gn3 
	.byte		N23   , Cn5 
	.byte	W24
	.byte		N15   , Gn3 
	.byte		N15   , Dn5 
	.byte	W16
	.byte		        Fn3 
	.byte		N15   , Ds5 
	.byte	W16
	.byte		TIE   , Gn3 
	.byte		TIE   , Cn5 
	.byte	W16
	.byte	PEND
@ 012   ----------------------------------------
	.byte	W92
	.byte	W03
	.byte		EOT   , Gn3 
	.byte		        Cn5 
	.byte	W01
@ 013   ----------------------------------------
	.byte	W96
@ 014   ----------------------------------------
AA5KPO_12_014:
	.byte		N23   , Cn3 , v096
	.byte		N23   , Cn4 
	.byte	W24
	.byte		N11   , Dn3 , v100
	.byte		N11   , Dn4 
	.byte	W12
	.byte		        Ds3 
	.byte		N11   , Ds4 
	.byte	W12
	.byte		N15   , Fn3 
	.byte		N15   , Fn4 
	.byte	W16
	.byte		        Ds3 , v104
	.byte		N15   , Ds4 
	.byte	W16
	.byte		        Fn3 
	.byte		N15   , Fn4 
	.byte	W16
	.byte	PEND
@ 015   ----------------------------------------
AA5KPO_12_015:
	.byte		N80   , Gs3 , v104
	.byte		N80   , Gs4 
	.byte	W84
	.byte		N05   , Gn3 , v112
	.byte		N05   , Gn4 
	.byte	W06
	.byte		        Gs3 
	.byte		N05   , Gs4 
	.byte	W06
	.byte	PEND
@ 016   ----------------------------------------
AA5KPO_12_016:
	.byte		N44   , As3 , v112
	.byte		N44   , As4 
	.byte	W48
	.byte		        Gn3 
	.byte		N44   , Gn4 
	.byte	W48
	.byte	PEND
@ 017   ----------------------------------------
AA5KPO_12_017:
	.byte		TIE   , Gn3 , v112
	.byte		TIE   , Gn4 
	.byte	W96
	.byte	PEND
@ 018   ----------------------------------------
	.byte	W92
	.byte	W03
	.byte		EOT   , Gn3 
	.byte		        Gn4 
	.byte	W01
@ 019   ----------------------------------------
AA5KPO_12_019:
	.byte	W84
	.byte		N05   , Cn4 , v096
	.byte		N05   , Cn5 , v116
	.byte	W12
	.byte	PEND
@ 020   ----------------------------------------
	.byte	W96
@ 021   ----------------------------------------
AA5KPO_12_021:
	.byte		N05   , Fn3 , v096
	.byte		N05   , Cs4 , v116
	.byte	W12
	.byte		        Fn3 , v080
	.byte		N05   , Cs4 , v096
	.byte	W12
	.byte		        Fs3 , v080
	.byte	W24
	.byte		N02   , Ds3 , v096
	.byte	W18
	.byte		        Fn3 
	.byte	W18
	.byte		N02   
	.byte	W12
	.byte	PEND
@ 022   ----------------------------------------
AA5KPO_12_022:
	.byte	W12
	.byte		N05   , Fn3 , v080
	.byte	W12
	.byte		        Fs3 
	.byte	W24
	.byte		        Ds3 , v096
	.byte	W18
	.byte		        Fn3 
	.byte	W30
	.byte	PEND
@ 023   ----------------------------------------
	.byte	PATT
	 .word	AA5KPO_12_021
@ 024   ----------------------------------------
	.byte	PATT
	 .word	AA5KPO_12_022
@ 025   ----------------------------------------
AA5KPO_12_025:
	.byte		N05   , Ds3 , v096
	.byte		N05   , Ds4 , v116
	.byte	W12
	.byte		        Ds3 , v080
	.byte		N05   , Ds4 , v096
	.byte	W12
	.byte		        Fn3 , v080
	.byte	W24
	.byte		N02   , Cs3 , v096
	.byte	W18
	.byte		        Ds3 
	.byte	W18
	.byte		N02   
	.byte	W12
	.byte	PEND
@ 026   ----------------------------------------
AA5KPO_12_026:
	.byte	W12
	.byte		N05   , Ds3 , v080
	.byte	W12
	.byte		        Fn3 
	.byte	W24
	.byte		        Cs3 , v096
	.byte	W18
	.byte		        Ds3 
	.byte	W30
	.byte	PEND
@ 027   ----------------------------------------
	.byte	PATT
	 .word	AA5KPO_12_025
@ 028   ----------------------------------------
	.byte	PATT
	 .word	AA5KPO_12_026
@ 029   ----------------------------------------
AA5KPO_12_029:
	.byte		N23   , As3 , v096
	.byte	W12
	.byte		N11   , Fn4 , v052
	.byte	W12
	.byte		N23   , As3 , v096
	.byte	W12
	.byte		N11   , Fn4 , v052
	.byte	W12
	.byte		        As3 , v096
	.byte	W12
	.byte		        Gs3 
	.byte		N11   , Fn4 , v052
	.byte	W12
	.byte		        As3 , v096
	.byte	W12
	.byte		N24   , Fn4 , v052
	.byte	W12
	.byte	PEND
@ 030   ----------------------------------------
AA5KPO_12_030:
	.byte	W12
	.byte		N23   , Fn4 , v052
	.byte	W24
	.byte		        Ds4 , v096
	.byte		N11   , Fn4 , v052
	.byte	W12
	.byte		N11   
	.byte	W12
	.byte		        Cs4 , v096
	.byte		N11   , Fn4 , v052
	.byte	W12
	.byte		N23   , Ds4 , v096
	.byte		N11   , Fn4 , v052
	.byte	W12
	.byte		N11   
	.byte	W12
	.byte	PEND
@ 031   ----------------------------------------
AA5KPO_12_031:
	.byte		N11   , As3 , v096
	.byte	W12
	.byte		        Gs3 
	.byte		N11   , Ds4 , v052
	.byte	W12
	.byte		N32   , Fn4 , v096
	.byte	W12
	.byte		N11   , Ds4 , v052
	.byte	W24
	.byte		N11   
	.byte	W12
	.byte		        Fn4 , v096
	.byte	W12
	.byte		        Ds4 , v052
	.byte		N44   , As4 , v096
	.byte	W12
	.byte	PEND
@ 032   ----------------------------------------
AA5KPO_12_032:
	.byte	W12
	.byte		N11   , Ds4 , v052
	.byte	W24
	.byte		N11   
	.byte		N23   , Fn4 , v096
	.byte	W12
	.byte		N11   , Ds4 , v052
	.byte	W12
	.byte		N11   
	.byte	W12
	.byte		N11   
	.byte		N23   , Fn4 , v096
	.byte	W12
	.byte		N11   , Ds4 , v052
	.byte	W12
	.byte	PEND
@ 033   ----------------------------------------
AA5KPO_12_033:
	.byte		N23   , Gs3 , v096
	.byte		N11   , Fs4 , v052
	.byte	W24
	.byte		N32   , Ds4 , v096
	.byte	W12
	.byte		N11   , Fs4 , v052
	.byte	W24
	.byte		        Cs4 , v096
	.byte		N11   , Fs4 , v052
	.byte	W12
	.byte		        Ds4 , v096
	.byte	W12
	.byte		        Fs4 , v052
	.byte		N44   , Gs4 , v096
	.byte	W12
	.byte	PEND
@ 034   ----------------------------------------
AA5KPO_12_034:
	.byte		N11   , Fs4 , v052
	.byte	W12
	.byte		N11   
	.byte	W12
	.byte		N11   
	.byte	W12
	.byte		N23   , Ds4 , v096
	.byte		N11   , Fs4 , v052
	.byte	W12
	.byte		N11   
	.byte	W12
	.byte		        Cs4 , v096
	.byte		N11   , Fs4 , v052
	.byte	W12
	.byte		N23   , Ds4 , v096
	.byte		N11   , Fs4 , v052
	.byte	W12
	.byte		N11   
	.byte	W12
	.byte	PEND
@ 035   ----------------------------------------
AA5KPO_12_035:
	.byte		N11   , En4 , v052
	.byte	W12
	.byte		        Dn4 , v096
	.byte	W12
	.byte		N32   , Bn4 
	.byte	W12
	.byte		N11   , En4 , v052
	.byte	W24
	.byte		N11   
	.byte		N11   , An4 , v096
	.byte	W12
	.byte		        Bn4 
	.byte	W12
	.byte		        En4 , v052
	.byte		N44   , En5 , v096
	.byte	W12
	.byte	PEND
@ 036   ----------------------------------------
AA5KPO_12_036:
	.byte		N11   , En4 , v052
	.byte	W12
	.byte		N11   
	.byte	W12
	.byte		N11   
	.byte	W12
	.byte		N11   
	.byte		N23   , Bn4 , v096
	.byte	W12
	.byte		N11   , En4 , v060
	.byte	W12
	.byte		        En4 , v068
	.byte		N11   , An4 , v096
	.byte	W12
	.byte		        En4 , v080
	.byte		N23   , Bn4 , v096
	.byte	W12
	.byte		N11   , En4 , v088
	.byte	W12
	.byte	PEND
@ 037   ----------------------------------------
AA5KPO_12_037:
	.byte		N32   , Fn4 , v096
	.byte		N32   , An4 
	.byte	W36
	.byte		N23   , Gn4 
	.byte		N23   , Bn4 
	.byte	W24
	.byte		        An4 
	.byte		N23   , Cn5 
	.byte	W24
	.byte		N11   , Cn4 
	.byte		N11   , En4 
	.byte	W12
	.byte	PEND
@ 038   ----------------------------------------
AA5KPO_12_038:
	.byte		N32   , Ds4 , v096
	.byte		N32   , Fs4 
	.byte	W36
	.byte		N23   , En4 
	.byte		N23   , Gs4 
	.byte	W24
	.byte		N32   , Fs4 
	.byte		N32   , An4 
	.byte	W36
	.byte	PEND
@ 039   ----------------------------------------
	.byte		N92   , Gn3 
	.byte		N92   , Gn4 
	.byte	W96
@ 040   ----------------------------------------
AA5KPO_12_040:
	.byte		N05   , Gn4 , v096
	.byte		N05   , Gn5 
	.byte	W06
	.byte		        Gn4 
	.byte		N05   , Gn5 
	.byte	W06
	.byte		        Gn4 
	.byte		N05   , Gn5 
	.byte	W06
	.byte		        Gn4 
	.byte		N05   , Gn5 
	.byte	W06
	.byte		        Gn4 
	.byte		N05   , Gn5 
	.byte	W06
	.byte		        Gn4 
	.byte		N05   , Gn5 
	.byte	W06
	.byte		        Gn4 
	.byte		N05   , Gn5 
	.byte	W06
	.byte		        Gn4 
	.byte		N05   , Gn5 
	.byte	W06
	.byte		        Gn4 
	.byte		N05   , Gn5 
	.byte	W06
	.byte		        Gn4 
	.byte		N05   , Gn5 
	.byte	W06
	.byte		        Gn4 
	.byte		N05   , Gn5 
	.byte	W06
	.byte		        Gn4 
	.byte		N05   , Gn5 
	.byte	W06
	.byte		        Gn4 
	.byte		N05   , Gn5 
	.byte	W06
	.byte		        Gn4 
	.byte		N05   , Gn5 
	.byte	W06
	.byte		        Gn4 
	.byte		N05   , Gn5 
	.byte	W06
	.byte		        Gn4 
	.byte		N05   , Gn5 
	.byte	W06
	.byte	PEND
@ 041   ----------------------------------------
	.byte	W96
@ 042   ----------------------------------------
	.byte	W96
@ 043   ----------------------------------------
	.byte	W96
@ 044   ----------------------------------------
AA5KPO_12_044:
	.byte	W72
	.byte		N01   , Cn3 , v096
	.byte		N01   , Cn4 
	.byte	W01
	.byte		        Cs3 
	.byte		N01   , Cs4 
	.byte	W02
	.byte		        Dn3 
	.byte		N01   , Dn4 
	.byte	W03
	.byte		        Ds3 
	.byte		N01   , Ds4 
	.byte	W01
	.byte		        En3 
	.byte		N01   , En4 
	.byte	W02
	.byte		        Fn3 
	.byte		N01   , Fn4 
	.byte	W03
	.byte		        Fs3 
	.byte		N01   , Fs4 
	.byte	W01
	.byte		        Gn3 
	.byte		N01   , Gn4 
	.byte	W02
	.byte		        Gs3 
	.byte		N01   , Gs4 
	.byte	W03
	.byte		        An3 
	.byte		N01   , An4 
	.byte	W01
	.byte		        As3 
	.byte		N01   , As4 
	.byte	W02
	.byte		        Bn3 
	.byte		N01   , Bn4 
	.byte	W03
	.byte	PEND
@ 045   ----------------------------------------
AA5KPO_12_045:
	.byte		N11   , Cn4 , v112
	.byte		N11   , Cn5 
	.byte	W24
	.byte		        Cn4 , v127
	.byte		N11   , Cn5 
	.byte	W48
	.byte		        Cn4 
	.byte		N11   , Cn5 
	.byte	W24
	.byte	PEND
@ 046   ----------------------------------------
AA5KPO_12_046:
	.byte	W24
	.byte		N11   , Cn4 , v127
	.byte		N11   , Cn5 
	.byte	W48
	.byte		        Cn4 
	.byte		N11   , Cn5 
	.byte	W24
	.byte	PEND
@ 047   ----------------------------------------
	.byte	W24
	.byte		        Cn4 
	.byte		N11   , Cn5 
	.byte	W60
	.byte		        Cn4 
	.byte		N11   , Cn5 
	.byte	W12
AA5KPO_12_B1:
@ 048   ----------------------------------------
	.byte	PATT
	 .word	AA5KPO_12_004
@ 049   ----------------------------------------
	.byte	PATT
	 .word	AA5KPO_12_005
@ 050   ----------------------------------------
	.byte	PATT
	 .word	AA5KPO_12_006
@ 051   ----------------------------------------
	.byte	PATT
	 .word	AA5KPO_12_007
@ 052   ----------------------------------------
	.byte	PATT
	 .word	AA5KPO_12_008
@ 053   ----------------------------------------
	.byte	PATT
	 .word	AA5KPO_12_005
@ 054   ----------------------------------------
	.byte	PATT
	 .word	AA5KPO_12_010
@ 055   ----------------------------------------
	.byte	PATT
	 .word	AA5KPO_12_011
@ 056   ----------------------------------------
	.byte	W92
	.byte	W03
	.byte		EOT   , Gn3 
	.byte		        Cn5 
	.byte	W01
@ 057   ----------------------------------------
	.byte	W96
@ 058   ----------------------------------------
	.byte	PATT
	 .word	AA5KPO_12_014
@ 059   ----------------------------------------
	.byte	PATT
	 .word	AA5KPO_12_015
@ 060   ----------------------------------------
	.byte	PATT
	 .word	AA5KPO_12_016
@ 061   ----------------------------------------
	.byte	PATT
	 .word	AA5KPO_12_017
@ 062   ----------------------------------------
	.byte	W92
	.byte	W03
	.byte		EOT   , Gn3 
	.byte		        Gn4 
	.byte	W01
@ 063   ----------------------------------------
	.byte	PATT
	 .word	AA5KPO_12_019
@ 064   ----------------------------------------
	.byte	W96
@ 065   ----------------------------------------
	.byte	PATT
	 .word	AA5KPO_12_021
@ 066   ----------------------------------------
	.byte	PATT
	 .word	AA5KPO_12_022
@ 067   ----------------------------------------
	.byte	PATT
	 .word	AA5KPO_12_021
@ 068   ----------------------------------------
	.byte	PATT
	 .word	AA5KPO_12_022
@ 069   ----------------------------------------
	.byte	PATT
	 .word	AA5KPO_12_025
@ 070   ----------------------------------------
	.byte	PATT
	 .word	AA5KPO_12_026
@ 071   ----------------------------------------
	.byte	PATT
	 .word	AA5KPO_12_025
@ 072   ----------------------------------------
	.byte	PATT
	 .word	AA5KPO_12_026
@ 073   ----------------------------------------
	.byte	PATT
	 .word	AA5KPO_12_029
@ 074   ----------------------------------------
	.byte	PATT
	 .word	AA5KPO_12_030
@ 075   ----------------------------------------
	.byte	PATT
	 .word	AA5KPO_12_031
@ 076   ----------------------------------------
	.byte	PATT
	 .word	AA5KPO_12_032
@ 077   ----------------------------------------
	.byte	PATT
	 .word	AA5KPO_12_033
@ 078   ----------------------------------------
	.byte	PATT
	 .word	AA5KPO_12_034
@ 079   ----------------------------------------
	.byte	PATT
	 .word	AA5KPO_12_035
@ 080   ----------------------------------------
	.byte	PATT
	 .word	AA5KPO_12_036
@ 081   ----------------------------------------
	.byte	PATT
	 .word	AA5KPO_12_037
@ 082   ----------------------------------------
	.byte	PATT
	 .word	AA5KPO_12_038
@ 083   ----------------------------------------
	.byte		N92   , Gn3 , v096
	.byte		N92   , Gn4 
	.byte	W96
@ 084   ----------------------------------------
	.byte	PATT
	 .word	AA5KPO_12_040
@ 085   ----------------------------------------
	.byte	W96
@ 086   ----------------------------------------
	.byte	W96
@ 087   ----------------------------------------
	.byte	W96
@ 088   ----------------------------------------
	.byte	PATT
	 .word	AA5KPO_12_044
@ 089   ----------------------------------------
	.byte	PATT
	 .word	AA5KPO_12_045
@ 090   ----------------------------------------
	.byte	PATT
	 .word	AA5KPO_12_046
@ 091   ----------------------------------------
	.byte	W24
	.byte		N11   , Cn4 , v127
	.byte		N11   , Cn5 
	.byte	W60
	.byte		        Cn4 
	.byte		N11   , Cn5 
	.byte	W11
	.byte	GOTO
	 .word	AA5KPO_12_B1
AA5KPO_12_B2:
	.byte	FINE

@**************** Track 13 (Midi-Chn.15) ****************@

AA5KPO_13:
	.byte	KEYSH , AA5KPO_key+0
@ 000   ----------------------------------------
	.byte		VOICE , 42
	.byte		VOL   , 127*AA5KPO_mvl/mxv
	.byte		PAN   , c_v+0
	.byte		VOL   , 127*AA5KPO_mvl/mxv
	.byte		PAN   , c_v+0
	.byte		VOL   , 127*AA5KPO_mvl/mxv
	.byte		PAN   , c_v+0
	.byte		VOL   , 127*AA5KPO_mvl/mxv
	.byte		PAN   , c_v+0
	.byte		VOL   , 127*AA5KPO_mvl/mxv
	.byte		PAN   , c_v+0
	.byte		VOL   , 127*AA5KPO_mvl/mxv
	.byte		PAN   , c_v+0
	.byte		VOL   , 127*AA5KPO_mvl/mxv
	.byte		PAN   , c_v+0
	.byte		VOL   , 127*AA5KPO_mvl/mxv
	.byte		PAN   , c_v+0
	.byte		VOL   , 127*AA5KPO_mvl/mxv
	.byte		PAN   , c_v+0
	.byte	W36
	.byte		N01   , Cn2 , v080
	.byte		N01   , Cs2 
	.byte	W01
	.byte		        Dn2 
	.byte	W02
	.byte		        Ds2 
	.byte		N01   , En2 
	.byte	W01
	.byte		        Fn2 
	.byte	W02
	.byte		        Fs2 
	.byte		N01   , Gn2 
	.byte	W01
	.byte		        Gs2 
	.byte	W02
	.byte		        An2 
	.byte		N01   , As2 
	.byte	W01
	.byte		        Bn2 
	.byte	W02
@ 001   ----------------------------------------
	.byte		N11   , Cn1 , v127
	.byte		N11   , Cn2 
	.byte		N11   , Cn3 
	.byte	W96
@ 002   ----------------------------------------
	.byte		TIE   , Cn1 , v080
	.byte		TIE   , Cn2 
	.byte		TIE   , Cn3 
	.byte	W96
@ 003   ----------------------------------------
	.byte	W80
	.byte	W03
	.byte		EOT   , Cn1 
	.byte		        Cn2 
	.byte		        Cn3 
	.byte	W01
	.byte		N05   , Cn1 , v116
	.byte		N05   , Cn2 
	.byte		N05   , Cn3 , v096
	.byte	W12
@ 004   ----------------------------------------
	.byte	W96
@ 005   ----------------------------------------
AA5KPO_13_005:
	.byte		N11   , Cn1 , v096
	.byte		N11   , Gn2 , v116
	.byte		N11   , Ds3 
	.byte	W12
	.byte		N05   , Gn2 , v096
	.byte		N05   , Ds3 
	.byte	W12
	.byte		N11   , Cn1 
	.byte		N05   , An2 
	.byte		N05   , Fn3 
	.byte	W24
	.byte		N11   , Cn1 
	.byte		N02   , Ds2 , v116
	.byte		N02   , Dn3 
	.byte	W18
	.byte		        Ds2 
	.byte		N05   , Dn3 
	.byte	W06
	.byte		N11   , Cn1 , v096
	.byte	W12
	.byte		N02   , Fn2 , v116
	.byte		N05   , Ds3 
	.byte	W12
	.byte	PEND
@ 006   ----------------------------------------
AA5KPO_13_006:
	.byte		N11   , Cn1 , v096
	.byte	W12
	.byte		N05   , Gn2 
	.byte		N05   , Ds3 
	.byte	W12
	.byte		N11   , Cn1 
	.byte		N05   , An2 
	.byte		N05   , Fn3 
	.byte	W24
	.byte		N11   , Cn1 
	.byte		N02   , Ds2 , v116
	.byte		N05   , Dn3 
	.byte	W18
	.byte		N02   , Fn2 
	.byte		N05   , Ds3 
	.byte	W06
	.byte		N11   , Cn1 , v096
	.byte	W12
	.byte		        As0 
	.byte	W12
	.byte	PEND
@ 007   ----------------------------------------
AA5KPO_13_007:
	.byte		N11   , Gs0 , v096
	.byte		N05   , Gn2 , v116
	.byte		N05   , Ds3 
	.byte	W12
	.byte		        Gn2 , v096
	.byte		N05   , Ds3 
	.byte	W12
	.byte		N11   , Gs0 
	.byte		N05   , Gs2 
	.byte		N05   , Fn3 
	.byte	W24
	.byte		N11   , Gs0 
	.byte		N02   , Ds2 , v116
	.byte		N02   , Dn3 
	.byte	W18
	.byte		        Ds2 
	.byte		N05   , Dn3 
	.byte	W06
	.byte		N11   , Gs0 , v096
	.byte	W12
	.byte		N02   , Fn2 , v116
	.byte		N05   , Ds3 
	.byte	W12
	.byte	PEND
@ 008   ----------------------------------------
AA5KPO_13_008:
	.byte		N11   , Gs0 , v096
	.byte	W12
	.byte		N05   , Gn2 
	.byte		N05   , Ds3 
	.byte	W12
	.byte		N11   , Gs0 
	.byte		N05   , Gs2 
	.byte		N05   , Fn3 
	.byte	W24
	.byte		N11   , Gs0 
	.byte		N02   , Ds2 , v116
	.byte		N05   , Dn3 
	.byte	W18
	.byte		N02   , Fn2 
	.byte		N05   , Ds3 
	.byte	W06
	.byte		N11   , Gs0 , v096
	.byte	W12
	.byte		        Gn0 
	.byte	W12
	.byte	PEND
@ 009   ----------------------------------------
AA5KPO_13_009:
	.byte		N11   , Cn1 , v096
	.byte		N05   , Gn2 , v116
	.byte		N05   , Ds3 
	.byte	W12
	.byte		        Gn2 , v096
	.byte		N05   , Ds3 
	.byte	W12
	.byte		N11   , Cn1 
	.byte		N05   , An2 
	.byte		N05   , Fn3 
	.byte	W24
	.byte		N11   , Cn1 
	.byte		N02   , Ds2 , v116
	.byte		N02   , Dn3 
	.byte	W18
	.byte		        Ds2 
	.byte		N05   , Dn3 
	.byte	W06
	.byte		N11   , Cn1 , v096
	.byte	W12
	.byte		N02   , Fn2 , v116
	.byte		N05   , Ds3 
	.byte	W12
	.byte	PEND
@ 010   ----------------------------------------
	.byte	PATT
	 .word	AA5KPO_13_006
@ 011   ----------------------------------------
	.byte	PATT
	 .word	AA5KPO_13_007
@ 012   ----------------------------------------
	.byte	PATT
	 .word	AA5KPO_13_008
@ 013   ----------------------------------------
AA5KPO_13_013:
	.byte		N92   , Fn0 , v096
	.byte		N23   , Ds2 
	.byte		N23   , Ds3 
	.byte	W24
	.byte		N11   , Fn2 , v100
	.byte		N11   , Fn3 
	.byte	W12
	.byte		        Gn2 
	.byte		N11   , Gn3 
	.byte	W12
	.byte		N15   , As2 
	.byte		N15   , As3 
	.byte	W16
	.byte		        Gs2 
	.byte		N15   , Gs3 
	.byte	W16
	.byte		        Gn2 
	.byte		N15   , Gn3 
	.byte	W16
	.byte	PEND
@ 014   ----------------------------------------
AA5KPO_13_014:
	.byte		N92   , Fn0 , v104
	.byte		N92   , Fn2 
	.byte		N92   , Fn3 
	.byte	W96
	.byte	PEND
@ 015   ----------------------------------------
AA5KPO_13_015:
	.byte		N92   , Cs1 , v108
	.byte		N92   , Cs2 
	.byte		N80   , Fn3 
	.byte	W84
	.byte		N05   , Fn3 , v112
	.byte	W06
	.byte		        Gn3 
	.byte	W06
	.byte	PEND
@ 016   ----------------------------------------
AA5KPO_13_016:
	.byte		N44   , Cs1 , v112
	.byte		N44   , Cs2 
	.byte		N44   , Fn3 
	.byte		N44   , Gs3 
	.byte	W48
	.byte		        Cs1 
	.byte		N44   , Cs2 
	.byte		N44   , Cs3 
	.byte		N44   , Gn3 
	.byte	W48
	.byte	PEND
@ 017   ----------------------------------------
AA5KPO_13_017:
	.byte		TIE   , Cn1 , v112
	.byte		TIE   , Cn2 
	.byte		TIE   , Ds3 
	.byte		TIE   , Gn3 
	.byte	W96
	.byte	PEND
@ 018   ----------------------------------------
	.byte	W92
	.byte	W03
	.byte		EOT   , Ds3 
	.byte		        Gn3 
	.byte	W01
@ 019   ----------------------------------------
	.byte	W80
	.byte	W03
	.byte		        Cn1 
	.byte		        Cn2 
	.byte	W01
	.byte		N05   , Cn1 
	.byte		N05   , Cn2 
	.byte		N05   , Cn3 , v096
	.byte	W12
@ 020   ----------------------------------------
	.byte	W96
@ 021   ----------------------------------------
AA5KPO_13_021:
	.byte		N05   , Fs1 , v127
	.byte		N05   , Cn3 , v096
	.byte	W12
	.byte		        Fs1 , v112
	.byte		N05   , Cn3 , v080
	.byte	W12
	.byte		        Cs3 
	.byte	W24
	.byte		N02   , As2 , v096
	.byte	W18
	.byte		        Cn3 
	.byte	W18
	.byte		N02   
	.byte	W12
	.byte	PEND
@ 022   ----------------------------------------
AA5KPO_13_022:
	.byte	W12
	.byte		N05   , Cn3 , v080
	.byte	W12
	.byte		        Cs3 
	.byte	W24
	.byte		        As2 , v096
	.byte	W18
	.byte		        Cn3 
	.byte	W30
	.byte	PEND
@ 023   ----------------------------------------
	.byte	PATT
	 .word	AA5KPO_13_021
@ 024   ----------------------------------------
	.byte	PATT
	 .word	AA5KPO_13_022
@ 025   ----------------------------------------
AA5KPO_13_025:
	.byte		N05   , Ds1 , v127
	.byte		N05   , As2 , v096
	.byte	W12
	.byte		        Ds1 , v112
	.byte		N05   , As2 , v080
	.byte	W12
	.byte		        Cn3 
	.byte	W24
	.byte		N02   , Gs2 , v096
	.byte	W18
	.byte		        As2 
	.byte	W18
	.byte		N02   
	.byte	W12
	.byte	PEND
@ 026   ----------------------------------------
AA5KPO_13_026:
	.byte	W12
	.byte		N05   , As2 , v080
	.byte	W12
	.byte		        Cn3 
	.byte	W24
	.byte		        Gs2 , v096
	.byte	W18
	.byte		        As2 
	.byte	W30
	.byte	PEND
@ 027   ----------------------------------------
	.byte	PATT
	 .word	AA5KPO_13_025
@ 028   ----------------------------------------
	.byte	PATT
	 .word	AA5KPO_13_026
@ 029   ----------------------------------------
AA5KPO_13_029:
	.byte		N11   , Bn0 , v096
	.byte		N23   , As2 
	.byte	W12
	.byte		N11   , Cs4 , v052
	.byte	W12
	.byte		        Bn0 , v096
	.byte		N23   , As2 
	.byte	W12
	.byte		N11   , Cs4 , v052
	.byte	W12
	.byte		        Bn0 , v096
	.byte		N11   , As2 
	.byte	W12
	.byte		        Gs2 
	.byte		N11   , Cs4 , v052
	.byte	W12
	.byte		        Bn0 , v096
	.byte		N11   , As2 
	.byte	W12
	.byte		N44   , Fn3 
	.byte		N11   , Cs4 , v052
	.byte	W12
	.byte	PEND
@ 030   ----------------------------------------
AA5KPO_13_030:
	.byte		N11   , Bn0 , v096
	.byte	W12
	.byte		        Cs4 , v052
	.byte	W12
	.byte		        Bn0 , v096
	.byte	W12
	.byte		N23   , Ds3 
	.byte		N11   , Cs4 , v052
	.byte	W12
	.byte		        Bn0 , v096
	.byte		N11   , Cs4 , v052
	.byte	W12
	.byte		        Cs3 , v096
	.byte		N11   , Cs4 , v052
	.byte	W12
	.byte		        Bn0 , v096
	.byte		N23   , Ds3 
	.byte		N11   , Cs4 , v052
	.byte	W12
	.byte		N11   
	.byte	W12
	.byte	PEND
@ 031   ----------------------------------------
AA5KPO_13_031:
	.byte		N11   , Gs0 , v096
	.byte		N11   , As2 
	.byte	W12
	.byte		        Gs2 
	.byte		N11   , Cn4 , v052
	.byte	W12
	.byte		        Gs0 , v096
	.byte		N32   , Cn3 
	.byte	W12
	.byte		N11   , Cn4 , v052
	.byte	W12
	.byte		        Gs0 , v096
	.byte	W12
	.byte		        As2 
	.byte		N11   , Cn4 , v052
	.byte	W12
	.byte		        Gs0 , v096
	.byte		N11   , Cn3 
	.byte	W12
	.byte		N44   , Fn3 
	.byte		N11   , Cn4 , v052
	.byte	W12
	.byte	PEND
@ 032   ----------------------------------------
AA5KPO_13_032:
	.byte		N11   , Gs0 , v096
	.byte	W12
	.byte		        Cn4 , v052
	.byte	W12
	.byte		        Gs0 , v096
	.byte	W12
	.byte		N23   , Cn3 
	.byte		N11   , Cn4 , v052
	.byte	W12
	.byte		        Gs0 , v096
	.byte		N11   , Cn4 , v052
	.byte	W12
	.byte		        As2 , v096
	.byte		N11   , Cn4 , v052
	.byte	W12
	.byte		        Gs0 , v096
	.byte		N23   , Cn3 
	.byte		N11   , Cn4 , v052
	.byte	W12
	.byte		N11   
	.byte	W12
	.byte	PEND
@ 033   ----------------------------------------
AA5KPO_13_033:
	.byte		N11   , En1 , v096
	.byte		N23   , Gs2 
	.byte		N11   , Gs3 , v052
	.byte	W24
	.byte		        En1 , v096
	.byte		N32   , Ds3 
	.byte	W12
	.byte		N11   , Gs3 , v052
	.byte	W12
	.byte		        En1 , v096
	.byte	W12
	.byte		        Cs3 
	.byte		N11   , Gs3 , v052
	.byte	W12
	.byte		        En1 , v096
	.byte		N11   , Ds3 
	.byte	W12
	.byte		N12   , Gs3 
	.byte	W12
	.byte	PEND
@ 034   ----------------------------------------
AA5KPO_13_034:
	.byte		N11   , En1 , v096
	.byte		N12   , Gs3 , v052
	.byte	W12
	.byte		N12   
	.byte	W12
	.byte		N11   , En1 , v096
	.byte		N11   , Gs3 , v052
	.byte	W12
	.byte		N23   , Ds3 , v096
	.byte		N11   , Gs3 , v052
	.byte	W12
	.byte		        En1 , v096
	.byte		N11   , Gs3 , v052
	.byte	W12
	.byte		        Cs3 , v096
	.byte		N11   , Gs3 , v052
	.byte	W12
	.byte		        En1 , v096
	.byte		N23   , Ds3 
	.byte		N11   , Gs3 , v052
	.byte	W12
	.byte		N11   
	.byte	W12
	.byte	PEND
@ 035   ----------------------------------------
AA5KPO_13_035:
	.byte		N11   , Cn1 , v096
	.byte		N11   , En3 
	.byte		N11   , Bn3 , v052
	.byte	W12
	.byte		        Dn3 , v096
	.byte	W12
	.byte		        Cn1 
	.byte		N32   , Gn3 
	.byte	W12
	.byte		N11   , Bn3 , v052
	.byte	W12
	.byte		        Cn1 , v096
	.byte	W12
	.byte		        Fn3 
	.byte		N11   , Bn3 , v052
	.byte	W12
	.byte		        Cn1 , v096
	.byte		N11   , Gn3 
	.byte	W12
	.byte		N44   , An3 
	.byte		N11   , Bn3 , v052
	.byte	W12
	.byte	PEND
@ 036   ----------------------------------------
AA5KPO_13_036:
	.byte		N11   , Cn1 , v096
	.byte		N11   , Bn3 , v052
	.byte	W12
	.byte		N11   
	.byte	W12
	.byte		        Cn1 , v096
	.byte		N11   , Bn3 , v052
	.byte	W12
	.byte		N23   , Gn3 , v096
	.byte		N11   , Bn3 , v052
	.byte	W12
	.byte		        Cn1 , v096
	.byte		N11   , Bn3 , v060
	.byte	W12
	.byte		        Fn3 , v096
	.byte		N11   , Bn3 , v068
	.byte	W12
	.byte		        Cn1 , v096
	.byte		N23   , Gn3 
	.byte		N11   , Bn3 , v080
	.byte	W12
	.byte		        Bn3 , v088
	.byte	W12
	.byte	PEND
@ 037   ----------------------------------------
AA5KPO_13_037:
	.byte		N11   , Fn1 , v096
	.byte		N92   , An2 
	.byte		N92   , Cn4 
	.byte	W24
	.byte		N11   , Fn1 
	.byte	W24
	.byte		N11   
	.byte	W24
	.byte		N11   
	.byte	W24
	.byte	PEND
@ 038   ----------------------------------------
AA5KPO_13_038:
	.byte		N11   , Bn0 , v096
	.byte		N92   , Ds2 
	.byte		N92   , Bn3 
	.byte	W24
	.byte		N11   , Bn0 
	.byte	W24
	.byte		N11   
	.byte	W24
	.byte		N11   
	.byte	W24
	.byte	PEND
@ 039   ----------------------------------------
AA5KPO_13_039:
	.byte		N92   , Gn0 , v096
	.byte		N92   , Gn1 
	.byte		N92   , Gn2 
	.byte		N92   , Gn3 
	.byte	W96
	.byte	PEND
@ 040   ----------------------------------------
	.byte	PATT
	 .word	AA5KPO_13_039
@ 041   ----------------------------------------
AA5KPO_13_041:
	.byte		TIE   , Cn1 , v096
	.byte		TIE   , Cn2 
	.byte		TIE   , Cn3 
	.byte	W96
	.byte	PEND
@ 042   ----------------------------------------
	.byte	W96
@ 043   ----------------------------------------
	.byte	W96
@ 044   ----------------------------------------
	.byte	W92
	.byte	W03
	.byte		EOT   , Cn1 
	.byte		        Cn2 
	.byte		        Cn3 
	.byte	W01
@ 045   ----------------------------------------
AA5KPO_13_045:
	.byte	W24
	.byte		N11   , Cn1 , v127
	.byte		N11   , Cn2 
	.byte		N11   , Cn3 
	.byte	W48
	.byte		        Cn1 
	.byte		N11   , Cn2 
	.byte		N11   , Cn3 
	.byte	W24
	.byte	PEND
@ 046   ----------------------------------------
	.byte	PATT
	 .word	AA5KPO_13_045
@ 047   ----------------------------------------
	.byte	W24
	.byte		N11   , Cn1 , v127
	.byte		N11   , Cn2 
	.byte		N11   , Cn3 
	.byte	W60
	.byte		        Cn1 
	.byte		N11   , Cn2 
	.byte		N11   , Cn3 
	.byte	W12
AA5KPO_13_B1:
@ 048   ----------------------------------------
	.byte	W96
@ 049   ----------------------------------------
	.byte	PATT
	 .word	AA5KPO_13_005
@ 050   ----------------------------------------
	.byte	PATT
	 .word	AA5KPO_13_006
@ 051   ----------------------------------------
	.byte	PATT
	 .word	AA5KPO_13_007
@ 052   ----------------------------------------
	.byte	PATT
	 .word	AA5KPO_13_008
@ 053   ----------------------------------------
	.byte	PATT
	 .word	AA5KPO_13_009
@ 054   ----------------------------------------
	.byte	PATT
	 .word	AA5KPO_13_006
@ 055   ----------------------------------------
	.byte	PATT
	 .word	AA5KPO_13_007
@ 056   ----------------------------------------
	.byte	PATT
	 .word	AA5KPO_13_008
@ 057   ----------------------------------------
	.byte	PATT
	 .word	AA5KPO_13_013
@ 058   ----------------------------------------
	.byte	PATT
	 .word	AA5KPO_13_014
@ 059   ----------------------------------------
	.byte	PATT
	 .word	AA5KPO_13_015
@ 060   ----------------------------------------
	.byte	PATT
	 .word	AA5KPO_13_016
@ 061   ----------------------------------------
	.byte	PATT
	 .word	AA5KPO_13_017
@ 062   ----------------------------------------
	.byte	W92
	.byte	W03
	.byte		EOT   , Ds3 
	.byte		        Gn3 
	.byte	W01
@ 063   ----------------------------------------
	.byte	W80
	.byte	W03
	.byte		        Cn1 
	.byte		        Cn2 
	.byte	W01
	.byte		N05   , Cn1 , v112
	.byte		N05   , Cn2 
	.byte		N05   , Cn3 , v096
	.byte	W12
@ 064   ----------------------------------------
	.byte	W96
@ 065   ----------------------------------------
	.byte	PATT
	 .word	AA5KPO_13_021
@ 066   ----------------------------------------
	.byte	PATT
	 .word	AA5KPO_13_022
@ 067   ----------------------------------------
	.byte	PATT
	 .word	AA5KPO_13_021
@ 068   ----------------------------------------
	.byte	PATT
	 .word	AA5KPO_13_022
@ 069   ----------------------------------------
	.byte	PATT
	 .word	AA5KPO_13_025
@ 070   ----------------------------------------
	.byte	PATT
	 .word	AA5KPO_13_026
@ 071   ----------------------------------------
	.byte	PATT
	 .word	AA5KPO_13_025
@ 072   ----------------------------------------
	.byte	PATT
	 .word	AA5KPO_13_026
@ 073   ----------------------------------------
	.byte	PATT
	 .word	AA5KPO_13_029
@ 074   ----------------------------------------
	.byte	PATT
	 .word	AA5KPO_13_030
@ 075   ----------------------------------------
	.byte	PATT
	 .word	AA5KPO_13_031
@ 076   ----------------------------------------
	.byte	PATT
	 .word	AA5KPO_13_032
@ 077   ----------------------------------------
	.byte	PATT
	 .word	AA5KPO_13_033
@ 078   ----------------------------------------
	.byte	PATT
	 .word	AA5KPO_13_034
@ 079   ----------------------------------------
	.byte	PATT
	 .word	AA5KPO_13_035
@ 080   ----------------------------------------
	.byte	PATT
	 .word	AA5KPO_13_036
@ 081   ----------------------------------------
	.byte	PATT
	 .word	AA5KPO_13_037
@ 082   ----------------------------------------
	.byte	PATT
	 .word	AA5KPO_13_038
@ 083   ----------------------------------------
	.byte	PATT
	 .word	AA5KPO_13_039
@ 084   ----------------------------------------
	.byte	PATT
	 .word	AA5KPO_13_039
@ 085   ----------------------------------------
	.byte	PATT
	 .word	AA5KPO_13_041
@ 086   ----------------------------------------
	.byte	W96
@ 087   ----------------------------------------
	.byte	W96
@ 088   ----------------------------------------
	.byte	W92
	.byte	W03
	.byte		EOT   , Cn1 
	.byte		        Cn2 
	.byte		        Cn3 
	.byte	W01
@ 089   ----------------------------------------
	.byte	PATT
	 .word	AA5KPO_13_045
@ 090   ----------------------------------------
	.byte	PATT
	 .word	AA5KPO_13_045
@ 091   ----------------------------------------
	.byte	W24
	.byte		N11   , Cn1 , v127
	.byte		N11   , Cn2 
	.byte		N11   , Cn3 
	.byte	W60
	.byte		        Cn1 
	.byte		N11   , Cn2 
	.byte		N11   , Cn3 
	.byte	W11
	.byte	GOTO
	 .word	AA5KPO_13_B1
AA5KPO_13_B2:
	.byte	FINE

@******************************************************@
	.align	2

AA5KPO:
	.byte	13	@ NumTrks
	.byte	0	@ NumBlks
	.byte	AA5KPO_pri	@ Priority
	.byte	AA5KPO_rev	@ Reverb.

	.word	AA5KPO_grp

	.word	AA5KPO_1
	.word	AA5KPO_2
	.word	AA5KPO_3
	.word	AA5KPO_4
	.word	AA5KPO_5
	.word	AA5KPO_6
	.word	AA5KPO_7
	.word	AA5KPO_8
	.word	AA5KPO_9
	.word	AA5KPO_10
	.word	AA5KPO_11
	.word	AA5KPO_12
	.word	AA5KPO_13

	.end
