//Event file generated from Sappy .s format.
	#include "MPlayDef.event"

	#define	fe7attack_grp  voicegroup000
	#define	fe7attack_pri  0
	#define	fe7attack_rev  0
	#define	fe7attack_mvl  97
	#define	fe7attack_key  0
	#define	fe7attack_tbs  1
	#define	fe7attack_exg  0
	#define	fe7attack_cmp  1

	// .rodata
	//	fe7attack
	ALIGN 4

//**************** Track 1 (Midi-Chn.1) ****************//

fe7attack_1:
	BYTE	KEYSH   fe7attack_key+0
fe7attack_1_B1:
// 000   ----------------------------------------
	BYTE	TEMPO   168*fe7attack_tbs/2
	BYTE		VOICE   121
	BYTE	W24
	BYTE		VOL     39*fe7attack_mvl/mxv
	BYTE	W24
	BYTE		N11     Cn1   v127
	BYTE	W24
	BYTE		N10     Dn1   v120
	BYTE	W24
// 001   ----------------------------------------
	BYTE	W12
	BYTE		N09     Cn1   v116
	BYTE	W12
	BYTE		N10     Dn1   v124
	BYTE	W24
	BYTE		        Cn1 
	BYTE	W24
	BYTE		        Dn1   v127
	BYTE	W18
	BYTE		        Dn1   v108
	BYTE	W06
// 002   ----------------------------------------
	BYTE	W12
	BYTE		N09     Cn1   v120
	BYTE	W12
	BYTE		        Dn1   v124
	BYTE	W24
	BYTE		N10     Cn1 
	BYTE	W24
	BYTE		        Dn1   v127
	BYTE	W24
// 003   ----------------------------------------
	BYTE		        Cn1   v116
	BYTE	W24
	BYTE		        Dn1   v127
	BYTE	W18
	BYTE		N05     Dn1   v096
	BYTE	W06
	BYTE		N12     Cn1 
	BYTE	W18
	BYTE		N05     Cn1   v100
	BYTE	W06
	BYTE		N10     Dn1   v127
	BYTE	W24
// 004   ----------------------------------------
	BYTE		N09     Cn1   v124
	BYTE	W24
	BYTE		N10     Dn1   v127
	BYTE	W24
	BYTE		N11     Cn1   v124
	BYTE	W24
	BYTE		N10     Dn1   v127
	BYTE	W18
	BYTE		N09     Cn1   v092
	BYTE	W06
// 005   ----------------------------------------
	BYTE	W12
	BYTE		        Cn1   v127
	BYTE	W12
	BYTE		        Dn1 
	BYTE	W24
	BYTE		N10     Cn1 
	BYTE	W12
	BYTE		N08     Cn1   v072
	BYTE	W12
	BYTE		N10     Dn1   v124
	BYTE	W18
	BYTE		N09     Cn1   v108
	BYTE	W06
// 006   ----------------------------------------
	BYTE	W12
	BYTE		N07     Cn1   v116
	BYTE	W12
	BYTE		N10     Dn1   v120
	BYTE	W12
	BYTE		N08     Cn1   v092
	BYTE	W12
	BYTE		N09     Cn1   v124
	BYTE	W24
	BYTE		N10     Dn1   v127
	BYTE	W18
	BYTE		N08     Cn1   v100
	BYTE	W06
// 007   ----------------------------------------
	BYTE	W12
	BYTE		N09     Cn1   v124
	BYTE	W12
	BYTE		N10     Dn1   v127
	BYTE	W12
	BYTE		N08     Cn1   v104
	BYTE	W12
	BYTE		N09     Cn1   v124
	BYTE	W24
	BYTE		N10     Dn1   v127
	BYTE	W24
// 008   ----------------------------------------
	BYTE	W12
	BYTE		N09     Cn1   v120
	BYTE	W12
	BYTE		N10     Dn1   v127
	BYTE	W12
	BYTE		N08     Cn1   v100
	BYTE	W12
	BYTE		N09     Cn1   v124
	BYTE	W24
	BYTE		N10     Dn1   v127
	BYTE	W24
// 009   ----------------------------------------
	BYTE	W12
	BYTE		N09     Cn1   v116
	BYTE	W12
	BYTE		N10     Dn1   v127
	BYTE	W24
	BYTE		N08     Cn1   v120
	BYTE	W12
	BYTE		N07     Cn1   v072
	BYTE	W12
	BYTE		N10     Dn1   v127
	BYTE	W24
// 010   ----------------------------------------
	BYTE	W12
	BYTE		        Cn2 
	BYTE	W12
	BYTE		N10   
	BYTE	W12
	BYTE		N05     An1   v100
	BYTE	W06
	BYTE		        Fn1   v112
	BYTE	W06
	BYTE		N10     Cn1   v116
	BYTE	W24
	BYTE		N09     Dn1   v127
	BYTE	W18
	BYTE		N05     Cn1   v084
	BYTE	W06
// 011   ----------------------------------------
	BYTE		N09     Cn1   v092
	BYTE	W12
	BYTE		        Cn1   v108
	BYTE	W12
	BYTE		N10     Dn1   v127
	BYTE	W12
	BYTE		N09     Cn1   v092
	BYTE	W12
	BYTE		        Cn1   v108
	BYTE	W12
	BYTE		        Cn1   v096
	BYTE	W12
	BYTE		N10     Dn1   v127
	BYTE	W12
	BYTE		N08     Cn1   v088
	BYTE	W12
// 012   ----------------------------------------
	BYTE		N07     Cn1   v064
	BYTE	W12
	BYTE		N09     Cn1   v116
	BYTE	W12
	BYTE		N11     Dn1   v127
	BYTE	W12
	BYTE		N09     Cn1   v092
	BYTE	W12
	BYTE		N09   
	BYTE	W12
	BYTE		N07     Cn1   v068
	BYTE	W12
	BYTE		N10     Dn1   v127
	BYTE	W12
	BYTE		N08     Cn1   v064
	BYTE	W12
// 013   ----------------------------------------
	BYTE		N07     Cn1   v068
	BYTE	W12
	BYTE		N10     Cn1   v116
	BYTE	W12
	BYTE		N11     Dn1   v112
	BYTE	W12
	BYTE		N09     Cn1   v092
	BYTE	W12
	BYTE		N08     Cn1   v080
	BYTE	W12
	BYTE		N09     Cn1   v104
	BYTE	W12
	BYTE		N13     Dn1   v127
	BYTE	W24
// 014   ----------------------------------------
	BYTE		N08     Cn1   v088
	BYTE	W12
	BYTE		N10     Dn1   v127
	BYTE	W12
	BYTE		N08     Dn1   v088
	BYTE	W12
	BYTE		N10     Dn1   v127
	BYTE	W12
	BYTE		N09     Cn1   v096
	BYTE	W12
	BYTE		N08     Cn1   v072
	BYTE	W12
	BYTE		N10     Dn1   v127
	BYTE	W12
	BYTE		N09     Cn1   v080
	BYTE	W12
// 015   ----------------------------------------
	BYTE		N07     Cn1   v068
	BYTE	W12
	BYTE		N10     Dn1   v127
	BYTE	W12
	BYTE		N09     Cn1   v068
	BYTE	W12
	BYTE		        Cn1   v092
	BYTE	W12
	BYTE		N10     Dn1   v127
	BYTE	W12
	BYTE		N09     Cn1   v072
	BYTE	W12
	BYTE		        Cn1   v092
	BYTE	W12
	BYTE		N11     Dn1   v127
	BYTE	W12
// 016   ----------------------------------------
	BYTE		N09     Cn1   v096
	BYTE	W12
	BYTE		        Cn1   v108
	BYTE	W12
	BYTE		        Dn1   v127
	BYTE	W18
	BYTE		N05     Dn1   v100
	BYTE	W06
	BYTE		N10     Cn1   v120
	BYTE	W12
	BYTE		N08     Cn1   v088
	BYTE	W12
	BYTE		N09     Dn1   v127
	BYTE	W18
	BYTE		        Cn2 
	BYTE	W06
// 017   ----------------------------------------
	BYTE	W06
	BYTE		N10     An1   v116
	BYTE	W24
	BYTE		N09     Fn1   v124
	BYTE	W24
	BYTE		N10     Fn1   v108
	BYTE	W24
	BYTE		N09     Fn1   v112
	BYTE	W18
// 018   ----------------------------------------
	BYTE	W12
	BYTE		        Cn2 
	BYTE	W12
	BYTE		        An1   v104
	BYTE	W24
	BYTE		N10     Cn2   v127
	BYTE	W12
	BYTE		N09   
	BYTE	W24
	BYTE		        An1   v124
	BYTE	W12
// 019   ----------------------------------------
	BYTE	W12
	BYTE		        Fn1 
	BYTE	W12
	BYTE		        Fn1   v100
	BYTE	W12
	BYTE		        Fn1   v112
	BYTE	W12
	BYTE		N10     Cn2   v120
	BYTE	W18
	BYTE		        Fn1   v108
	BYTE	W12
	BYTE		        An1   v120
	BYTE	W12
	BYTE		N05     Fn1   v080
	BYTE	W06
// 020   ----------------------------------------
	BYTE		        Fn1   v084
	BYTE	W06
	BYTE		N09     Fn1   v088
	BYTE	W12
	BYTE		N10     An1   v127
	BYTE	W12
	BYTE		N09     Fn1   v112
	BYTE	W12
	BYTE		N05     An1   v127
	BYTE	W06
	BYTE		N22     Cs2 
	BYTE	W24
	BYTE		N09     Fn1   v116
	BYTE	W24
// 021   ----------------------------------------
	BYTE	W36
	BYTE		N10     Cn2   v127
	BYTE	W24
	BYTE		N09   
	BYTE	W24
	BYTE		        An1 
	BYTE	W12
// 022   ----------------------------------------
	BYTE	W12
	BYTE		        An1   v120
	BYTE	W12
	BYTE		        Fn1   v127
	BYTE	W12
	BYTE		N09   
	BYTE	W09
	BYTE	GoTo
	 POIN2	fe7attack_1_B1
fe7attack_1_B2:
	BYTE	FINE

//**************** Track 2 (Midi-Chn.2) ****************//

fe7attack_2:
	BYTE	KEYSH   fe7attack_key+0
fe7attack_2_B1:
// 000   ----------------------------------------
	BYTE		VOICE   33
	BYTE	W24
	BYTE		VOL     43*fe7attack_mvl/mxv
	BYTE		PAN     c_v+0
	BYTE	W24
	BYTE		N06     Cn1   v116
	BYTE	W12
	BYTE		        Cn2   v104
	BYTE	W12
	BYTE		        Cn1   v100
	BYTE	W12
	BYTE		        Dn1 
	BYTE	W12
// 001   ----------------------------------------
	BYTE		        Ds1   v112
	BYTE	W12
	BYTE		        Fn1   v100
	BYTE	W12
	BYTE		        Gn1 
	BYTE	W12
	BYTE		        As1 
	BYTE	W12
	BYTE		N07     Cn1   v120
	BYTE	W12
	BYTE		N06     Cn2   v100
	BYTE	W12
	BYTE		        As1 
	BYTE	W12
	BYTE		        Cn2 
	BYTE	W12
// 002   ----------------------------------------
	BYTE		N07     Fn1   v116
	BYTE	W12
	BYTE		N06     Gn1   v104
	BYTE	W12
	BYTE		        Ds1   v100
	BYTE	W12
	BYTE		        Dn1 
	BYTE	W12
	BYTE		N09     Cn1   v116
	BYTE	W12
	BYTE		N05     Cn2   v100
	BYTE	W12
	BYTE		N04     As1   v108
	BYTE	W12
	BYTE		N05     Cn2   v100
	BYTE	W12
// 003   ----------------------------------------
	BYTE		        Cn1 
	BYTE	W12
	BYTE		        Cn2 
	BYTE	W12
	BYTE		N04     As1 
	BYTE	W12
	BYTE		N05     Cn2 
	BYTE	W12
	BYTE		N06     Cn1   v108
	BYTE	W12
	BYTE		N05     Cn2   v100
	BYTE	W12
	BYTE		N03     Gn1   v104
	BYTE	W12
	BYTE		N05     Cn2   v100
	BYTE	W12
// 004   ----------------------------------------
	BYTE		        Fn1   v108
	BYTE	W12
	BYTE		        Gn1   v104
	BYTE	W12
	BYTE		N04     Ds1   v108
	BYTE	W12
	BYTE		        Fn1   v100
	BYTE	W12
	BYTE		N05     Cn1   v116
	BYTE	W12
	BYTE		N04     Cn2   v100
	BYTE	W12
	BYTE		N05     As1   v108
	BYTE	W12
	BYTE		N04     Cn2   v100
	BYTE	W12
// 005   ----------------------------------------
	BYTE		N07     Cn1   v124
	BYTE	W12
	BYTE		N05     Cn2   v100
	BYTE	W12
	BYTE		N04     As1 
	BYTE	W12
	BYTE		        Cn2 
	BYTE	W12
	BYTE		N07     Cn1   v124
	BYTE	W12
	BYTE		N05     Cn2   v100
	BYTE	W12
	BYTE		N04     As1 
	BYTE	W12
	BYTE		        Cn2 
	BYTE	W12
// 006   ----------------------------------------
	BYTE		N05     Cn1   v116
	BYTE	W12
	BYTE		        Cn2   v100
	BYTE	W12
	BYTE		N04     As1   v104
	BYTE	W12
	BYTE		        Cn2   v100
	BYTE	W12
	BYTE		N05     Cn1   v116
	BYTE	W12
	BYTE		        Cn2   v104
	BYTE	W12
	BYTE		N04     As1 
	BYTE	W12
	BYTE		        Cn2   v100
	BYTE	W12
// 007   ----------------------------------------
	BYTE		N05     Cn1   v104
	BYTE	W12
	BYTE		        Cn2   v100
	BYTE	W12
	BYTE		N04     As1   v104
	BYTE	W12
	BYTE		        Cn2   v100
	BYTE	W12
	BYTE		N06     Cn1   v104
	BYTE	W12
	BYTE		N04     Cn2   v100
	BYTE	W12
	BYTE		        As1   v112
	BYTE	W12
	BYTE		N05     Cn2   v100
	BYTE	W12
// 008   ----------------------------------------
	BYTE		        Cn1 
	BYTE	W12
	BYTE		N04     Cn2 
	BYTE	W12
	BYTE		N03     As1 
	BYTE	W12
	BYTE		        Cn2 
	BYTE	W12
	BYTE		N06     Cn1   v120
	BYTE	W12
	BYTE		N05     Cn2   v100
	BYTE	W12
	BYTE		N04     As1   v112
	BYTE	W24
// 009   ----------------------------------------
	BYTE		N06     Cn1   v116
	BYTE	W12
	BYTE		N05     Cn2   v104
	BYTE	W12
	BYTE		        As1   v112
	BYTE	W12
	BYTE		N03     Cn2   v100
	BYTE	W12
	BYTE		N06     Cn1   v120
	BYTE	W12
	BYTE		N04     Cn2   v100
	BYTE	W12
	BYTE		N05     As1   v112
	BYTE	W12
	BYTE		        Cn2   v100
	BYTE	W12
// 010   ----------------------------------------
	BYTE		        Cn1   v112
	BYTE	W12
	BYTE		        Cn2   v100
	BYTE	W12
	BYTE		N04     As1   v108
	BYTE	W12
	BYTE		N05     Cn2   v100
	BYTE	W12
	BYTE		N06     Cn1   v104
	BYTE	W12
	BYTE		N04     Cn2   v100
	BYTE	W12
	BYTE		        As1   v104
	BYTE	W12
	BYTE		N05     Cn2   v100
	BYTE	W12
// 011   ----------------------------------------
	BYTE		        Cn1 
	BYTE	W12
	BYTE		        Cn2 
	BYTE	W12
	BYTE		N04     As1 
	BYTE	W12
	BYTE		        Cn2 
	BYTE	W12
	BYTE		N05     Cn1   v104
	BYTE	W12
	BYTE		        Cn2   v100
	BYTE	W12
	BYTE		N04     As1   v108
	BYTE	W12
	BYTE		N05     Cn2   v100
	BYTE	W12
// 012   ----------------------------------------
	BYTE		N06     Cn1 
	BYTE	W12
	BYTE		N05     Cn2 
	BYTE	W12
	BYTE		N04     As1   v104
	BYTE	W12
	BYTE		N05     Cn2   v100
	BYTE	W12
	BYTE		N06     Cn1   v112
	BYTE	W12
	BYTE		N04     Cn2   v100
	BYTE	W12
	BYTE		        As1   v112
	BYTE	W12
	BYTE		N05     Cn2   v100
	BYTE	W12
// 013   ----------------------------------------
	BYTE		        Cn1   v104
	BYTE	W12
	BYTE		        Cn2 
	BYTE	W12
	BYTE		N04     As1   v100
	BYTE	W12
	BYTE		        Cn2 
	BYTE	W12
	BYTE		N05     Cn1 
	BYTE	W12
	BYTE		        Cn2 
	BYTE	W12
	BYTE		        As1 
	BYTE	W12
	BYTE		        Cn2 
	BYTE	W12
// 014   ----------------------------------------
	BYTE		        Cn1 
	BYTE	W12
	BYTE		N04     Cn2 
	BYTE	W12
	BYTE		        As1   v108
	BYTE	W12
	BYTE		        Cn2   v100
	BYTE	W12
	BYTE		N80     Fs1 
	BYTE	W48
// 015   ----------------------------------------
	BYTE	W36
	BYTE		N07     Fn1   v112
	BYTE	W24
	BYTE		N05     Fn1   v127
	BYTE	W24
	BYTE		        Fn1   v116
	BYTE	W12
// 016   ----------------------------------------
	BYTE	W12
	BYTE		N04     Fn1   v100
	BYTE	W12
	BYTE		N18     Fn1   v127
	BYTE	W24
	BYTE		N05     Fs1   v108
	BYTE	W12
	BYTE		N07     Fs1   v127
	BYTE	W24
	BYTE		TIE     Fs1   v116
	BYTE	W12
// 017   ----------------------------------------
	BYTE	W96
// 018   ----------------------------------------
	BYTE	W44
	BYTE	W03
	BYTE		EOT   
	BYTE	W01
	BYTE		N07     Fn1   v112
	BYTE	W48
// 019   ----------------------------------------
	BYTE	W96
// 020   ----------------------------------------
	BYTE	W96
// 021   ----------------------------------------
	BYTE	W96
// 022   ----------------------------------------
	BYTE	W12
	BYTE		N04     Cn1   v120
	BYTE	W12
	BYTE		        Cn1   v124
	BYTE	W12
	BYTE		N05     Cn1   v127
	BYTE	W09
	BYTE	GoTo
	 POIN2	fe7attack_2_B1
fe7attack_2_B2:
	BYTE	FINE

//**************** Track 3 (Midi-Chn.3) ****************//

fe7attack_3:
	BYTE	KEYSH   fe7attack_key+0
fe7attack_3_B1:
// 000   ----------------------------------------
	BYTE		VOICE   40
	BYTE		VOL     50*fe7attack_mvl/mxv
	BYTE		PAN     c_v+21
	BYTE	W12
	BYTE		N48     Cn3   v127
	BYTE	W54
	BYTE		VOICE   61
	BYTE		VOL     45*fe7attack_mvl/mxv
	BYTE		PAN     c_v+16
	BYTE	W06
	BYTE		N05     Cn3   v100
	BYTE	W06
	BYTE		        Cn3   v028
	BYTE	W06
	BYTE		N04     Dn3   v104
	BYTE	W06
	BYTE		N05     Dn3   v028
	BYTE	W06
// 001   ----------------------------------------
	BYTE		        Ds3   v104
	BYTE	W06
	BYTE		        Ds3   v028
	BYTE	W06
	BYTE		N14     Gn3   v104
	BYTE	W18
	BYTE		N05     Gn3   v028
	BYTE	W06
	BYTE		N04     Fn3   v104
	BYTE	W06
	BYTE		N05     Fn3   v028
	BYTE	W06
	BYTE		N15     Gs3   v108
	BYTE	W18
	BYTE		N05     Gs3   v028
	BYTE	W06
	BYTE		N04     Gn3   v104
	BYTE	W06
	BYTE		N05     Gn3   v028
	BYTE	W06
	BYTE		N14     As3   v100
	BYTE	W12
// 002   ----------------------------------------
	BYTE	W06
	BYTE		N05     As3   v028
	BYTE	W06
	BYTE		N04     Gs3   v100
	BYTE	W06
	BYTE		N05     Gs3   v028
	BYTE	W06
	BYTE		TIE     Cn4   v108
	BYTE	W72
// 003   ----------------------------------------
	BYTE	W44
	BYTE	W02
	BYTE		EOT   
	BYTE	W02
	BYTE		N11     Cn4   v028
	BYTE	W48
// 004   ----------------------------------------
	BYTE	W72
	BYTE		N03     Cn3   v104
	BYTE	W06
	BYTE		N05     Cn3   v028
	BYTE	W06
	BYTE		N04     Dn3   v100
	BYTE	W06
	BYTE		N05     Dn3   v028
	BYTE	W06
// 005   ----------------------------------------
	BYTE		N04     Ds3   v108
	BYTE	W06
	BYTE		N05     Ds3   v028
	BYTE	W06
	BYTE		N14     Gn3   v112
	BYTE	W18
	BYTE		N05     Gn3   v028
	BYTE	W06
	BYTE		N04     Fn3   v100
	BYTE	W06
	BYTE		N05     Fn3   v028
	BYTE	W06
	BYTE		N13     Gs3   v104
	BYTE	W18
	BYTE		N05     Gs3   v028
	BYTE	W06
	BYTE		N04     Gn3   v104
	BYTE	W06
	BYTE		N05     Gn3   v028
	BYTE	W06
	BYTE		N13     As3   v104
	BYTE	W12
// 006   ----------------------------------------
	BYTE	W06
	BYTE		N05     As3   v028
	BYTE	W06
	BYTE		N03     Gs3   v096
	BYTE	W06
	BYTE		N05     Gs3   v028
	BYTE	W06
	BYTE		TIE     Dn4   v120
	BYTE	W72
// 007   ----------------------------------------
	BYTE	W44
	BYTE	W03
	BYTE		EOT   
	BYTE	W01
	BYTE		N11     Dn4   v028
	BYTE	W48
// 008   ----------------------------------------
	BYTE	W72
	BYTE		N06     As2   v112
	BYTE	W06
	BYTE		N05     As2   v028
	BYTE	W18
// 009   ----------------------------------------
	BYTE	W12
	BYTE		N06     Cn3   v112
	BYTE	W06
	BYTE		N05     Cn3   v028
	BYTE	W30
	BYTE		N06     Dn3   v112
	BYTE	W06
	BYTE		N05     Dn3   v028
	BYTE	W30
	BYTE		N06     Ds3   v112
	BYTE	W06
	BYTE		N05     Ds3   v028
	BYTE	W06
// 010   ----------------------------------------
	BYTE	W24
	BYTE		N06     Dn3   v112
	BYTE	W06
	BYTE		N05     Dn3   v028
	BYTE	W06
	BYTE		N06     Fn3   v112
	BYTE	W06
	BYTE		N05     Fn3   v028
	BYTE	W30
	BYTE		N06     Ds3   v112
	BYTE	W06
	BYTE		N05     Ds3   v028
	BYTE	W18
// 011   ----------------------------------------
	BYTE	W12
	BYTE		N06     Fn3   v112
	BYTE	W06
	BYTE		N05     Fn3   v028
	BYTE	W30
	BYTE		N06     Gn3   v112
	BYTE	W06
	BYTE		N05     Gn3   v028
	BYTE	W30
	BYTE		N06     Fn3   v112
	BYTE	W06
	BYTE		N05     Fn3   v028
	BYTE	W06
// 012   ----------------------------------------
	BYTE	W24
	BYTE		N06     Gn3   v112
	BYTE	W06
	BYTE		N05     Gn3   v028
	BYTE	W06
	BYTE		N06     Gs3   v112
	BYTE	W06
	BYTE		N05     Gs3   v028
	BYTE	W30
	BYTE		N06     As2   v112
	BYTE	W06
	BYTE		N05     As2   v028
	BYTE	W18
// 013   ----------------------------------------
	BYTE	W12
	BYTE		N06     Dn3   v112
	BYTE	W06
	BYTE		N05     Dn3   v028
	BYTE	W30
	BYTE		N06     Ds3   v112
	BYTE	W06
	BYTE		N05     Ds3   v028
	BYTE	W30
	BYTE		N06     Fn3   v112
	BYTE	W06
	BYTE		N05     Fn3   v028
	BYTE	W06
// 014   ----------------------------------------
	BYTE	W24
	BYTE		N06     Gn3   v112
	BYTE	W06
	BYTE		N05     Gn3   v028
	BYTE	W06
	BYTE		N80     Gs3   v116
	BYTE	W60
// 015   ----------------------------------------
	BYTE	W24
	BYTE		N05     Gs3   v028
	BYTE	W12
	BYTE		N02     Gn3   v100
	BYTE	W06
	BYTE		N05     Gn3   v028
	BYTE	W18
	BYTE		        Fn3   v100
	BYTE	W06
	BYTE		        Fn3   v028
	BYTE	W18
	BYTE		N04     Gn3   v112
	BYTE	W06
	BYTE		N05     Gn3   v028
	BYTE	W06
// 016   ----------------------------------------
	BYTE	W12
	BYTE		N04     Gn3   v108
	BYTE	W06
	BYTE		N05     Gn3   v028
	BYTE	W06
	BYTE		N09     Gn3   v120
	BYTE	W12
	BYTE		N05     Gn3   v028
	BYTE	W12
	BYTE		        Gs3   v108
	BYTE	W06
	BYTE		        Gs3   v028
	BYTE	W06
	BYTE		        Gs3   v116
	BYTE	W06
	BYTE		        Gs3   v028
	BYTE	W11
	BYTE		VOL     49*fe7attack_mvl/mxv
	BYTE	W07
	BYTE		TIE     Gs3   v112
	BYTE	W12
// 017   ----------------------------------------
	BYTE	W01
	BYTE		VOL     49*fe7attack_mvl/mxv
	BYTE	W06
	BYTE		        48*fe7attack_mvl/mxv
	BYTE	W03
	BYTE		        48*fe7attack_mvl/mxv
	BYTE	W03
	BYTE		        47*fe7attack_mvl/mxv
	BYTE	W02
	BYTE		        47*fe7attack_mvl/mxv
	BYTE	W03
	BYTE		        47*fe7attack_mvl/mxv
	BYTE	W03
	BYTE		        46*fe7attack_mvl/mxv
	BYTE	W03
	BYTE		        46*fe7attack_mvl/mxv
	BYTE	W03
	BYTE		        45*fe7attack_mvl/mxv
	BYTE	W03
	BYTE		        45*fe7attack_mvl/mxv
	BYTE	W02
	BYTE		        45*fe7attack_mvl/mxv
	BYTE	W03
	BYTE		        44*fe7attack_mvl/mxv
	BYTE	W01
	BYTE		        44*fe7attack_mvl/mxv
	BYTE	W03
	BYTE		        44*fe7attack_mvl/mxv
	BYTE	W03
	BYTE		        45*fe7attack_mvl/mxv
	BYTE	W03
	BYTE		        45*fe7attack_mvl/mxv
	BYTE	W03
	BYTE		        45*fe7attack_mvl/mxv
	BYTE	W03
	BYTE		        46*fe7attack_mvl/mxv
	BYTE	W03
	BYTE		        46*fe7attack_mvl/mxv
	BYTE	W03
	BYTE		        47*fe7attack_mvl/mxv
	BYTE	W03
	BYTE		        47*fe7attack_mvl/mxv
	BYTE	W03
	BYTE		        47*fe7attack_mvl/mxv
	BYTE	W03
	BYTE		        48*fe7attack_mvl/mxv
	BYTE	W03
	BYTE		        48*fe7attack_mvl/mxv
	BYTE	W03
	BYTE		        49*fe7attack_mvl/mxv
	BYTE	W08
	BYTE		        49*fe7attack_mvl/mxv
	BYTE	W04
	BYTE		        50*fe7attack_mvl/mxv
	BYTE	W05
	BYTE		        50*fe7attack_mvl/mxv
	BYTE	W04
	BYTE		        50*fe7attack_mvl/mxv
	BYTE	W03
// 018   ----------------------------------------
	BYTE	W01
	BYTE		        51*fe7attack_mvl/mxv
	BYTE	W04
	BYTE		        51*fe7attack_mvl/mxv
	BYTE	W05
	BYTE		        52*fe7attack_mvl/mxv
	BYTE	W13
	BYTE		EOT   
	BYTE	W01
	BYTE		N05     Gs3   v028
	BYTE	W24
	BYTE		        As3   v092
	BYTE	W12
	BYTE		        As3   v028
	BYTE	W36
// 019   ----------------------------------------
	BYTE	W96
// 020   ----------------------------------------
	BYTE	W96
// 021   ----------------------------------------
	BYTE	W96
// 022   ----------------------------------------
	BYTE	W44
	BYTE	W01
	BYTE	GoTo
	 POIN2	fe7attack_3_B1
fe7attack_3_B2:
	BYTE	FINE

//**************** Track 4 (Midi-Chn.4) ****************//

fe7attack_4:
	BYTE	KEYSH   fe7attack_key+0
fe7attack_4_B1:
// 000   ----------------------------------------
	BYTE		VOICE   104
	BYTE		VOL     47*fe7attack_mvl/mxv
	BYTE		PAN     c_v-20
	BYTE	W12
	BYTE		N48     Cn3   v127
	BYTE	W54
	BYTE		VOICE   61
	BYTE		VOL     43*fe7attack_mvl/mxv
	BYTE		PAN     c_v-9
	BYTE	W06
	BYTE		N04     Ds2   v096
	BYTE	W06
	BYTE		N05     Ds2   v028
	BYTE	W06
	BYTE		N03     Fn2   v096
	BYTE	W06
	BYTE		N05     Fn2   v028
	BYTE	W06
// 001   ----------------------------------------
	BYTE		N04     Gn2   v100
	BYTE	W06
	BYTE		N05     Gs2   v028
	BYTE	W06
	BYTE		N14     As2   v100
	BYTE	W18
	BYTE		N05     As2   v028
	BYTE	W06
	BYTE		N03     Gs2   v100
	BYTE	W06
	BYTE		N05     Gs2   v028
	BYTE	W06
	BYTE		N15     Cn3   v104
	BYTE	W18
	BYTE		N05     Cn3   v028
	BYTE	W06
	BYTE		N03     As2   v100
	BYTE	W06
	BYTE		N05     As2   v028
	BYTE	W06
	BYTE		N14     Dn3   v104
	BYTE	W12
// 002   ----------------------------------------
	BYTE	W06
	BYTE		N05     Dn3   v028
	BYTE	W06
	BYTE		N03     Cn3   v104
	BYTE	W06
	BYTE		N05     Bn2   v028
	BYTE	W06
	BYTE		TIE     Ds3   v096
	BYTE	W72
// 003   ----------------------------------------
	BYTE	W44
	BYTE	W03
	BYTE		EOT   
	BYTE	W01
	BYTE		N11     Ds3   v028
	BYTE	W48
// 004   ----------------------------------------
	BYTE	W72
	BYTE		N04     Ds2   v084
	BYTE	W06
	BYTE		N05     Ds2   v028
	BYTE	W06
	BYTE		N03     Fn2   v096
	BYTE	W06
	BYTE		N05     Fn2   v028
	BYTE	W06
// 005   ----------------------------------------
	BYTE		N03     Gn2   v108
	BYTE	W06
	BYTE		N05     Gn2   v028
	BYTE	W06
	BYTE		N15     As2   v104
	BYTE	W18
	BYTE		N05     As2   v028
	BYTE	W06
	BYTE		N03     Gs2   v096
	BYTE	W06
	BYTE		N05     Gs2   v028
	BYTE	W06
	BYTE		N13     Cn3   v108
	BYTE	W18
	BYTE		N05     Cn3   v028
	BYTE	W06
	BYTE		N04     As2   v100
	BYTE	W06
	BYTE		N05     As2   v028
	BYTE	W06
	BYTE		N13     Dn3   v100
	BYTE	W12
// 006   ----------------------------------------
	BYTE	W06
	BYTE		N05     Dn3   v028
	BYTE	W06
	BYTE		N03     Cn3   v100
	BYTE	W06
	BYTE		N05     Bn2   v028
	BYTE	W06
	BYTE		TIE     Fn3   v100
	BYTE	W72
// 007   ----------------------------------------
	BYTE	W44
	BYTE	W03
	BYTE		EOT   
	BYTE	W01
	BYTE		N11     Fn3   v028
	BYTE	W48
// 008   ----------------------------------------
	BYTE	W72
	BYTE		N03     Gn2   v100
	BYTE	W06
	BYTE		N05     Gn2   v028
	BYTE	W18
// 009   ----------------------------------------
	BYTE	W12
	BYTE		N04     Gs2   v100
	BYTE	W06
	BYTE		N05     Gs2   v028
	BYTE	W30
	BYTE		N03     As2   v108
	BYTE	W06
	BYTE		N05     As2   v028
	BYTE	W30
	BYTE		N06     Cn3   v112
	BYTE	W06
	BYTE		N05     Cn3   v028
	BYTE	W06
// 010   ----------------------------------------
	BYTE	W24
	BYTE		N06     As2   v112
	BYTE	W06
	BYTE		N05     As2   v028
	BYTE	W06
	BYTE		N06     Dn3   v112
	BYTE	W06
	BYTE		N05     Dn3   v028
	BYTE	W30
	BYTE		N06     Cn3   v112
	BYTE	W06
	BYTE		N05     Cn3   v028
	BYTE	W18
// 011   ----------------------------------------
	BYTE	W12
	BYTE		N06     Dn3   v112
	BYTE	W06
	BYTE		N05     Dn3   v028
	BYTE	W30
	BYTE		N06     Ds3   v112
	BYTE	W06
	BYTE		N05     Ds3   v028
	BYTE	W30
	BYTE		N06     Dn3   v112
	BYTE	W06
	BYTE		N05     Dn3   v028
	BYTE	W06
// 012   ----------------------------------------
	BYTE	W24
	BYTE		N06     Ds3   v112
	BYTE	W06
	BYTE		N05     Ds3   v028
	BYTE	W06
	BYTE		N06     Fn3   v112
	BYTE	W06
	BYTE		N05     Fn3   v028
	BYTE	W30
	BYTE		N06     Gn2   v112
	BYTE	W06
	BYTE		N05     Gn2   v028
	BYTE	W18
// 013   ----------------------------------------
	BYTE	W12
	BYTE		N06     As2   v112
	BYTE	W06
	BYTE		N05     As2   v028
	BYTE	W30
	BYTE		N06     Cn3   v112
	BYTE	W06
	BYTE		N05     Cn3   v028
	BYTE	W30
	BYTE		N06     Dn3   v112
	BYTE	W06
	BYTE		N05     Dn3   v028
	BYTE	W06
// 014   ----------------------------------------
	BYTE	W24
	BYTE		N06     Ds3   v112
	BYTE	W06
	BYTE		N05     Ds3   v028
	BYTE	W06
	BYTE		N80     Fn3   v096
	BYTE	W60
// 015   ----------------------------------------
	BYTE	W24
	BYTE		N05     Fn3   v028
	BYTE	W12
	BYTE		N04     Dn3   v116
	BYTE	W06
	BYTE		N05     Dn3   v028
	BYTE	W18
	BYTE		N04     Cn3   v116
	BYTE	W06
	BYTE		N05     Cn3   v028
	BYTE	W18
	BYTE		N04     Dn3   v116
	BYTE	W06
	BYTE		N05     Dn3   v028
	BYTE	W06
// 016   ----------------------------------------
	BYTE	W12
	BYTE		N03     Dn3   v104
	BYTE	W06
	BYTE		N05     Dn3   v028
	BYTE	W06
	BYTE		N09     Dn3   v120
	BYTE	W12
	BYTE		N05     Dn3   v028
	BYTE	W12
	BYTE		N03     Ds3   v108
	BYTE	W06
	BYTE		N05     Ds3   v028
	BYTE	W06
	BYTE		        Ds3   v116
	BYTE	W06
	BYTE		        Ds3   v028
	BYTE	W18
	BYTE		TIE     Ds3   v116
	BYTE	W12
// 017   ----------------------------------------
	BYTE	W96
// 018   ----------------------------------------
	BYTE	W23
	BYTE		EOT   
	BYTE	W01
	BYTE		N05     Ds3   v028
	BYTE	W24
	BYTE		N04     Fn3   v127
	BYTE	W06
	BYTE		N05     Fn3   v028
	BYTE	W42
// 019   ----------------------------------------
	BYTE	W96
// 020   ----------------------------------------
	BYTE	W96
// 021   ----------------------------------------
	BYTE	W96
// 022   ----------------------------------------
	BYTE	W44
	BYTE	W01
	BYTE	GoTo
	 POIN2	fe7attack_4_B1
fe7attack_4_B2:
	BYTE	FINE

//**************** Track 5 (Midi-Chn.5) ****************//

fe7attack_5:
	BYTE	KEYSH   fe7attack_key+0
fe7attack_5_B1:
// 000   ----------------------------------------
	BYTE		VOICE   40
	BYTE	W24
	BYTE		VOL     37*fe7attack_mvl/mxv
	BYTE		PAN     c_v+22
	BYTE	W24
	BYTE		TIE     Gn3   v116
	BYTE	W48
// 001   ----------------------------------------
	BYTE	W96
// 002   ----------------------------------------
	BYTE	W40
	BYTE		EOT   
	BYTE	W02
	BYTE		N05     Gn3   v020
	BYTE	W06
	BYTE		VOICE   40
	BYTE	W24
	BYTE		N05     Cn4   v096
	BYTE	W06
	BYTE		        Dn4 
	BYTE	W06
	BYTE		        Ds4 
	BYTE	W06
	BYTE		        Fn4 
	BYTE	W06
// 003   ----------------------------------------
	BYTE		        Gn4 
	BYTE	W06
	BYTE		        Gn4   v020
	BYTE	W18
	BYTE		        Cn5   v092
	BYTE	W06
	BYTE		        Dn5 
	BYTE	W06
	BYTE		        Ds5 
	BYTE	W06
	BYTE		        Fn5 
	BYTE	W06
	BYTE		        Gn5 
	BYTE	W06
	BYTE		        Gn5   v020
	BYTE	W18
	BYTE		VOICE   56
	BYTE		N05     Cn3   v100
	BYTE	W06
	BYTE		        Dn3 
	BYTE	W06
	BYTE		        Ds3 
	BYTE	W06
	BYTE		        Fn3 
	BYTE	W06
// 004   ----------------------------------------
	BYTE		VOICE   50
	BYTE		N04     Gn3 
	BYTE	W06
	BYTE		N05     Gn3   v020
	BYTE	W18
	BYTE		        Cn4   v100
	BYTE	W06
	BYTE		        Dn4 
	BYTE	W06
	BYTE		        Ds4 
	BYTE	W06
	BYTE		        Fn4 
	BYTE	W06
	BYTE		N10     Gn4 
	BYTE	W12
	BYTE		N05     Gn4   v020
	BYTE	W36
// 005   ----------------------------------------
	BYTE	W96
// 006   ----------------------------------------
	BYTE	W72
	BYTE		        Dn4   v092
	BYTE	W06
	BYTE		        Ds4 
	BYTE	W06
	BYTE		        Fn4 
	BYTE	W06
	BYTE		        Gn4 
	BYTE	W06
// 007   ----------------------------------------
	BYTE		N11     Gs4 
	BYTE	W24
	BYTE		N05     Dn5 
	BYTE	W06
	BYTE		        Ds5 
	BYTE	W06
	BYTE		        Fn5 
	BYTE	W06
	BYTE		        Gn5 
	BYTE	W06
	BYTE		N11     Gs5 
	BYTE	W24
	BYTE		VOICE   56
	BYTE		N05     Dn3   v100
	BYTE	W06
	BYTE		        Ds3 
	BYTE	W06
	BYTE		        Fn3 
	BYTE	W06
	BYTE		        Gn3 
	BYTE	W06
// 008   ----------------------------------------
	BYTE		VOICE   50
	BYTE		N12     Gs3 
	BYTE	W24
	BYTE		N05     Dn4 
	BYTE	W06
	BYTE		        Ds4 
	BYTE	W06
	BYTE		        Fn4 
	BYTE	W06
	BYTE		        Gn4 
	BYTE	W06
	BYTE		N08     Gs4 
	BYTE	W48
// 009   ----------------------------------------
	BYTE	W96
// 010   ----------------------------------------
	BYTE	W24
	BYTE		N05     Ds5   v120
	BYTE	W12
	BYTE		N11   
	BYTE	W18
	BYTE		N05     Ds5   v020
	BYTE	W42
// 011   ----------------------------------------
	BYTE	W96
// 012   ----------------------------------------
	BYTE	W24
	BYTE		        Fn5   v116
	BYTE	W12
	BYTE		N12     Fn5   v120
	BYTE	W18
	BYTE		N05     Fn5   v020
	BYTE	W42
// 013   ----------------------------------------
	BYTE	W96
// 014   ----------------------------------------
	BYTE	W24
	BYTE		        Ds5   v108
	BYTE	W12
	BYTE		N76     Ds5   v112
	BYTE	W60
// 015   ----------------------------------------
	BYTE	W96
// 016   ----------------------------------------
	BYTE	W96
// 017   ----------------------------------------
	BYTE	W96
// 018   ----------------------------------------
	BYTE	W48
	BYTE		VOICE   41
	BYTE	W24
	BYTE		N05     As3   v096
	BYTE	W06
	BYTE		        Fn3   v100
	BYTE	W06
	BYTE		        Ds3   v080
	BYTE	W06
	BYTE		        As2 
	BYTE	W06
// 019   ----------------------------------------
	BYTE		        Fn3   v100
	BYTE	W06
	BYTE		        Ds3   v080
	BYTE	W06
	BYTE		        As2 
	BYTE	W06
	BYTE		        Fn2   v088
	BYTE	W06
	BYTE		        As2   v080
	BYTE	W06
	BYTE		        Fn2 
	BYTE	W06
	BYTE		        Ds2 
	BYTE	W06
	BYTE		        As1 
	BYTE	W06
	BYTE		        Ds2 
	BYTE	W06
	BYTE		N05   
	BYTE	W06
	BYTE		        Fn2 
	BYTE	W06
	BYTE		        Fs2 
	BYTE	W06
	BYTE		        Gs2 
	BYTE	W06
	BYTE		        As2   v088
	BYTE	W06
	BYTE		        Cs3   v080
	BYTE	W06
	BYTE		        Ds3   v088
	BYTE	W06
// 020   ----------------------------------------
	BYTE		        As2 
	BYTE	W06
	BYTE		        Cs3 
	BYTE	W06
	BYTE		        Ds3   v080
	BYTE	W06
	BYTE		        Fn3   v088
	BYTE	W06
	BYTE		        Ds3 
	BYTE	W06
	BYTE		        Fn3 
	BYTE	W06
	BYTE		        Gs3 
	BYTE	W06
	BYTE		        As3 
	BYTE	W06
	BYTE		VOICE   102
	BYTE		TIE     Fn5   v092
	BYTE	W48
// 021   ----------------------------------------
	BYTE	W96
// 022   ----------------------------------------
	BYTE	W42
	BYTE		EOT   
	BYTE	W03
	BYTE	GoTo
	 POIN2	fe7attack_5_B1
fe7attack_5_B2:
	BYTE	FINE

//**************** Track 6 (Midi-Chn.6) ****************//

fe7attack_6:
	BYTE	KEYSH   fe7attack_key+0
fe7attack_6_B1:
// 000   ----------------------------------------
	BYTE		VOICE   41
	BYTE	W24
	BYTE		VOL     33*fe7attack_mvl/mxv
	BYTE		PAN     c_v-26
	BYTE	W24
	BYTE		TIE     Gn3   v060
	BYTE	W48
// 001   ----------------------------------------
	BYTE	W96
// 002   ----------------------------------------
	BYTE	W40
	BYTE		EOT   
	BYTE	W32
	BYTE		N05     Cn3   v100
	BYTE	W06
	BYTE		        Dn3 
	BYTE	W06
	BYTE		        Ds3   v084
	BYTE	W06
	BYTE		        Fn3   v104
	BYTE	W06
// 003   ----------------------------------------
	BYTE		        Gn3   v120
	BYTE	W24
	BYTE		        Cn4   v092
	BYTE	W06
	BYTE		        Dn4 
	BYTE	W06
	BYTE		        Ds4 
	BYTE	W06
	BYTE		        Fn4   v084
	BYTE	W06
	BYTE		        Gn4   v120
	BYTE	W24
	BYTE		        Cn2   v100
	BYTE	W06
	BYTE		        Dn2   v084
	BYTE	W06
	BYTE		        Ds2   v064
	BYTE	W06
	BYTE		        Fn2   v104
	BYTE	W06
// 004   ----------------------------------------
	BYTE		N04     Gn2 
	BYTE	W24
	BYTE		N05     Cn3   v096
	BYTE	W06
	BYTE		        Dn3   v068
	BYTE	W06
	BYTE		        Ds3   v100
	BYTE	W06
	BYTE		        Fn3 
	BYTE	W06
	BYTE		N10     Gn3   v108
	BYTE	W48
// 005   ----------------------------------------
	BYTE	W96
// 006   ----------------------------------------
	BYTE	W72
	BYTE		N04     Dn3   v084
	BYTE	W06
	BYTE		N05     Ds3   v080
	BYTE	W06
	BYTE		        Fn3   v100
	BYTE	W06
	BYTE		N03     Gn3   v088
	BYTE	W06
// 007   ----------------------------------------
	BYTE		N05     Gs3   v120
	BYTE	W24
	BYTE		        Dn4   v100
	BYTE	W06
	BYTE		N03     Ds4   v092
	BYTE	W06
	BYTE		N06     Fn4   v100
	BYTE	W06
	BYTE		N03     Gn4   v092
	BYTE	W06
	BYTE		N05     Gs4   v120
	BYTE	W24
	BYTE		        Dn2   v112
	BYTE	W06
	BYTE		N03     Ds2   v096
	BYTE	W06
	BYTE		N07     Fn2   v108
	BYTE	W06
	BYTE		N02     Gn2   v092
	BYTE	W06
// 008   ----------------------------------------
	BYTE		N06     Gs2   v120
	BYTE	W24
	BYTE		N04     Dn3 
	BYTE	W06
	BYTE		N03     Ds3   v100
	BYTE	W06
	BYTE		N05     Fn3   v104
	BYTE	W06
	BYTE		N03     Gn3   v100
	BYTE	W06
	BYTE		N08     Gs3   v120
	BYTE	W48
// 009   ----------------------------------------
	BYTE	W48
	BYTE		VOICE   56
	BYTE	W48
// 010   ----------------------------------------
	BYTE	W24
	BYTE		N05     As3 
	BYTE		N05     Ds4 
	BYTE	W12
	BYTE		N11     As3 
	BYTE		N12     Ds4 
	BYTE	W60
// 011   ----------------------------------------
	BYTE	W96
// 012   ----------------------------------------
	BYTE	W24
	BYTE		N05     As3   v116
	BYTE		N05     Fn4 
	BYTE	W12
	BYTE		N10     As3   v120
	BYTE		N12     Fn4 
	BYTE	W60
// 013   ----------------------------------------
	BYTE	W96
// 014   ----------------------------------------
	BYTE	W24
	BYTE		N05     Ds4 
	BYTE	W12
	BYTE		N76   
	BYTE	W60
// 015   ----------------------------------------
	BYTE	W96
// 016   ----------------------------------------
	BYTE	W96
// 017   ----------------------------------------
	BYTE	W96
// 018   ----------------------------------------
	BYTE	W48
	BYTE		VOICE   41
	BYTE	W24
	BYTE		N05     As2 
	BYTE	W06
	BYTE		        Fn2   v100
	BYTE	W06
	BYTE		        Ds2   v080
	BYTE	W06
	BYTE		        As1   v072
	BYTE	W06
// 019   ----------------------------------------
	BYTE		        Fn2   v100
	BYTE	W06
	BYTE		        Ds2   v072
	BYTE	W06
	BYTE		        As1 
	BYTE	W06
	BYTE		        Fn1   v088
	BYTE	W06
	BYTE		        As1   v072
	BYTE	W06
	BYTE		        Fn1 
	BYTE	W06
	BYTE		        Ds1 
	BYTE	W06
	BYTE		        As0   v080
	BYTE	W06
	BYTE		        Ds1   v072
	BYTE	W06
	BYTE		N05   
	BYTE	W06
	BYTE		        Fn1 
	BYTE	W06
	BYTE		        Fs1 
	BYTE	W06
	BYTE		        Gs1   v080
	BYTE	W06
	BYTE		        As1   v088
	BYTE	W06
	BYTE		        Cs2   v072
	BYTE	W06
	BYTE		        Ds2   v088
	BYTE	W06
// 020   ----------------------------------------
	BYTE		        As1 
	BYTE	W06
	BYTE		        Cs2 
	BYTE	W06
	BYTE		        Ds2   v072
	BYTE	W06
	BYTE		        Fn2   v088
	BYTE	W06
	BYTE		        Ds2 
	BYTE	W06
	BYTE		        Fn2 
	BYTE	W06
	BYTE		        Gs2 
	BYTE	W06
	BYTE		        As2 
	BYTE	W06
	BYTE		VOICE   61
	BYTE		TIE     Gs3   v080
	BYTE		TIE     As3 
	BYTE		TIE     Fn4 
	BYTE	W48
// 021   ----------------------------------------
	BYTE	W96
// 022   ----------------------------------------
	BYTE	W32
	BYTE		EOT     As3 
	BYTE	W09
	BYTE		        Gs3 
	BYTE	W01
	BYTE		        Fn4 
	BYTE	W03
	BYTE	GoTo
	 POIN2	fe7attack_6_B1
fe7attack_6_B2:
	BYTE	FINE

//**************** Track 7 (Midi-Chn.7) ****************//

fe7attack_7:
	BYTE	KEYSH   fe7attack_key+0
fe7attack_7_B1:
// 000   ----------------------------------------
	BYTE		VOICE   127
	BYTE	W24
	BYTE		VOL     29*fe7attack_mvl/mxv
	BYTE	W24
	BYTE		N09     Fs1   v088
	BYTE	W12
	BYTE		N05     Fs1   v076
	BYTE	W06
	BYTE		        Fs1   v080
	BYTE	W06
	BYTE		N08     As1   v076
	BYTE	W12
	BYTE		N09     Fs1   v080
	BYTE	W12
// 001   ----------------------------------------
	BYTE		N08   
	BYTE	W12
	BYTE		N05     Fs1   v084
	BYTE	W06
	BYTE		        Fs1   v076
	BYTE	W06
	BYTE		N08     As1   v092
	BYTE	W12
	BYTE		N09     Fs1   v084
	BYTE	W12
	BYTE		N08     Fs1   v088
	BYTE	W12
	BYTE		N09   
	BYTE	W12
	BYTE		        As1   v092
	BYTE	W12
	BYTE		        Fs1   v080
	BYTE	W12
// 002   ----------------------------------------
	BYTE		N05     Fs1   v084
	BYTE	W06
	BYTE		        Fs1   v068
	BYTE	W06
	BYTE		        Fs1   v072
	BYTE	W06
	BYTE		        Fs1   v076
	BYTE	W06
	BYTE		N07     As1   v064
	BYTE	W12
	BYTE		N05     Fs1   v080
	BYTE	W06
	BYTE		        Fs1   v072
	BYTE	W06
	BYTE		        Fs1   v080
	BYTE	W06
	BYTE		        Fs1   v072
	BYTE	W06
	BYTE		N05   
	BYTE	W06
	BYTE		        Fs1   v080
	BYTE	W06
	BYTE		N08     As1   v088
	BYTE	W12
	BYTE		N05     Fs1   v084
	BYTE	W06
	BYTE		        Fs1   v072
	BYTE	W06
// 003   ----------------------------------------
	BYTE		N05   
	BYTE	W06
	BYTE		        Fs1   v068
	BYTE	W06
	BYTE		        Fs1   v076
	BYTE	W06
	BYTE		        Fs1   v080
	BYTE	W06
	BYTE		N09     As1   v092
	BYTE	W12
	BYTE		N05     Fs1   v072
	BYTE	W06
	BYTE		        Fs1   v068
	BYTE	W06
	BYTE		N08     Fs1   v076
	BYTE	W12
	BYTE		N05     Fs1   v096
	BYTE	W06
	BYTE		        Fs1   v084
	BYTE	W06
	BYTE		N09     As1   v088
	BYTE	W12
	BYTE		N05     Fs1   v092
	BYTE	W06
	BYTE		        Fs1   v076
	BYTE	W06
// 004   ----------------------------------------
	BYTE		N09     Fs1   v080
	BYTE	W12
	BYTE		N05     Fs1   v084
	BYTE	W06
	BYTE		N07     Fs1   v064
	BYTE		N08     As1   v016
	BYTE	W12
	BYTE		N05     Fs1   v088
	BYTE	W06
	BYTE		        Fs1   v072
	BYTE	W06
	BYTE		N09     Fs1   v076
	BYTE	W18
	BYTE		N05     Fs1   v080
	BYTE	W06
	BYTE		        Fs1   v072
	BYTE	W06
	BYTE		N09     As1   v096
	BYTE	W12
	BYTE		N05     Fs1   v092
	BYTE	W06
	BYTE		        Fs1   v076
	BYTE	W06
// 005   ----------------------------------------
	BYTE		N09   
	BYTE	W12
	BYTE		N05     Fs1   v080
	BYTE	W06
	BYTE		N05   
	BYTE	W06
	BYTE		N09     As1   v088
	BYTE	W12
	BYTE		N05     Fs1   v084
	BYTE	W06
	BYTE		        Fs1   v072
	BYTE	W06
	BYTE		N09     Fs1   v080
	BYTE	W12
	BYTE		N05     Fs1   v056
	BYTE	W06
	BYTE		        Fs1   v076
	BYTE	W06
	BYTE		N08     As1   v048
	BYTE	W12
	BYTE		N05     Fs1   v064
	BYTE	W06
	BYTE		        Fs1   v076
	BYTE	W06
// 006   ----------------------------------------
	BYTE		N09     Fs1   v072
	BYTE	W12
	BYTE		N05     Fs1   v088
	BYTE	W06
	BYTE		        Fs1   v068
	BYTE	W06
	BYTE		N09     As1   v092
	BYTE	W12
	BYTE		N05     Fs1   v076
	BYTE	W06
	BYTE		        Fs1   v072
	BYTE	W06
	BYTE		N09     Fs1   v080
	BYTE	W12
	BYTE		N05   
	BYTE	W06
	BYTE		        Fs1   v064
	BYTE	W06
	BYTE		N09     As1   v100
	BYTE	W12
	BYTE		N05     Fs1   v084
	BYTE	W06
	BYTE		        Fs1   v072
	BYTE	W06
// 007   ----------------------------------------
	BYTE		N09   
	BYTE	W12
	BYTE		N05     Fs1   v080
	BYTE	W06
	BYTE		N08     Fs1   v044
	BYTE	W18
	BYTE		N05     Fs1   v092
	BYTE	W06
	BYTE		        Fs1   v084
	BYTE	W06
	BYTE		N09     Fs1   v076
	BYTE	W12
	BYTE		N05     Fs1   v088
	BYTE	W06
	BYTE		N08     Fs1   v056
	BYTE	W18
	BYTE		N05     Fs1   v092
	BYTE	W06
	BYTE		        Fs1   v072
	BYTE	W06
// 008   ----------------------------------------
	BYTE		N09     Fs1   v084
	BYTE	W12
	BYTE		N05   
	BYTE	W06
	BYTE		        Fs1   v072
	BYTE	W06
	BYTE		N10     As1   v084
	BYTE	W12
	BYTE		N08     Fs1   v088
	BYTE	W12
	BYTE		N09     Fs1   v092
	BYTE	W12
	BYTE		N05     Fs1   v084
	BYTE	W06
	BYTE		        Fs1   v072
	BYTE	W06
	BYTE		N09     As1   v096
	BYTE	W12
	BYTE		N05     Fs1   v088
	BYTE	W06
	BYTE		        Fs1   v072
	BYTE	W06
// 009   ----------------------------------------
	BYTE		N09   
	BYTE	W12
	BYTE		N05     Fs1   v088
	BYTE	W06
	BYTE		        Fs1   v076
	BYTE	W06
	BYTE		N09     As1   v100
	BYTE	W12
	BYTE		N05     Fs1   v084
	BYTE	W06
	BYTE		        Fs1   v068
	BYTE	W06
	BYTE		N09     Fs1   v080
	BYTE	W12
	BYTE		N05     Fs1   v096
	BYTE	W06
	BYTE		        Fs1   v076
	BYTE	W06
	BYTE		N09     As1   v100
	BYTE	W12
	BYTE		N05     Fs1   v088
	BYTE	W06
	BYTE		        Fs1   v080
	BYTE	W06
// 010   ----------------------------------------
	BYTE		N09   
	BYTE	W12
	BYTE		N05     Fs1   v092
	BYTE	W06
	BYTE		        Fs1   v084
	BYTE	W06
	BYTE		N09     As1   v076
	BYTE	W12
	BYTE		N07     As1   v052
	BYTE	W12
	BYTE		N09     Ds2   v127
	BYTE	W12
	BYTE		N07     Ds2   v100
	BYTE	W12
	BYTE		N09     Ds2   v084
	BYTE	W12
	BYTE		N05     Ds2   v100
	BYTE	W06
	BYTE		        Ds2   v068
	BYTE	W06
// 011   ----------------------------------------
	BYTE		N08     Ds2   v056
	BYTE	W12
	BYTE		N05     Ds2   v100
	BYTE	W06
	BYTE		        Ds2   v084
	BYTE	W06
	BYTE		N08     Ds2   v080
	BYTE	W12
	BYTE		N07     Ds2   v104
	BYTE	W12
	BYTE		N08   
	BYTE	W12
	BYTE		N05   
	BYTE	W06
	BYTE		        Ds2   v092
	BYTE	W06
	BYTE		N07     Ds2   v064
	BYTE	W12
	BYTE		N08     Ds2   v127
	BYTE	W12
// 012   ----------------------------------------
	BYTE		N05     Ds2   v104
	BYTE	W06
	BYTE		        Ds2   v084
	BYTE	W06
	BYTE		N08     Ds2   v072
	BYTE	W12
	BYTE		        Ds2   v112
	BYTE	W12
	BYTE		N07     Ds2   v100
	BYTE	W12
	BYTE		N09     Ds2   v127
	BYTE	W12
	BYTE		N05     Ds2   v108
	BYTE	W06
	BYTE		        Ds2   v088
	BYTE	W06
	BYTE		N08     Ds2   v080
	BYTE	W12
	BYTE		N09     Ds2   v127
	BYTE	W12
// 013   ----------------------------------------
	BYTE		N05     Ds2   v108
	BYTE	W06
	BYTE		        Ds2   v096
	BYTE	W06
	BYTE		N08     Ds2   v076
	BYTE	W12
	BYTE		        Ds2   v127
	BYTE	W12
	BYTE		        Ds2   v112
	BYTE	W12
	BYTE		N09     Ds2   v127
	BYTE	W12
	BYTE		N05     Ds2   v112
	BYTE	W06
	BYTE		        Ds2   v088
	BYTE	W06
	BYTE		N08     Ds2   v072
	BYTE	W12
	BYTE		N09     Ds2   v127
	BYTE	W12
// 014   ----------------------------------------
	BYTE		N05     Ds2   v104
	BYTE	W06
	BYTE		        Ds2   v076
	BYTE	W06
	BYTE		N09     Ds2   v084
	BYTE	W12
	BYTE		        Ds2   v127
	BYTE	W12
	BYTE		        Ds2   v116
	BYTE	W12
	BYTE		        Ds2   v127
	BYTE	W12
	BYTE		N05   
	BYTE	W06
	BYTE		        Ds2   v080
	BYTE	W06
	BYTE		N08     Ds2   v076
	BYTE	W12
	BYTE		N09     Ds2   v127
	BYTE	W12
// 015   ----------------------------------------
	BYTE		N05     Ds2   v108
	BYTE	W06
	BYTE		        Ds2   v072
	BYTE	W06
	BYTE		N08     Ds2   v080
	BYTE	W12
	BYTE		N09     Ds2   v112
	BYTE	W12
	BYTE		N08     Ds2   v096
	BYTE	W12
	BYTE		N09     Ds2   v116
	BYTE	W12
	BYTE		N05     Ds2   v088
	BYTE	W06
	BYTE		        Ds2   v076
	BYTE	W06
	BYTE		N09     Ds2   v068
	BYTE	W12
	BYTE		        Ds2   v120
	BYTE	W12
// 016   ----------------------------------------
	BYTE		N05     Ds2   v088
	BYTE	W06
	BYTE		        Ds2   v068
	BYTE	W06
	BYTE		N08     Ds2   v076
	BYTE	W12
	BYTE		N09     Ds2   v124
	BYTE	W12
	BYTE		N08     Ds2   v100
	BYTE	W12
	BYTE		N21     Cs2   v127
	BYTE	W48
// 017   ----------------------------------------
	BYTE	W96
// 018   ----------------------------------------
	BYTE	W06
	BYTE		N09     Fs1   v100
	BYTE	W12
	BYTE		        As1   v112
	BYTE	W12
	BYTE		N07     Fs1   v076
	BYTE	W12
	BYTE		        Fs1   v056
	BYTE	W12
	BYTE		N05     Fs1   v080
	BYTE	W06
	BYTE		        Fs1   v088
	BYTE	W06
	BYTE		N09     Fs1   v072
	BYTE	W12
	BYTE		N05     Fs1   v068
	BYTE	W06
	BYTE		        Fs1   v056
	BYTE	W06
	BYTE		N09     Fs1   v084
	BYTE	W06
// 019   ----------------------------------------
	BYTE	W12
	BYTE		N05     Fs1   v080
	BYTE	W06
	BYTE		N08     Fs1   v088
	BYTE	W18
	BYTE		N05     Fs1   v080
	BYTE	W06
	BYTE		N08     Fs1   v088
	BYTE	W18
	BYTE		N05     Fs1   v064
	BYTE	W06
	BYTE		N08     Fs1   v076
	BYTE	W12
	BYTE		N05     Fs1   v088
	BYTE	W06
	BYTE		        Fs1   v076
	BYTE	W06
	BYTE		N08     Fs1   v072
	BYTE	W06
// 020   ----------------------------------------
	BYTE	W12
	BYTE		N05     Fs1   v056
	BYTE	W06
	BYTE		        Fs1   v068
	BYTE	W06
	BYTE		N08   
	BYTE	W12
	BYTE		        Fs1   v092
	BYTE	W12
	BYTE		        Fs1   v104
	BYTE	W12
	BYTE		N05     Fs1   v080
	BYTE	W06
	BYTE		        Fs1   v076
	BYTE	W06
	BYTE		N08     Fs1   v072
	BYTE	W12
	BYTE		N05     Fs1   v092
	BYTE	W06
	BYTE		        Fs1   v076
	BYTE	W06
// 021   ----------------------------------------
	BYTE		N08     Fs1   v072
	BYTE	W48
	BYTE		        Fs1   v092
	BYTE	W12
	BYTE		N05     Fs1   v084
	BYTE	W06
	BYTE		        Fs1   v064
	BYTE	W06
	BYTE		N08     Fs1   v068
	BYTE	W18
	BYTE		N05     Fs1   v076
	BYTE	W06
// 022   ----------------------------------------
	BYTE		N08     Fs1   v080
	BYTE	W12
	BYTE		N05     Fs1   v084
	BYTE	W06
	BYTE		        Fs1   v088
	BYTE	W06
	BYTE		N08     As1   v076
	BYTE	W21
	BYTE	GoTo
	 POIN2	fe7attack_7_B1
fe7attack_7_B2:
	BYTE	FINE

//******************************************************//
	ALIGN 4

fe7attack:
	BYTE	7	// NumTrks
	BYTE	0	// NumBlks
	BYTE	fe7attack_pri	// Priority
	BYTE	fe7attack_rev	// Reverb.

	POIN2	fe7attack_grp

	POIN2	fe7attack_1
	POIN2	fe7attack_2
	POIN2	fe7attack_3
	POIN2	fe7attack_4
	POIN2	fe7attack_5
	POIN2	fe7attack_6
	POIN2	fe7attack_7

	
