//Event file generated from Sappy .s format.
	#include "MPlayDef.event"

	#define	findthetruth_grp  voicegroup000
	#define	findthetruth_pri  0
	#define	findthetruth_rev  0
	#define	findthetruth_mvl  57
	#define	findthetruth_key  0
	#define	findthetruth_tbs  1
	#define	findthetruth_exg  0
	#define	findthetruth_cmp  1

	// .rodata
	//	findthetruth
	ALIGN 4

//**************** Track 1 (Midi-Chn.1) ****************//

findthetruth_1:
		BYTE 		BENDR   6
	BYTE	KEYSH   findthetruth_key+0
// 000   ----------------------------------------
	BYTE	TEMPO   167*findthetruth_tbs/2
	BYTE		VOICE   127
	BYTE		VOL     110*findthetruth_mvl/mxv
	BYTE		PAN     c_v+0
	BYTE		BEND    c_v+0
	BYTE		N02     Dn1   v052
	BYTE	W03
	BYTE		        Dn1   v068
	BYTE	W03
	BYTE		N11     Cn1   v120
	BYTE		N11     Dn1 
	BYTE	W36
	BYTE		        Cn1 
	BYTE		N11     Dn1 
	BYTE		N05     As1   v092
	BYTE	W12
findthetruth_1_B1:
	BYTE		N11     Cn1   v120
	BYTE		N03     Fs1   v068
	BYTE		N44     Cs2   v112
	BYTE		N03     En3   v060
	BYTE	W06
	BYTE		        En3   v040
	BYTE	W06
	BYTE		N11     As1   v076
	BYTE		N03     En3   v092
	BYTE	W06
	BYTE		        En3   v040
	BYTE	W06
	BYTE		N17     Dn1   v120
	BYTE		N03     Fs1   v080
	BYTE		N03     En3   v060
	BYTE	W06
	BYTE		        En3   v040
	BYTE	W06
	BYTE		N11     Cn1   v120
	BYTE		N11     As1   v076
	BYTE		N03     En3   v092
	BYTE	W06
// 001   ----------------------------------------
findthetruth_1_001:
	BYTE		N03     En3   v040
	BYTE	W06
	BYTE		        Fs1   v080
	BYTE		N03     En3   v060
	BYTE	W06
	BYTE		        En3   v040
	BYTE	W06
	BYTE		N11     Cn1   v120
	BYTE		N11     As1   v076
	BYTE		N03     En3   v092
	BYTE	W06
	BYTE		        En3   v040
	BYTE	W06
	BYTE		N17     Dn1   v120
	BYTE		N03     Fs1   v080
	BYTE		N03     En3   v060
	BYTE	W06
	BYTE		        En3   v040
	BYTE	W06
	BYTE		N11     As1   v076
	BYTE		N03     En3   v092
	BYTE	W06
	BYTE		        En3   v040
	BYTE	W06
	BYTE		N11     Cn1   v120
	BYTE		N03     Fs1   v080
	BYTE		N03     En3   v060
	BYTE	W06
	BYTE		        En3   v040
	BYTE	W06
	BYTE		N11     As1   v076
	BYTE		N03     En3   v092
	BYTE	W06
	BYTE		        En3   v040
	BYTE	W06
	BYTE		N17     Dn1   v120
	BYTE		N03     Fs1   v080
	BYTE		N03     En3   v060
	BYTE	W06
	BYTE		        En3   v040
	BYTE	W06
	BYTE		N11     As1   v076
	BYTE		N03     En3   v092
	BYTE	W06
	BYTE	PEND
// 002   ----------------------------------------
findthetruth_1_002:
	BYTE		N03     En3   v040
	BYTE	W06
	BYTE		N11     Cn1   v120
	BYTE		N03     Fs1   v080
	BYTE		N03     En3   v060
	BYTE	W06
	BYTE		        En3   v040
	BYTE	W06
	BYTE		N11     As1   v076
	BYTE		N03     En3   v092
	BYTE	W06
	BYTE		        En3   v040
	BYTE	W06
	BYTE		N17     Dn1   v120
	BYTE		N03     Fs1   v080
	BYTE		N03     En3   v060
	BYTE	W06
	BYTE		        En3   v040
	BYTE	W06
	BYTE		N11     As1   v076
	BYTE		N03     En3   v092
	BYTE	W06
	BYTE		        En3   v040
	BYTE	W06
	BYTE		N11     Cn1   v120
	BYTE		N03     Fs1   v080
	BYTE		N03     En3   v060
	BYTE	W06
	BYTE		        En3   v040
	BYTE	W06
	BYTE		N11     As1   v076
	BYTE		N03     En3   v092
	BYTE	W06
	BYTE		        En3   v040
	BYTE	W06
	BYTE		N17     Dn1   v120
	BYTE		N03     Fs1   v080
	BYTE		N03     En3   v060
	BYTE	W06
	BYTE		        En3   v040
	BYTE	W06
	BYTE		N11     Cn1   v120
	BYTE		N11     As1   v076
	BYTE		N03     En3   v092
	BYTE	W06
	BYTE	PEND
// 003   ----------------------------------------
findthetruth_1_003:
	BYTE		N03     En3   v040
	BYTE	W06
	BYTE		        Fs1   v080
	BYTE		N03     En3   v060
	BYTE	W06
	BYTE		        En3   v040
	BYTE	W06
	BYTE		N11     Cn1   v120
	BYTE		N11     As1   v076
	BYTE		N03     En3   v092
	BYTE	W06
	BYTE		        En3   v040
	BYTE	W06
	BYTE		N17     Dn1   v120
	BYTE		N03     Fs1   v080
	BYTE		N03     En3   v060
	BYTE	W06
	BYTE		        En3   v040
	BYTE	W06
	BYTE		N11     As1   v076
	BYTE		N03     En3   v092
	BYTE	W06
	BYTE		        En3   v040
	BYTE	W06
	BYTE		N11     Cn1   v120
	BYTE		N03     Fs1   v080
	BYTE		N03     En3   v060
	BYTE	W06
	BYTE		        En3   v040
	BYTE	W06
	BYTE		N11     As1   v076
	BYTE		N03     En3   v092
	BYTE	W06
	BYTE		        En3   v040
	BYTE	W06
	BYTE		N17     Dn1   v120
	BYTE		N03     Fs1   v080
	BYTE		N03     En3   v060
	BYTE	W06
	BYTE		        En3   v040
	BYTE	W06
	BYTE		N11     Cn1   v120
	BYTE		N11     As1   v076
	BYTE		N03     En3   v092
	BYTE	W06
	BYTE	PEND
// 004   ----------------------------------------
	BYTE	PATT
	 POIN2	findthetruth_1_003
// 005   ----------------------------------------
	BYTE	PATT
	 POIN2	findthetruth_1_003
// 006   ----------------------------------------
	BYTE	PATT
	 POIN2	findthetruth_1_003
// 007   ----------------------------------------
	BYTE		N03     En3   v040
	BYTE	W06
	BYTE		        Fs1   v080
	BYTE		N03     En3   v060
	BYTE	W06
	BYTE		        En3   v040
	BYTE	W06
	BYTE		N11     Cn1   v120
	BYTE		N11     As1   v076
	BYTE		N03     En3   v092
	BYTE	W06
	BYTE		        En3   v040
	BYTE	W06
	BYTE		N17     Dn1   v120
	BYTE		N03     Fs1   v080
	BYTE		N03     En3   v060
	BYTE	W06
	BYTE		        En3   v040
	BYTE	W06
	BYTE		N11     As1   v076
	BYTE		N03     En3   v092
	BYTE	W06
	BYTE		        En3   v040
	BYTE	W06
	BYTE		N11     Cn1   v120
	BYTE		N17     Dn1 
	BYTE		N03     Fs1   v080
	BYTE		N03     En3 
	BYTE	W36
	BYTE		N11     Cn1   v120
	BYTE		N03     En3   v092
	BYTE	W06
// 008   ----------------------------------------
	BYTE	W18
	BYTE		N11     Cn1   v120
	BYTE	W08
	BYTE		N03     Dn1   v100
	BYTE	W04
	BYTE		N17     Dn1   v120
	BYTE	W12
	BYTE		N11     Cn1 
	BYTE		N11     As1   v076
	BYTE	W12
	BYTE		        Cn1   v120
	BYTE		N03     Fs1   v080
	BYTE		N44     Cs2   v112
	BYTE		N03     En3   v060
	BYTE	W06
	BYTE		        En3   v040
	BYTE	W06
	BYTE		N11     As1   v076
	BYTE		N03     En3   v092
	BYTE	W06
	BYTE		        En3   v040
	BYTE	W06
	BYTE		N17     Dn1   v120
	BYTE		N03     Fs1   v080
	BYTE		N03     En3   v060
	BYTE	W06
	BYTE		        En3   v040
	BYTE	W06
	BYTE		N11     Cn1   v120
	BYTE		N11     As1   v076
	BYTE		N03     En3   v092
	BYTE	W06
// 009   ----------------------------------------
	BYTE	PATT
	 POIN2	findthetruth_1_003
// 010   ----------------------------------------
	BYTE		N03     En3   v040
	BYTE	W06
	BYTE		        Fs1   v080
	BYTE		N03     En3   v060
	BYTE	W06
	BYTE		        En3   v040
	BYTE	W06
	BYTE		N11     Cn1   v120
	BYTE		N11     As1   v076
	BYTE		N03     En3   v092
	BYTE	W06
	BYTE		        En3   v040
	BYTE	W06
	BYTE		N17     Dn1   v120
	BYTE		N03     Fs1   v080
	BYTE		N03     En3   v060
	BYTE	W06
	BYTE		        En3   v040
	BYTE	W06
	BYTE		N11     Cn1   v120
	BYTE		N11     As1   v076
	BYTE		N03     En3   v092
	BYTE	W06
	BYTE		        En3   v040
	BYTE	W06
	BYTE		N11     Cn1   v120
	BYTE		N03     Fs1   v080
	BYTE		N03     En3   v060
	BYTE	W06
	BYTE		        En3   v040
	BYTE	W06
	BYTE		N11     As1   v076
	BYTE		N03     En3   v092
	BYTE	W06
	BYTE		        En3   v040
	BYTE	W06
	BYTE		N17     Dn1   v120
	BYTE		N03     Fs1   v080
	BYTE		N03     En3   v060
	BYTE	W06
	BYTE		        En3   v040
	BYTE	W06
	BYTE		N11     Cn1   v120
	BYTE		N11     As1   v076
	BYTE		N03     En3   v092
	BYTE	W06
// 011   ----------------------------------------
	BYTE	PATT
	 POIN2	findthetruth_1_001
// 012   ----------------------------------------
	BYTE	PATT
	 POIN2	findthetruth_1_002
// 013   ----------------------------------------
	BYTE		N03     En3   v040
	BYTE	W06
	BYTE		        Fs1   v080
	BYTE		N03     En3   v060
	BYTE	W06
	BYTE		        En3   v040
	BYTE	W06
	BYTE		N11     Cn1   v120
	BYTE		N11     As1   v076
	BYTE		N03     En3   v092
	BYTE	W06
	BYTE		        En3   v040
	BYTE	W06
	BYTE		N17     Dn1   v120
	BYTE		N03     Fs1   v080
	BYTE		N03     En3   v060
	BYTE	W06
	BYTE		        En3   v040
	BYTE	W06
	BYTE		N11     As1   v076
	BYTE		N03     En3   v092
	BYTE	W06
	BYTE		        En3   v040
	BYTE	W06
	BYTE		N11     Cn1   v120
	BYTE		N23     Cs2   v112
	BYTE		N03     En3   v060
	BYTE	W06
	BYTE		        En3   v040
	BYTE	W06
	BYTE		N11     As1   v076
	BYTE		N03     En3   v092
	BYTE	W06
	BYTE		        En3   v040
	BYTE	W06
	BYTE		N17     Dn1   v120
	BYTE		N03     Fs1   v080
	BYTE		N03     En3   v060
	BYTE	W06
	BYTE		        En3   v040
	BYTE	W06
	BYTE		N11     Cn1   v120
	BYTE		N52     En2   v116
	BYTE		N03     En3   v092
	BYTE	W06
// 014   ----------------------------------------
	BYTE	PATT
	 POIN2	findthetruth_1_001
// 015   ----------------------------------------
	BYTE		N03     En3   v040
	BYTE	W06
	BYTE		N11     Cn1   v120
	BYTE		N03     Fs1   v080
	BYTE		N03     En3   v060
	BYTE	W06
	BYTE		        En3   v040
	BYTE	W06
	BYTE		N11     As1   v076
	BYTE		N03     En3   v092
	BYTE	W06
	BYTE		        En3   v040
	BYTE	W06
	BYTE		N17     Dn1   v120
	BYTE		N03     Fs1   v080
	BYTE		N03     En3   v060
	BYTE	W06
	BYTE		        En3   v040
	BYTE	W06
	BYTE		N11     Cn1   v120
	BYTE		N03     En3   v092
	BYTE	W24
	BYTE		N11     Cn1   v120
	BYTE		N03     En3   v092
	BYTE	W12
	BYTE		N11     Dn1   v120
	BYTE		N03     En3   v080
	BYTE	W12
	BYTE		N23     An1   v120
	BYTE		N03     En3   v092
	BYTE	W06
// 016   ----------------------------------------
	BYTE	W06
	BYTE		N11     Cn1   v120
	BYTE	W12
	BYTE		N11   
	BYTE		N03     En3   v092
	BYTE	W12
	BYTE		N11     Dn1   v120
	BYTE	W12
	BYTE		N17   
	BYTE	W12
	BYTE		N11     Cn1 
	BYTE		N40     En2   v112
	BYTE	W24
	BYTE		N23     Fn2   v076
	BYTE	W12
	BYTE		N05     Cn1   v060
	BYTE	W06
// 017   ----------------------------------------
	BYTE		N11     Cn1   v076
	BYTE	W06
	BYTE		N17     Dn1   v120
	BYTE		N23     Fn2   v084
	BYTE	W12
	BYTE		N11     Cn1   v120
	BYTE	W12
	BYTE		N23     Fn2   v076
	BYTE	W12
	BYTE		N11     Cn1   v120
	BYTE	W12
	BYTE		N23     Fn2   v076
	BYTE	W12
	BYTE		N11     Cn1   v120
	BYTE	W12
	BYTE		N11   
	BYTE		N23     Fn2   v076
	BYTE	W18
// 018   ----------------------------------------
	BYTE	W06
	BYTE		N17     Dn1   v120
	BYTE		N23     Fn2   v076
	BYTE	W12
	BYTE		N11     Cn1   v120
	BYTE	W12
	BYTE		N23     Fn2   v076
	BYTE	W12
	BYTE		N11     Cn1   v120
	BYTE	W12
	BYTE		N11   
	BYTE		N23     Fn2   v084
	BYTE	W12
	BYTE		N11     Cn1   v108
	BYTE	W12
	BYTE		N23     Fn2   v076
	BYTE	W12
	BYTE		N11     Cn1   v108
	BYTE	W06
// 019   ----------------------------------------
	BYTE	W06
	BYTE		N17     Dn1   v120
	BYTE		N23     Fn2   v076
	BYTE	W12
	BYTE		N11     Cn1   v120
	BYTE	W12
	BYTE		N23     Fn2   v084
	BYTE	W12
	BYTE		N11     Cn1   v120
	BYTE	W12
	BYTE		N23     Fn2   v076
	BYTE	W12
	BYTE		N11     Cn1   v120
	BYTE	W12
	BYTE		N11   
	BYTE		N11     Fn2   v072
	BYTE	W12
	BYTE		N23     Fn2   v076
	BYTE	W06
// 020   ----------------------------------------
	BYTE	W06
	BYTE		N17     Dn1   v120
	BYTE	W12
	BYTE		N11     Cn1 
	BYTE		N11     Fn2   v072
	BYTE	W12
	BYTE		        Fn2   v076
	BYTE	W12
	BYTE		        Cn1   v120
	BYTE		N11     Fn2   v076
	BYTE	W12
	BYTE		        Cn1   v120
	BYTE		N23     Fn2   v084
	BYTE	W24
	BYTE		        Fn2   v076
	BYTE	W12
	BYTE		N05     Cn1   v060
	BYTE	W06
// 021   ----------------------------------------
	BYTE		N11     Cn1   v076
	BYTE	W06
	BYTE		N17     Dn1   v120
	BYTE		N23     Fn2   v076
	BYTE	W12
	BYTE		N11     Cn1   v120
	BYTE	W12
	BYTE		N23     Fn2   v076
	BYTE	W12
	BYTE		N11     Cn1   v120
	BYTE	W12
	BYTE		N23     Fn2   v072
	BYTE	W12
	BYTE		N11     Cn1   v120
	BYTE	W12
	BYTE		N11   
	BYTE		N23     Fn2   v076
	BYTE	W18
// 022   ----------------------------------------
	BYTE	W06
	BYTE		N17     Dn1   v120
	BYTE		N23     Fn2   v072
	BYTE	W12
	BYTE		N11     Cn1   v120
	BYTE	W12
	BYTE		        Fn2   v072
	BYTE	W12
	BYTE		        Cn1   v120
	BYTE		N11     Fn2   v076
	BYTE	W12
	BYTE		        Cn1   v120
	BYTE		N23     Fn2   v084
	BYTE	W12
	BYTE		N11     Cn1   v108
	BYTE	W12
	BYTE		N23     Fn2   v076
	BYTE	W12
	BYTE		N11     Cn1   v108
	BYTE	W06
// 023   ----------------------------------------
	BYTE	W06
	BYTE		N17     Dn1   v120
	BYTE		N23     Fn2   v084
	BYTE	W12
	BYTE		N11     Cn1   v120
	BYTE	W12
	BYTE		N23     Fn2   v076
	BYTE	W12
	BYTE		N11     Cn1   v120
	BYTE	W12
	BYTE		N11   
	BYTE		N23     Fn2   v084
	BYTE	W24
	BYTE		        Fn2   v076
	BYTE	W12
	BYTE		N11     Cn1   v120
	BYTE		N05     Dn1   v052
	BYTE	W06
// 024   ----------------------------------------
	BYTE		        Dn1   v064
	BYTE	W06
	BYTE		N11     Dn1   v120
	BYTE		N23     Fn2   v076
	BYTE	W12
	BYTE		N11     Cn1   v120
	BYTE		N05     Cn2   v112
	BYTE	W06
	BYTE		        Cn2   v120
	BYTE	W06
	BYTE		        An1   v112
	BYTE		N23     Fn2   v084
	BYTE	W06
	BYTE		N05     An1   v120
	BYTE	W06
	BYTE		        Fn1   v112
	BYTE	W06
	BYTE		N17     Fn1   v116
	BYTE	W06
	BYTE		N11     Cn1   v120
	BYTE		N44     En2   v112
	BYTE	W12
	BYTE		N11     As1   v076
	BYTE		N11     Cn2   v112
	BYTE	W12
	BYTE		        Dn1   v120
	BYTE		N03     Fs1   v080
	BYTE	W12
	BYTE		N11     Cn1   v120
	BYTE		N28     Fn1   v112
	BYTE		N11     As1   v076
	BYTE	W06
// 025   ----------------------------------------
	BYTE	W06
	BYTE		N03     Fs1   v080
	BYTE	W12
	BYTE		N11     Cn1   v120
	BYTE		N11     As1   v076
	BYTE	W12
	BYTE		N17     Dn1   v120
	BYTE		N03     Fs1   v080
	BYTE	W12
	BYTE		N11     As1   v076
	BYTE	W12
	BYTE		        Cn1   v120
	BYTE		N03     Fs1   v080
	BYTE	W12
	BYTE		N17     Dn1   v120
	BYTE		N11     As1   v076
	BYTE	W12
	BYTE		N03     Fs1   v080
	BYTE	W12
	BYTE		N11     Cn1   v120
	BYTE		N11     As1   v076
	BYTE	W06
// 026   ----------------------------------------
	BYTE	W06
	BYTE		N17     Dn1   v120
	BYTE		N03     Fs1   v080
	BYTE	W12
	BYTE		N11     As1   v076
	BYTE	W12
	BYTE		N17     Dn1   v120
	BYTE		N03     Fs1   v080
	BYTE	W12
	BYTE		N11     As1   v076
	BYTE	W12
	BYTE		        Cn1   v120
	BYTE		N03     Fs1   v080
	BYTE	W12
	BYTE		N11     As1   v076
	BYTE	W12
	BYTE		N17     Dn1   v120
	BYTE		N03     Fs1   v080
	BYTE	W12
	BYTE		N11     Cn1   v120
	BYTE		N11     As1   v076
	BYTE	W06
// 027   ----------------------------------------
	BYTE	W06
	BYTE		N03     Fs1   v080
	BYTE	W12
	BYTE		N11     Cn1   v120
	BYTE		N11     As1   v076
	BYTE	W12
	BYTE		N17     Dn1   v120
	BYTE		N03     Fs1   v080
	BYTE	W12
	BYTE		N11     As1   v076
	BYTE	W12
	BYTE		        Cn1   v120
	BYTE		N03     Fs1   v080
	BYTE	W12
	BYTE		N17     Dn1   v120
	BYTE		N11     As1   v076
	BYTE	W12
	BYTE		N03     Fs1   v080
	BYTE	W12
	BYTE		N17     Dn1   v120
	BYTE		N11     As1   v076
	BYTE	W06
// 028   ----------------------------------------
	BYTE	W06
	BYTE		        Cn1   v120
	BYTE		N03     Fs1   v080
	BYTE	W12
	BYTE		N11     As1   v076
	BYTE	W12
	BYTE		N17     Dn1   v120
	BYTE		N03     Fs1   v080
	BYTE	W12
	BYTE		N11     En2   v112
	BYTE	W12
	BYTE		        Cn1   v120
	BYTE		N52     Cs2   v112
	BYTE	W12
	BYTE		N11     As1   v076
	BYTE	W12
	BYTE		N17     Dn1   v120
	BYTE		N03     Fs1   v080
	BYTE	W12
	BYTE		N11     Cn1   v120
	BYTE		N11     As1   v076
	BYTE	W06
// 029   ----------------------------------------
findthetruth_1_029:
	BYTE	W06
	BYTE		N03     Fs1   v080
	BYTE	W12
	BYTE		N11     Cn1   v120
	BYTE		N11     As1   v076
	BYTE	W12
	BYTE		N17     Dn1   v120
	BYTE		N03     Fs1   v080
	BYTE	W12
	BYTE		N11     As1   v076
	BYTE	W12
	BYTE		        Cn1   v120
	BYTE		N03     Fs1   v080
	BYTE	W12
	BYTE		N11     As1   v076
	BYTE	W12
	BYTE		N17     Dn1   v120
	BYTE		N03     Fs1   v080
	BYTE	W12
	BYTE		N11     Cn1   v120
	BYTE		N11     As1   v076
	BYTE	W06
	BYTE	PEND
// 030   ----------------------------------------
	BYTE	PATT
	 POIN2	findthetruth_1_029
// 031   ----------------------------------------
	BYTE	W06
	BYTE		N03     Fs1   v080
	BYTE	W12
	BYTE		N11     Cn1   v120
	BYTE		N11     As1   v076
	BYTE	W12
	BYTE		N17     Dn1   v120
	BYTE		N03     Fs1   v080
	BYTE	W12
	BYTE		N11     Cn1   v120
	BYTE		N11     As1   v076
	BYTE	W12
	BYTE		N03     Fs1   v080
	BYTE	W12
	BYTE		N11     Cn1   v120
	BYTE		N11     As1   v076
	BYTE	W12
	BYTE		N17     Dn1   v120
	BYTE		N03     Fs1   v080
	BYTE	W12
	BYTE		N11     Cn1   v120
	BYTE		N11     As1   v076
	BYTE	W06
// 032   ----------------------------------------
	BYTE	W06
	BYTE		N03     Fs1   v080
	BYTE	W12
	BYTE		N11     Cn1   v120
	BYTE		N11     As1   v076
	BYTE	W12
	BYTE		        Dn1   v120
	BYTE		N03     Fs1   v080
	BYTE	W12
	BYTE		N11     Cn1   v120
	BYTE		N05     Dn1   v084
	BYTE		N11     As1   v076
	BYTE	W06
	BYTE		N05     Dn1   v108
	BYTE	W06
	BYTE		N11     Cn1   v120
	BYTE		N17     Dn1 
	BYTE		N03     Fs1   v080
	BYTE	W24
	BYTE		N11     Cn1   v120
	BYTE	W18
// 033   ----------------------------------------
	BYTE	W06
	BYTE		N11   
	BYTE	W24
	BYTE		N11   
	BYTE	W24
	BYTE		N11   
	BYTE	W12
	BYTE		        Cn2   v112
	BYTE	W12
	BYTE		        Dn1 
	BYTE	W12
	BYTE		        Cn1   v120
	BYTE		N11     An1 
	BYTE	W06
// 034   ----------------------------------------
	BYTE	W06
	BYTE		        Gn1   v100
	BYTE	W12
	BYTE		        Cn1   v120
	BYTE		N11     Cn2 
	BYTE	W12
	BYTE		        Dn1 
	BYTE	W12
	BYTE		N32     Fn1   v112
	BYTE	W12
	BYTE		N11     Cn1   v120
	BYTE		N52     En2   v112
	BYTE		N03     En3   v060
	BYTE	W06
	BYTE		        En3   v040
	BYTE	W06
	BYTE		N11     As1   v076
	BYTE		N03     En3   v092
	BYTE	W06
	BYTE		        En3   v040
	BYTE	W06
	BYTE		N17     Dn1   v120
	BYTE		N03     Fs1   v080
	BYTE		N03     En3   v060
	BYTE	W06
	BYTE		        En3   v040
	BYTE	W06
	BYTE		N11     Cn1   v120
	BYTE		N11     As1   v076
	BYTE		N03     En3   v092
	BYTE	W06
// 035   ----------------------------------------
findthetruth_1_035:
	BYTE		N11     Dn1   v080
	BYTE		N03     En3   v040
	BYTE	W06
	BYTE		        Fs1   v080
	BYTE		N03     En3   v060
	BYTE	W06
	BYTE		N11     Dn1   v100
	BYTE		N03     En3   v040
	BYTE	W06
	BYTE		N11     Cn1   v120
	BYTE		N11     As1   v076
	BYTE		N03     En3   v092
	BYTE	W06
	BYTE		        En3   v040
	BYTE	W06
	BYTE		N17     Dn1   v120
	BYTE		N03     Fs1   v080
	BYTE		N03     En3   v060
	BYTE	W06
	BYTE		        En3   v040
	BYTE	W06
	BYTE		N11     Cn1   v120
	BYTE		N11     As1   v076
	BYTE		N03     En3   v092
	BYTE	W06
	BYTE		        En3   v040
	BYTE	W06
	BYTE		        Fs1   v080
	BYTE		N03     En3   v060
	BYTE	W06
	BYTE		        En3   v040
	BYTE	W06
	BYTE		N11     Cn1   v120
	BYTE		N11     As1   v076
	BYTE		N03     En3   v092
	BYTE	W06
	BYTE		        En3   v040
	BYTE	W06
	BYTE		N17     Dn1   v120
	BYTE		N03     Fs1   v080
	BYTE		N03     En3   v060
	BYTE	W06
	BYTE		        En3   v040
	BYTE	W06
	BYTE		N11     Cn1   v120
	BYTE		N11     As1   v076
	BYTE		N03     En3   v092
	BYTE	W06
	BYTE	PEND
// 036   ----------------------------------------
findthetruth_1_036:
	BYTE		N11     Dn1   v080
	BYTE		N03     En3   v040
	BYTE	W06
	BYTE		        Fs1   v080
	BYTE		N03     En3   v060
	BYTE	W06
	BYTE		N11     Dn1   v100
	BYTE		N03     En3   v040
	BYTE	W06
	BYTE		N11     Cn1   v120
	BYTE		N11     As1   v076
	BYTE		N03     En3   v092
	BYTE	W06
	BYTE		        En3   v040
	BYTE	W06
	BYTE		N17     Dn1   v120
	BYTE		N03     Fs1   v080
	BYTE		N03     En3   v060
	BYTE	W06
	BYTE		        En3   v040
	BYTE	W06
	BYTE		N11     As1   v076
	BYTE		N03     En3   v092
	BYTE	W06
	BYTE		        En3   v040
	BYTE	W06
	BYTE		N11     Cn1   v120
	BYTE		N03     Fs1   v080
	BYTE		N03     En3   v060
	BYTE	W06
	BYTE		        En3   v040
	BYTE	W06
	BYTE		N11     As1   v076
	BYTE		N03     En3   v092
	BYTE	W06
	BYTE		        En3   v040
	BYTE	W06
	BYTE		N17     Dn1   v120
	BYTE		N03     Fs1   v080
	BYTE		N03     En3   v060
	BYTE	W06
	BYTE		        En3   v040
	BYTE	W06
	BYTE		N11     Cn1   v120
	BYTE		N11     As1   v076
	BYTE		N03     En3   v092
	BYTE	W06
	BYTE	PEND
// 037   ----------------------------------------
	BYTE		N11     Dn1   v080
	BYTE		N03     En3   v040
	BYTE	W06
	BYTE		N11     Cn1   v120
	BYTE		N03     Fs1   v080
	BYTE		N03     En3   v060
	BYTE	W06
	BYTE		N11     Dn1   v100
	BYTE		N03     En3   v040
	BYTE	W06
	BYTE		N11     As1   v076
	BYTE		N03     En3   v092
	BYTE	W06
	BYTE		        En3   v040
	BYTE	W06
	BYTE		N17     Dn1   v120
	BYTE		N03     Fs1   v080
	BYTE		N03     En3   v060
	BYTE	W06
	BYTE		        En3   v040
	BYTE	W06
	BYTE		N11     Cn1   v120
	BYTE		N11     As1   v076
	BYTE		N03     En3   v092
	BYTE	W06
	BYTE		        En3   v040
	BYTE	W06
	BYTE		        Fs1   v080
	BYTE		N03     En3   v060
	BYTE	W06
	BYTE		        En3   v040
	BYTE	W06
	BYTE		N11     Cn1   v120
	BYTE		N11     As1   v076
	BYTE		N03     En3   v092
	BYTE	W06
	BYTE		        En3   v040
	BYTE	W06
	BYTE		N17     Dn1   v120
	BYTE		N03     Fs1   v080
	BYTE		N03     En3   v060
	BYTE	W06
	BYTE		        En3   v040
	BYTE	W06
	BYTE		N11     Cn1   v120
	BYTE		N11     As1   v076
	BYTE		N03     En3   v092
	BYTE	W06
// 038   ----------------------------------------
	BYTE	PATT
	 POIN2	findthetruth_1_036
// 039   ----------------------------------------
	BYTE	PATT
	 POIN2	findthetruth_1_035
// 040   ----------------------------------------
	BYTE		N11     Dn1   v080
	BYTE		N03     En3   v040
	BYTE	W06
	BYTE		        Fs1   v080
	BYTE		N03     En3   v060
	BYTE	W06
	BYTE		N11     Dn1   v100
	BYTE		N03     En3   v040
	BYTE	W06
	BYTE		N11     Cn1   v120
	BYTE		N11     As1   v076
	BYTE		N03     En3   v092
	BYTE	W06
	BYTE		        En3   v040
	BYTE	W06
	BYTE		N17     Dn1   v120
	BYTE		N03     Fs1   v080
	BYTE		N03     En3   v060
	BYTE	W06
	BYTE		        En3   v040
	BYTE	W06
	BYTE		N11     As1   v076
	BYTE		N03     En3   v092
	BYTE	W06
	BYTE		        En3   v040
	BYTE	W06
	BYTE		N17     Dn1   v120
	BYTE		N03     Fs1   v080
	BYTE		N03     En3   v060
	BYTE	W06
	BYTE		        En3   v040
	BYTE	W06
	BYTE		N05     Cn1   v112
	BYTE		N11     As1   v076
	BYTE		N03     En3   v092
	BYTE	W06
	BYTE		N11     Cn1   v120
	BYTE		N03     En3   v040
	BYTE	W06
	BYTE		N17     Dn1   v120
	BYTE		N03     Fs1   v080
	BYTE		N03     En3   v060
	BYTE	W06
	BYTE		        En3   v040
	BYTE	W06
	BYTE		N05     Cn1   v112
	BYTE		N11     As1   v076
	BYTE		N03     En3   v092
	BYTE	W06
// 041   ----------------------------------------
	BYTE		N11     Cn1   v120
	BYTE		N05     Dn1   v100
	BYTE		N03     En3   v040
	BYTE	W06
	BYTE		N05     Dn1   v120
	BYTE		N03     Fs1   v080
	BYTE		N03     En3   v060
	BYTE	W06
	BYTE		N11     Dn1   v100
	BYTE		N03     En3   v040
	BYTE	W06
	BYTE		N05     Cn1   v112
	BYTE		N11     As1   v076
	BYTE		N03     En3   v092
	BYTE	W06
	BYTE		N11     Cn1   v120
	BYTE		N03     En3   v040
	BYTE	W06
	BYTE		N17     Dn1   v120
	BYTE		N03     Fs1   v080
	BYTE		N03     En3   v060
	BYTE	W06
	BYTE		        En3   v040
	BYTE	W06
	BYTE		N05     Cn1   v112
	BYTE		N11     As1   v076
	BYTE		N03     En3   v092
	BYTE	W06
	BYTE		N11     Cn1   v120
	BYTE		N03     En3   v040
	BYTE	W06
	BYTE		N17     Dn1   v120
	BYTE		N03     Fs1   v080
	BYTE		N03     En3   v060
	BYTE	W06
	BYTE		        En3   v040
	BYTE	W06
	BYTE		N05     Cn1   v112
	BYTE		N11     As1   v076
	BYTE		N03     En3   v092
	BYTE	W06
	BYTE		N11     Cn1   v120
	BYTE		N03     En3   v040
	BYTE	W06
	BYTE		N17     Dn1   v120
	BYTE		N03     Fs1   v080
	BYTE		N03     En3   v060
	BYTE	W06
	BYTE		        En3   v040
	BYTE	W06
	BYTE		N05     Cn1   v112
	BYTE		N11     As1   v076
	BYTE		N03     En3   v092
	BYTE	W06
// 042   ----------------------------------------
	BYTE		N11     Cn1   v120
	BYTE		N05     Dn1   v100
	BYTE		N03     En3   v040
	BYTE	W06
	BYTE		N05     Dn1   v112
	BYTE		N03     Fs1   v080
	BYTE		N03     En3   v060
	BYTE	W06
	BYTE		N05     Dn1   v116
	BYTE		N03     En3   v040
	BYTE	W06
	BYTE		N11     Cn1   v120
	BYTE		N05     Dn1 
	BYTE		N11     As1   v076
	BYTE		N03     En3   v092
	BYTE	W06
	BYTE		N05     Dn1   v124
	BYTE		N03     En3   v040
	BYTE	W06
	BYTE		N23     Dn1   v127
	BYTE		N17     As1   v076
	BYTE		N03     En3   v080
	BYTE	W24
	BYTE		N11     Cn1   v120
	BYTE		N44     Cs2   v112
	BYTE	W42
// 043   ----------------------------------------
	BYTE	W96
// 044   ----------------------------------------
	BYTE	W54
	BYTE		N11     Cn1   v120
	BYTE		N03     Fs1   v080
	BYTE	W12
	BYTE		        Fs1   v064
	BYTE	W06
	BYTE		N03   
	BYTE	W06
	BYTE		N11     Cn1   v120
	BYTE		N03     Fs1   v088
	BYTE	W12
	BYTE		        Fs1   v072
	BYTE	W06
// 045   ----------------------------------------
	BYTE		        Fs1   v056
	BYTE	W06
	BYTE		N11     Cn1   v120
	BYTE		N03     Fs1   v084
	BYTE	W12
	BYTE		        Fs1   v072
	BYTE	W06
	BYTE		        Fs1   v068
	BYTE	W06
	BYTE		N11     Cn1   v120
	BYTE		N03     Fs1   v084
	BYTE	W12
	BYTE		        Fs1   v072
	BYTE	W06
	BYTE		        Fs1   v064
	BYTE	W06
	BYTE		N11     Cn1   v120
	BYTE		N03     Fs1   v080
	BYTE	W12
	BYTE		        Fs1   v064
	BYTE	W06
	BYTE		N03   
	BYTE	W06
	BYTE		N11     Cn1   v120
	BYTE		N03     Fs1   v088
	BYTE	W12
	BYTE		        Fs1   v072
	BYTE	W06
// 046   ----------------------------------------
	BYTE		        Fs1   v056
	BYTE	W06
	BYTE		N11     Cn1   v120
	BYTE		N03     Fs1   v084
	BYTE	W12
	BYTE		        Fs1   v072
	BYTE	W06
	BYTE		        Fs1   v068
	BYTE	W06
	BYTE		N11     Cn1   v120
	BYTE		N03     Fs1   v084
	BYTE	W12
	BYTE		        Fs1   v072
	BYTE	W06
	BYTE		        Fs1   v064
	BYTE	W06
	BYTE		N11     Cn1   v120
	BYTE		N03     Fs1   v088
	BYTE	W12
	BYTE		        Fs1   v072
	BYTE	W06
	BYTE		        Fs1   v064
	BYTE	W06
	BYTE		N11     Cn1   v120
	BYTE		N17     Dn1 
	BYTE		N03     Fs1   v080
	BYTE	W12
	BYTE		        Fs1   v064
	BYTE	W06
// 047   ----------------------------------------
	BYTE		        Fs1   v068
	BYTE	W06
	BYTE		N11     Cn1   v120
	BYTE		N03     Fs1   v084
	BYTE	W12
	BYTE		        Fs1   v068
	BYTE	W06
	BYTE		        Fs1   v060
	BYTE	W06
	BYTE		N11     Cn1   v120
	BYTE		N17     Dn1 
	BYTE		N03     Fs1   v080
	BYTE	W12
	BYTE		        Fs1   v072
	BYTE	W06
	BYTE		        Fs1   v060
	BYTE	W06
	BYTE		N11     Cn1   v120
	BYTE		N03     Fs1   v080
	BYTE	W12
	BYTE		        Fs1   v064
	BYTE	W06
	BYTE		N03   
	BYTE	W06
	BYTE		N11     Cn1   v120
	BYTE		N17     Dn1 
	BYTE		N03     Fs1   v088
	BYTE	W12
	BYTE		        Fs1   v072
	BYTE	W06
// 048   ----------------------------------------
	BYTE		        Fs1   v056
	BYTE	W06
	BYTE		N11     Cn1   v120
	BYTE		N03     Fs1   v084
	BYTE	W12
	BYTE		        Fs1   v072
	BYTE	W06
	BYTE		        Fs1   v068
	BYTE	W06
	BYTE		N11     Cn1   v120
	BYTE		N17     Dn1 
	BYTE		N03     Fs1   v084
	BYTE	W12
	BYTE		N11     Cn1   v120
	BYTE		N03     Fs1   v072
	BYTE	W06
	BYTE		        Fs1   v064
	BYTE	W06
	BYTE		        Fs1   v080
	BYTE	W12
	BYTE		N11     Cn1   v120
	BYTE		N03     Fs1   v064
	BYTE	W06
	BYTE		N03   
	BYTE	W06
	BYTE		N11     Cn1   v120
	BYTE		N17     Dn1 
	BYTE		N03     Fs1   v088
	BYTE	W12
	BYTE		        Fs1   v072
	BYTE	W06
// 049   ----------------------------------------
	BYTE		        Fs1   v056
	BYTE	W06
	BYTE		N11     Cn1   v120
	BYTE		N03     Fs1   v084
	BYTE	W12
	BYTE		        Fs1   v072
	BYTE	W06
	BYTE		        Fs1   v068
	BYTE	W06
	BYTE		N11     Cn1   v120
	BYTE		N11     Dn1 
	BYTE		N03     Fs1   v084
	BYTE	W12
	BYTE		N11     Cn1   v120
	BYTE		N11     Dn1 
	BYTE		N17     As1   v080
	BYTE	W12
	BYTE		N05     Dn1   v084
	BYTE	W06
	BYTE		        Dn1   v108
	BYTE	W06
	BYTE		N11     Dn1   v120
	BYTE	W12
	BYTE		N05     Gs1   v064
	BYTE		N11     An1   v112
	BYTE	W12
	BYTE		        Cn1   v120
	BYTE		N28     Fn1 
	BYTE	W06
// 050   ----------------------------------------
	BYTE		N11     An1 
	BYTE	W12
	BYTE		N05     Cn2   v100
	BYTE	W06
	BYTE		N11     Cn1   v120
	BYTE		N05     Cn2   v112
	BYTE		N32     En2 
	BYTE	W06
	BYTE		N05     Cn2   v120
	BYTE	W06
	BYTE		N17     Dn1 
	BYTE	W06
	BYTE		N03     Fs1   v072
	BYTE		N05     An1   v120
	BYTE	W06
	BYTE		N28     Fn1   v112
	BYTE		N11     As1   v080
	BYTE	W06
	BYTE		N17     Dn1   v120
	BYTE	W23
	BYTE	GoTo
	 POIN2	findthetruth_1_B1
findthetruth_1_B2:
	BYTE	FINE

//**************** Track 2 (Midi-Chn.2) ****************//

findthetruth_2:
		BYTE 		BENDR   6
	BYTE	KEYSH   findthetruth_key+0
// 000   ----------------------------------------
	BYTE		VOICE   34
	BYTE		VOL     120*findthetruth_mvl/mxv
	BYTE		PAN     c_v+0
	BYTE		BEND    c_v+0
	BYTE	W06
	BYTE		N15     Cn2   v120
	BYTE	W18
	BYTE		N15   
	BYTE	W18
	BYTE		N10   
	BYTE	W12
findthetruth_2_B1:
	BYTE		N11     Fn1   v120
	BYTE	W12
	BYTE		N11   
	BYTE	W12
	BYTE		N11   
	BYTE	W12
	BYTE		N23   
	BYTE	W06
// 001   ----------------------------------------
	BYTE	W18
	BYTE		N11   
	BYTE	W12
	BYTE		N11   
	BYTE	W12
	BYTE		N23   
	BYTE	W24
	BYTE		N11   
	BYTE	W12
	BYTE		N11   
	BYTE	W12
	BYTE		N23     Ds2 
	BYTE	W06
// 002   ----------------------------------------
findthetruth_2_002:
	BYTE	W18
	BYTE		N11     Ds2   v120
	BYTE	W12
	BYTE		N11   
	BYTE	W12
	BYTE		N11   
	BYTE	W12
	BYTE		        Cs2 
	BYTE	W12
	BYTE		N11   
	BYTE	W12
	BYTE		N11   
	BYTE	W12
	BYTE		N23   
	BYTE	W06
	BYTE	PEND
// 003   ----------------------------------------
findthetruth_2_003:
	BYTE	W18
	BYTE		N11     Cs2   v120
	BYTE	W12
	BYTE		N11   
	BYTE	W12
	BYTE		N11   
	BYTE	W12
	BYTE		N11   
	BYTE	W12
	BYTE		N11   
	BYTE	W12
	BYTE		N11   
	BYTE	W12
	BYTE		N23   
	BYTE	W06
	BYTE	PEND
// 004   ----------------------------------------
findthetruth_2_004:
	BYTE	W18
	BYTE		N11     Cs2   v120
	BYTE	W12
	BYTE		N11   
	BYTE	W12
	BYTE		N11   
	BYTE	W12
	BYTE		        Cn2 
	BYTE	W12
	BYTE		N11   
	BYTE	W12
	BYTE		N11   
	BYTE	W12
	BYTE		N23   
	BYTE	W06
	BYTE	PEND
// 005   ----------------------------------------
	BYTE	W18
	BYTE		N11   
	BYTE	W12
	BYTE		N11   
	BYTE	W12
	BYTE		N11   
	BYTE	W12
	BYTE		        Fn2 
	BYTE	W12
	BYTE		N11   
	BYTE	W12
	BYTE		N11   
	BYTE	W12
	BYTE		N23     Ds2 
	BYTE	W06
// 006   ----------------------------------------
	BYTE	PATT
	 POIN2	findthetruth_2_002
// 007   ----------------------------------------
	BYTE	W18
	BYTE		N11     Cs2   v120
	BYTE	W12
	BYTE		N11   
	BYTE	W12
	BYTE		N11   
	BYTE	W12
	BYTE		N16     Cn2 
	BYTE	W36
	BYTE		N16   
	BYTE	W06
// 008   ----------------------------------------
	BYTE	W18
	BYTE		N05     As2 
	BYTE	W06
	BYTE		        Cn3 
	BYTE	W06
	BYTE		        Fn2 
	BYTE	W06
	BYTE		        Gn2 
	BYTE	W06
	BYTE		N11     Cn2 
	BYTE	W12
	BYTE		        Fn1 
	BYTE	W12
	BYTE		N11   
	BYTE	W12
	BYTE		N11   
	BYTE	W12
	BYTE		N23   
	BYTE	W06
// 009   ----------------------------------------
	BYTE	W18
	BYTE		N11   
	BYTE	W12
	BYTE		N11   
	BYTE	W12
	BYTE		N05     As1 
	BYTE	W06
	BYTE		        Cn2 
	BYTE	W06
	BYTE		N11     Fn2 
	BYTE	W12
	BYTE		N11   
	BYTE	W12
	BYTE		N11   
	BYTE	W12
	BYTE		N23     Ds2 
	BYTE	W06
// 010   ----------------------------------------
	BYTE	PATT
	 POIN2	findthetruth_2_002
// 011   ----------------------------------------
	BYTE	PATT
	 POIN2	findthetruth_2_003
// 012   ----------------------------------------
	BYTE	PATT
	 POIN2	findthetruth_2_004
// 013   ----------------------------------------
	BYTE	W18
	BYTE		N11     Cn2   v120
	BYTE	W12
	BYTE		N23   
	BYTE	W24
	BYTE		N11     Fn2 
	BYTE	W12
	BYTE		        Cn2 
	BYTE	W12
	BYTE		        Fn2 
	BYTE	W12
	BYTE		N22     Ds2 
	BYTE	W06
// 014   ----------------------------------------
	BYTE	W18
	BYTE		N11   
	BYTE	W12
	BYTE		N23   
	BYTE	W24
	BYTE		N11     Cs2 
	BYTE	W12
	BYTE		N11   
	BYTE	W12
	BYTE		N11   
	BYTE	W12
	BYTE		N11   
	BYTE	W06
// 015   ----------------------------------------
	BYTE	W06
	BYTE		        Ds2 
	BYTE	W12
	BYTE		N11   
	BYTE	W12
	BYTE		N11   
	BYTE	W12
	BYTE		        Fn2 
	BYTE	W24
	BYTE		        Fn1 
	BYTE	W12
	BYTE		        Gn1 
	BYTE	W12
	BYTE		        Gs1 
	BYTE	W06
// 016   ----------------------------------------
	BYTE	W18
	BYTE		N20     Fn1 
	BYTE	W24
	BYTE		N10   
	BYTE	W12
	BYTE		N28     Cs2 
	BYTE	W36
	BYTE		N11   
	BYTE	W06
// 017   ----------------------------------------
	BYTE	W06
	BYTE		N23   
	BYTE	W24
	BYTE		N11     Gs1 
	BYTE	W12
	BYTE		        Cs2 
	BYTE	W12
	BYTE		N11   
	BYTE	W12
	BYTE		        Gs2 
	BYTE	W12
	BYTE		        Gn2 
	BYTE	W12
	BYTE		N23     Fn2 
	BYTE	W06
// 018   ----------------------------------------
	BYTE	W18
	BYTE		N11     Cs2 
	BYTE	W12
	BYTE		        Gs1 
	BYTE	W12
	BYTE		        Cs2 
	BYTE	W12
	BYTE		N32     Cn2 
	BYTE	W36
	BYTE		N11   
	BYTE	W06
// 019   ----------------------------------------
	BYTE	W06
	BYTE		N23   
	BYTE	W24
	BYTE		N11     Gn1 
	BYTE	W12
	BYTE		        Cn2 
	BYTE	W12
	BYTE		N11   
	BYTE	W12
	BYTE		        Gn1 
	BYTE	W12
	BYTE		        As1 
	BYTE	W12
	BYTE		N23     Cn2 
	BYTE	W06
// 020   ----------------------------------------
	BYTE	W18
	BYTE		N11     Ds2 
	BYTE	W12
	BYTE		        Gn2 
	BYTE	W12
	BYTE		N12     Gs2 
	BYTE	W12
	BYTE		N32     As2 
	BYTE	W36
	BYTE		N23     As1 
	BYTE	W06
// 021   ----------------------------------------
	BYTE	W18
	BYTE		N11   
	BYTE	W12
	BYTE		        Fn1 
	BYTE	W12
	BYTE		        As1 
	BYTE	W12
	BYTE		        Fn1 
	BYTE	W12
	BYTE		        As1 
	BYTE	W12
	BYTE		        Cn2 
	BYTE	W12
	BYTE		N23     Cs2 
	BYTE	W06
// 022   ----------------------------------------
	BYTE	W18
	BYTE		N11     Cn2 
	BYTE	W12
	BYTE		N23     As1 
	BYTE	W24
	BYTE		N32     Gs1 
	BYTE	W36
	BYTE		        Ds2 
	BYTE	W06
// 023   ----------------------------------------
	BYTE	W30
	BYTE		N11     Gs1 
	BYTE	W12
	BYTE		N23     Cn3 
	BYTE	W24
	BYTE		N11     As2 
	BYTE	W12
	BYTE		        Gs2 
	BYTE	W12
	BYTE		N23     Ds2 
	BYTE	W06
// 024   ----------------------------------------
	BYTE	W18
	BYTE		N18     Gs1 
	BYTE	W24
	BYTE		N12   
	BYTE	W12
	BYTE		N30     Fs1 
	BYTE	W36
	BYTE		N07   
	BYTE	W06
// 025   ----------------------------------------
	BYTE	W18
	BYTE		N05   
	BYTE	W12
	BYTE		N32   
	BYTE	W36
	BYTE		N08   
	BYTE	W24
	BYTE		N04   
	BYTE	W06
// 026   ----------------------------------------
	BYTE	W06
	BYTE		N18   
	BYTE	W24
	BYTE		N18   
	BYTE	W24
	BYTE		N23     Fn1 
	BYTE	W24
	BYTE		N11   
	BYTE	W12
	BYTE		N23   
	BYTE	W06
// 027   ----------------------------------------
	BYTE	W18
	BYTE		N11     Gn1 
	BYTE	W12
	BYTE		        An1 
	BYTE	W12
	BYTE		N23     Cn2 
	BYTE	W24
	BYTE		N11     Cn3 
	BYTE	W12
	BYTE		        As2 
	BYTE	W12
	BYTE		        Gs2 
	BYTE	W06
// 028   ----------------------------------------
	BYTE	W06
	BYTE		        Fn2 
	BYTE	W12
	BYTE		        Ds2 
	BYTE	W12
	BYTE		        Cn2 
	BYTE	W12
	BYTE		        Gs1 
	BYTE	W12
	BYTE		        Dn2 
	BYTE	W12
	BYTE		N11   
	BYTE	W12
	BYTE		N11   
	BYTE	W12
	BYTE		N23   
	BYTE	W06
// 029   ----------------------------------------
	BYTE	W18
	BYTE		N11   
	BYTE	W12
	BYTE		N11   
	BYTE	W12
	BYTE		N11   
	BYTE	W12
	BYTE		N11   
	BYTE	W12
	BYTE		N11   
	BYTE	W12
	BYTE		N11   
	BYTE	W12
	BYTE		N23   
	BYTE	W06
// 030   ----------------------------------------
	BYTE	W18
	BYTE		N11   
	BYTE	W12
	BYTE		N11   
	BYTE	W12
	BYTE		N11   
	BYTE	W12
	BYTE		        Cn2 
	BYTE	W12
	BYTE		N11   
	BYTE	W12
	BYTE		N11   
	BYTE	W12
	BYTE		N23   
	BYTE	W06
// 031   ----------------------------------------
	BYTE	W18
	BYTE		N11   
	BYTE	W12
	BYTE		N11   
	BYTE	W12
	BYTE		N11   
	BYTE	W12
	BYTE		N11   
	BYTE	W12
	BYTE		N11   
	BYTE	W12
	BYTE		N11   
	BYTE	W12
	BYTE		N23   
	BYTE	W06
// 032   ----------------------------------------
	BYTE	W18
	BYTE		N11   
	BYTE	W12
	BYTE		N11   
	BYTE	W12
	BYTE		N11   
	BYTE	W24
	BYTE		        Ds2 
	BYTE	W12
	BYTE		        Cs2 
	BYTE	W12
	BYTE		        Cn2 
	BYTE	W06
// 033   ----------------------------------------
	BYTE	W06
	BYTE		        As1 
	BYTE	W12
	BYTE		        Gs1 
	BYTE	W12
	BYTE		        Gn1 
	BYTE	W12
	BYTE		        Cn2 
	BYTE	W24
	BYTE		N11   
	BYTE	W12
	BYTE		        As1 
	BYTE	W12
	BYTE		        Cn2 
	BYTE	W06
// 034   ----------------------------------------
	BYTE	W06
	BYTE		        Gs1 
	BYTE	W12
	BYTE		        Cn2 
	BYTE	W12
	BYTE		        Gn1 
	BYTE	W12
	BYTE		        Cn2 
	BYTE	W12
	BYTE		        Fn1 
	BYTE	W12
	BYTE		        Gn1 
	BYTE	W12
	BYTE		        Gs1 
	BYTE	W12
	BYTE		        As1 
	BYTE	W06
// 035   ----------------------------------------
	BYTE	W06
	BYTE		        Gn1 
	BYTE	W12
	BYTE		        Gs1 
	BYTE	W12
	BYTE		        As1 
	BYTE	W12
	BYTE		        Cn2 
	BYTE	W12
	BYTE		        Gs1 
	BYTE	W12
	BYTE		        As1 
	BYTE	W12
	BYTE		        Cn2 
	BYTE	W12
	BYTE		N22     As1 
	BYTE	W06
// 036   ----------------------------------------
	BYTE	W18
	BYTE		N09   
	BYTE	W12
	BYTE		N22   
	BYTE	W24
	BYTE		N11     Fn1 
	BYTE	W12
	BYTE		        Gn1 
	BYTE	W12
	BYTE		        Gs1 
	BYTE	W12
	BYTE		        As1 
	BYTE	W06
// 037   ----------------------------------------
	BYTE	W06
	BYTE		        Gn1 
	BYTE	W12
	BYTE		        Gs1 
	BYTE	W12
	BYTE		        As1 
	BYTE	W12
	BYTE		        Cn2 
	BYTE	W12
	BYTE		        Gs1 
	BYTE	W12
	BYTE		        As1 
	BYTE	W12
	BYTE		        Cn2 
	BYTE	W12
	BYTE		N20     As1 
	BYTE	W06
// 038   ----------------------------------------
	BYTE	W18
	BYTE		N10   
	BYTE	W12
	BYTE		N20   
	BYTE	W24
	BYTE		N11     Fn1 
	BYTE	W12
	BYTE		        Gn1 
	BYTE	W12
	BYTE		        Gs1 
	BYTE	W12
	BYTE		        As1 
	BYTE	W06
// 039   ----------------------------------------
	BYTE	W06
	BYTE		        Gn1 
	BYTE	W12
	BYTE		        Gs1 
	BYTE	W12
	BYTE		        As1 
	BYTE	W12
	BYTE		        Cn2 
	BYTE	W12
	BYTE		        Gs1 
	BYTE	W12
	BYTE		        As1 
	BYTE	W12
	BYTE		        Cn2 
	BYTE	W12
	BYTE		N21     As1 
	BYTE	W06
// 040   ----------------------------------------
	BYTE	W18
	BYTE		N10   
	BYTE	W12
	BYTE		N09     Cn2 
	BYTE	W12
	BYTE		N09   
	BYTE	W12
	BYTE		N11     Fn1 
	BYTE	W12
	BYTE		        Gn1 
	BYTE	W12
	BYTE		        Gs1 
	BYTE	W12
	BYTE		        As1 
	BYTE	W06
// 041   ----------------------------------------
	BYTE	W06
	BYTE		        Gn1 
	BYTE	W12
	BYTE		        Gs1 
	BYTE	W12
	BYTE		        As1 
	BYTE	W12
	BYTE		        Cn2 
	BYTE	W12
	BYTE		        Gs1 
	BYTE	W12
	BYTE		        As1 
	BYTE	W12
	BYTE		        Cn2 
	BYTE	W12
	BYTE		N24     As1 
	BYTE	W06
// 042   ----------------------------------------
	BYTE	W18
	BYTE		N11     Cn2 
	BYTE	W12
	BYTE		N23     Ds2 
	BYTE	W24
	BYTE		N11     Fn1 
	BYTE	W12
	BYTE		N11   
	BYTE	W12
	BYTE		N11   
	BYTE	W12
	BYTE		N11   
	BYTE	W06
// 043   ----------------------------------------
findthetruth_2_043:
	BYTE	W06
	BYTE		N11     Fn1   v120
	BYTE	W12
	BYTE		N11   
	BYTE	W12
	BYTE		N11   
	BYTE	W12
	BYTE		N11   
	BYTE	W12
	BYTE		N11   
	BYTE	W12
	BYTE		N11   
	BYTE	W12
	BYTE		N11   
	BYTE	W12
	BYTE		N11   
	BYTE	W06
	BYTE	PEND
// 044   ----------------------------------------
	BYTE	PATT
	 POIN2	findthetruth_2_043
// 045   ----------------------------------------
	BYTE	PATT
	 POIN2	findthetruth_2_043
// 046   ----------------------------------------
	BYTE	PATT
	 POIN2	findthetruth_2_043
// 047   ----------------------------------------
	BYTE	PATT
	 POIN2	findthetruth_2_043
// 048   ----------------------------------------
	BYTE	W06
	BYTE		N11     Fn1   v120
	BYTE	W12
	BYTE		N11   
	BYTE	W12
	BYTE		N11   
	BYTE	W12
	BYTE		N23   
	BYTE	W24
	BYTE		N11   
	BYTE	W12
	BYTE		N11   
	BYTE	W12
	BYTE		N11   
	BYTE	W06
// 049   ----------------------------------------
	BYTE	W06
	BYTE		N11   
	BYTE	W12
	BYTE		N11   
	BYTE	W12
	BYTE		N11   
	BYTE	W12
	BYTE		        Cn2 
	BYTE	W48
	BYTE		N11   
	BYTE	W06
// 050   ----------------------------------------
	BYTE	W18
	BYTE		N11   
	BYTE	W52
	BYTE	W01
	BYTE	GoTo
	 POIN2	findthetruth_2_B1
findthetruth_2_B2:
	BYTE	FINE

//**************** Track 3 (Midi-Chn.3) ****************//

findthetruth_3:
	BYTE	KEYSH   findthetruth_key+0
			BYTE 		BENDR   6
// 000   ----------------------------------------
	BYTE		VOICE   80
	BYTE		VOL     90*findthetruth_mvl/mxv
	BYTE		PAN     c_v+0
	BYTE		BEND    c_v+0
	BYTE	W54
findthetruth_3_B1:
	BYTE	W42
// 001   ----------------------------------------
	BYTE	W96
// 002   ----------------------------------------
	BYTE	W96
// 003   ----------------------------------------
	BYTE	W96
// 004   ----------------------------------------
	BYTE	W96
// 005   ----------------------------------------
	BYTE	W96
// 006   ----------------------------------------
	BYTE	W96
// 007   ----------------------------------------
	BYTE	W96
// 008   ----------------------------------------
	BYTE	W96
// 009   ----------------------------------------
	BYTE	W96
// 010   ----------------------------------------
	BYTE	W96
// 011   ----------------------------------------
	BYTE	W96
// 012   ----------------------------------------
	BYTE	W96
// 013   ----------------------------------------
	BYTE	W96
// 014   ----------------------------------------
	BYTE	W96
// 015   ----------------------------------------
	BYTE	W96
// 016   ----------------------------------------
	BYTE	W06
	BYTE		N05     Cs3   v104
	BYTE	W06
	BYTE		        Ds3   v092
	BYTE	W06
	BYTE		        Fn3   v104
	BYTE	W06
	BYTE		        Gn3   v092
	BYTE	W06
	BYTE		        Gs3   v104
	BYTE	W06
	BYTE		        As3   v092
	BYTE	W06
	BYTE		        Cn4   v104
	BYTE	W06
	BYTE		        Cs4   v092
	BYTE	W03
	BYTE		BEND    c_v-16
	BYTE	W01
	BYTE		        c_v-41
	BYTE	W01
	BYTE		        c_v-62
	BYTE	W01
	BYTE		TIE     Ds4   v104
	BYTE	W01
	BYTE		BEND    c_v-64
	BYTE	W01
	BYTE		        c_v-53
	BYTE	W01
	BYTE		        c_v-40
	BYTE	W01
	BYTE		        c_v-27
	BYTE	W01
	BYTE		        c_v-15
	BYTE	W01
	BYTE		        c_v+0
	BYTE	W36
// 017   ----------------------------------------
	BYTE	W07
	BYTE		MOD     7
	BYTE	W02
	BYTE		        16
	BYTE	W02
	// BYTE		        28
	BYTE	W01
	// BYTE		        36
	BYTE	W01
	// BYTE		        44
	BYTE	W02
	// BYTE		        55
	BYTE	W04
	// BYTE		        67
	BYTE	W03
	// BYTE		        82
	BYTE	W01
	// BYTE		        90
	BYTE	W02
	// BYTE		        99
	BYTE	W03
	// BYTE		        106
	BYTE	W05
	// BYTE		        115
	BYTE	W04
	// BYTE		        121
	BYTE	W02
	// BYTE		        127
	BYTE	W12
	// BYTE		        116
	BYTE	W02
	// BYTE		        103
	BYTE	W01
	// BYTE		        84
	BYTE	W01
	// BYTE		        64
	BYTE	W01
	// BYTE		        42
	BYTE	W01
	// BYTE		        16
	BYTE	W01
	BYTE		        0
	BYTE	W07
	BYTE		EOT   
	BYTE	W01
	BYTE		N05     Ds4   v060
	BYTE	W03
	BYTE		BEND    c_v-16
	BYTE	W02
	BYTE		        c_v-39
	BYTE	W01
	BYTE		        c_v-55
	BYTE		N05     Ds4   v052
	BYTE	W01
	BYTE		BEND    c_v-61
	BYTE	W01
	BYTE		        c_v-55
	BYTE	W01
	BYTE		        c_v-48
	BYTE	W01
	BYTE		        c_v-40
	BYTE	W01
	BYTE		        c_v-30
	BYTE	W01
	BYTE		        c_v-15
	BYTE		N23     Ds4   v104
	BYTE	W02
	BYTE		BEND    c_v+0
	BYTE	W16
// 018   ----------------------------------------
	BYTE	W06
	BYTE		N23     Fn4 
	BYTE	W24
	BYTE		        As3 
	BYTE	W24
	BYTE		N92     Cn4 
	BYTE	W42
// 019   ----------------------------------------
	BYTE	W36
	BYTE		MOD     6
	BYTE	W12
	BYTE		BEND    c_v-6
	BYTE	W01
	BYTE		        c_v-15
	BYTE	W01
	BYTE		        c_v-24
	BYTE	W01
	BYTE		        c_v-30
	BYTE	W01
	BYTE		        c_v-38
	BYTE	W01
	BYTE		MOD     0
	BYTE		BEND    c_v-44
	BYTE	W01
	BYTE		        c_v-48
	BYTE		N05     Cn4   v060
	BYTE	W02
	BYTE		BEND    c_v-52
	BYTE	W01
	BYTE		        c_v-53
	BYTE	W01
	BYTE		        c_v-57
	BYTE	W01
	BYTE		        c_v-60
	BYTE	W01
	BYTE		        c_v-64
	BYTE		N05     Cn4   v052
	BYTE	W03
	BYTE		BEND    c_v-57
	BYTE	W02
	BYTE		        c_v-45
	BYTE	W01
	BYTE		        c_v-31
	BYTE		N05     Cn4   v040
	BYTE	W01
	BYTE		BEND    c_v-15
	BYTE	W01
	BYTE		        c_v+0
	BYTE	W10
	BYTE		N23     Cn4   v104
	BYTE	W18
// 020   ----------------------------------------
	BYTE	W06
	BYTE		        Ds4 
	BYTE	W24
	BYTE		N17     Gn4 
	BYTE	W18
	BYTE		N05     Gn4   v060
	BYTE	W06
	BYTE		N32     Gn4   v104
	BYTE	W36
	BYTE		N11     Gs4 
	BYTE	W06
// 021   ----------------------------------------
	BYTE	W06
	BYTE		N68     Fn4 
	BYTE	W32
	BYTE	W03
	BYTE		MOD     10
	BYTE	W03
	BYTE		        16
	BYTE	W02
	// BYTE		        33
	BYTE	W02
	// BYTE		        40
	BYTE	W01
	// BYTE		        50
	BYTE	W02
	// BYTE		        62
	BYTE	W01
	// BYTE		        69
	BYTE	W02
	// BYTE		        77
	BYTE	W03
	// BYTE		        85
	BYTE	W02
	// BYTE		        94
	BYTE	W03
	// BYTE		        103
	BYTE	W02
	// BYTE		        110
	BYTE	W08
	// BYTE		        100
	BYTE	W01
	// BYTE		        84
	BYTE	W02
	// BYTE		        66
	BYTE	W01
	// BYTE		        42
	BYTE	W01
	BYTE		        0
	BYTE	W01
	BYTE		N23     Ds4 
	BYTE	W18
// 022   ----------------------------------------
	BYTE	W06
	BYTE		        Cn4 
	BYTE	W24
	BYTE		N17     As3 
	BYTE	W18
	BYTE		N05     As3   v060
	BYTE	W04
	BYTE		BEND    c_v-11
	BYTE	W01
	BYTE		        c_v-39
	BYTE	W01
	BYTE		        c_v-57
	BYTE		N32     As3   v104
	BYTE	W01
	BYTE		BEND    c_v-54
	BYTE	W01
	BYTE		        c_v-42
	BYTE	W02
	BYTE		        c_v-28
	BYTE	W01
	BYTE		        c_v-16
	BYTE	W01
	BYTE		        c_v-8
	BYTE	W01
	BYTE		        c_v+0
	BYTE	W28
	BYTE	W01
	BYTE		TIE     Cn4 
	BYTE	W06
// 023   ----------------------------------------
	BYTE	W48
	BYTE	W01
	BYTE		MOD     2
	BYTE	W03
	BYTE		        12
	BYTE	W09
	BYTE		        16
	BYTE	W04
	// BYTE		        26
	BYTE	W02
	// BYTE		        33
	BYTE	W04
	// BYTE		        41
	BYTE	W03
	// BYTE		        49
	BYTE	W04
	// BYTE		        56
	BYTE	W04
	// BYTE		        64
	BYTE	W14
// 024   ----------------------------------------
	// BYTE		        71
	BYTE	W21
	BYTE		        0
	BYTE	W08
	BYTE		EOT   
	BYTE	W01
	BYTE		N05     Cn4   v060
	BYTE	W06
	BYTE		        Cn4   v052
	BYTE	W06
	BYTE		        Cn4   v040
	BYTE	W05
	BYTE		MOD     20
	BYTE	W01
	// BYTE		        59
	BYTE	W01
	// BYTE		        22
	BYTE	W01
	BYTE		        0
	BYTE	W44
	BYTE	W02
// 025   ----------------------------------------
	BYTE	W96
// 026   ----------------------------------------
	BYTE	W96
// 027   ----------------------------------------
	BYTE	W96
// 028   ----------------------------------------
	BYTE	W96
// 029   ----------------------------------------
	BYTE	W96
// 030   ----------------------------------------
	BYTE	W96
// 031   ----------------------------------------
	BYTE	W96
// 032   ----------------------------------------
	BYTE	W96
// 033   ----------------------------------------
	BYTE	W96
// 034   ----------------------------------------
	BYTE	W96
// 035   ----------------------------------------
	BYTE	W96
// 036   ----------------------------------------
	BYTE	W96
// 037   ----------------------------------------
	BYTE	W96
// 038   ----------------------------------------
	BYTE	W96
// 039   ----------------------------------------
	BYTE	W96
// 040   ----------------------------------------
	BYTE	W96
// 041   ----------------------------------------
	BYTE	W96
// 042   ----------------------------------------
	BYTE	W96
// 043   ----------------------------------------
	BYTE	W96
// 044   ----------------------------------------
	BYTE	W96
// 045   ----------------------------------------
	BYTE	W96
// 046   ----------------------------------------
	BYTE	W96
// 047   ----------------------------------------
	BYTE	W96
// 048   ----------------------------------------
	BYTE	W96
// 049   ----------------------------------------
	BYTE	W96
// 050   ----------------------------------------
	BYTE	W68
	BYTE	W03
	BYTE	GoTo
	 POIN2	findthetruth_3_B1
findthetruth_3_B2:
	BYTE	FINE

//**************** Track 4 (Midi-Chn.4) ****************//

findthetruth_4:
	BYTE	KEYSH   findthetruth_key+0
			BYTE 		BENDR   6
// 000   ----------------------------------------
	BYTE		VOICE   80
	BYTE		VOL     100*findthetruth_mvl/mxv
	BYTE		PAN     c_v+0
	BYTE		BEND    c_v+0
	BYTE	W06
	BYTE		VOL     100*findthetruth_mvl/mxv
	BYTE		N13     As3   v108
	BYTE		N13     Gn4   v124
	BYTE	W17
	BYTE		BEND    c_v-20
	BYTE	W01
	BYTE		N10     As3 
	BYTE		N10     Gn4   v100
	BYTE	W02
	BYTE		BEND    c_v-42
	BYTE	W02
	BYTE		        c_v+0
	BYTE	W11
	BYTE		MOD     4
	BYTE	W02
	BYTE		        11
	BYTE	W01
	BYTE		N10     As3   v124
	BYTE		N10     Gn4   v100
	BYTE	W02
	BYTE		MOD     13
	BYTE	W02
	BYTE		        14
	BYTE	W03
	BYTE		        15
	BYTE	W05
findthetruth_4_B1:
	BYTE		MOD     16
	BYTE	W02
	BYTE		        17
	BYTE	W07
	BYTE		        0
	BYTE	W32
	BYTE	W01
// 001   ----------------------------------------
	BYTE	W96
// 002   ----------------------------------------
	BYTE	W96
// 003   ----------------------------------------
	BYTE	W96
// 004   ----------------------------------------
	BYTE	W96
// 005   ----------------------------------------
	BYTE	W96
// 006   ----------------------------------------
	BYTE	W96
// 007   ----------------------------------------
	BYTE	W54
	BYTE		VOL     100*findthetruth_mvl/mxv
	BYTE		N05     As3   v112
	BYTE		N05     Ds4 
	BYTE		N05     Gn4   v120
	BYTE	W06
	BYTE		        Gn4   v040
	BYTE	W06
	BYTE		        Gn4   v032
	BYTE	W24
	BYTE		        As3   v120
	BYTE		N05     Ds4   v112
	BYTE		N05     Gn4   v120
	BYTE	W06
// 008   ----------------------------------------
	BYTE		        Gn4   v040
	BYTE	W06
	BYTE		        Gn4   v032
	BYTE	W11
	BYTE		BEND    c_v-35
	BYTE	W01
	BYTE		N32     As3   v120
	BYTE		N32     Ds4 
	BYTE		N32     Gn4 
	BYTE	W01
	BYTE		BEND    c_v-64
	BYTE	W03
	BYTE		        c_v-32
	BYTE	W03
	BYTE		        c_v+0
	BYTE	W01
	BYTE		MOD     8
	BYTE	W03
	BYTE		        15
	BYTE	W02
	BYTE		        18
	BYTE	W03
	BYTE		        19
	BYTE	W07
	BYTE		        20
	BYTE	W03
	BYTE		        21
	BYTE	W10
	BYTE		N17     Cn4   v112
	BYTE		N17     Fn4 
	BYTE		N17     Gs4   v120
	BYTE	W02
	BYTE		MOD     7
	BYTE	W03
	BYTE		        0
	BYTE	W13
	BYTE		N05     Gs4   v040
	BYTE	W06
	BYTE		        Gs4   v032
	BYTE	W18
// 009   ----------------------------------------
	BYTE	W96
// 010   ----------------------------------------
	BYTE	W96
// 011   ----------------------------------------
	BYTE	W78
	BYTE		N23     Cn3   v112
	BYTE	W18
// 012   ----------------------------------------
	BYTE	W06
	BYTE		        Fn3 
	BYTE	W24
	BYTE		        Cn4 
	BYTE	W24
	BYTE		N32     As3 
	BYTE	W12
	BYTE		MOD     6
	BYTE	W02
	BYTE		        10
	BYTE	W02
	BYTE		        13
	BYTE	W03
	BYTE		        15
	BYTE	W09
	BYTE		        16
	BYTE	W03
	BYTE		        17
	BYTE	W05
	BYTE		N11     Gn3 
	BYTE	W02
	BYTE		MOD     15
	BYTE	W03
	BYTE		        0
	BYTE	W01
// 013   ----------------------------------------
	BYTE	W18
	BYTE		N11   
	BYTE	W12
	BYTE		        Gs3 
	BYTE	W12
	BYTE		N23     As3 
	BYTE	W24
	BYTE		N11     Cn4 
	BYTE	W08
	BYTE		MOD     2
	BYTE	W04
	BYTE		N11     As3 
	BYTE	W03
	BYTE		MOD     0
	BYTE	W09
	BYTE		N23     Gs3 
	BYTE	W06
// 014   ----------------------------------------
	BYTE	W18
	BYTE		N11     Gn3 
	BYTE	W12
	BYTE		N16     Gs3 
	BYTE	W24
	BYTE		N23     Fn3 
	BYTE	W24
	BYTE		        Gs3 
	BYTE		N23     Cn4 
	BYTE	W18
// 015   ----------------------------------------
	BYTE	W06
	BYTE		        Gn3 
	BYTE		N23     As3 
	BYTE	W24
	BYTE		N11     Ds3 
	BYTE		N11     Ds4 
	BYTE	W11
	BYTE		VOL     100*findthetruth_mvl/mxv
	BYTE	W01
	BYTE		N12     Fn3   v120
	BYTE		N12     Fn4 
	BYTE	W32
	BYTE		VOL     100*findthetruth_mvl/mxv
	BYTE	W04
	BYTE		N72     Fn3 
	BYTE		N72     Fn4 
	BYTE	W06
	BYTE		VOL     101*findthetruth_mvl/mxv
	BYTE	W04
	BYTE		        102*findthetruth_mvl/mxv
	BYTE	W05
	BYTE		        103*findthetruth_mvl/mxv
	BYTE	W03
// 016   ----------------------------------------
	BYTE	W02
	BYTE		        104*findthetruth_mvl/mxv
	BYTE	W05
	BYTE		        105*findthetruth_mvl/mxv
	BYTE	W05
	BYTE		        106*findthetruth_mvl/mxv
	BYTE	W05
	BYTE		        107*findthetruth_mvl/mxv
	BYTE	W05
	BYTE		        108*findthetruth_mvl/mxv
	BYTE	W04
	BYTE		        109*findthetruth_mvl/mxv
	BYTE	W01
	BYTE		        110*findthetruth_mvl/mxv
	BYTE	W28
	BYTE		        110*findthetruth_mvl/mxv
	BYTE	W02
	BYTE		        109*findthetruth_mvl/mxv
	BYTE	W02
	BYTE		        108*findthetruth_mvl/mxv
	BYTE	W02
	BYTE		        107*findthetruth_mvl/mxv
	BYTE	W02
	BYTE		        106*findthetruth_mvl/mxv
	BYTE	W02
	BYTE		        105*findthetruth_mvl/mxv
	BYTE	W02
	BYTE		        104*findthetruth_mvl/mxv
	BYTE	W02
	BYTE		        103*findthetruth_mvl/mxv
	BYTE	W02
	BYTE		        102*findthetruth_mvl/mxv
	BYTE	W02
	BYTE		        101*findthetruth_mvl/mxv
	BYTE	W02
	BYTE		        100*findthetruth_mvl/mxv
	BYTE	W21
// 017   ----------------------------------------
	BYTE	W96
// 018   ----------------------------------------
	BYTE	W96
// 019   ----------------------------------------
	BYTE	W96
// 020   ----------------------------------------
	BYTE	W96
// 021   ----------------------------------------
	BYTE	W96
// 022   ----------------------------------------
	BYTE	W96
// 023   ----------------------------------------
	BYTE	W96
// 024   ----------------------------------------
	BYTE	W48
	BYTE	W01
	BYTE		BEND    c_v-10
	BYTE	W02
	BYTE		        c_v-22
	BYTE	W03
	BYTE		        c_v-27
	BYTE		N28     Fn3   v112
	BYTE		N28     Cn4   v120
	BYTE	W05
	BYTE		BEND    c_v-17
	BYTE	W02
	BYTE		        c_v+0
	BYTE	W02
	BYTE		MOD     2
	BYTE	W02
	BYTE		        10
	BYTE	W03
	BYTE		        15
	BYTE	W02
	BYTE		        17
	BYTE	W05
	BYTE		        18
	BYTE	W03
	BYTE		        20
	BYTE	W02
	BYTE		        21
	BYTE	W02
	BYTE		        22
	BYTE	W08
	BYTE		N04     Fn3   v108
	BYTE		N04     As3   v120
	BYTE	W02
	BYTE		MOD     7
	BYTE	W03
	BYTE		        0
	BYTE	W01
// 025   ----------------------------------------
	BYTE		N05     As3   v040
	BYTE	W06
	BYTE		        As3   v032
	BYTE	W20
	BYTE		BEND    c_v-13
	BYTE	W02
	BYTE		        c_v-25
	BYTE	W02
	BYTE		        c_v-25
	BYTE		N28     Fn3   v120
	BYTE		N28     Cn4   v116
	BYTE	W03
	BYTE		BEND    c_v-19
	BYTE	W02
	BYTE		        c_v-6
	BYTE	W03
	BYTE		MOD     2
	BYTE		BEND    c_v+0
	BYTE	W02
	BYTE		MOD     10
	BYTE	W03
	BYTE		        12
	BYTE	W02
	BYTE		        14
	BYTE	W03
	BYTE		        15
	BYTE	W18
	BYTE		N04     Fn3   v112
	BYTE		N04     As3   v116
	BYTE	W01
	BYTE		MOD     4
	BYTE	W02
	BYTE		        0
	BYTE	W03
	BYTE		N05     As3   v040
	BYTE	W06
	BYTE		        As3   v032
	BYTE	W18
// 026   ----------------------------------------
	BYTE	W06
	BYTE		N11     Fn3   v108
	BYTE		N11     Cn4   v116
	BYTE	W12
	BYTE		N05     Cn4   v040
	BYTE	W06
	BYTE		        Cn4   v032
	BYTE	W06
	BYTE		N11     Fn3   v108
	BYTE		N11     As3   v120
	BYTE	W12
	BYTE		N05     As3   v040
	BYTE	W06
	BYTE		        As3   v032
	BYTE	W06
	BYTE		N11     Fn3   v112
	BYTE		N11     Cn4   v120
	BYTE	W11
	BYTE		MOD     9
	BYTE	W01
	BYTE		N05     Cn4   v040
	BYTE	W02
	BYTE		MOD     15
	BYTE	W02
	BYTE		        16
	BYTE	W02
	BYTE		N05     Cn4   v032
	BYTE	W11
	BYTE		MOD     13
	BYTE	W02
	BYTE		        0
	BYTE	W11
// 027   ----------------------------------------
	BYTE	W96
// 028   ----------------------------------------
	BYTE	W30
	BYTE		VOL     100*findthetruth_mvl/mxv
	BYTE	W02
	BYTE		        101*findthetruth_mvl/mxv
	BYTE	W01
	BYTE		        102*findthetruth_mvl/mxv
	BYTE	W01
	BYTE		        103*findthetruth_mvl/mxv
	BYTE	W01
	BYTE		        104*findthetruth_mvl/mxv
	BYTE	W01
	BYTE		        105*findthetruth_mvl/mxv
	BYTE	W01
	BYTE		        106*findthetruth_mvl/mxv
	BYTE	W01
	BYTE		        107*findthetruth_mvl/mxv
	BYTE	W01
	BYTE		        108*findthetruth_mvl/mxv
	BYTE	W01
	BYTE		        110*findthetruth_mvl/mxv
	BYTE	W10
	BYTE		BEND    c_v-2
	BYTE	W03
	BYTE		        c_v-13
	BYTE	W01
	BYTE		N28     Cn3   v127
	BYTE		N28     Fn3 
	BYTE		N28     Cn4 
	BYTE	W01
	BYTE		BEND    c_v-28
	BYTE	W03
	BYTE		        c_v-33
	BYTE	W02
	BYTE		        c_v-29
	BYTE	W03
	BYTE		        c_v-12
	BYTE	W02
	BYTE		        c_v+0
	BYTE	W24
	BYTE	W01
	BYTE		N28     As2 
	BYTE		N28     Fn3 
	BYTE		N28     As3 
	BYTE	W06
// 029   ----------------------------------------
	BYTE	W28
	BYTE	W01
	BYTE		TIE     Cn3 
	BYTE		TIE     Fn3 
	BYTE		TIE     Fn4 
	BYTE	W06
	BYTE		VOL     109*findthetruth_mvl/mxv
	BYTE	W01
	BYTE		        110*findthetruth_mvl/mxv
	BYTE	W01
	BYTE		        109*findthetruth_mvl/mxv
	BYTE	W01
	BYTE		        107*findthetruth_mvl/mxv
	BYTE	W01
	BYTE		        106*findthetruth_mvl/mxv
	BYTE	W01
	BYTE		        104*findthetruth_mvl/mxv
	BYTE	W01
	BYTE		        103*findthetruth_mvl/mxv
	BYTE	W01
	BYTE		        101*findthetruth_mvl/mxv
	BYTE	W01
	BYTE		        99*findthetruth_mvl/mxv
	BYTE	W01
	BYTE		        98*findthetruth_mvl/mxv
	BYTE	W01
	BYTE		        97*findthetruth_mvl/mxv
	BYTE	W01
	BYTE		        96*findthetruth_mvl/mxv
	BYTE	W01
	BYTE		        95*findthetruth_mvl/mxv
	BYTE	W01
	BYTE		        94*findthetruth_mvl/mxv
	BYTE	W02
	BYTE		        93*findthetruth_mvl/mxv
	BYTE	W02
	BYTE		        92*findthetruth_mvl/mxv
	BYTE	W03
	BYTE		        91*findthetruth_mvl/mxv
	BYTE	W03
	BYTE		        90*findthetruth_mvl/mxv
	BYTE	W13
	BYTE		        90*findthetruth_mvl/mxv
	BYTE	W01
	BYTE		        92*findthetruth_mvl/mxv
	BYTE	W08
	BYTE		MOD     2
	BYTE	W02
	BYTE		VOL     94*findthetruth_mvl/mxv
	BYTE		MOD     4
	BYTE	W03
	BYTE		        6
	BYTE	W02
	BYTE		        7
	BYTE	W03
	BYTE		        8
	BYTE	W01
	BYTE		VOL     96*findthetruth_mvl/mxv
	BYTE	W01
	BYTE		MOD     10
	BYTE	W02
	BYTE		VOL     97*findthetruth_mvl/mxv
	BYTE	W01
	BYTE		MOD     11
	BYTE	W01
// 030   ----------------------------------------
	BYTE		VOL     98*findthetruth_mvl/mxv
	BYTE	W01
	BYTE		        99*findthetruth_mvl/mxv
	BYTE	W01
	BYTE		MOD     12
	BYTE	W01
	BYTE		VOL     100*findthetruth_mvl/mxv
	BYTE	W01
	BYTE		        101*findthetruth_mvl/mxv
	BYTE	W01
	BYTE		        102*findthetruth_mvl/mxv
	BYTE	W03
	BYTE		        103*findthetruth_mvl/mxv
	BYTE	W02
	BYTE		        104*findthetruth_mvl/mxv
	BYTE	W02
	BYTE		MOD     14
	BYTE	W01
	BYTE		VOL     105*findthetruth_mvl/mxv
	BYTE	W01
	BYTE		MOD     15
	BYTE	W01
	BYTE		VOL     106*findthetruth_mvl/mxv
	BYTE	W02
	BYTE		        107*findthetruth_mvl/mxv
	BYTE	W03
	BYTE		        108*findthetruth_mvl/mxv
	BYTE	W02
	BYTE		        109*findthetruth_mvl/mxv
	BYTE	W03
	BYTE		        110*findthetruth_mvl/mxv
	BYTE	W03
	BYTE		        110*findthetruth_mvl/mxv
	BYTE	W15
	BYTE		MOD     0
	BYTE	W03
	BYTE		EOT     Cn3 
	BYTE		        Fn3 
	BYTE		        Fn4 
	BYTE	W07
	BYTE		N88     As2 
	BYTE		N88     Fn3 
	BYTE		N88     Fn4 
	BYTE	W01
	BYTE		BEND    c_v-11
	BYTE	W02
	BYTE		VOL     110*findthetruth_mvl/mxv
	BYTE	W01
	BYTE		        109*findthetruth_mvl/mxv
	BYTE		BEND    c_v-25
	BYTE	W01
	BYTE		VOL     108*findthetruth_mvl/mxv
	BYTE	W01
	BYTE		        107*findthetruth_mvl/mxv
	BYTE		BEND    c_v-28
	BYTE	W01
	BYTE		VOL     106*findthetruth_mvl/mxv
	BYTE	W01
	BYTE		        105*findthetruth_mvl/mxv
	BYTE	W01
	BYTE		        104*findthetruth_mvl/mxv
	BYTE		BEND    c_v-20
	BYTE	W01
	BYTE		VOL     103*findthetruth_mvl/mxv
	BYTE	W01
	BYTE		        102*findthetruth_mvl/mxv
	BYTE		BEND    c_v+0
	BYTE	W01
	BYTE		VOL     100*findthetruth_mvl/mxv
	BYTE	W01
	BYTE		        98*findthetruth_mvl/mxv
	BYTE	W02
	BYTE		        97*findthetruth_mvl/mxv
	BYTE	W02
	BYTE		        96*findthetruth_mvl/mxv
	BYTE	W02
	BYTE		        95*findthetruth_mvl/mxv
	BYTE	W02
	BYTE		        94*findthetruth_mvl/mxv
	BYTE	W01
	BYTE		        93*findthetruth_mvl/mxv
	BYTE	W02
	BYTE		        92*findthetruth_mvl/mxv
	BYTE	W08
	BYTE		        90*findthetruth_mvl/mxv
	BYTE	W10
	BYTE		        88*findthetruth_mvl/mxv
	BYTE	W01
// 031   ----------------------------------------
	BYTE	W10
	BYTE		MOD     2
	BYTE	W05
	BYTE		        4
	BYTE	W03
	BYTE		        5
	BYTE	W02
	BYTE		        7
	BYTE	W02
	BYTE		VOL     90*findthetruth_mvl/mxv
	BYTE	W01
	BYTE		MOD     9
	BYTE	W02
	BYTE		        10
	BYTE	W16
	BYTE		VOL     90*findthetruth_mvl/mxv
	BYTE	W01
	BYTE		        92*findthetruth_mvl/mxv
	BYTE		MOD     5
	BYTE	W02
	BYTE		        0
	BYTE	W10
	BYTE		N92     Cn3 
	BYTE		N92     Gn3 
	BYTE		N92     Gn4 
	BYTE	W07
	BYTE		VOL     94*findthetruth_mvl/mxv
	BYTE	W10
	BYTE		        96*findthetruth_mvl/mxv
	BYTE	W10
	BYTE		        98*findthetruth_mvl/mxv
	BYTE	W09
	BYTE		        102*findthetruth_mvl/mxv
	BYTE	W06
// 032   ----------------------------------------
	BYTE	W04
	BYTE		        104*findthetruth_mvl/mxv
	BYTE	W07
	BYTE		MOD     1
	BYTE	W02
	BYTE		        3
	BYTE	W01
	BYTE		VOL     106*findthetruth_mvl/mxv
	BYTE	W02
	BYTE		MOD     4
	BYTE	W02
	BYTE		        6
	BYTE	W03
	BYTE		        7
	BYTE	W02
	BYTE		VOL     106*findthetruth_mvl/mxv
	BYTE	W01
	BYTE		        108*findthetruth_mvl/mxv
	BYTE	W01
	BYTE		MOD     8
	BYTE	W03
	BYTE		        9
	BYTE	W02
	BYTE		        10
	BYTE	W03
	BYTE		VOL     108*findthetruth_mvl/mxv
	BYTE	W01
	BYTE		        110*findthetruth_mvl/mxv
	BYTE	W16
	BYTE		BEND    c_v-2
	BYTE	W02
	BYTE		        c_v-8
	BYTE	W44
// 033   ----------------------------------------
	BYTE	W06
	BYTE		VOL     110*findthetruth_mvl/mxv
	BYTE	W04
	BYTE		        109*findthetruth_mvl/mxv
	BYTE	W02
	BYTE		        108*findthetruth_mvl/mxv
	BYTE	W02
	BYTE		        107*findthetruth_mvl/mxv
	BYTE	W01
	BYTE		        106*findthetruth_mvl/mxv
	BYTE	W02
	BYTE		        105*findthetruth_mvl/mxv
	BYTE	W02
	BYTE		        104*findthetruth_mvl/mxv
	BYTE	W02
	BYTE		        103*findthetruth_mvl/mxv
	BYTE	W02
	BYTE		        102*findthetruth_mvl/mxv
	BYTE	W02
	BYTE		        100*findthetruth_mvl/mxv
	BYTE	W68
	BYTE	W03
// 034   ----------------------------------------
	BYTE	W96
// 035   ----------------------------------------
	BYTE	W84
	BYTE		MOD     0
	BYTE		BEND    c_v+0
	BYTE	W03
	BYTE		        c_v-14
	BYTE	W03
	BYTE		        c_v-28
	BYTE		N28     As3   v108
	BYTE		N28     Dn4   v104
	BYTE	W02
	BYTE		BEND    c_v-30
	BYTE	W02
	BYTE		        c_v-21
	BYTE	W02
// 036   ----------------------------------------
	BYTE	W01
	BYTE		        c_v-9
	BYTE	W02
	BYTE		MOD     10
	BYTE		BEND    c_v-2
	BYTE	W02
	BYTE		MOD     15
	BYTE	W03
	BYTE		        16
	BYTE	W04
	BYTE		BEND    c_v+0
	BYTE	W06
	BYTE		MOD     17
	BYTE	W06
	BYTE		N05     Dn4   v040
	BYTE	W06
	BYTE		N17     As3   v112
	BYTE		N17     Ds4   v108
	BYTE	W04
	BYTE		MOD     0
	BYTE	W14
	BYTE		N05     Ds4   v040
	BYTE	W06
	BYTE		N11     Cn4   v120
	BYTE		N11     Fn4   v108
	BYTE	W12
	BYTE		N05     Fn4   v040
	BYTE	W06
	BYTE		        Fn4   v032
	BYTE	W24
// 037   ----------------------------------------
	BYTE	W80
	BYTE	W03
	BYTE		BEND    c_v-7
	BYTE	W02
	BYTE		        c_v-25
	BYTE	W03
	BYTE		        c_v-38
	BYTE	W02
	BYTE		        c_v-40
	BYTE		N28     As3   v108
	BYTE		N28     Dn4 
	BYTE	W02
	BYTE		BEND    c_v-25
	BYTE	W02
	BYTE		MOD     2
	BYTE	W01
	BYTE		BEND    c_v+0
	BYTE	W01
// 038   ----------------------------------------
	BYTE		MOD     6
	BYTE	W03
	BYTE		        7
	BYTE	W12
	BYTE		        8
	BYTE	W09
	BYTE		N05     Dn4   v040
	BYTE	W06
	BYTE		N17     As3   v108
	BYTE		N17     Ds4   v120
	BYTE	W05
	BYTE		MOD     0
	BYTE	W13
	BYTE		N05     Ds4   v040
	BYTE	W06
	BYTE		N11     Cn4   v120
	BYTE		N11     Fn4 
	BYTE	W12
	BYTE		N05     Fn4   v040
	BYTE	W06
	BYTE		        Fn4   v032
	BYTE	W24
// 039   ----------------------------------------
	BYTE	W80
	BYTE	W03
	BYTE		BEND    c_v-6
	BYTE	W03
	BYTE		        c_v-24
	BYTE	W02
	BYTE		        c_v-31
	BYTE	W02
	BYTE		N28     As3   v120
	BYTE		N28     Dn4 
	BYTE	W01
	BYTE		BEND    c_v-25
	BYTE	W02
	BYTE		        c_v+0
	BYTE	W03
// 040   ----------------------------------------
	BYTE	W05
	BYTE		MOD     2
	BYTE	W03
	BYTE		        4
	BYTE	W16
	BYTE		N05     Dn4   v040
	BYTE	W06
	BYTE		N17     As3   v120
	BYTE		N17     Ds4 
	BYTE	W04
	BYTE		MOD     0
	BYTE	W14
	BYTE		N05     Ds4   v040
	BYTE	W06
	BYTE		N11     Cn4   v120
	BYTE		N11     Fn4   v112
	BYTE	W12
	BYTE		N05     Fn4   v040
	BYTE	W06
	BYTE		        Fn4   v032
	BYTE	W24
// 041   ----------------------------------------
	BYTE	W90
	BYTE		BEND    c_v-14
	BYTE		N28     As3   v120
	BYTE		N28     Dn4 
	BYTE	W03
	BYTE		BEND    c_v-27
	BYTE	W02
	BYTE		        c_v-25
	BYTE	W01
// 042   ----------------------------------------
	BYTE	W02
	BYTE		MOD     4
	BYTE		BEND    c_v+0
	BYTE	W04
	BYTE		MOD     5
	BYTE	W03
	BYTE		        7
	BYTE	W02
	BYTE		        8
	BYTE	W03
	BYTE		        10
	BYTE	W10
	BYTE		N05     Dn4   v040
	BYTE	W06
	BYTE		N17     As3   v120
	BYTE		N17     Ds4 
	BYTE	W04
	BYTE		MOD     0
	BYTE	W14
	BYTE		N05     Ds4   v040
	BYTE	W06
	BYTE		VOL     100*findthetruth_mvl/mxv
	BYTE		BEND    c_v-43
	BYTE		N15     Gs3   v116
	BYTE		N15     Cn4 
	BYTE		N15     Fn4 
	BYTE	W03
	BYTE		BEND    c_v-13
	BYTE	W03
	BYTE		        c_v+0
	BYTE	W12
	BYTE		N04     Gs3 
	BYTE		N04     Cn4 
	BYTE		N04     Fn4 
	BYTE	W06
	BYTE		N05     Fn4   v040
	BYTE	W06
	BYTE		        Fn4   v032
	BYTE	W06
	BYTE		N04     Gn3   v116
	BYTE		N04     As3 
	BYTE		N04     Ds4 
	BYTE	W06
// 043   ----------------------------------------
	BYTE		N05     Ds4   v040
	BYTE	W06
	BYTE		        Ds4   v032
	BYTE	W12
	BYTE		N04     Ds3   v116
	BYTE		N04     Gn3 
	BYTE		N04     Cn4 
	BYTE	W06
	BYTE		N05     Cn4   v040
	BYTE	W06
	BYTE		        Cn4   v032
	BYTE	W12
	BYTE		N32     Fn3   v116
	BYTE		N32     Gs3 
	BYTE		N32     Cs4 
	BYTE	W17
	BYTE		MOD     3
	BYTE	W03
	BYTE		        5
	BYTE	W02
	BYTE		        7
	BYTE	W05
	BYTE		        9
	BYTE	W03
	BYTE		        10
	BYTE	W06
	BYTE		N05     Cs4   v040
	BYTE	W06
	BYTE		        Cs4   v032
	BYTE	W02
	BYTE		MOD     0
	BYTE	W04
	BYTE		N11     Gn3   v116
	BYTE		N11     As3 
	BYTE		N11     Ds4 
	BYTE	W06
// 044   ----------------------------------------
	BYTE	W06
	BYTE		N05     Ds4   v040
	BYTE	W06
	BYTE		        Ds4   v032
	BYTE	W36
	BYTE	W03
	BYTE		BEND    c_v-27
	BYTE	W03
	BYTE		        c_v-51
	BYTE		N15     Gs3   v116
	BYTE		N15     Cn4 
	BYTE		N15     Fn4 
	BYTE	W02
	BYTE		BEND    c_v-45
	BYTE	W03
	BYTE		        c_v+0
	BYTE	W13
	BYTE		N04     Gs3 
	BYTE		N04     Cn4 
	BYTE		N04     Fn4 
	BYTE	W06
	BYTE		N05     Fn4   v040
	BYTE	W06
	BYTE		        Fn4   v032
	BYTE	W06
	BYTE		N04     Gn3   v116
	BYTE		N04     As3 
	BYTE		N04     Ds4 
	BYTE	W06
// 045   ----------------------------------------
	BYTE		N05     Ds4   v040
	BYTE	W06
	BYTE		        Ds4   v032
	BYTE	W12
	BYTE		N04     Cn4   v116
	BYTE		N04     Ds4 
	BYTE		N04     Gs4 
	BYTE	W06
	BYTE		N05     Gs4   v040
	BYTE	W06
	BYTE		        Gs4   v032
	BYTE	W12
	BYTE		N32     As3   v116
	BYTE		N32     Ds4 
	BYTE		N32     Gn4 
	BYTE	W21
	BYTE		MOD     2
	BYTE	W02
	BYTE		        5
	BYTE	W03
	BYTE		        6
	BYTE	W03
	BYTE		        7
	BYTE	W07
	BYTE		N05     Gn4   v040
	BYTE	W03
	BYTE		MOD     9
	BYTE	W02
	BYTE		        10
	BYTE	W01
	BYTE		N05     Gn4   v032
	BYTE	W06
	BYTE		MOD     9
	BYTE		N11     Gn3   v116
	BYTE		N11     As3 
	BYTE		N11     Ds4 
	BYTE	W03
	BYTE		MOD     0
	BYTE	W03
// 046   ----------------------------------------
	BYTE	W06
	BYTE		N05     Ds4   v040
	BYTE	W06
	BYTE		        Ds4   v032
	BYTE	W36
	BYTE	W02
	BYTE		BEND    c_v-2
	BYTE	W03
	BYTE		        c_v-32
	BYTE	W01
	BYTE		N15     Gs3   v116
	BYTE		N15     Cn4 
	BYTE		N15     Fn4 
	BYTE	W01
	BYTE		BEND    c_v-38
	BYTE	W03
	BYTE		        c_v-7
	BYTE	W02
	BYTE		        c_v+0
	BYTE	W12
	BYTE		N04     Gs3 
	BYTE		N04     Cn4 
	BYTE		N04     Fn4 
	BYTE	W06
	BYTE		N05     Fn4   v040
	BYTE	W06
	BYTE		        Fn4   v032
	BYTE	W06
	BYTE		N04     Gn3   v116
	BYTE		N04     As3 
	BYTE		N04     Ds4 
	BYTE	W06
// 047   ----------------------------------------
	BYTE		N05     Ds4   v040
	BYTE	W06
	BYTE		        Ds4   v032
	BYTE	W12
	BYTE		N04     Ds3   v116
	BYTE		N04     Gs3 
	BYTE		N04     Cn4 
	BYTE	W06
	BYTE		N05     Cn4   v040
	BYTE	W06
	BYTE		        Cn4   v032
	BYTE	W12
	BYTE		N32     Fn3   v116
	BYTE		N32     Gs3 
	BYTE		N32     Cs4 
	BYTE	W17
	BYTE		MOD     3
	BYTE	W02
	BYTE		        7
	BYTE	W03
	BYTE		        10
	BYTE	W02
	BYTE		        12
	BYTE	W03
	BYTE		        15
	BYTE	W02
	BYTE		        17
	BYTE	W07
	BYTE		N05     Cs4   v040
	BYTE	W06
	BYTE		        Cs4   v032
	BYTE	W04
	BYTE		MOD     10
	BYTE	W02
	BYTE		N11     Gn3   v116
	BYTE		N11     As3 
	BYTE		N11     Ds4 
	BYTE	W01
	BYTE		MOD     0
	BYTE	W05
// 048   ----------------------------------------
	BYTE	W06
	BYTE		N05     Ds4   v040
	BYTE	W06
	BYTE		        Ds4   v032
	BYTE	W30
	BYTE		N92     Fn2   v116
	BYTE	W36
	BYTE		N56     Cn3 
	BYTE	W18
// 049   ----------------------------------------
	BYTE	W06
	BYTE		N32     Ds3 
	BYTE	W24
	BYTE		N11     As3 
	BYTE	W12
	BYTE		N04     Ds3   v120
	BYTE		N04     As3   v116
	BYTE		N04     Gn4 
	BYTE	W06
	BYTE		N05     Gn4   v040
	BYTE	W06
	BYTE		        Gn4   v032
	BYTE	W36
	BYTE		N04     Ds3   v120
	BYTE		N04     As3   v116
	BYTE		N04     Gn4   v120
	BYTE	W06
// 050   ----------------------------------------
	BYTE		N05     Gn4   v040
	BYTE	W06
	BYTE		        Gn4   v032
	BYTE	W12
	BYTE		N28     Ds3   v120
	BYTE		N28     As3 
	BYTE		N28     Gn4   v116
	BYTE	W02
	BYTE		BEND    c_v-20
	BYTE	W03
	BYTE		        c_v-42
	BYTE	W02
	BYTE		        c_v+0
	BYTE	W14
	BYTE		MOD     4
	BYTE	W02
	BYTE		        11
	BYTE	W03
	BYTE		        13
	BYTE	W02
	BYTE		        14
	BYTE	W02
	BYTE		N05     Gn4   v040
	BYTE	W01
	BYTE		MOD     15
	BYTE	W22
	BYTE	GoTo
	 POIN2	findthetruth_4_B1
findthetruth_4_B2:
	BYTE	FINE

//**************** Track 5 (Midi-Chn.5) ****************//

findthetruth_5:
	BYTE	KEYSH   findthetruth_key+0
			BYTE 		BENDR   6
// 000   ----------------------------------------
	BYTE		VOICE   30
	BYTE		VOL     70*findthetruth_mvl/mxv
	BYTE		PAN     c_v-20
	BYTE		BEND    c_v+0
	BYTE	W06
	BYTE		N11     Cn3   v120
	BYTE	W18
	BYTE		N11   
	BYTE	W18
	BYTE		N11   
	BYTE	W12
findthetruth_5_B1:
	BYTE		N11     Fn4   v100
	BYTE	W12
	BYTE		N11   
	BYTE	W12
	BYTE		        Fn2   v120
	BYTE	W12
	BYTE		        Fn4   v100
	BYTE	W06
// 001   ----------------------------------------
findthetruth_5_001:
	BYTE	W06
	BYTE		N11     Fn4   v100
	BYTE	W12
	BYTE		        Fn2   v120
	BYTE	W12
	BYTE		        Fn4   v100
	BYTE	W12
	BYTE		N11   
	BYTE	W12
	BYTE		N11   
	BYTE	W12
	BYTE		N11   
	BYTE	W12
	BYTE		        Fn2   v120
	BYTE	W12
	BYTE		        Ds3 
	BYTE	W06
	BYTE	PEND
// 002   ----------------------------------------
findthetruth_5_002:
	BYTE	W06
	BYTE		N11     Ds5   v100
	BYTE	W12
	BYTE		        Ds3   v120
	BYTE	W12
	BYTE		        Ds5   v100
	BYTE	W12
	BYTE		N11   
	BYTE	W12
	BYTE		        Cs5 
	BYTE	W12
	BYTE		N11   
	BYTE	W12
	BYTE		        Cs3   v120
	BYTE	W12
	BYTE		        Cs5   v100
	BYTE	W06
	BYTE	PEND
// 003   ----------------------------------------
findthetruth_5_003:
	BYTE	W06
	BYTE		N11     Cs5   v100
	BYTE	W12
	BYTE		        Cs3   v120
	BYTE	W12
	BYTE		        Cs5   v100
	BYTE	W12
	BYTE		        Cs3   v120
	BYTE	W12
	BYTE		        Cs5   v100
	BYTE	W12
	BYTE		N11   
	BYTE	W12
	BYTE		        Cs3   v120
	BYTE	W12
	BYTE		        Cs5   v100
	BYTE	W06
	BYTE	PEND
// 004   ----------------------------------------
findthetruth_5_004:
	BYTE	W06
	BYTE		N11     Cs5   v100
	BYTE	W12
	BYTE		        Cs3   v120
	BYTE	W12
	BYTE		        Cs5   v100
	BYTE	W12
	BYTE		N11   
	BYTE	W12
	BYTE		        Cn5 
	BYTE	W12
	BYTE		N11   
	BYTE	W12
	BYTE		        Cn3   v120
	BYTE	W12
	BYTE		        Cn5   v100
	BYTE	W06
	BYTE	PEND
// 005   ----------------------------------------
findthetruth_5_005:
	BYTE	W06
	BYTE		N11     Cn5   v100
	BYTE	W12
	BYTE		        Cn3   v120
	BYTE	W12
	BYTE		        Cn5   v100
	BYTE	W12
	BYTE		N11   
	BYTE	W12
	BYTE		        Fn3   v120
	BYTE	W12
	BYTE		        Fn5   v100
	BYTE	W12
	BYTE		        Fn3   v120
	BYTE	W12
	BYTE		        Ds3 
	BYTE	W06
	BYTE	PEND
// 006   ----------------------------------------
	BYTE	PATT
	 POIN2	findthetruth_5_002
// 007   ----------------------------------------
	BYTE	W06
	BYTE		N11     Cs5   v100
	BYTE	W12
	BYTE		        Cs3   v120
	BYTE	W12
	BYTE		        Cs5   v100
	BYTE	W12
	BYTE		N11   
	BYTE	W12
	BYTE		        Cn3   v120
	BYTE	W12
	BYTE		        Cn5   v100
	BYTE	W12
	BYTE		N11   
	BYTE	W12
	BYTE		        Cn3   v120
	BYTE	W06
// 008   ----------------------------------------
	BYTE	W06
	BYTE		        Cn5   v100
	BYTE	W12
	BYTE		N32     Cn3   v120
	BYTE	W36
	BYTE		N11     Fn4   v100
	BYTE	W12
	BYTE		N11   
	BYTE	W12
	BYTE		        Fn2   v120
	BYTE	W12
	BYTE		        Fn4   v100
	BYTE	W06
// 009   ----------------------------------------
	BYTE	PATT
	 POIN2	findthetruth_5_001
// 010   ----------------------------------------
	BYTE	PATT
	 POIN2	findthetruth_5_002
// 011   ----------------------------------------
	BYTE	PATT
	 POIN2	findthetruth_5_003
// 012   ----------------------------------------
	BYTE	PATT
	 POIN2	findthetruth_5_004
// 013   ----------------------------------------
	BYTE	PATT
	 POIN2	findthetruth_5_005
// 014   ----------------------------------------
	BYTE	PATT
	 POIN2	findthetruth_5_002
// 015   ----------------------------------------
	BYTE	W06
	BYTE		N11     Ds3   v120
	BYTE	W12
	BYTE		        Ds5   v100
	BYTE	W12
	BYTE		        Ds3   v120
	BYTE	W12
	BYTE		N11   
	BYTE	W12
	BYTE		        Cn5   v100
	BYTE	W12
	BYTE		        Fn2   v120
	BYTE	W12
	BYTE		        Gn2 
	BYTE	W12
	BYTE		        Gs2 
	BYTE	W06
// 016   ----------------------------------------
	BYTE	W06
	BYTE		        Gs4   v100
	BYTE	W12
	BYTE		N32     Fn2   v120
	BYTE	W78
// 017   ----------------------------------------
	BYTE	W96
// 018   ----------------------------------------
	BYTE	W96
// 019   ----------------------------------------
	BYTE	W96
// 020   ----------------------------------------
	BYTE	W96
// 021   ----------------------------------------
	BYTE	W96
// 022   ----------------------------------------
	BYTE	W96
// 023   ----------------------------------------
	BYTE	W96
// 024   ----------------------------------------
	BYTE	W54
	BYTE		N30     Fs2 
	BYTE	W36
	BYTE		N07   
	BYTE	W06
// 025   ----------------------------------------
	BYTE	W18
	BYTE		N11     Fs4   v100
	BYTE	W12
	BYTE		N32     Fs2   v120
	BYTE	W36
	BYTE		N08   
	BYTE	W24
	BYTE		N11     Fs4   v100
	BYTE	W06
// 026   ----------------------------------------
	BYTE	W06
	BYTE		N12     Fs2   v120
	BYTE	W24
	BYTE		N24   
	BYTE	W24
	BYTE		N11     Fn4   v100
	BYTE	W12
	BYTE		N11   
	BYTE	W12
	BYTE		        Fn2   v120
	BYTE	W12
	BYTE		        Fn4   v100
	BYTE	W06
// 027   ----------------------------------------
	BYTE	PATT
	 POIN2	findthetruth_5_001
// 028   ----------------------------------------
	BYTE	W06
	BYTE		N11     Ds5   v100
	BYTE	W12
	BYTE		        Ds3   v120
	BYTE	W12
	BYTE		        Ds5   v100
	BYTE	W12
	BYTE		N11   
	BYTE	W12
	BYTE		        Dn5 
	BYTE	W12
	BYTE		N11   
	BYTE	W12
	BYTE		        Dn3   v120
	BYTE	W12
	BYTE		        Dn5   v100
	BYTE	W06
// 029   ----------------------------------------
	BYTE	W06
	BYTE		N11   
	BYTE	W12
	BYTE		        Dn3   v120
	BYTE	W12
	BYTE		        Dn5   v100
	BYTE	W12
	BYTE		N11   
	BYTE	W12
	BYTE		N11   
	BYTE	W12
	BYTE		N11   
	BYTE	W12
	BYTE		        Dn3   v120
	BYTE	W12
	BYTE		N11   
	BYTE	W06
// 030   ----------------------------------------
	BYTE	W06
	BYTE		        Dn5   v100
	BYTE	W12
	BYTE		        Dn3   v120
	BYTE	W12
	BYTE		        Dn5   v100
	BYTE	W12
	BYTE		        Dn3   v120
	BYTE	W12
	BYTE		        Cn5   v100
	BYTE	W12
	BYTE		N11   
	BYTE	W12
	BYTE		        Cn3   v120
	BYTE	W12
	BYTE		        Cn5   v100
	BYTE	W06
// 031   ----------------------------------------
	BYTE	W06
	BYTE		N11   
	BYTE	W12
	BYTE		        Cn3   v120
	BYTE	W12
	BYTE		        Cn5   v100
	BYTE	W12
	BYTE		N11   
	BYTE	W12
	BYTE		N11   
	BYTE	W12
	BYTE		N11   
	BYTE	W12
	BYTE		        Cn3   v120
	BYTE	W12
	BYTE		N11   
	BYTE	W06
// 032   ----------------------------------------
	BYTE	W06
	BYTE		        Cn5   v100
	BYTE	W12
	BYTE		        Cn3   v120
	BYTE	W12
	BYTE		        Cn5   v100
	BYTE	W12
	BYTE		        Cn3   v120
	BYTE	W24
	BYTE		        Ds3   v127
	BYTE	W12
	BYTE		        Cs3   v120
	BYTE	W12
	BYTE		        Cn3 
	BYTE	W06
// 033   ----------------------------------------
	BYTE	W06
	BYTE		        As2 
	BYTE	W12
	BYTE		        Gs2 
	BYTE	W12
	BYTE		        Gn2 
	BYTE	W12
	BYTE		        Cn3 
	BYTE	W24
	BYTE		N11   
	BYTE	W12
	BYTE		        As2 
	BYTE	W12
	BYTE		        Cn3 
	BYTE	W06
// 034   ----------------------------------------
	BYTE	W06
	BYTE		        Gs2 
	BYTE	W12
	BYTE		        Cn3 
	BYTE	W12
	BYTE		        Gn2 
	BYTE	W12
	BYTE		        Cn3 
	BYTE	W12
	BYTE		        Fn4   v100
	BYTE	W12
	BYTE		N11   
	BYTE	W12
	BYTE		        Fn2   v120
	BYTE	W12
	BYTE		        Fn4   v100
	BYTE	W06
// 035   ----------------------------------------
findthetruth_5_035:
	BYTE	W06
	BYTE		N11     Fn4   v100
	BYTE	W12
	BYTE		        Fn2   v120
	BYTE	W12
	BYTE		        Fn4   v100
	BYTE	W12
	BYTE		        Fn2   v120
	BYTE	W12
	BYTE		        Fn4   v100
	BYTE	W12
	BYTE		N11   
	BYTE	W12
	BYTE		        Fn2   v120
	BYTE	W12
	BYTE		N23     As2 
	BYTE	W06
	BYTE	PEND
// 036   ----------------------------------------
findthetruth_5_036:
	BYTE	W18
	BYTE		N11     As4   v100
	BYTE	W12
	BYTE		        Cn3   v120
	BYTE	W12
	BYTE		        Cn5   v100
	BYTE	W12
	BYTE		        Fn4 
	BYTE	W12
	BYTE		N11   
	BYTE	W12
	BYTE		        Fn2   v120
	BYTE	W12
	BYTE		        Fn4   v100
	BYTE	W06
	BYTE	PEND
// 037   ----------------------------------------
	BYTE	PATT
	 POIN2	findthetruth_5_035
// 038   ----------------------------------------
	BYTE	PATT
	 POIN2	findthetruth_5_036
// 039   ----------------------------------------
	BYTE	PATT
	 POIN2	findthetruth_5_035
// 040   ----------------------------------------
	BYTE	PATT
	 POIN2	findthetruth_5_036
// 041   ----------------------------------------
	BYTE	PATT
	 POIN2	findthetruth_5_035
// 042   ----------------------------------------
	BYTE	W18
	BYTE		N11     As4   v100
	BYTE	W12
	BYTE		        Cn3   v120
	BYTE	W12
	BYTE		        Cn5   v100
	BYTE	W54
// 043   ----------------------------------------
	BYTE	W96
// 044   ----------------------------------------
	BYTE	W54
	BYTE		        Fn4 
	BYTE	W12
	BYTE		N11   
	BYTE	W12
	BYTE		        Fn2   v120
	BYTE	W12
	BYTE		        Fn4   v100
	BYTE	W06
// 045   ----------------------------------------
findthetruth_5_045:
	BYTE	W06
	BYTE		N11     Fn4   v100
	BYTE	W12
	BYTE		        Fn2   v120
	BYTE	W12
	BYTE		        Fn4   v100
	BYTE	W12
	BYTE		        Fn2   v120
	BYTE	W12
	BYTE		        Fn4   v100
	BYTE	W12
	BYTE		N11   
	BYTE	W12
	BYTE		        Fn2   v120
	BYTE	W12
	BYTE		        Fn4   v100
	BYTE	W06
	BYTE	PEND
// 046   ----------------------------------------
	BYTE	W06
	BYTE		N11   
	BYTE	W12
	BYTE		        Fn2   v120
	BYTE	W12
	BYTE		        Fn4   v100
	BYTE	W12
	BYTE		N11   
	BYTE	W12
	BYTE		N11   
	BYTE	W12
	BYTE		N11   
	BYTE	W12
	BYTE		        Fn2   v120
	BYTE	W12
	BYTE		        Fn4   v100
	BYTE	W06
// 047   ----------------------------------------
	BYTE	PATT
	 POIN2	findthetruth_5_045
// 048   ----------------------------------------
	BYTE	PATT
	 POIN2	findthetruth_5_045
// 049   ----------------------------------------
	BYTE	W06
	BYTE		N11     Fn4   v100
	BYTE	W12
	BYTE		        Fn2   v120
	BYTE	W12
	BYTE		        Fn4   v100
	BYTE	W12
	BYTE		        Cn3   v120
	BYTE	W36
	BYTE		        Cn5   v100
	BYTE	W12
	BYTE		        Cn3   v120
	BYTE	W06
// 050   ----------------------------------------
	BYTE	W06
	BYTE		        Cn5   v100
	BYTE	W12
	BYTE		N32     Cn3   v120
	BYTE	W52
	BYTE	W01
	BYTE	GoTo
	 POIN2	findthetruth_5_B1
findthetruth_5_B2:
	BYTE	FINE

//**************** Track 6 (Midi-Chn.6) ****************//

findthetruth_6:
	BYTE	KEYSH   findthetruth_key+0
			BYTE 		BENDR   6
// 000   ----------------------------------------
	BYTE		VOICE   40
	BYTE		VOL     92*findthetruth_mvl/mxv
	BYTE		PAN     c_v-40
	BYTE		BEND    c_v+0
	BYTE	W06
	BYTE		N11     Cn5   v100
	BYTE	W18
	BYTE		        Ds5 
	BYTE	W18
	BYTE		        Cn5 
	BYTE	W12
findthetruth_6_B1:
	BYTE	W42
// 001   ----------------------------------------
	BYTE	W96
// 002   ----------------------------------------
	BYTE	W96
// 003   ----------------------------------------
	BYTE	W96
// 004   ----------------------------------------
	BYTE	W96
// 005   ----------------------------------------
	BYTE	W96
// 006   ----------------------------------------
	BYTE	W96
// 007   ----------------------------------------
	BYTE	W96
// 008   ----------------------------------------
	BYTE	W96
// 009   ----------------------------------------
	BYTE	W54
	BYTE		N32     Ds5   v112
	BYTE	W36
	BYTE		N23     Cs5 
	BYTE	W06
// 010   ----------------------------------------
	BYTE	W18
	BYTE		N32     As4 
	BYTE	W36
	BYTE		        Cn5 
	BYTE	W36
	BYTE		N23     As4 
	BYTE	W06
// 011   ----------------------------------------
	BYTE	W18
	BYTE		N32     Gn4 
	BYTE	W36
	BYTE		N92     Gs4 
	BYTE	W42
// 012   ----------------------------------------
	BYTE	W54
	BYTE		N32     As4 
	BYTE	W36
	BYTE		N17     Gn4 
	BYTE	W06
// 013   ----------------------------------------
	BYTE	W18
	BYTE		N11   
	BYTE	W12
	BYTE		        Gs4 
	BYTE	W12
	BYTE		N23     As4 
	BYTE	W24
	BYTE		N11     Cn5 
	BYTE	W12
	BYTE		        As4 
	BYTE	W12
	BYTE		N23     Gs4 
	BYTE	W06
// 014   ----------------------------------------
	BYTE	W18
	BYTE		N11     Gn4 
	BYTE	W12
	BYTE		N23     Gs4 
	BYTE	W24
	BYTE		N17     Fn4 
	BYTE	W24
	BYTE		        Cn5 
	BYTE	W18
// 015   ----------------------------------------
	BYTE	W06
	BYTE		        As4 
	BYTE	W24
	BYTE		N11     Ds5 
	BYTE	W12
	BYTE		N12     Fn5 
	BYTE	W24
	BYTE		N11     Fn3   v100
	BYTE	W12
	BYTE		        Gn3 
	BYTE	W12
	BYTE		        Gs3 
	BYTE	W06
// 016   ----------------------------------------
	BYTE	W18
	BYTE		N32     Fn3   v112
	BYTE	W36
	BYTE		TIE     Fn3   v100
	BYTE	W42
// 017   ----------------------------------------
	BYTE	W96
// 018   ----------------------------------------
	BYTE	W52
	BYTE	W01
	BYTE		EOT   
	BYTE	W01
	BYTE		TIE     Gn3 
	BYTE	W42
// 019   ----------------------------------------
	BYTE	W96
// 020   ----------------------------------------
	BYTE	W52
	BYTE	W01
	BYTE		EOT   
	BYTE	W01
	BYTE		N92     Fn3 
	BYTE	W42
// 021   ----------------------------------------
	BYTE	W54
	BYTE		        Cn4 
	BYTE	W42
// 022   ----------------------------------------
	BYTE	W54
	BYTE		N44     Gn3 
	BYTE	W42
// 023   ----------------------------------------
	BYTE	W06
	BYTE		        Cn4 
	BYTE	W48
	BYTE		        Ds4 
	BYTE	W42
// 024   ----------------------------------------
	BYTE	W12
	BYTE		N05     Cn4   v112
	BYTE	W06
	BYTE		        Dn4 
	BYTE	W06
	BYTE		        Ds4 
	BYTE	W06
	BYTE		        Fn4 
	BYTE	W06
	BYTE		        Gn4 
	BYTE	W06
	BYTE		        Gs4 
	BYTE	W06
	BYTE		        As4 
	BYTE	W06
	BYTE		N32     Cn5 
	BYTE	W36
	BYTE		N07     As4 
	BYTE	W06
// 025   ----------------------------------------
	BYTE	W30
	BYTE		N32     Cn5 
	BYTE	W36
	BYTE		N07     As4 
	BYTE	W24
	BYTE		N10   
	BYTE	W06
// 026   ----------------------------------------
	BYTE	W06
	BYTE		N23     Cn5 
	BYTE	W24
	BYTE		N18     As4 
	BYTE	W24
	BYTE		N32   
	BYTE	W36
	BYTE		N23     Gs4 
	BYTE	W06
// 027   ----------------------------------------
	BYTE	W18
	BYTE		N11     Gn4 
	BYTE	W12
	BYTE		N23     Gs4 
	BYTE	W24
	BYTE		N32     Fn4 
	BYTE	W36
	BYTE		N23     Gn4 
	BYTE	W06
// 028   ----------------------------------------
	BYTE	W18
	BYTE		N11     Gs4 
	BYTE	W12
	BYTE		N23     As4 
	BYTE	W24
	BYTE		N04     Cn5 
	BYTE	W06
	BYTE		N04   
	BYTE	W06
	BYTE		        Gs4 
	BYTE	W06
	BYTE		N04   
	BYTE	W06
	BYTE		        Fn4 
	BYTE	W06
	BYTE		N04   
	BYTE	W06
	BYTE		        Cn4 
	BYTE	W06
// 029   ----------------------------------------
	BYTE		N04   
	BYTE	W06
	BYTE		        Cn5 
	BYTE	W06
	BYTE		N04   
	BYTE	W06
	BYTE		        As4 
	BYTE	W06
	BYTE		N04   
	BYTE	W06
	BYTE		        Fn4 
	BYTE	W06
	BYTE		N04   
	BYTE	W06
	BYTE		        Cn4 
	BYTE	W06
	BYTE		N04   
	BYTE	W06
	BYTE		        Cn5 
	BYTE	W06
	BYTE		N04   
	BYTE	W06
	BYTE		        Gs4 
	BYTE	W06
	BYTE		N04   
	BYTE	W06
	BYTE		        Fn4 
	BYTE	W06
	BYTE		N04   
	BYTE	W06
	BYTE		        Cn4 
	BYTE	W06
// 030   ----------------------------------------
	BYTE		N04   
	BYTE	W06
	BYTE		        Cn5 
	BYTE	W06
	BYTE		N04   
	BYTE	W06
	BYTE		        Gs4 
	BYTE	W06
	BYTE		N04   
	BYTE	W06
	BYTE		        Fn4 
	BYTE	W06
	BYTE		N04   
	BYTE	W06
	BYTE		        Cn4 
	BYTE	W06
	BYTE		N04   
	BYTE	W06
	BYTE		        Cn5 
	BYTE	W06
	BYTE		N04   
	BYTE	W06
	BYTE		        Gn4 
	BYTE	W06
	BYTE		N04   
	BYTE	W06
	BYTE		        Fn4 
	BYTE	W06
	BYTE		N04   
	BYTE	W06
	BYTE		        Cn4 
	BYTE	W06
// 031   ----------------------------------------
	BYTE		N04   
	BYTE	W06
	BYTE		        Cn5 
	BYTE	W06
	BYTE		N04   
	BYTE	W06
	BYTE		        Gn4 
	BYTE	W06
	BYTE		N04   
	BYTE	W06
	BYTE		        Fn4 
	BYTE	W06
	BYTE		N04   
	BYTE	W06
	BYTE		        Cn4 
	BYTE	W06
	BYTE		N04   
	BYTE	W06
	BYTE		        Cn5 
	BYTE	W06
	BYTE		N04   
	BYTE	W06
	BYTE		        Gn4 
	BYTE	W06
	BYTE		N04   
	BYTE	W06
	BYTE		        En4 
	BYTE	W06
	BYTE		N04   
	BYTE	W06
	BYTE		        Cn4 
	BYTE	W06
// 032   ----------------------------------------
	BYTE		N04   
	BYTE	W06
	BYTE		        Cn5 
	BYTE	W06
	BYTE		N04   
	BYTE	W06
	BYTE		        Gn4 
	BYTE	W06
	BYTE		N04   
	BYTE	W06
	BYTE		        En4 
	BYTE	W06
	BYTE		N04   
	BYTE	W06
	BYTE		        Cn4 
	BYTE	W06
	BYTE		N04   
	BYTE	W18
	BYTE		        Ds5   v124
	BYTE	W06
	BYTE		N04   
	BYTE	W06
	BYTE		        Cs5   v100
	BYTE	W06
	BYTE		N04   
	BYTE	W06
	BYTE		        Cn5   v096
	BYTE	W06
// 033   ----------------------------------------
	BYTE		N04   
	BYTE	W06
	BYTE		        As4   v100
	BYTE	W06
	BYTE		N04   
	BYTE	W06
	BYTE		        Gs4 
	BYTE	W06
	BYTE		N04   
	BYTE	W06
	BYTE		        Gn4   v120
	BYTE	W06
	BYTE		N04   
	BYTE	W06
	BYTE		        Cn5 
	BYTE	W06
	BYTE		N04   
	BYTE	W06
	BYTE		        Cn5   v052
	BYTE	W06
	BYTE		        Cn5   v040
	BYTE	W06
	BYTE		        Cn5   v032
	BYTE	W30
// 034   ----------------------------------------
	BYTE	W96
// 035   ----------------------------------------
	BYTE	W90
	BYTE		N32     Gs3   v127
	BYTE	W06
// 036   ----------------------------------------
	BYTE	W30
	BYTE		N15     As3 
	BYTE	W24
	BYTE		N04     Gs2   v120
	BYTE	W06
	BYTE		N04   
	BYTE	W06
	BYTE		        As2 
	BYTE	W06
	BYTE		N04   
	BYTE	W06
	BYTE		        Cn3 
	BYTE	W06
	BYTE		N04   
	BYTE	W06
	BYTE		        Dn3 
	BYTE	W06
// 037   ----------------------------------------
	BYTE		N04   
	BYTE	W06
	BYTE		        As2 
	BYTE	W06
	BYTE		N04   
	BYTE	W06
	BYTE		        Cn3 
	BYTE	W06
	BYTE		N04   
	BYTE	W06
	BYTE		        Dn3 
	BYTE	W06
	BYTE		N04   
	BYTE	W06
	BYTE		        Ds3 
	BYTE	W06
	BYTE		N04   
	BYTE	W06
	BYTE		        Cn3 
	BYTE	W06
	BYTE		N04   
	BYTE	W06
	BYTE		        Dn3 
	BYTE	W06
	BYTE		N04   
	BYTE	W06
	BYTE		N12     Ds3 
	BYTE	W12
	BYTE		N32     Fn3 
	BYTE	W06
// 038   ----------------------------------------
	BYTE	W30
	BYTE		N15     Gn3 
	BYTE	W24
	BYTE		N04     Fn3 
	BYTE	W06
	BYTE		N04   
	BYTE	W06
	BYTE		        Gn3 
	BYTE	W06
	BYTE		N04   
	BYTE	W06
	BYTE		        Gs3 
	BYTE	W06
	BYTE		N04   
	BYTE	W06
	BYTE		        As3 
	BYTE	W06
// 039   ----------------------------------------
	BYTE		N04   
	BYTE	W06
	BYTE		        Gn3 
	BYTE	W06
	BYTE		N04   
	BYTE	W06
	BYTE		        Gs3 
	BYTE	W06
	BYTE		N04   
	BYTE	W06
	BYTE		        As3 
	BYTE	W06
	BYTE		N04   
	BYTE	W06
	BYTE		        Cn4 
	BYTE	W06
	BYTE		N04   
	BYTE	W06
	BYTE		        Gs3 
	BYTE	W06
	BYTE		N04   
	BYTE	W06
	BYTE		        As3 
	BYTE	W06
	BYTE		N04   
	BYTE	W06
	BYTE		N12     Cn4 
	BYTE	W12
	BYTE		N32     Dn4 
	BYTE	W06
// 040   ----------------------------------------
	BYTE	W30
	BYTE		N15     Ds4 
	BYTE	W24
	BYTE		N04     Gs3 
	BYTE	W06
	BYTE		N04   
	BYTE	W06
	BYTE		        As3 
	BYTE	W06
	BYTE		N04   
	BYTE	W06
	BYTE		        Cn4 
	BYTE	W06
	BYTE		N04   
	BYTE	W06
	BYTE		        Dn4 
	BYTE	W06
// 041   ----------------------------------------
	BYTE		N04   
	BYTE	W06
	BYTE		        As3 
	BYTE	W06
	BYTE		N04   
	BYTE	W06
	BYTE		        Cn4 
	BYTE	W06
	BYTE		N04   
	BYTE	W06
	BYTE		        Dn4 
	BYTE	W06
	BYTE		N04   
	BYTE	W06
	BYTE		        Ds4 
	BYTE	W06
	BYTE		N04   
	BYTE	W06
	BYTE		        Cn4 
	BYTE	W06
	BYTE		N04   
	BYTE	W06
	BYTE		        Dn4 
	BYTE	W06
	BYTE		N04   
	BYTE	W06
	BYTE		N12     Ds4 
	BYTE	W12
	BYTE		N32     Fn4 
	BYTE	W06
// 042   ----------------------------------------
	BYTE	W30
	BYTE		N15     Ds5 
	BYTE	W24
	BYTE		N12     Gs3   v100
	BYTE		N12     Fn4 
	BYTE	W42
// 043   ----------------------------------------
	BYTE	W96
// 044   ----------------------------------------
findthetruth_6_044:
	BYTE	W54
	BYTE		N12     Gs3   v100
	BYTE		N12     Fn4 
	BYTE	W42
	BYTE	PEND
// 045   ----------------------------------------
	BYTE	W96
// 046   ----------------------------------------
	BYTE	PATT
	 POIN2	findthetruth_6_044
// 047   ----------------------------------------
	BYTE	W96
// 048   ----------------------------------------
	BYTE	W96
// 049   ----------------------------------------
	BYTE	W42
	BYTE		N12     As3   v100
	BYTE		N12     Gn4 
	BYTE	W48
	BYTE		        As3 
	BYTE		N12     Gn4 
	BYTE	W06
// 050   ----------------------------------------
	BYTE	W18
	BYTE		N30     As3 
	BYTE		N30     Gn4 
	BYTE	W30
	BYTE		N05     Gn4   v060
	BYTE	W23
	BYTE	GoTo
	 POIN2	findthetruth_6_B1
findthetruth_6_B2:
	BYTE	FINE

//**************** Track 7 (Midi-Chn.7) ****************//

findthetruth_7:
	BYTE	KEYSH   findthetruth_key+0
			BYTE 		BENDR   6
// 000   ----------------------------------------
	BYTE		VOICE   40
	BYTE		VOL     92*findthetruth_mvl/mxv
	BYTE		PAN     c_v-20
	BYTE		BEND    c_v+0
	BYTE	W06
	BYTE		N11     Cn4   v100
	BYTE	W18
	BYTE		        Ds4 
	BYTE	W18
	BYTE		        Cn4 
	BYTE	W12
findthetruth_7_B1:
	BYTE	W42
// 001   ----------------------------------------
	BYTE	W96
// 002   ----------------------------------------
	BYTE	W96
// 003   ----------------------------------------
	BYTE	W96
// 004   ----------------------------------------
	BYTE	W96
// 005   ----------------------------------------
	BYTE	W96
// 006   ----------------------------------------
	BYTE	W96
// 007   ----------------------------------------
	BYTE	W96
// 008   ----------------------------------------
	BYTE	W96
// 009   ----------------------------------------
	BYTE	W54
	BYTE		N32     Cn5   v112
	BYTE	W36
	BYTE		N23     As4 
	BYTE	W06
// 010   ----------------------------------------
	BYTE	W18
	BYTE		N32     Gn4 
	BYTE	W36
	BYTE		        Gs4 
	BYTE	W36
	BYTE		N23     Gn4 
	BYTE	W06
// 011   ----------------------------------------
	BYTE	W18
	BYTE		N32     Ds4 
	BYTE	W36
	BYTE		N92     Fn4 
	BYTE	W42
// 012   ----------------------------------------
	BYTE	W54
	BYTE		N32     Gn4 
	BYTE	W36
	BYTE		N17     Ds4 
	BYTE	W06
// 013   ----------------------------------------
	BYTE	W18
	BYTE		N11   
	BYTE	W12
	BYTE		        Fn4 
	BYTE	W12
	BYTE		N23     Gn4 
	BYTE	W24
	BYTE		N11     Gs4 
	BYTE	W12
	BYTE		        Gn4 
	BYTE	W12
	BYTE		N23     Fn4 
	BYTE	W06
// 014   ----------------------------------------
	BYTE	W18
	BYTE		N11     Ds4 
	BYTE	W12
	BYTE		N23     Fn4 
	BYTE	W24
	BYTE		N17     Gs3 
	BYTE	W24
	BYTE		        Fn4 
	BYTE	W18
// 015   ----------------------------------------
	BYTE	W06
	BYTE		        Ds4 
	BYTE	W24
	BYTE		N11     Gn4 
	BYTE	W12
	BYTE		N12     Gs4 
	BYTE	W24
	BYTE		        Gs2   v100
	BYTE	W12
	BYTE		        As2 
	BYTE	W12
	BYTE		N11     Cn3 
	BYTE	W06
// 016   ----------------------------------------
	BYTE	W18
	BYTE		N32     Gs2   v112
	BYTE	W36
	BYTE		TIE     Cn3   v100
	BYTE	W42
// 017   ----------------------------------------
	BYTE	W96
// 018   ----------------------------------------
	BYTE	W52
	BYTE	W01
	BYTE		EOT   
	BYTE	W01
	BYTE		TIE     Ds3 
	BYTE	W42
// 019   ----------------------------------------
	BYTE	W96
// 020   ----------------------------------------
	BYTE	W52
	BYTE	W01
	BYTE		EOT   
	BYTE	W01
	BYTE		TIE     Cs3 
	BYTE	W42
// 021   ----------------------------------------
	BYTE	W96
// 022   ----------------------------------------
	BYTE	W52
	BYTE	W01
	BYTE		EOT   
	BYTE	W01
	BYTE		N44     Cn3 
	BYTE	W42
// 023   ----------------------------------------
	BYTE	W06
	BYTE		        Ds3 
	BYTE	W48
	BYTE		        Cn4 
	BYTE	W42
// 024   ----------------------------------------
	BYTE	W12
	BYTE		N05     Cn3   v112
	BYTE	W06
	BYTE		        Dn3 
	BYTE	W06
	BYTE		        Ds3 
	BYTE	W06
	BYTE		        Fn3 
	BYTE	W06
	BYTE		        Gn3 
	BYTE	W06
	BYTE		        Gs3 
	BYTE	W06
	BYTE		        As3 
	BYTE	W06
	BYTE		N36     Cn4 
	BYTE	W36
	BYTE		N07     As3 
	BYTE	W06
// 025   ----------------------------------------
	BYTE	W30
	BYTE		N32     Cn4 
	BYTE	W36
	BYTE		N07     As3 
	BYTE	W24
	BYTE		N10   
	BYTE	W06
// 026   ----------------------------------------
	BYTE	W06
	BYTE		N23     Cn4 
	BYTE	W24
	BYTE		N18     As3 
	BYTE	W24
	BYTE		N32   
	BYTE	W36
	BYTE		N23     Gs3 
	BYTE	W06
// 027   ----------------------------------------
	BYTE	W18
	BYTE		N11     Gn3 
	BYTE	W12
	BYTE		N23     Gs3 
	BYTE	W24
	BYTE		N32     Fn3 
	BYTE	W36
	BYTE		N23     Gn3 
	BYTE	W06
// 028   ----------------------------------------
	BYTE	W18
	BYTE		N11     Gs3 
	BYTE	W12
	BYTE		N23     As3 
	BYTE	W24
	BYTE		N04     Gs4 
	BYTE	W06
	BYTE		N04   
	BYTE	W06
	BYTE		        Fn4 
	BYTE	W06
	BYTE		N04   
	BYTE	W06
	BYTE		        Cn4 
	BYTE	W06
	BYTE		N04   
	BYTE	W06
	BYTE		        Gs3 
	BYTE	W06
// 029   ----------------------------------------
	BYTE		N04   
	BYTE	W06
	BYTE		        Gs4 
	BYTE	W06
	BYTE		N04   
	BYTE	W06
	BYTE		        Fn4 
	BYTE	W06
	BYTE		N04   
	BYTE	W06
	BYTE		        Cn4 
	BYTE	W06
	BYTE		N04   
	BYTE	W06
	BYTE		        Gs3 
	BYTE	W06
	BYTE		N04   
	BYTE	W06
	BYTE		        Gs4 
	BYTE	W06
	BYTE		N04   
	BYTE	W06
	BYTE		        Fn4 
	BYTE	W06
	BYTE		N04   
	BYTE	W06
	BYTE		        Cn4 
	BYTE	W06
	BYTE		N04   
	BYTE	W06
	BYTE		        Gs3 
	BYTE	W06
// 030   ----------------------------------------
	BYTE		N04   
	BYTE	W06
	BYTE		        Gs4 
	BYTE	W06
	BYTE		N04   
	BYTE	W06
	BYTE		        Fn4 
	BYTE	W06
	BYTE		N04   
	BYTE	W06
	BYTE		        Cn4 
	BYTE	W06
	BYTE		N04   
	BYTE	W06
	BYTE		        Gs3 
	BYTE	W06
	BYTE		N04   
	BYTE	W06
	BYTE		        Gn4 
	BYTE	W06
	BYTE		N04   
	BYTE	W06
	BYTE		        Fn4 
	BYTE	W06
	BYTE		N04   
	BYTE	W06
	BYTE		        Cn4 
	BYTE	W06
	BYTE		N04   
	BYTE	W06
	BYTE		        Gn3 
	BYTE	W06
// 031   ----------------------------------------
	BYTE		N04   
	BYTE	W06
	BYTE		        Gn4 
	BYTE	W06
	BYTE		N04   
	BYTE	W06
	BYTE		        Fn4 
	BYTE	W06
	BYTE		N04   
	BYTE	W06
	BYTE		        Cn4 
	BYTE	W06
	BYTE		N04   
	BYTE	W06
	BYTE		        Gn3 
	BYTE	W06
	BYTE		N04   
	BYTE	W06
	BYTE		        Gn4 
	BYTE	W06
	BYTE		N04   
	BYTE	W06
	BYTE		        En4 
	BYTE	W06
	BYTE		N04   
	BYTE	W06
	BYTE		        Cn4 
	BYTE	W06
	BYTE		N04   
	BYTE	W06
	BYTE		        Gn3 
	BYTE	W06
// 032   ----------------------------------------
	BYTE		N04   
	BYTE	W06
	BYTE		        Gn4 
	BYTE	W06
	BYTE		N04   
	BYTE	W06
	BYTE		        En4 
	BYTE	W06
	BYTE		N04   
	BYTE	W06
	BYTE		        Cn4 
	BYTE	W06
	BYTE		N04   
	BYTE	W06
	BYTE		        Gn3 
	BYTE	W06
	BYTE		N04   
	BYTE	W18
	BYTE		        Ds4   v124
	BYTE	W06
	BYTE		N04   
	BYTE	W06
	BYTE		        Cs4   v100
	BYTE	W06
	BYTE		N04   
	BYTE	W06
	BYTE		        Cn4 
	BYTE	W06
// 033   ----------------------------------------
	BYTE		N04   
	BYTE	W06
	BYTE		        As3 
	BYTE	W06
	BYTE		N04   
	BYTE	W06
	BYTE		        Gs3 
	BYTE	W06
	BYTE		N04   
	BYTE	W06
	BYTE		        Gn3   v120
	BYTE	W06
	BYTE		N04   
	BYTE	W06
	BYTE		        Cn4 
	BYTE	W06
	BYTE		N04   
	BYTE	W06
	BYTE		        Cn4   v052
	BYTE	W06
	BYTE		        Cn4   v040
	BYTE	W06
	BYTE		        Cn4   v032
	BYTE	W30
// 034   ----------------------------------------
	BYTE	W96
// 035   ----------------------------------------
	BYTE	W90
	BYTE		N32     Fn3   v120
	BYTE	W06
// 036   ----------------------------------------
	BYTE	W30
	BYTE		N15     Gn3   v127
	BYTE	W24
	BYTE		N04     Fn2   v120
	BYTE	W06
	BYTE		N04   
	BYTE	W06
	BYTE		        Gn2 
	BYTE	W06
	BYTE		N04   
	BYTE	W06
	BYTE		        Gs2 
	BYTE	W06
	BYTE		N04   
	BYTE	W06
	BYTE		        As2 
	BYTE	W06
// 037   ----------------------------------------
	BYTE		N04   
	BYTE	W06
	BYTE		        Gn2 
	BYTE	W06
	BYTE		N04   
	BYTE	W06
	BYTE		        Gs2 
	BYTE	W06
	BYTE		N04   
	BYTE	W06
	BYTE		        As2 
	BYTE	W06
	BYTE		N04   
	BYTE	W06
	BYTE		        Cn3 
	BYTE	W06
	BYTE		N04   
	BYTE	W06
	BYTE		        Gs2 
	BYTE	W06
	BYTE		N04   
	BYTE	W06
	BYTE		        As2 
	BYTE	W06
	BYTE		N04   
	BYTE	W06
	BYTE		N11     Cn3 
	BYTE	W12
	BYTE		N32     Dn3 
	BYTE	W06
// 038   ----------------------------------------
	BYTE	W30
	BYTE		N15     Ds3 
	BYTE	W24
	BYTE		N04     Gs2 
	BYTE	W06
	BYTE		N04   
	BYTE	W06
	BYTE		        As2 
	BYTE	W06
	BYTE		N04   
	BYTE	W06
	BYTE		        Cn3 
	BYTE	W06
	BYTE		N04   
	BYTE	W06
	BYTE		        Dn3 
	BYTE	W06
// 039   ----------------------------------------
	BYTE		N04   
	BYTE	W06
	BYTE		        As2 
	BYTE	W06
	BYTE		N04   
	BYTE	W06
	BYTE		        Cn3 
	BYTE	W06
	BYTE		N04   
	BYTE	W06
	BYTE		        Dn3 
	BYTE	W06
	BYTE		N04   
	BYTE	W06
	BYTE		        Ds3 
	BYTE	W06
	BYTE		N04   
	BYTE	W06
	BYTE		        Cn3 
	BYTE	W06
	BYTE		N04   
	BYTE	W06
	BYTE		        Dn3 
	BYTE	W06
	BYTE		N04   
	BYTE	W06
	BYTE		N12     Ds3 
	BYTE	W12
	BYTE		N32     Fn3 
	BYTE	W06
// 040   ----------------------------------------
	BYTE	W30
	BYTE		N15     Gn3 
	BYTE	W24
	BYTE		N04     Fn3 
	BYTE	W06
	BYTE		N04   
	BYTE	W06
	BYTE		        Gn3 
	BYTE	W06
	BYTE		N04   
	BYTE	W06
	BYTE		        Gs3 
	BYTE	W06
	BYTE		N04   
	BYTE	W06
	BYTE		        As3 
	BYTE	W06
// 041   ----------------------------------------
	BYTE		N04   
	BYTE	W06
	BYTE		        Gn3 
	BYTE	W06
	BYTE		N04   
	BYTE	W06
	BYTE		        Gs3 
	BYTE	W06
	BYTE		N04   
	BYTE	W06
	BYTE		        As3 
	BYTE	W06
	BYTE		N04   
	BYTE	W06
	BYTE		        Cn4 
	BYTE	W06
	BYTE		N04   
	BYTE	W06
	BYTE		        Gs3 
	BYTE	W06
	BYTE		N04   
	BYTE	W06
	BYTE		        As3 
	BYTE	W06
	BYTE		N04   
	BYTE	W06
	BYTE		N12     Cn4 
	BYTE	W12
	BYTE		N32     Dn4 
	BYTE	W06
// 042   ----------------------------------------
	BYTE	W30
	BYTE		N15     Ds4 
	BYTE	W66
// 043   ----------------------------------------
	BYTE	W96
// 044   ----------------------------------------
	BYTE	W96
// 045   ----------------------------------------
	BYTE	W96
// 046   ----------------------------------------
	BYTE	W96
// 047   ----------------------------------------
	BYTE	W96
// 048   ----------------------------------------
	BYTE	W96
// 049   ----------------------------------------
	BYTE	W96
// 050   ----------------------------------------
	BYTE	W68
	BYTE	W03
	BYTE	GoTo
	 POIN2	findthetruth_7_B1
findthetruth_7_B2:
	BYTE	FINE

//**************** Track 8 (Midi-Chn.8) ****************//

findthetruth_8:
	BYTE	KEYSH   findthetruth_key+0
			BYTE 		BENDR   6
// 000   ----------------------------------------
	BYTE		VOICE   40
	BYTE		VOL     92*findthetruth_mvl/mxv
	BYTE		PAN     c_v+20
	BYTE		BEND    c_v+0
	BYTE	W54
findthetruth_8_B1:
	BYTE		N32     Gs4   v112
	BYTE	W36
	BYTE		N23     Gn4 
	BYTE	W06
// 001   ----------------------------------------
findthetruth_8_001:
	BYTE	W18
	BYTE		N32     Ds4   v112
	BYTE	W36
	BYTE		N68     Cn4 
	BYTE	W42
	BYTE	PEND
// 002   ----------------------------------------
findthetruth_8_002:
	BYTE	W30
	BYTE		N11     As3   v112
	BYTE	W12
	BYTE		        Ds4 
	BYTE	W12
	BYTE		TIE     Cn4 
	BYTE	W42
	BYTE	PEND
// 003   ----------------------------------------
	BYTE	W64
	BYTE	W01
	BYTE		EOT   
	BYTE	W24
	BYTE	W01
	BYTE		N32     Fn3 
	BYTE	W06
// 004   ----------------------------------------
	BYTE	W30
	BYTE		N23     Cn4 
	BYTE	W24
	BYTE		N32     As3 
	BYTE	W36
	BYTE		        Ds4 
	BYTE	W06
// 005   ----------------------------------------
	BYTE	W30
	BYTE		N44     Gn3 
	BYTE	W48
	BYTE		N23     Gs3 
	BYTE	W18
// 006   ----------------------------------------
	BYTE	W06
	BYTE		        As3 
	BYTE	W24
	BYTE		N17     Cn4 
	BYTE	W24
	BYTE		N88   
	BYTE	W42
// 007   ----------------------------------------
	BYTE	W54
	BYTE		N32   
	BYTE	W36
	BYTE		        Ds4 
	BYTE	W06
// 008   ----------------------------------------
	BYTE	W30
	BYTE		N23     Cn4 
	BYTE	W24
	BYTE		N32     Gs4 
	BYTE	W36
	BYTE		N23     Gn4 
	BYTE	W06
// 009   ----------------------------------------
	BYTE	PATT
	 POIN2	findthetruth_8_001
// 010   ----------------------------------------
	BYTE	PATT
	 POIN2	findthetruth_8_002
// 011   ----------------------------------------
	BYTE	W64
	BYTE	W01
	BYTE		EOT     Cn4 
	BYTE	W13
	BYTE		N23     Cn3   v112
	BYTE	W18
// 012   ----------------------------------------
	BYTE	W06
	BYTE		        Fn3 
	BYTE	W24
	BYTE		        Cn4 
	BYTE	W24
	BYTE		N32     Ds4 
	BYTE	W36
	BYTE		N17     Gn3 
	BYTE	W06
// 013   ----------------------------------------
	BYTE	W18
	BYTE		N11   
	BYTE	W12
	BYTE		        Gs3 
	BYTE	W12
	BYTE		N23     As3 
	BYTE	W24
	BYTE		N11     Cn4 
	BYTE	W12
	BYTE		        As3 
	BYTE	W12
	BYTE		N23     Gs3 
	BYTE	W06
// 014   ----------------------------------------
	BYTE	W18
	BYTE		N11     Gn3 
	BYTE	W12
	BYTE		N23     Gs3 
	BYTE	W24
	BYTE		        Cs3 
	BYTE	W24
	BYTE		        Gs3 
	BYTE	W18
// 015   ----------------------------------------
	BYTE	W06
	BYTE		        Gn3 
	BYTE	W24
	BYTE		N11     As3 
	BYTE	W12
	BYTE		N12     Cn4 
	BYTE	W24
	BYTE		N11     Fn2   v100
	BYTE	W12
	BYTE		        Gn2 
	BYTE	W12
	BYTE		        Gs2 
	BYTE	W06
// 016   ----------------------------------------
	BYTE	W18
	BYTE		N32     Fn2   v112
	BYTE	W36
	BYTE		TIE     Gs2   v100
	BYTE	W42
// 017   ----------------------------------------
	BYTE	W96
// 018   ----------------------------------------
	BYTE	W52
	BYTE	W01
	BYTE		EOT   
	BYTE	W01
	BYTE		TIE     As2 
	BYTE	W42
// 019   ----------------------------------------
	BYTE	W96
// 020   ----------------------------------------
	BYTE	W52
	BYTE	W01
	BYTE		EOT   
	BYTE	W01
	BYTE		TIE     Gs2 
	BYTE	W42
// 021   ----------------------------------------
	BYTE	W96
// 022   ----------------------------------------
	BYTE	W52
	BYTE	W01
	BYTE		EOT   
	BYTE	W01
	BYTE		N44     Ds2 
	BYTE	W42
// 023   ----------------------------------------
	BYTE	W06
	BYTE		        Cn3 
	BYTE	W48
	BYTE		N92     Gn3 
	BYTE	W42
// 024   ----------------------------------------
	BYTE	W54
	BYTE		N30     Fn3 
	BYTE	W36
	BYTE		N09     Fn3   v120
	BYTE	W06
// 025   ----------------------------------------
	BYTE	W30
	BYTE		N30   
	BYTE	W36
	BYTE		N09     Fn3   v112
	BYTE	W30
// 026   ----------------------------------------
	BYTE	W06
	BYTE		N13     Fn3   v100
	BYTE	W24
	BYTE		N15     Fn3   v120
	BYTE	W24
	BYTE		N92     Ds3   v096
	BYTE	W42
// 027   ----------------------------------------
	BYTE	W54
	BYTE		        Cn3 
	BYTE	W42
// 028   ----------------------------------------
	BYTE	W54
	BYTE		N08     Dn3   v072
	BYTE	W24
	BYTE		        Dn3   v064
	BYTE	W18
// 029   ----------------------------------------
	BYTE	W06
	BYTE		N08   
	BYTE	W24
	BYTE		N09   
	BYTE	W24
	BYTE		        Dn3   v096
	BYTE	W24
	BYTE		        Dn3   v064
	BYTE	W18
// 030   ----------------------------------------
	BYTE	W06
	BYTE		N08     Dn3   v072
	BYTE	W24
	BYTE		N07     Dn3   v096
	BYTE	W24
	BYTE		N09     Fn3   v072
	BYTE	W24
	BYTE		        Fn3   v044
	BYTE	W18
// 031   ----------------------------------------
	BYTE	W06
	BYTE		        Fn3   v084
	BYTE	W24
	BYTE		N08   
	BYTE	W24
	BYTE		        En3   v120
	BYTE	W24
	BYTE		        En3   v092
	BYTE	W18
// 032   ----------------------------------------
	BYTE	W06
	BYTE		N07   
	BYTE	W24
	BYTE		N08     En3   v100
	BYTE	W36
	BYTE		N04     Ds3   v092
	BYTE	W06
	BYTE		N04   
	BYTE	W06
	BYTE		        Cs3 
	BYTE	W06
	BYTE		N04   
	BYTE	W06
	BYTE		        Cn3 
	BYTE	W06
// 033   ----------------------------------------
	BYTE		N04   
	BYTE	W06
	BYTE		        As2 
	BYTE	W06
	BYTE		N04   
	BYTE	W06
	BYTE		        Gs2 
	BYTE	W06
	BYTE		N04   
	BYTE	W06
	BYTE		        Gn2 
	BYTE	W06
	BYTE		N04   
	BYTE	W06
	BYTE		        Cn3 
	BYTE	W06
	BYTE		N04   
	BYTE	W18
	BYTE		N11     Cn3   v120
	BYTE	W12
	BYTE		N08     As2   v116
	BYTE	W12
	BYTE		N11     Cn3   v112
	BYTE	W06
// 034   ----------------------------------------
	BYTE	W06
	BYTE		N10     Gs2   v120
	BYTE	W12
	BYTE		N11     Cn3 
	BYTE	W12
	BYTE		N09     Gn2   v116
	BYTE	W12
	BYTE		N08     Cn3   v120
	BYTE	W12
	BYTE		N04     Fn2 
	BYTE	W06
	BYTE		N04   
	BYTE	W06
	BYTE		        Gn2 
	BYTE	W06
	BYTE		N04   
	BYTE	W06
	BYTE		        Gs2 
	BYTE	W06
	BYTE		N04   
	BYTE	W06
	BYTE		        As2 
	BYTE	W06
// 035   ----------------------------------------
findthetruth_8_035:
	BYTE		N04     As2   v120
	BYTE	W06
	BYTE		        Gn2 
	BYTE	W06
	BYTE		N04   
	BYTE	W06
	BYTE		        Gs2 
	BYTE	W06
	BYTE		N04   
	BYTE	W06
	BYTE		        As2 
	BYTE	W06
	BYTE		N04   
	BYTE	W06
	BYTE		        Cn3 
	BYTE	W06
	BYTE		N04   
	BYTE	W06
	BYTE		        Gs2 
	BYTE	W06
	BYTE		N04   
	BYTE	W06
	BYTE		        As2 
	BYTE	W06
	BYTE		N04   
	BYTE	W06
	BYTE		N11     Cn3 
	BYTE	W12
	BYTE		N32     Dn3 
	BYTE	W06
	BYTE	PEND
// 036   ----------------------------------------
findthetruth_8_036:
	BYTE	W30
	BYTE		N15     Ds3   v120
	BYTE	W24
	BYTE		N04     Fn2 
	BYTE	W06
	BYTE		N04   
	BYTE	W06
	BYTE		        Gn2 
	BYTE	W06
	BYTE		N04   
	BYTE	W06
	BYTE		        Gs2 
	BYTE	W06
	BYTE		N04   
	BYTE	W06
	BYTE		        As2 
	BYTE	W06
	BYTE	PEND
// 037   ----------------------------------------
	BYTE	PATT
	 POIN2	findthetruth_8_035
// 038   ----------------------------------------
	BYTE	PATT
	 POIN2	findthetruth_8_036
// 039   ----------------------------------------
	BYTE	PATT
	 POIN2	findthetruth_8_035
// 040   ----------------------------------------
	BYTE	W30
	BYTE		N15     Ds3   v120
	BYTE	W24
	BYTE		N04     Gs2 
	BYTE	W06
	BYTE		N04   
	BYTE	W06
	BYTE		        As2 
	BYTE	W06
	BYTE		N04   
	BYTE	W06
	BYTE		        Cn3 
	BYTE	W06
	BYTE		N04   
	BYTE	W06
	BYTE		        Dn3 
	BYTE	W06
// 041   ----------------------------------------
	BYTE		N04   
	BYTE	W06
	BYTE		        As2 
	BYTE	W06
	BYTE		N04   
	BYTE	W06
	BYTE		        Cn3 
	BYTE	W06
	BYTE		N04   
	BYTE	W06
	BYTE		        Dn3 
	BYTE	W06
	BYTE		N04   
	BYTE	W06
	BYTE		        Ds3 
	BYTE	W06
	BYTE		N04   
	BYTE	W06
	BYTE		        Cn3 
	BYTE	W06
	BYTE		N04   
	BYTE	W06
	BYTE		        Dn3 
	BYTE	W06
	BYTE		N04   
	BYTE	W06
	BYTE		N11     Ds3 
	BYTE	W12
	BYTE		N32     Fn3 
	BYTE	W06
// 042   ----------------------------------------
	BYTE	W30
	BYTE		N15     Ds4 
	BYTE	W66
// 043   ----------------------------------------
	BYTE	W96
// 044   ----------------------------------------
	BYTE	W96
// 045   ----------------------------------------
	BYTE	W96
// 046   ----------------------------------------
	BYTE	W96
// 047   ----------------------------------------
	BYTE	W96
// 048   ----------------------------------------
	BYTE	W96
// 049   ----------------------------------------
	BYTE	W96
// 050   ----------------------------------------
	BYTE	W68
	BYTE	W03
	BYTE	GoTo
	 POIN2	findthetruth_8_B1
findthetruth_8_B2:
	BYTE	FINE

//**************** Track 9 (Midi-Chn.9) ****************//

findthetruth_9:
	BYTE	KEYSH   findthetruth_key+0
			BYTE 		BENDR   6
// 000   ----------------------------------------
	BYTE		VOICE   40
	BYTE		VOL     92*findthetruth_mvl/mxv
	BYTE		PAN     c_v+40
	BYTE		BEND    c_v+0
	BYTE	W06
	BYTE		N12     As2   v112
	BYTE	W18
	BYTE		N12   
	BYTE	W18
	BYTE		N12   
	BYTE	W12
findthetruth_9_B1:
	BYTE		N32     Gs3   v112
	BYTE	W36
	BYTE		N23     Gn3 
	BYTE	W06
// 001   ----------------------------------------
findthetruth_9_001:
	BYTE	W18
	BYTE		N32     Ds3   v112
	BYTE	W36
	BYTE		N68     Cn3 
	BYTE	W42
	BYTE	PEND
// 002   ----------------------------------------
findthetruth_9_002:
	BYTE	W30
	BYTE		N11     As2   v112
	BYTE	W12
	BYTE		        Ds3 
	BYTE	W12
	BYTE		TIE     Cn3 
	BYTE	W42
	BYTE	PEND
// 003   ----------------------------------------
	BYTE	W64
	BYTE	W01
	BYTE		EOT   
	BYTE	W24
	BYTE	W01
	BYTE		N32     Fn2 
	BYTE	W06
// 004   ----------------------------------------
	BYTE	W30
	BYTE		N23     Cn3 
	BYTE	W24
	BYTE		N32     As2 
	BYTE	W36
	BYTE		        Ds3 
	BYTE	W06
// 005   ----------------------------------------
	BYTE	W30
	BYTE		N44     Gn2 
	BYTE	W48
	BYTE		N23     Gs2 
	BYTE	W18
// 006   ----------------------------------------
	BYTE	W06
	BYTE		        As2 
	BYTE	W24
	BYTE		N17     Cn3 
	BYTE	W24
	BYTE		N88   
	BYTE	W42
// 007   ----------------------------------------
	BYTE	W54
	BYTE		N32   
	BYTE	W36
	BYTE		        Ds3 
	BYTE	W06
// 008   ----------------------------------------
	BYTE	W30
	BYTE		N23     Cn3 
	BYTE	W24
	BYTE		N32     Gs3 
	BYTE	W36
	BYTE		N23     Gn3 
	BYTE	W06
// 009   ----------------------------------------
	BYTE	PATT
	 POIN2	findthetruth_9_001
// 010   ----------------------------------------
	BYTE	PATT
	 POIN2	findthetruth_9_002
// 011   ----------------------------------------
	BYTE	W64
	BYTE	W01
	BYTE		EOT     Cn3 
	BYTE	W13
	BYTE		N23     Cn2   v112
	BYTE	W18
// 012   ----------------------------------------
	BYTE	W06
	BYTE		        Fn2 
	BYTE	W24
	BYTE		        Cn3 
	BYTE	W24
	BYTE		N32     As2 
	BYTE	W36
	BYTE		N17     Gn2 
	BYTE	W06
// 013   ----------------------------------------
	BYTE	W18
	BYTE		N11   
	BYTE	W12
	BYTE		        Gs2 
	BYTE	W12
	BYTE		N23     As2 
	BYTE	W24
	BYTE		N11     Cn3 
	BYTE	W12
	BYTE		        As2 
	BYTE	W12
	BYTE		N23     Gs2 
	BYTE	W06
// 014   ----------------------------------------
	BYTE	W18
	BYTE		N11     Gn2 
	BYTE	W12
	BYTE		N23     Gs2 
	BYTE	W24
	BYTE		        Fn2 
	BYTE	W24
	BYTE		        Cn3 
	BYTE	W18
// 015   ----------------------------------------
	BYTE	W06
	BYTE		        As2 
	BYTE	W24
	BYTE		N11     Ds2 
	BYTE	W12
	BYTE		N12     Fn2 
	BYTE	W24
	BYTE		N11     Fn1   v100
	BYTE	W12
	BYTE		        Gn1 
	BYTE	W12
	BYTE		        Gs1 
	BYTE	W06
// 016   ----------------------------------------
	BYTE	W18
	BYTE		N32     Fn1   v112
	BYTE	W36
	BYTE		TIE     Cs2   v100
	BYTE	W42
// 017   ----------------------------------------
	BYTE	W96
// 018   ----------------------------------------
	BYTE	W52
	BYTE	W01
	BYTE		EOT   
	BYTE	W01
	BYTE		TIE     Cn2 
	BYTE	W42
// 019   ----------------------------------------
	BYTE	W96
// 020   ----------------------------------------
	BYTE	W52
	BYTE	W01
	BYTE		EOT   
	BYTE	W01
	BYTE		TIE     As1 
	BYTE	W42
// 021   ----------------------------------------
	BYTE	W96
// 022   ----------------------------------------
	BYTE	W52
	BYTE	W01
	BYTE		EOT   
	BYTE	W01
	BYTE		TIE     Gs1 
	BYTE	W42
// 023   ----------------------------------------
	BYTE	W96
// 024   ----------------------------------------
	BYTE	W52
	BYTE	W01
	BYTE		EOT   
	BYTE	W01
	BYTE		N30     Cs2   v127
	BYTE	W36
	BYTE		N09     Cs2   v116
	BYTE	W06
// 025   ----------------------------------------
	BYTE	W30
	BYTE		N30     Cs2   v127
	BYTE	W36
	BYTE		N08   
	BYTE	W30
// 026   ----------------------------------------
	BYTE	W06
	BYTE		N11   
	BYTE	W24
	BYTE		N18   
	BYTE	W24
	BYTE		N92     Fn1   v120
	BYTE	W42
// 027   ----------------------------------------
	BYTE	W54
	BYTE		N44     Fn2   v127
	BYTE	W42
// 028   ----------------------------------------
	BYTE	W06
	BYTE		        Ds2   v120
	BYTE	W48
	BYTE		N05     Gs2   v116
	BYTE	W24
	BYTE		N06     Gs2   v120
	BYTE	W18
// 029   ----------------------------------------
	BYTE	W06
	BYTE		N06   
	BYTE	W24
	BYTE		N08     Gs2   v096
	BYTE	W24
	BYTE		N08   
	BYTE	W24
	BYTE		N07     Gs2   v116
	BYTE	W18
// 030   ----------------------------------------
	BYTE	W06
	BYTE		N08     Gs2   v100
	BYTE	W24
	BYTE		        Gs2   v120
	BYTE	W24
	BYTE		N07     Gn2 
	BYTE	W24
	BYTE		N09     Gn2   v116
	BYTE	W18
// 031   ----------------------------------------
	BYTE	W06
	BYTE		        Gn2   v092
	BYTE	W24
	BYTE		N10     Gn2   v096
	BYTE	W24
	BYTE		        Gn2   v108
	BYTE	W24
	BYTE		N11     Gn2   v112
	BYTE	W18
// 032   ----------------------------------------
	BYTE	W06
	BYTE		        Gn2   v108
	BYTE	W24
	BYTE		        Gn2   v116
	BYTE	W36
	BYTE		N04     Ds2   v092
	BYTE	W06
	BYTE		N04   
	BYTE	W06
	BYTE		        Cs2 
	BYTE	W06
	BYTE		N04   
	BYTE	W06
	BYTE		        Cn2 
	BYTE	W06
// 033   ----------------------------------------
	BYTE		N04   
	BYTE	W06
	BYTE		        As1 
	BYTE	W06
	BYTE		N04   
	BYTE	W06
	BYTE		        Gs1 
	BYTE	W06
	BYTE		N04   
	BYTE	W06
	BYTE		        Gn1 
	BYTE	W06
	BYTE		N04   
	BYTE	W06
	BYTE		        Cn2 
	BYTE	W06
	BYTE		N04   
	BYTE	W18
	BYTE		N11     Cn2   v120
	BYTE	W12
	BYTE		N10     As1 
	BYTE	W12
	BYTE		N11     Cn2   v116
	BYTE	W06
// 034   ----------------------------------------
	BYTE	W06
	BYTE		        Gs1   v120
	BYTE	W12
	BYTE		        Cn2   v112
	BYTE	W12
	BYTE		        Gn1   v116
	BYTE	W12
	BYTE		N09     Cn2   v112
	BYTE	W12
	BYTE		N04     Fn1   v120
	BYTE	W06
	BYTE		N04   
	BYTE	W06
	BYTE		        Gn1 
	BYTE	W06
	BYTE		N04   
	BYTE	W06
	BYTE		        Gs1 
	BYTE	W06
	BYTE		N04   
	BYTE	W06
	BYTE		        As1 
	BYTE	W06
// 035   ----------------------------------------
findthetruth_9_035:
	BYTE		N04     As1   v120
	BYTE	W06
	BYTE		        Gn1 
	BYTE	W06
	BYTE		N04   
	BYTE	W06
	BYTE		        Gs1 
	BYTE	W06
	BYTE		N04   
	BYTE	W06
	BYTE		        As1 
	BYTE	W06
	BYTE		N04   
	BYTE	W06
	BYTE		        Cn2 
	BYTE	W06
	BYTE		N04   
	BYTE	W06
	BYTE		        Gs1 
	BYTE	W06
	BYTE		N04   
	BYTE	W06
	BYTE		        As1 
	BYTE	W06
	BYTE		N04   
	BYTE	W06
	BYTE		N11     Cn2 
	BYTE	W12
	BYTE		N32     As1 
	BYTE	W06
	BYTE	PEND
// 036   ----------------------------------------
findthetruth_9_036:
	BYTE	W30
	BYTE		N15     Cn2   v120
	BYTE	W24
	BYTE		N04     Fn1 
	BYTE	W06
	BYTE		N04   
	BYTE	W06
	BYTE		        Gn1 
	BYTE	W06
	BYTE		N04   
	BYTE	W06
	BYTE		        Gs1 
	BYTE	W06
	BYTE		N04   
	BYTE	W06
	BYTE		        As1 
	BYTE	W06
	BYTE	PEND
// 037   ----------------------------------------
	BYTE	PATT
	 POIN2	findthetruth_9_035
// 038   ----------------------------------------
	BYTE	PATT
	 POIN2	findthetruth_9_036
// 039   ----------------------------------------
	BYTE	PATT
	 POIN2	findthetruth_9_035
// 040   ----------------------------------------
	BYTE	W30
	BYTE		N15     Cn2   v120
	BYTE	W24
	BYTE		N04     Fn2 
	BYTE	W06
	BYTE		N04   
	BYTE	W06
	BYTE		        Gn2 
	BYTE	W06
	BYTE		N04   
	BYTE	W06
	BYTE		        Gs2 
	BYTE	W06
	BYTE		N04   
	BYTE	W06
	BYTE		        As2 
	BYTE	W06
// 041   ----------------------------------------
	BYTE		N04   
	BYTE	W06
	BYTE		        Gn2 
	BYTE	W06
	BYTE		N04   
	BYTE	W06
	BYTE		        Gs2 
	BYTE	W06
	BYTE		N04   
	BYTE	W06
	BYTE		        As2 
	BYTE	W06
	BYTE		N04   
	BYTE	W06
	BYTE		        Cn3 
	BYTE	W06
	BYTE		N04   
	BYTE	W06
	BYTE		        Gs2 
	BYTE	W06
	BYTE		N04   
	BYTE	W06
	BYTE		        As2 
	BYTE	W06
	BYTE		N04   
	BYTE	W06
	BYTE		N11     Cn3 
	BYTE	W12
	BYTE		N32     Dn3 
	BYTE	W06
// 042   ----------------------------------------
	BYTE	W30
	BYTE		N15     Ds3 
	BYTE	W24
	BYTE		N12     Fn2   v100
	BYTE	W42
// 043   ----------------------------------------
	BYTE	W96
// 044   ----------------------------------------
	BYTE	W54
	BYTE		N12   
	BYTE	W42
// 045   ----------------------------------------
	BYTE	W96
// 046   ----------------------------------------
	BYTE	W54
	BYTE		N12   
	BYTE	W42
// 047   ----------------------------------------
	BYTE	W96
// 048   ----------------------------------------
	BYTE	W96
// 049   ----------------------------------------
	BYTE	W42
	BYTE		        As2 
	BYTE	W48
	BYTE		N12   
	BYTE	W06
// 050   ----------------------------------------
	BYTE	W18
	BYTE		N12   
	BYTE	W52
	BYTE	W01
	BYTE	GoTo
	 POIN2	findthetruth_9_B1
findthetruth_9_B2:
	BYTE	FINE

//**************** Track 10 (Midi-Chn.11) ****************//

findthetruth_10:
	BYTE	KEYSH   findthetruth_key+0
			BYTE 		BENDR   6
// 000   ----------------------------------------
	BYTE		VOICE   47
	BYTE		VOL     120*findthetruth_mvl/mxv
	BYTE		PAN     c_v-10
	BYTE		        c_v-20
	BYTE		BEND    c_v+0
	BYTE	W06
	BYTE		N17     Cn3   v120
	BYTE	W18
	BYTE		N17   
	BYTE	W18
	BYTE		N11   
	BYTE	W12
findthetruth_10_B1:
	BYTE	W42
// 001   ----------------------------------------
	BYTE	W96
// 002   ----------------------------------------
	BYTE	W96
// 003   ----------------------------------------
	BYTE	W96
// 004   ----------------------------------------
	BYTE	W96
// 005   ----------------------------------------
	BYTE	W96
// 006   ----------------------------------------
	BYTE	W96
// 007   ----------------------------------------
	BYTE	W54
	BYTE		N32     Cn3   v120
	BYTE	W36
	BYTE		N23   
	BYTE	W06
// 008   ----------------------------------------
	BYTE	W18
	BYTE		N32   
	BYTE	W36
	BYTE		N52     Fn2 
	BYTE	W42
// 009   ----------------------------------------
	BYTE	W96
// 010   ----------------------------------------
	BYTE	W96
// 011   ----------------------------------------
	BYTE	W96
// 012   ----------------------------------------
	BYTE	W96
// 013   ----------------------------------------
	BYTE	W96
// 014   ----------------------------------------
	BYTE	W96
// 015   ----------------------------------------
	BYTE	W42
	BYTE		N44   
	BYTE	W54
// 016   ----------------------------------------
	BYTE	W18
	BYTE		N28   
	BYTE	W78
// 017   ----------------------------------------
	BYTE	W96
// 018   ----------------------------------------
	BYTE	W96
// 019   ----------------------------------------
	BYTE	W96
// 020   ----------------------------------------
	BYTE	W96
// 021   ----------------------------------------
	BYTE	W96
// 022   ----------------------------------------
	BYTE	W96
// 023   ----------------------------------------
	BYTE	W96
// 024   ----------------------------------------
	BYTE	W96
// 025   ----------------------------------------
	BYTE	W96
// 026   ----------------------------------------
	BYTE	W96
// 027   ----------------------------------------
	BYTE	W96
// 028   ----------------------------------------
	BYTE	W96
// 029   ----------------------------------------
	BYTE	W96
// 030   ----------------------------------------
	BYTE	W54
	BYTE		N23     Cn3 
	BYTE	W24
	BYTE		        Cn3   v112
	BYTE	W18
// 031   ----------------------------------------
	BYTE	W06
	BYTE		        Cn3   v120
	BYTE	W24
	BYTE		        Cn3   v112
	BYTE	W24
	BYTE		        Cn3   v120
	BYTE	W24
	BYTE		        Cn3   v112
	BYTE	W18
// 032   ----------------------------------------
	BYTE	W06
	BYTE		        Cn3   v120
	BYTE	W24
	BYTE		        Cn3   v112
	BYTE	W66
// 033   ----------------------------------------
	BYTE	W96
// 034   ----------------------------------------
findthetruth_10_034:
	BYTE	W42
	BYTE		N11     Cn3   v120
	BYTE	W12
	BYTE		N52     Fn2 
	BYTE	W42
	BYTE	PEND
// 035   ----------------------------------------
	BYTE	W96
// 036   ----------------------------------------
	BYTE	PATT
	 POIN2	findthetruth_10_034
// 037   ----------------------------------------
	BYTE	W96
// 038   ----------------------------------------
	BYTE	PATT
	 POIN2	findthetruth_10_034
// 039   ----------------------------------------
	BYTE	W96
// 040   ----------------------------------------
	BYTE	PATT
	 POIN2	findthetruth_10_034
// 041   ----------------------------------------
	BYTE	W96
// 042   ----------------------------------------
	BYTE	W54
	BYTE		N52     Fn2   v120
	BYTE	W42
// 043   ----------------------------------------
	BYTE	W96
// 044   ----------------------------------------
	BYTE	W96
// 045   ----------------------------------------
	BYTE	W96
// 046   ----------------------------------------
	BYTE	W96
// 047   ----------------------------------------
	BYTE	W96
// 048   ----------------------------------------
	BYTE	W96
// 049   ----------------------------------------
	BYTE	W42
	BYTE		N44     Cn3 
	BYTE	W48
	BYTE		N23   
	BYTE	W06
// 050   ----------------------------------------
	BYTE	W18
	BYTE		N23   
	BYTE	W52
	BYTE	W01
	BYTE	GoTo
	 POIN2	findthetruth_10_B1
findthetruth_10_B2:
	BYTE	FINE

//**************** Track 11 (Midi-Chn.12) ****************//

findthetruth_11:
	BYTE	KEYSH   findthetruth_key+0
			BYTE 		BENDR   6
// 000   ----------------------------------------
	BYTE		VOICE   102
	BYTE		VOL     120*findthetruth_mvl/mxv
	BYTE		PAN     c_v+0
	BYTE		BEND    c_v+0
	BYTE	W06
	BYTE		N12     Cn3   v112
	BYTE	W18
	BYTE		        Ds3 
	BYTE	W18
	BYTE		        Cn3 
	BYTE	W12
findthetruth_11_B1:
	BYTE		N36     Fn2   v112
	BYTE	W42
// 001   ----------------------------------------
	BYTE	W96
// 002   ----------------------------------------
	BYTE	W96
// 003   ----------------------------------------
	BYTE	W96
// 004   ----------------------------------------
	BYTE	W96
// 005   ----------------------------------------
	BYTE	W96
// 006   ----------------------------------------
	BYTE	W96
// 007   ----------------------------------------
	BYTE	W54
	BYTE		N28     Cn3 
	BYTE	W36
	BYTE		N11   
	BYTE	W06
// 008   ----------------------------------------
	BYTE	W18
	BYTE		N32   
	BYTE	W36
	BYTE		N44     Fn2 
	BYTE	W42
// 009   ----------------------------------------
	BYTE	W96
// 010   ----------------------------------------
	BYTE	W96
// 011   ----------------------------------------
	BYTE	W96
// 012   ----------------------------------------
	BYTE	W96
// 013   ----------------------------------------
	BYTE	W96
// 014   ----------------------------------------
	BYTE	W96
// 015   ----------------------------------------
	BYTE	W42
	BYTE		N44   
	BYTE	W54
// 016   ----------------------------------------
	BYTE	W18
	BYTE		N28   
	BYTE	W78
// 017   ----------------------------------------
	BYTE	W96
// 018   ----------------------------------------
	BYTE	W96
// 019   ----------------------------------------
	BYTE	W96
// 020   ----------------------------------------
	BYTE	W96
// 021   ----------------------------------------
	BYTE	W96
// 022   ----------------------------------------
	BYTE	W96
// 023   ----------------------------------------
	BYTE	W96
// 024   ----------------------------------------
	BYTE	W96
// 025   ----------------------------------------
	BYTE	W96
// 026   ----------------------------------------
	BYTE	W96
// 027   ----------------------------------------
	BYTE	W96
// 028   ----------------------------------------
	BYTE	W96
// 029   ----------------------------------------
	BYTE	W96
// 030   ----------------------------------------
	BYTE	W96
// 031   ----------------------------------------
	BYTE	W96
// 032   ----------------------------------------
	BYTE	W54
	BYTE		N44     Cn3 
	BYTE	W42
// 033   ----------------------------------------
	BYTE	W96
// 034   ----------------------------------------
	BYTE	W54
	BYTE		        Fn2 
	BYTE	W42
// 035   ----------------------------------------
	BYTE	W96
// 036   ----------------------------------------
	BYTE	W54
	BYTE		N44   
	BYTE	W42
// 037   ----------------------------------------
	BYTE	W96
// 038   ----------------------------------------
	BYTE	W54
	BYTE		N44   
	BYTE	W42
// 039   ----------------------------------------
	BYTE	W96
// 040   ----------------------------------------
	BYTE	W54
	BYTE		N44   
	BYTE	W42
// 041   ----------------------------------------
	BYTE	W96
// 042   ----------------------------------------
	BYTE	W54
	BYTE		N48   
	BYTE	W42
// 043   ----------------------------------------
	BYTE	W96
// 044   ----------------------------------------
	BYTE	W54
	BYTE		N48   
	BYTE	W42
// 045   ----------------------------------------
	BYTE	W96
// 046   ----------------------------------------
	BYTE	W54
	BYTE		N48   
	BYTE	W42
// 047   ----------------------------------------
	BYTE	W96
// 048   ----------------------------------------
	BYTE	W96
// 049   ----------------------------------------
	BYTE	W42
	BYTE		N24     Cn3 
	BYTE	W48
	BYTE		N12   
	BYTE	W06
// 050   ----------------------------------------
	BYTE	W18
	BYTE		N36   
	BYTE	W52
	BYTE	W01
	BYTE	GoTo
	 POIN2	findthetruth_11_B1
findthetruth_11_B2:
	BYTE	FINE

//**************** Track 12 (Midi-Chn.13) ****************//

findthetruth_12:
	BYTE	KEYSH   findthetruth_key+0
			BYTE 		BENDR   6
// 000   ----------------------------------------
	BYTE		VOICE   80
	BYTE		VOL     35*findthetruth_mvl/mxv
	BYTE		PAN     c_v+0
	BYTE		BEND    c_v+0
	BYTE	W06
	BYTE		N06     Cn2   v112
	BYTE	W06
	BYTE		        Gn2 
	BYTE	W06
	BYTE		        Cn3 
	BYTE	W06
	BYTE		        Gn3 
	BYTE	W06
	BYTE		        Cn4 
	BYTE	W06
	BYTE		        Gn4 
	BYTE	W06
	BYTE		        Cn5 
	BYTE	W06
	BYTE		        Cn4 
	BYTE	W06
findthetruth_12_B1:
	BYTE		N05     Fn2   v112
	BYTE	W06
	BYTE		        Fn3 
	BYTE	W06
	BYTE		        Cn4 
	BYTE	W12
	BYTE		        Fn4 
	BYTE	W12
	BYTE		        Cn4 
	BYTE	W06
// 001   ----------------------------------------
findthetruth_12_001:
	BYTE	W06
	BYTE		N05     Fn3   v112
	BYTE	W06
	BYTE		        Cn4 
	BYTE	W06
	BYTE		        Fn4 
	BYTE	W12
	BYTE		        Cn5 
	BYTE	W12
	BYTE		        Fn4 
	BYTE	W06
	BYTE		        Cn4 
	BYTE	W06
	BYTE		        Fn2 
	BYTE	W06
	BYTE		        Fn3 
	BYTE	W06
	BYTE		        Cn4 
	BYTE	W06
	BYTE		        Fn4 
	BYTE	W06
	BYTE		        Cn5 
	BYTE	W12
	BYTE		        Fn4 
	BYTE	W06
	BYTE	PEND
// 002   ----------------------------------------
findthetruth_12_002:
	BYTE	W06
	BYTE		N05     Fn3   v112
	BYTE	W06
	BYTE		        Cn4 
	BYTE	W06
	BYTE		        Fn4 
	BYTE	W12
	BYTE		        Cn5 
	BYTE	W12
	BYTE		        Cn4 
	BYTE	W12
	BYTE		        Fn2 
	BYTE	W06
	BYTE		        Fn3 
	BYTE	W06
	BYTE		        Cn4 
	BYTE	W12
	BYTE		        Fn4 
	BYTE	W12
	BYTE		        Cn4 
	BYTE	W06
	BYTE	PEND
// 003   ----------------------------------------
	BYTE	PATT
	 POIN2	findthetruth_12_001
// 004   ----------------------------------------
findthetruth_12_004:
	BYTE	W06
	BYTE		N05     Fn3   v112
	BYTE	W06
	BYTE		        Cn4 
	BYTE	W06
	BYTE		        Fn4 
	BYTE	W12
	BYTE		        Cn5 
	BYTE	W12
	BYTE		        Cn4 
	BYTE	W12
	BYTE		        Gn2 
	BYTE	W06
	BYTE		        Cn3 
	BYTE	W06
	BYTE		        Gn3 
	BYTE	W06
	BYTE		        Cn4 
	BYTE	W06
	BYTE		        Gn4 
	BYTE	W12
	BYTE		        Cn4 
	BYTE	W06
	BYTE	PEND
// 005   ----------------------------------------
findthetruth_12_005:
	BYTE	W06
	BYTE		N05     Gn3   v112
	BYTE	W12
	BYTE		        Cn4 
	BYTE	W12
	BYTE		        Gn4 
	BYTE	W12
	BYTE		        Cn4 
	BYTE	W12
	BYTE		        Fn2 
	BYTE	W06
	BYTE		        Fn3 
	BYTE	W06
	BYTE		        Cn4 
	BYTE	W12
	BYTE		        Fn4 
	BYTE	W12
	BYTE		        Cn4 
	BYTE	W06
	BYTE	PEND
// 006   ----------------------------------------
	BYTE	PATT
	 POIN2	findthetruth_12_001
// 007   ----------------------------------------
	BYTE	W06
	BYTE		N05     Fn3   v112
	BYTE	W06
	BYTE		        Cn4 
	BYTE	W06
	BYTE		        Fn4 
	BYTE	W12
	BYTE		        Cn5 
	BYTE	W12
	BYTE		        Cn4 
	BYTE	W12
	BYTE		N05   
	BYTE	W06
	BYTE		        Gn4 
	BYTE	W06
	BYTE		        Cn5 
	BYTE	W06
	BYTE		        Gn4 
	BYTE	W06
	BYTE		        Cn4 
	BYTE	W06
	BYTE		        Gn3 
	BYTE	W06
	BYTE		        Cn4 
	BYTE	W06
// 008   ----------------------------------------
	BYTE		        Gn4 
	BYTE	W06
	BYTE		        Cn5 
	BYTE	W06
	BYTE		        Gn4 
	BYTE	W06
	BYTE		        Gn5 
	BYTE	W06
	BYTE		        Ds5 
	BYTE	W06
	BYTE		        Cn5 
	BYTE	W06
	BYTE		        Gn4 
	BYTE	W06
	BYTE		        Cn4 
	BYTE	W06
	BYTE		        Gn3 
	BYTE	W06
	BYTE		        Fn2 
	BYTE	W06
	BYTE		        Fn3 
	BYTE	W06
	BYTE		        Cn4 
	BYTE	W12
	BYTE		        Fn4 
	BYTE	W12
	BYTE		        Cn4 
	BYTE	W06
// 009   ----------------------------------------
	BYTE	PATT
	 POIN2	findthetruth_12_001
// 010   ----------------------------------------
	BYTE	PATT
	 POIN2	findthetruth_12_002
// 011   ----------------------------------------
	BYTE	PATT
	 POIN2	findthetruth_12_001
// 012   ----------------------------------------
	BYTE	PATT
	 POIN2	findthetruth_12_004
// 013   ----------------------------------------
	BYTE	PATT
	 POIN2	findthetruth_12_005
// 014   ----------------------------------------
	BYTE	PATT
	 POIN2	findthetruth_12_001
// 015   ----------------------------------------
	BYTE	W06
	BYTE		N05     Gn3   v112
	BYTE	W06
	BYTE		        Cn4 
	BYTE	W06
	BYTE		        Gn4 
	BYTE	W12
	BYTE		        Cn5 
	BYTE	W12
	BYTE		        Gn4 
	BYTE	W12
	BYTE		        Fn5 
	BYTE	W06
	BYTE		        Cn5 
	BYTE	W06
	BYTE		        Gs4 
	BYTE	W06
	BYTE		        Fn4 
	BYTE	W06
	BYTE		        Cn4 
	BYTE	W06
	BYTE		        Gs3 
	BYTE	W06
	BYTE		        Fn3 
	BYTE	W06
// 016   ----------------------------------------
	BYTE	W12
	BYTE		        Cn3 
	BYTE	W06
	BYTE		        Fn3 
	BYTE	W06
	BYTE		        Cn4 
	BYTE	W06
	BYTE		        Fn4 
	BYTE	W06
	BYTE		        Cn5 
	BYTE	W06
	BYTE		        Fn5 
	BYTE	W06
	BYTE		        Fn4 
	BYTE	W06
	BYTE		        Fn3 
	BYTE	W12
	BYTE		        Cn4 
	BYTE	W12
	BYTE		        Fn4 
	BYTE	W12
	BYTE		        Cn5 
	BYTE	W06
// 017   ----------------------------------------
findthetruth_12_017:
	BYTE	W06
	BYTE		N05     Fn3   v112
	BYTE	W12
	BYTE		        Cn4 
	BYTE	W12
	BYTE		        Fn4 
	BYTE	W12
	BYTE		        Cn5 
	BYTE	W12
	BYTE		        Fn3 
	BYTE	W12
	BYTE		        Cn4 
	BYTE	W12
	BYTE		        Fn4 
	BYTE	W12
	BYTE		        Cn5 
	BYTE	W06
	BYTE	PEND
// 018   ----------------------------------------
findthetruth_12_018:
	BYTE	W06
	BYTE		N05     Fn3   v112
	BYTE	W12
	BYTE		        Cn4 
	BYTE	W12
	BYTE		        Fn4 
	BYTE	W12
	BYTE		        Cn5 
	BYTE	W12
	BYTE		        Gn3 
	BYTE	W12
	BYTE		        Cn4 
	BYTE	W12
	BYTE		        Gn4 
	BYTE	W12
	BYTE		        Cn5 
	BYTE	W06
	BYTE	PEND
// 019   ----------------------------------------
findthetruth_12_019:
	BYTE	W06
	BYTE		N05     Gn3   v112
	BYTE	W12
	BYTE		        Cn4 
	BYTE	W12
	BYTE		        Gn4 
	BYTE	W12
	BYTE		        Cn5 
	BYTE	W12
	BYTE		        Gn3 
	BYTE	W12
	BYTE		        Cn4 
	BYTE	W12
	BYTE		        Gn4 
	BYTE	W12
	BYTE		        Cn5 
	BYTE	W06
	BYTE	PEND
// 020   ----------------------------------------
	BYTE	W06
	BYTE		        Gn3 
	BYTE	W12
	BYTE		        Cn4 
	BYTE	W12
	BYTE		        Gn4 
	BYTE	W12
	BYTE		        Cn5 
	BYTE	W12
	BYTE		        Fn3 
	BYTE	W12
	BYTE		        Cn4 
	BYTE	W12
	BYTE		        Fn4 
	BYTE	W12
	BYTE		        Cn5 
	BYTE	W06
// 021   ----------------------------------------
	BYTE	PATT
	 POIN2	findthetruth_12_017
// 022   ----------------------------------------
	BYTE	PATT
	 POIN2	findthetruth_12_018
// 023   ----------------------------------------
	BYTE	PATT
	 POIN2	findthetruth_12_019
// 024   ----------------------------------------
	BYTE	W06
	BYTE		N05     Gn3   v112
	BYTE	W12
	BYTE		        Cn4 
	BYTE	W12
	BYTE		        Gn4 
	BYTE	W12
	BYTE		        Cn5 
	BYTE	W12
	BYTE		        Fn3 
	BYTE	W06
	BYTE		        Cn4 
	BYTE	W06
	BYTE		        Fn4 
	BYTE	W06
	BYTE		        Cn5 
	BYTE	W06
	BYTE		        Fn5 
	BYTE	W06
	BYTE		        Cn5 
	BYTE	W06
	BYTE		        Fn4 
	BYTE	W06
// 025   ----------------------------------------
findthetruth_12_025:
	BYTE		N05     Cn4   v112
	BYTE	W06
	BYTE		        Fn3 
	BYTE	W06
	BYTE		        Cn4 
	BYTE	W06
	BYTE		        Fn4 
	BYTE	W06
	BYTE		        Cn5 
	BYTE	W06
	BYTE		        Fn5 
	BYTE	W06
	BYTE		        Cn5 
	BYTE	W06
	BYTE		        Fn4 
	BYTE	W06
	BYTE		        Cn4 
	BYTE	W06
	BYTE		        Fn3 
	BYTE	W06
	BYTE		        Cn4 
	BYTE	W06
	BYTE		        Fn4 
	BYTE	W06
	BYTE		        Cn5 
	BYTE	W06
	BYTE		        Fn5 
	BYTE	W06
	BYTE		        Cn5 
	BYTE	W06
	BYTE		        Fn4 
	BYTE	W06
	BYTE	PEND
// 026   ----------------------------------------
	BYTE		        Cn4 
	BYTE	W06
	BYTE		        Fn3 
	BYTE	W06
	BYTE		        Cn4 
	BYTE	W06
	BYTE		        Fn4 
	BYTE	W06
	BYTE		        Cn5 
	BYTE	W06
	BYTE		        Fn5 
	BYTE	W06
	BYTE		        Cn5 
	BYTE	W06
	BYTE		        Fn4 
	BYTE	W06
	BYTE		        Cn4 
	BYTE	W06
	BYTE		        Fn3 
	BYTE	W12
	BYTE		        Cn4 
	BYTE	W12
	BYTE		        Fn4 
	BYTE	W12
	BYTE		        Cn5 
	BYTE	W06
// 027   ----------------------------------------
	BYTE	PATT
	 POIN2	findthetruth_12_017
// 028   ----------------------------------------
	BYTE	W06
	BYTE		N05     Fn3   v112
	BYTE	W12
	BYTE		        Cn4 
	BYTE	W12
	BYTE		        Fn4 
	BYTE	W12
	BYTE		        Cn5 
	BYTE	W54
// 029   ----------------------------------------
	BYTE	W96
// 030   ----------------------------------------
	BYTE	W96
// 031   ----------------------------------------
	BYTE	W96
// 032   ----------------------------------------
	BYTE	W96
// 033   ----------------------------------------
	BYTE	W96
// 034   ----------------------------------------
	BYTE	W54
	BYTE		        Fn3 
	BYTE	W06
	BYTE		        Cn4 
	BYTE	W06
	BYTE		        Fn4 
	BYTE	W06
	BYTE		        Cn5 
	BYTE	W06
	BYTE		        Fn5 
	BYTE	W06
	BYTE		        Cn5 
	BYTE	W06
	BYTE		        Fn4 
	BYTE	W06
// 035   ----------------------------------------
	BYTE	PATT
	 POIN2	findthetruth_12_025
// 036   ----------------------------------------
findthetruth_12_036:
	BYTE		N05     Cn4   v112
	BYTE	W06
	BYTE		        Fn3 
	BYTE	W06
	BYTE		        Cn4 
	BYTE	W06
	BYTE		        Fn4 
	BYTE	W06
	BYTE		        As4 
	BYTE	W06
	BYTE		        Gn5 
	BYTE	W06
	BYTE		        Cn5 
	BYTE	W06
	BYTE		        Gn4 
	BYTE	W06
	BYTE		        Cn4 
	BYTE	W06
	BYTE		        Fn3 
	BYTE	W06
	BYTE		        Cn4 
	BYTE	W06
	BYTE		        Fn4 
	BYTE	W06
	BYTE		        Cn5 
	BYTE	W06
	BYTE		        Fn5 
	BYTE	W06
	BYTE		        Cn5 
	BYTE	W06
	BYTE		        Fn4 
	BYTE	W06
	BYTE	PEND
// 037   ----------------------------------------
	BYTE	PATT
	 POIN2	findthetruth_12_025
// 038   ----------------------------------------
	BYTE	PATT
	 POIN2	findthetruth_12_036
// 039   ----------------------------------------
	BYTE	PATT
	 POIN2	findthetruth_12_025
// 040   ----------------------------------------
	BYTE	PATT
	 POIN2	findthetruth_12_036
// 041   ----------------------------------------
	BYTE	PATT
	 POIN2	findthetruth_12_025
// 042   ----------------------------------------
	BYTE		N05     Cn4   v112
	BYTE	W06
	BYTE		        Fn3 
	BYTE	W06
	BYTE		        Cn4 
	BYTE	W06
	BYTE		        Fn4 
	BYTE	W06
	BYTE		        As4 
	BYTE	W06
	BYTE		        Gn5 
	BYTE	W06
	BYTE		        Cn5 
	BYTE	W06
	BYTE		        Gn4 
	BYTE	W06
	BYTE		        Cn4 
	BYTE	W06
	BYTE		        Fn2 
	BYTE	W06
	BYTE		        Cn3 
	BYTE	W06
	BYTE		        Fn3 
	BYTE	W06
	BYTE		        Cn4 
	BYTE	W06
	BYTE		        Fn4 
	BYTE	W06
	BYTE		        Cn4 
	BYTE	W06
	BYTE		        Fn3 
	BYTE	W06
// 043   ----------------------------------------
findthetruth_12_043:
	BYTE		N05     Cn3   v112
	BYTE	W06
	BYTE		        Fn2 
	BYTE	W06
	BYTE		        Cn3 
	BYTE	W06
	BYTE		        Fn3 
	BYTE	W06
	BYTE		        Cn4 
	BYTE	W06
	BYTE		        Fn4 
	BYTE	W06
	BYTE		        Cn4 
	BYTE	W06
	BYTE		        Gs3 
	BYTE	W06
	BYTE		        Cs3 
	BYTE	W06
	BYTE		        Fn2 
	BYTE	W06
	BYTE		        Cs3 
	BYTE	W06
	BYTE		        Gs3 
	BYTE	W06
	BYTE		        Cs4 
	BYTE	W06
	BYTE		        Fn4 
	BYTE	W06
	BYTE		        Cs4 
	BYTE	W06
	BYTE		        As3 
	BYTE	W06
	BYTE	PEND
// 044   ----------------------------------------
findthetruth_12_044:
	BYTE		N05     Ds3   v112
	BYTE	W06
	BYTE		        Gn2 
	BYTE	W06
	BYTE		        Ds3 
	BYTE	W06
	BYTE		        As3 
	BYTE	W06
	BYTE		        Ds4 
	BYTE	W06
	BYTE		        Gn4 
	BYTE	W06
	BYTE		        Ds4 
	BYTE	W06
	BYTE		        As3 
	BYTE	W06
	BYTE		        Ds3 
	BYTE	W06
	BYTE		        Fn2 
	BYTE	W06
	BYTE		        Cn3 
	BYTE	W06
	BYTE		        Fn3 
	BYTE	W06
	BYTE		        Cn4 
	BYTE	W06
	BYTE		        Fn4 
	BYTE	W06
	BYTE		        Cn4 
	BYTE	W06
	BYTE		        Fn3 
	BYTE	W06
	BYTE	PEND
// 045   ----------------------------------------
	BYTE		        Cn3 
	BYTE	W06
	BYTE		        Fn2 
	BYTE	W06
	BYTE		        Cn3 
	BYTE	W06
	BYTE		        Fn3 
	BYTE	W06
	BYTE		        Cn4 
	BYTE	W06
	BYTE		        Fn4 
	BYTE	W06
	BYTE		        Cn4 
	BYTE	W06
	BYTE		        As3 
	BYTE	W06
	BYTE		        Ds3 
	BYTE	W06
	BYTE		        Gn2 
	BYTE	W06
	BYTE		        Ds3 
	BYTE	W06
	BYTE		        As3 
	BYTE	W06
	BYTE		        Ds4 
	BYTE	W06
	BYTE		        Gn4 
	BYTE	W06
	BYTE		        Ds4 
	BYTE	W06
	BYTE		        As3 
	BYTE	W06
// 046   ----------------------------------------
	BYTE	PATT
	 POIN2	findthetruth_12_044
// 047   ----------------------------------------
	BYTE	PATT
	 POIN2	findthetruth_12_043
// 048   ----------------------------------------
	BYTE	PATT
	 POIN2	findthetruth_12_044
// 049   ----------------------------------------
	BYTE		N05     Cn3   v112
	BYTE	W06
	BYTE		        Fn2 
	BYTE	W06
	BYTE		        Cn3 
	BYTE	W06
	BYTE		        Fn3 
	BYTE	W06
	BYTE		        Cn4 
	BYTE	W06
	BYTE		        Fn4 
	BYTE	W06
	BYTE		        Cn4 
	BYTE	W06
	BYTE		        Gn3 
	BYTE	W06
	BYTE		        Gn2 
	BYTE	W06
	BYTE		        Cn3 
	BYTE	W06
	BYTE		        Cn4 
	BYTE	W06
	BYTE		        Cn5 
	BYTE	W06
	BYTE		        Gn4 
	BYTE	W06
	BYTE		        Cn4 
	BYTE	W06
	BYTE		        Gn3 
	BYTE	W06
	BYTE		        Cn3 
	BYTE	W06
// 050   ----------------------------------------
	BYTE		        Gn2 
	BYTE	W06
	BYTE		        Cn2 
	BYTE	W06
	BYTE		        Gn2 
	BYTE	W06
	BYTE		        Cn3 
	BYTE	W06
	BYTE		        Gn3 
	BYTE	W06
	BYTE		        Cn4 
	BYTE	W06
	BYTE		        Gn4 
	BYTE	W06
	BYTE		        Cn5 
	BYTE	W06
	BYTE		        Cn4 
	BYTE	W23
	BYTE	GoTo
	 POIN2	findthetruth_12_B1
findthetruth_12_B2:
	BYTE	FINE

//**************** Track 13 (Midi-Chn.14) ****************//

findthetruth_13:
	BYTE	KEYSH   findthetruth_key+0
			BYTE 		BENDR   6
// 000   ----------------------------------------
	BYTE		VOICE   8
	BYTE		VOL     90*findthetruth_mvl/mxv
	BYTE		PAN     c_v+0
	BYTE		BEND    c_v+0
	BYTE	W06
	BYTE		N17     Cn4   v084
	BYTE	W18
	BYTE		        Ds4   v096
	BYTE	W18
	BYTE		N11     Cn4   v084
	BYTE	W12
findthetruth_13_B1:
	BYTE	W42
// 001   ----------------------------------------
	BYTE	W96
// 002   ----------------------------------------
	BYTE	W96
// 003   ----------------------------------------
	BYTE	W96
// 004   ----------------------------------------
	BYTE	W96
// 005   ----------------------------------------
	BYTE	W96
// 006   ----------------------------------------
	BYTE	W96
// 007   ----------------------------------------
	BYTE	W96
// 008   ----------------------------------------
	BYTE	W96
// 009   ----------------------------------------
	BYTE	W96
// 010   ----------------------------------------
	BYTE	W96
// 011   ----------------------------------------
	BYTE	W96
// 012   ----------------------------------------
	BYTE	W96
// 013   ----------------------------------------
	BYTE	W96
// 014   ----------------------------------------
	BYTE	W96
// 015   ----------------------------------------
	BYTE	W96
// 016   ----------------------------------------
	BYTE	W96
// 017   ----------------------------------------
	BYTE	W96
// 018   ----------------------------------------
	BYTE	W96
// 019   ----------------------------------------
	BYTE	W96
// 020   ----------------------------------------
	BYTE	W96
// 021   ----------------------------------------
	BYTE	W96
// 022   ----------------------------------------
	BYTE	W96
// 023   ----------------------------------------
	BYTE	W96
// 024   ----------------------------------------
	BYTE	W96
// 025   ----------------------------------------
	BYTE	W96
// 026   ----------------------------------------
	BYTE	W96
// 027   ----------------------------------------
	BYTE	W96
// 028   ----------------------------------------
	BYTE	W96
// 029   ----------------------------------------
	BYTE	W96
// 030   ----------------------------------------
	BYTE	W96
// 031   ----------------------------------------
	BYTE	W96
// 032   ----------------------------------------
	BYTE	W96
// 033   ----------------------------------------
	BYTE	W96
// 034   ----------------------------------------
	BYTE	W96
// 035   ----------------------------------------
	BYTE	W96
// 036   ----------------------------------------
	BYTE	W96
// 037   ----------------------------------------
	BYTE	W96
// 038   ----------------------------------------
	BYTE	W54
	BYTE		N05     Fn2   v092
	BYTE	W12
	BYTE		        Fn3   v084
	BYTE	W12
	BYTE		        Fn4   v096
	BYTE	W12
	BYTE		        Fn3   v088
	BYTE	W06
// 039   ----------------------------------------
	BYTE	W06
	BYTE		        Fn2   v100
	BYTE	W12
	BYTE		        Fn3   v092
	BYTE	W12
	BYTE		        Fn4   v104
	BYTE	W12
	BYTE		        Fn3   v096
	BYTE	W12
	BYTE		        Fn2   v100
	BYTE	W12
	BYTE		        Fn3   v096
	BYTE	W12
	BYTE		        Fn4   v112
	BYTE	W12
	BYTE		        Fn3   v104
	BYTE	W06
// 040   ----------------------------------------
	BYTE	W06
	BYTE		        Fn2   v108
	BYTE	W12
	BYTE		        Fn3 
	BYTE	W12
	BYTE		        Fn4 
	BYTE	W12
	BYTE		        Fn3   v104
	BYTE	W12
	BYTE		        Fn2 
	BYTE	W12
	BYTE		        Fn3   v100
	BYTE	W12
	BYTE		        Fn4   v108
	BYTE	W12
	BYTE		        Fn3   v104
	BYTE	W06
// 041   ----------------------------------------
	BYTE	W06
	BYTE		        Fn2   v108
	BYTE	W12
	BYTE		        Fn3   v096
	BYTE	W12
	BYTE		        Fn4   v112
	BYTE	W12
	BYTE		        Fn3   v108
	BYTE	W12
	BYTE		        Fn2 
	BYTE	W12
	BYTE		        Fn3   v104
	BYTE	W12
	BYTE		        Fn4   v116
	BYTE	W12
	BYTE		        Fn3   v112
	BYTE	W06
// 042   ----------------------------------------
	BYTE	W06
	BYTE		        Fn2   v116
	BYTE	W24
	BYTE		        Ds4   v108
	BYTE	W24
	BYTE		N44     Fn3   v112
	BYTE	W03
	BYTE		        Fn4 
	BYTE	W36
	BYTE	W03
// 043   ----------------------------------------
	BYTE	W96
// 044   ----------------------------------------
	BYTE	W96
// 045   ----------------------------------------
	BYTE	W96
// 046   ----------------------------------------
	BYTE	W96
// 047   ----------------------------------------
	BYTE	W96
// 048   ----------------------------------------
	BYTE	W96
// 049   ----------------------------------------
	BYTE	W42
	BYTE		N23     As3   v100
	BYTE		N23     Ds4   v108
	BYTE	W48
	BYTE		N11     As3   v100
	BYTE		N11     Ds4   v112
	BYTE	W06
// 050   ----------------------------------------
	BYTE	W18
	BYTE		N32     As3 
	BYTE		N32     Ds4 
	BYTE	W52
	BYTE	W01
	BYTE	GoTo
	 POIN2	findthetruth_13_B1
findthetruth_13_B2:
	BYTE	FINE

//**************** Track 14 (Midi-Chn.15) ****************//

findthetruth_14:
	BYTE	KEYSH   findthetruth_key+0
			BYTE 		BENDR   6
// 000   ----------------------------------------
	BYTE		VOICE   0
	BYTE		VOL     65*findthetruth_mvl/mxv
	BYTE		PAN     c_v+20
	BYTE		BEND    c_v+0
	BYTE	W06
	BYTE		N11     Gn2   v108
	BYTE		N11     As3 
	BYTE		N11     Ds4   v120
	BYTE		N11     Gn4 
	BYTE	W18
	BYTE		        Gn2 
	BYTE		N11     As3 
	BYTE		N11     Ds4 
	BYTE		N11     Gn4   v100
	BYTE	W18
	BYTE		        Gn2   v120
	BYTE		N11     As3 
	BYTE		N11     Ds4 
	BYTE		N11     Gn4   v100
	BYTE	W12
findthetruth_14_B1:
	BYTE		TIE     Cn3   v100
	BYTE		TIE     Fn3 
	BYTE		TIE     Gs3 
	BYTE	W42
// 001   ----------------------------------------
	BYTE	W76
	BYTE	W01
	BYTE		EOT     Cn3 
	BYTE		        Fn3 
	BYTE		        Gs3 
	BYTE	W13
	BYTE		N56     Cn3   v092
	BYTE		N56     Ds3   v088
	BYTE		N56     Gn3   v096
	BYTE	W06
// 002   ----------------------------------------
	BYTE	W54
	BYTE		N80     Cn3   v088
	BYTE		N80     Fn3 
	BYTE		N80     Gs3   v100
	BYTE	W42
// 003   ----------------------------------------
	BYTE	W42
	BYTE		N32     Cn4 
	BYTE		N32     Fn4   v088
	BYTE		N32     Cn5   v100
	BYTE	W36
	BYTE		N68     Cn4   v064
	BYTE		N11     Fn4 
	BYTE		N11     As4   v100
	BYTE	W12
	BYTE		N56     Gs4   v056
	BYTE	W06
// 004   ----------------------------------------
	BYTE	W54
	BYTE		N92     Cn3   v092
	BYTE		N92     Ds3   v100
	BYTE		N52     Gn3   v088
	BYTE	W42
// 005   ----------------------------------------
	BYTE	W18
	BYTE		N32     As3   v100
	BYTE	W36
	BYTE		        Cn3 
	BYTE		N32     Fn3 
	BYTE		N32     Gs3 
	BYTE	W36
	BYTE		N22     As2   v096
	BYTE		N28     Ds3   v080
	BYTE		N32     Gn3   v096
	BYTE	W06
// 006   ----------------------------------------
	BYTE	W18
	BYTE		N08     As2   v072
	BYTE	W12
	BYTE		N23     As2   v100
	BYTE		N23     Ds3   v080
	BYTE		N23     Gs3   v100
	BYTE	W24
	BYTE		N92     Gs2   v088
	BYTE		N92     Cs3   v092
	BYTE		N92     Fn3   v056
	BYTE	W42
// 007   ----------------------------------------
	BYTE	W54
	BYTE		N09     Gn2   v096
	BYTE		N09     As2   v092
	BYTE		N10     En3   v100
	BYTE	W36
	BYTE		N07     Cn3 
	BYTE		N07     En3   v072
	BYTE		N08     Gn3 
	BYTE	W06
// 008   ----------------------------------------
	BYTE	W18
	BYTE		N32     En3   v092
	BYTE		N32     Gn3   v100
	BYTE		N32     As3 
	BYTE	W36
	BYTE		N92     Cn3 
	BYTE		N92     Fn3 
	BYTE		N92     Gs3 
	BYTE		N92     Cn4   v072
	BYTE	W42
// 009   ----------------------------------------
	BYTE	W66
	BYTE		N11     Fn3   v096
	BYTE		N11     Gs3   v088
	BYTE		N11     Fn4   v092
	BYTE	W12
	BYTE		        Gn3   v068
	BYTE		N11     As3   v100
	BYTE		N11     Gn4   v092
	BYTE	W12
	BYTE		N56     Gs3   v100
	BYTE		N56     Cn4   v096
	BYTE		N56     Gs4   v100
	BYTE	W06
// 010   ----------------------------------------
	BYTE	W54
	BYTE		N28     Cn4 
	BYTE		N28     Fn4 
	BYTE		N28     Cn5 
	BYTE	W36
	BYTE		N32     Cn4   v068
	BYTE		N23     Gs4   v100
	BYTE	W06
// 011   ----------------------------------------
	BYTE	W18
	BYTE		N11     Gn4   v064
	BYTE	W12
	BYTE		        Gs4   v100
	BYTE	W12
	BYTE		N23     Fn4   v072
	BYTE	W24
	BYTE		N11     Cn4   v092
	BYTE	W12
	BYTE		        As3   v068
	BYTE	W12
	BYTE		N23     Cn4   v092
	BYTE	W06
// 012   ----------------------------------------
	BYTE	W18
	BYTE		N32     Fn3   v064
	BYTE		N32     Gs3   v100
	BYTE	W36
	BYTE		        Ds3   v084
	BYTE		N30     Gn3   v100
	BYTE	W36
	BYTE		N54     Ds3   v072
	BYTE		N36     As3   v092
	BYTE	W06
// 013   ----------------------------------------
	BYTE	W30
	BYTE		N20     Gn3   v060
	BYTE	W24
	BYTE		N32     Fn3   v096
	BYTE		N32     As3   v100
	BYTE	W36
	BYTE		N19     Ds3 
	BYTE		N19     Gs3 
	BYTE	W06
// 014   ----------------------------------------
	BYTE	W18
	BYTE		N32     Ds3   v060
	BYTE		N08     Gn3   v064
	BYTE	W12
	BYTE		N21     Gs3   v092
	BYTE	W24
	BYTE		N19     Fn3   v072
	BYTE		N19     Gs3   v096
	BYTE	W24
	BYTE		N23     Fn3   v076
	BYTE		N23     Gs3 
	BYTE	W18
// 015   ----------------------------------------
	BYTE	W06
	BYTE		N28     Ds3   v072
	BYTE		N28     Gn3   v096
	BYTE	W36
	BYTE		N11     Cn3 
	BYTE		N11     Fn3 
	BYTE	W24
	BYTE		        Fn2   v100
	BYTE	W12
	BYTE		        Gn2   v092
	BYTE	W12
	BYTE		N05     Gs2 
	BYTE	W06
// 016   ----------------------------------------
	BYTE	W18
	BYTE		N32     Fn2   v088
	BYTE	W36
	BYTE		        Gs2 
	BYTE		N32     Cn3 
	BYTE	W36
	BYTE		        Fn4   v096
	BYTE		N32     Fn5   v100
	BYTE	W06
// 017   ----------------------------------------
	BYTE	W30
	BYTE		N20     Ds4   v088
	BYTE		N20     Ds5   v100
	BYTE	W24
	BYTE		N22     Cs4 
	BYTE		N22     Cs5 
	BYTE	W24
	BYTE		        Cn4   v096
	BYTE		N22     Cn5   v092
	BYTE	W18
// 018   ----------------------------------------
	BYTE	W06
	BYTE		        As3   v100
	BYTE		N22     As4 
	BYTE	W24
	BYTE		        Gs3 
	BYTE		N22     Gs4 
	BYTE	W24
	BYTE		N32     Ds3 
	BYTE		N32     Gn3 
	BYTE	W36
	BYTE		N42     Gn3   v084
	BYTE		N42     As3   v100
	BYTE	W06
// 019   ----------------------------------------
	BYTE	W42
	BYTE		N44   
	BYTE		N44     Ds4 
	BYTE	W48
	BYTE		N11     As3 
	BYTE	W06
// 020   ----------------------------------------
	BYTE	W06
	BYTE		N09     Cn4   v068
	BYTE	W12
	BYTE		N32     Gn3   v100
	BYTE	W36
	BYTE		N36     Cs3 
	BYTE		N36     Fn3   v084
	BYTE	W36
	BYTE		N32     Gs3   v100
	BYTE		N32     Gs4 
	BYTE	W06
// 021   ----------------------------------------
	BYTE	W30
	BYTE		N21     Fn3   v088
	BYTE		N21     Fn4   v092
	BYTE	W24
	BYTE		N56     Cn4   v088
	BYTE		N56     Fn4 
	BYTE		N56     Cn5   v100
	BYTE	W42
// 022   ----------------------------------------
	BYTE	W18
	BYTE		N09     As2   v096
	BYTE	W12
	BYTE		N23     Fn2   v100
	BYTE	W24
	BYTE		N06     Gn2   v064
	BYTE		N22     Cn3   v088
	BYTE	W12
	BYTE		N11     Gn2   v060
	BYTE	W12
	BYTE		N12     Gs2   v068
	BYTE	W12
	BYTE		N32     Cn3   v100
	BYTE	W06
// 023   ----------------------------------------
	BYTE	W30
	BYTE		N11     Ds3 
	BYTE	W12
	BYTE		N23     Cn3   v096
	BYTE	W24
	BYTE		        Gn3   v068
	BYTE	W24
	BYTE		N32     Cn4   v100
	BYTE	W06
// 024   ----------------------------------------
	BYTE	W30
	BYTE		N20     Ds4   v088
	BYTE	W24
	BYTE		N32     Gs3   v100
	BYTE		N30     Cs4 
	BYTE		N28     Fn4   v088
	BYTE	W24
	BYTE		N44     Fs2   v076
	BYTE	W12
	BYTE		TIE     Gs3   v088
	BYTE		TIE     Cs4   v100
	BYTE		TIE     Fn4 
	BYTE	W06
// 025   ----------------------------------------
	BYTE	W90
	BYTE		N56     Fs2   v072
	BYTE	W05
	BYTE		EOT     Gs3 
	BYTE		        Cs4 
	BYTE		        Fn4 
	BYTE	W01
// 026   ----------------------------------------
	BYTE	W06
	BYTE		N18     Fn3   v088
	BYTE		N09     Gs3   v100
	BYTE	W12
	BYTE		N16     As3   v044
	BYTE	W12
	BYTE		N19     Fn3   v040
	BYTE	W12
	BYTE		N09     Cs3   v100
	BYTE	W12
	BYTE		N30     Cn3 
	BYTE	W36
	BYTE		N32     Cn3   v092
	BYTE		N24     Fn3   v100
	BYTE	W06
// 027   ----------------------------------------
	BYTE	W18
	BYTE		N08     Gn3   v044
	BYTE	W12
	BYTE		N09     Cn3   v036
	BYTE		N16     Gs3   v092
	BYTE	W12
	BYTE		N40     Cn3   v088
	BYTE		N42     Fn3   v096
	BYTE		N44     Cn4   v100
	BYTE	W48
	BYTE		N30     Fn3 
	BYTE		N30     Cn4 
	BYTE		N30     Fn4   v084
	BYTE	W06
// 028   ----------------------------------------
	BYTE	W30
	BYTE		N22     Gn3   v100
	BYTE		N22     Cn4 
	BYTE		N23     Gn4   v096
	BYTE	W24
	BYTE		N30     Gs3   v100
	BYTE		N28     Cn4 
	BYTE	W36
	BYTE		N92     Gs3   v092
	BYTE		N92     Cn4 
	BYTE	W06
// 029   ----------------------------------------
	BYTE	W90
	BYTE		N13     As3   v100
	BYTE	W06
// 030   ----------------------------------------
	BYTE	W06
	BYTE		N18     Cn4   v068
	BYTE	W12
	BYTE		N32     Gs3   v100
	BYTE	W36
	BYTE		        Cn3   v092
	BYTE		N07     En3   v064
	BYTE		N32     As3   v100
	BYTE	W12
	BYTE		N20     En3   v044
	BYTE		N20     Gn3   v048
	BYTE	W24
	BYTE		N32     En3   v072
	BYTE		N32     Cn4   v100
	BYTE	W06
// 031   ----------------------------------------
	BYTE	W30
	BYTE		N21     Gn3   v068
	BYTE		N21     En4   v100
	BYTE	W24
	BYTE		N18     Cn4 
	BYTE		N18     En4   v080
	BYTE		N18     Cn5   v100
	BYTE	W19
	BYTE		N06     Cn4   v032
	BYTE	W02
	BYTE		N07     Cn5   v048
	BYTE	W04
	BYTE		N06     Cn4   v040
	BYTE	W04
	BYTE		N05     Cn5   v036
	BYTE	W02
	BYTE		N06     Cn4   v052
	BYTE	W04
	BYTE		N05     Cn5   v028
	BYTE	W03
	BYTE		        Cn4   v040
	BYTE	W02
	BYTE		N06     Cn5   v052
	BYTE	W02
// 032   ----------------------------------------
	BYTE	W02
	BYTE		        Cn4   v072
	BYTE	W03
	BYTE		N04     Cn5   v028
	BYTE	W03
	BYTE		N21     Cn4   v040
	BYTE	W02
	BYTE		N19     Cn5   v056
	BYTE	W20
	BYTE		N23     Cn4   v096
	BYTE		N22     Cn5   v100
	BYTE	W36
	BYTE		N11     Ds1   v096
	BYTE		N11     Ds5 
	BYTE	W12
	BYTE		        Cs1   v048
	BYTE		N11     Cs5   v100
	BYTE	W12
	BYTE		        Cn1   v048
	BYTE		N11     Cn5   v088
	BYTE	W06
// 033   ----------------------------------------
	BYTE	W06
	BYTE		        As0   v072
	BYTE		N11     As4   v100
	BYTE	W12
	BYTE		        Gs0   v052
	BYTE		N11     Gs4   v100
	BYTE	W12
	BYTE		        Gn0   v060
	BYTE		N11     Gn4   v088
	BYTE	W12
	BYTE		N10     Cn1   v096
	BYTE		N11     Cn5   v100
	BYTE	W24
	BYTE		        En3   v092
	BYTE		N11     Gn3   v100
	BYTE		N11     Cn4 
	BYTE	W12
	BYTE		        As3   v060
	BYTE	W12
	BYTE		        Cn4   v092
	BYTE	W06
// 034   ----------------------------------------
	BYTE	W06
	BYTE		        Gs3   v068
	BYTE	W12
	BYTE		        Cn4   v100
	BYTE	W12
	BYTE		        Gn3   v068
	BYTE	W12
	BYTE		        Cn4   v096
	BYTE	W12
	BYTE		        Fn0 
	BYTE		N11     Fn4   v100
	BYTE		N11     Fn5 
	BYTE	W12
	BYTE		        Gn0   v092
	BYTE	W12
	BYTE		        Gs0   v068
	BYTE		N11     Fn4   v100
	BYTE		N11     Fn5 
	BYTE	W12
	BYTE		        As0   v068
	BYTE	W06
// 035   ----------------------------------------
	BYTE	W06
	BYTE		        Gn0   v072
	BYTE		N11     Fn4   v100
	BYTE		N11     Fn5 
	BYTE	W12
	BYTE		        Gs0   v068
	BYTE	W12
	BYTE		        As0   v100
	BYTE		N11     Fn4   v096
	BYTE		N11     Fn5   v100
	BYTE	W12
	BYTE		        Cn1   v068
	BYTE	W12
	BYTE		        Gs0   v088
	BYTE		N11     Fn4   v100
	BYTE		N11     Fn5 
	BYTE	W12
	BYTE		        As0   v092
	BYTE	W12
	BYTE		        Cn1 
	BYTE		N11     Fn4   v080
	BYTE		N11     Fn5   v100
	BYTE	W12
	BYTE		N28     As0 
	BYTE	W06
// 036   ----------------------------------------
	BYTE	W06
	BYTE		N11     Fn4   v088
	BYTE		N11     Fn5   v100
	BYTE	W24
	BYTE		N23     Cn1   v072
	BYTE		N11     Fn4   v088
	BYTE		N11     Fn5   v100
	BYTE	W24
	BYTE		        Fn0   v092
	BYTE		N11     Fn4   v100
	BYTE		N11     Fn5 
	BYTE	W12
	BYTE		        Gn0   v068
	BYTE	W12
	BYTE		        Gs0   v072
	BYTE		N11     Fn4   v092
	BYTE		N11     Fn5   v100
	BYTE	W12
	BYTE		        As0   v096
	BYTE	W06
// 037   ----------------------------------------
	BYTE	W06
	BYTE		        Gn0   v092
	BYTE		N11     Fn4   v100
	BYTE		N11     Fn5 
	BYTE	W12
	BYTE		        Gs0   v096
	BYTE	W12
	BYTE		        As0   v072
	BYTE		N11     Fn4   v088
	BYTE		N11     Fn5   v100
	BYTE	W12
	BYTE		        Cn1   v068
	BYTE	W12
	BYTE		        Gs0 
	BYTE		N11     Fn4   v084
	BYTE		N11     Fn5   v100
	BYTE	W12
	BYTE		        As0   v096
	BYTE	W12
	BYTE		        Cn1   v100
	BYTE		N11     Fn4 
	BYTE		N11     Fn5 
	BYTE	W12
	BYTE		N17     As0 
	BYTE	W06
// 038   ----------------------------------------
	BYTE	W06
	BYTE		N11     Fn4 
	BYTE		N11     Fn5 
	BYTE	W12
	BYTE		        As0   v096
	BYTE	W12
	BYTE		N23     Cn1   v088
	BYTE		N11     Fn4   v100
	BYTE		N11     Fn5 
	BYTE	W24
	BYTE		        Fn0   v072
	BYTE		N11     Fn4   v068
	BYTE		N11     Fn5   v100
	BYTE	W12
	BYTE		        Gn0   v072
	BYTE	W12
	BYTE		        Gs0 
	BYTE		N11     Fn4   v096
	BYTE		N11     Fn5   v092
	BYTE	W12
	BYTE		        As0   v088
	BYTE	W06
// 039   ----------------------------------------
	BYTE	W06
	BYTE		        Gn0   v072
	BYTE		N11     Fn4   v100
	BYTE		N11     Fn5 
	BYTE	W12
	BYTE		        Gs0   v092
	BYTE	W12
	BYTE		        As0   v088
	BYTE		N11     Fn4   v100
	BYTE		N11     Fn5 
	BYTE	W12
	BYTE		        Cn1   v068
	BYTE	W12
	BYTE		        Gs0   v072
	BYTE		N11     Fn4   v100
	BYTE		N11     Fn5 
	BYTE	W12
	BYTE		        As0   v092
	BYTE	W12
	BYTE		        Cn1   v072
	BYTE		N11     Fn4   v100
	BYTE		N11     Fn5 
	BYTE	W12
	BYTE		N17     As0 
	BYTE	W06
// 040   ----------------------------------------
	BYTE	W06
	BYTE		N11     Fn4 
	BYTE		N11     Fn5 
	BYTE	W12
	BYTE		        As0 
	BYTE	W12
	BYTE		        Cn1   v064
	BYTE		N11     Fn4   v100
	BYTE		N11     Fn5 
	BYTE	W12
	BYTE		        Cn1   v096
	BYTE	W12
	BYTE		        Fn0   v092
	BYTE		N11     Fn4   v088
	BYTE		N11     Fn5   v100
	BYTE	W12
	BYTE		        Gn0   v068
	BYTE	W12
	BYTE		        Gs0   v088
	BYTE		N11     Fn4 
	BYTE		N11     Fn5   v100
	BYTE	W12
	BYTE		        As0 
	BYTE	W06
// 041   ----------------------------------------
	BYTE	W06
	BYTE		        Gn0   v096
	BYTE		N11     Fn4   v100
	BYTE		N11     Fn5 
	BYTE	W12
	BYTE		        Gs0   v088
	BYTE	W12
	BYTE		        As0 
	BYTE		N11     Fn4 
	BYTE		N11     Fn5   v100
	BYTE	W12
	BYTE		        Cn1   v072
	BYTE	W12
	BYTE		        Gs0   v100
	BYTE		N11     Fn4 
	BYTE		N11     Fn5 
	BYTE	W12
	BYTE		        As0   v096
	BYTE	W12
	BYTE		        Cn1   v092
	BYTE		N11     Fn4   v100
	BYTE		N11     Fn5 
	BYTE	W12
	BYTE		N17     As0 
	BYTE	W06
// 042   ----------------------------------------
	BYTE	W06
	BYTE		N11     Fn4   v088
	BYTE		N11     Fn5   v100
	BYTE	W12
	BYTE		        As0 
	BYTE	W12
	BYTE		N23     Ds1   v092
	BYTE		N23     Gn3   v084
	BYTE		N23     As3   v100
	BYTE		N23     Ds4 
	BYTE	W24
	BYTE		N14     Fn1   v092
	BYTE		N14     Fn2 
	BYTE		N14     Cn3   v080
	BYTE	W18
	BYTE		N06     Fn1   v084
	BYTE		N06     Fn2 
	BYTE		N06     Cn3   v060
	BYTE	W24
// 043   ----------------------------------------
	BYTE	W96
// 044   ----------------------------------------
	BYTE	W54
	BYTE		N14     Fn1   v092
	BYTE		N13     Fn2   v088
	BYTE		N13     Cn3 
	BYTE	W18
	BYTE		N06     Fn1   v084
	BYTE		N07     Fn2   v088
	BYTE		N06     Cn3   v064
	BYTE	W24
// 045   ----------------------------------------
	BYTE	W96
// 046   ----------------------------------------
	BYTE	W30
	BYTE		N05     As2   v072
	BYTE	W06
	BYTE		        Cn3   v076
	BYTE	W06
	BYTE		        Ds3   v064
	BYTE	W06
	BYTE		        As2   v060
	BYTE	W06
	BYTE		N10     Fn1   v092
	BYTE		N10     Fn2 
	BYTE		N10     Cn3   v084
	BYTE	W12
	BYTE		N06     Fn1 
	BYTE		N06     Fn2   v088
	BYTE		N06     Cn3   v076
	BYTE	W12
	BYTE		N23     Fn1   v060
	BYTE	W18
// 047   ----------------------------------------
	BYTE	W18
	BYTE		N11     Fn1   v056
	BYTE	W24
	BYTE		        Fn1   v072
	BYTE	W24
	BYTE		        Fn1   v056
	BYTE	W24
	BYTE		        Fn1   v048
	BYTE	W06
// 048   ----------------------------------------
	BYTE	W18
	BYTE		        Fn1   v080
	BYTE	W24
	BYTE		        Fn1   v044
	BYTE	W24
	BYTE		        Fn1   v040
	BYTE	W24
	BYTE		        Fn1   v048
	BYTE	W06
// 049   ----------------------------------------
	BYTE	W18
	BYTE		        Fn1   v056
	BYTE	W24
	BYTE		        As3   v096
	BYTE		N11     Ds4   v100
	BYTE		N11     Gn4 
	BYTE	W48
	BYTE		N09     As3   v088
	BYTE		N07     Ds4   v100
	BYTE		N09     Gn4 
	BYTE	W06
// 050   ----------------------------------------
	BYTE	W18
	BYTE		N32     As3 
	BYTE		N32     Ds4 
	BYTE		N32     Gn4   v080
	BYTE	W52
	BYTE	W01
	BYTE	GoTo
	 POIN2	findthetruth_14_B1
findthetruth_14_B2:
	BYTE	FINE

//******************************************************//
	ALIGN 4

findthetruth:
	BYTE	14	// NumTrks
	BYTE	0	// NumBlks
	BYTE	findthetruth_pri	// Priority
	BYTE	findthetruth_rev	// Reverb.

	POIN2	findthetruth_grp

	POIN2	findthetruth_1
	POIN2	findthetruth_2
	POIN2	findthetruth_3
	POIN2	findthetruth_4
	POIN2	findthetruth_5
	POIN2	findthetruth_6
	POIN2	findthetruth_7
	POIN2	findthetruth_8
	POIN2	findthetruth_9
	POIN2	findthetruth_10
	POIN2	findthetruth_11
	POIN2	findthetruth_12
	POIN2	findthetruth_13
	POIN2	findthetruth_14

	
